<mxfile host="app.diagrams.net" agent="Mozilla/5.0 (Windows NT 10.0; Win64; x64) AppleWebKit/537.36 (KHTML, like Gecko) Chrome/133.0.0.0 Safari/537.36" version="26.0.15">
  <diagram name="Page-1" id="iX3VdhfKQnh1FnDXVoK2">
    <mxGraphModel dx="1356" dy="1442" grid="0" gridSize="10" guides="1" tooltips="1" connect="1" arrows="1" fold="1" page="0" pageScale="1" pageWidth="850" pageHeight="1100" math="0" shadow="0">
      <root>
        <mxCell id="0" />
        <mxCell id="1" parent="0" />
        <mxCell id="TActPtbIDWR57m0JbV5Q-11" value="" style="shape=image;verticalLabelPosition=bottom;labelBackgroundColor=default;verticalAlign=top;aspect=fixed;imageAspect=0;image=data:image/png,iVBORw0KGgoAAAANSUhEUgAAA0QAAAINCAYAAAAeOb8+AAAAAXNSR0IArs4c6QAAAARnQU1BAACxjwv8YQUAAAAJcEhZcwAAEnQAABJ0Ad5mH3gAAP+lSURBVHhe7L1Xjx1Jmt/9zzwmj/felbcku9nsmZ6e3Z13FxC0A0GALiQIEnSlL6Dv0MAuhAW0mi+hCwErXQgCpJV2RhqN2d2Z9iSbtsjy/lQd712+F4onFJU8ZUgW2cXi8wMCdSozMjIyIjLz+WdEPKGZpmmCYRiGYRiGYRjmPUS3bmAYhmEYhmEYhnlfYEHEMAzDMAzDMMx7CwsihmEYhmEYhmHeW1gQMQzDMAzDMAzz3sKCiGEYhmEYhmGY9xYWRAzDMAzDMAzDvLewIGIYhmEYhmEY5r2FBRHDMAzDMAzDMO8tLIgYhmEYhmEYhnlv0UzTNK0bGYZhGOb7hl9PDMMw1x9N06yb3josiBiGYRiGYRiGeW/hIXMMwzAMwzAMw7y3sCBiGIZhGIZhGOa9hQURwzAMwzAMwzDvLTyHiGEYhrmS8OuJYRjm+sNOFRiGYRiGYRiGYb5HeMgcwzAMwzAMwzDvLSyIGIZhGIZhGIZ5b+EhcwzDMMx7A7/yGIZ5Xd7EnBd+Nl0Or1o33EPEMAzDMAzDMMw7AYnHVxU/4+AeIoZhGOZKMhqNTvx/GS8/fuUxDPO6XMazyAo/m05CZTyurE3ThKZpJ/6qjDvmPK6cIDJN84ULYxiGYd4/rO+CV3nJWbGmyTAM87JcxrPICj+bTqJp2thyHldO1m10nK5ffCDclRJEpmmi3+9LUTRO9TEMwzAMwzAMc70hLTCOcfpAjavrOhwOx6nHW7kSgoguuNVqYXV1FbVaDf1+X17EcDi0HsIwDMNcY6xf+KzD516VK/DKYxjmHeeiRvbLwM+mF1E7R6jMqZzGlRf1KpmmiWAwiKWlJXg8Hmu0sVwJQTQajaDrOg4PD/Ef/sN/wL1799Dv99HpdIA31PDeFqZpnttl9y5fH8MwzGWgvorUZ+JlPx8vS1gxDPP+cp5d9yrws+kk6jvhIr8JXdcxHA6xsLCAf/Nv/g3y+fyZPU3ElRBEg8EAdrsdm5ub+Iu/+Av8n//zf6DrOrrd7oUu4l2AitmqcEnJMgzDvO+oz0N6Vl7285+ftwzDvC6X/VwCP5vGMk78WLdpmibFpK7r0HUdpmnio48+wr//9/8eExMTsuPlLK6UIFpfX8df/MVf4Be/+AUcDgeGwyFGo9HYQniXeBM3DsMwDMMwDMO8D5ylAdQPaTabDaZp4s6dO/jLv/xLFAqFd08QPX/+HP/23/5b/OpXv4KmaXIeEam9d0EYqXljIcQwDMMwDMMwr89p9r8qiOx2uxREP/vZzy4siM7e+5bRNA3D4RA2mw12u11uoy4wm8127gV932hiQheLIYZhGIZhGIZ5PS5i+7+u3X3+Gd4ipmnKcYB0YTRkbjQanRg+xzAMwzAMwzDM+83riiFcNUFkhYbJkRiiwDAMwzAMwzAMcxlcKUFkVXhqLxHOGDvIMAzDMAzDMMz147zOkMvQB1dKEJ0GjR20CiaGYRiGYRiGYZjX4coLIhZBDMMwDMMwDMO8Ka68IGIYhmEYhmEY5v3mtE6S07a/DCyIGOYtQe7jGYZhGIZhmKvDlbPONE07sQgrw1wXyEsiCaPLEEfj0ristBmGYRiGYa4KF9EGr9pbdGWtJl5ziLlOkECxupF/XcalcVlpMwzDMAzDXAXO0wTn7T+PKyWIXvdiGOaqQgKfBNFltfXLSodhGIZhGOaqcl7Pz3n7z+NKCSK6GB4yx1wndF2HpmknhsrZ7XbY7XZr1JdG0zQZKG2bzXbiXDx8jmEYhmGYdxWyZS4iel5VP1wpS+mVL+IKG35nGaZWQ/YiFc28HahObDbbK9eLWudntYNXwSqwxoVXzTfDMAzDMMz7xOtbZpfIyxhwZFTa7XY4nU64XC44nU7YbDbgJdN602iaBrvdLo1rEn42mw1OpxOGYcAwDDgcDjZkvyeoTqj8NU2DYRhwuVxwu92v3ZtjmibsdjsMw4DdbodpmhgMBtZoZ0J5pGF3EO2f2tRoNMJwOMRwODwxT4nnEzEMwzAM865CtsxpHSenbX8ZrpQguugFmaaJ4XAIAHC73UgkEshms4jFYnA6ndIw/L6H3um6Dq/Xi3g8jmQyiVAoBIfDcUIQBYNBZLNZZLNZBAIB6GI41WX0IjAXR+25cTgcCAQCSKfTmJiYQDKZhMfjsR5yKtTuNE2TN7HdbkcwGEQ6nUYqlYLP53upOqb0SFTbbDZ4vV6Ew2H4fD7YbDYphFRBRHnhwOFdDAzDMAyDl9AIr8rFLbK3AH2Zvwij0QiapiEUCqFQKGBpaQnT09MIBoNSUNDXfl3XX3jRvqmg4nK5kMlkcOvWLXzwwQfI5/NwuVwnerdSqRSWlpbwwQcfIJvNwjAMQFT8yxjMzKtBdUbtZTQawel0IpFIYGpqCvPz88hms/B6vS/U71lQO6Z24Xa7kUqlMD8/j6WlJSSTSVnXF4XyaBgGgsEgJiYmMD8/j3w+D7/fD5vNJvN4Vl7pPuPA4aoHhmEYhsFbGPl15Szui4gAKhSbzYZAIIBsNov5+XlMTU0hHA7D5XK9IIrOe8meFue0/09LRzVIHQ4HkskkZmdnMTc3h3g8DpfLJYf12Ww2JJNJzM/PY25uDolEAi6XC5rSs8C8Xag3JxwOI5fLYXp6GslkEk6n0xr1QlA7cbvdJ9oC1fVFhS+1OV3XEQgEUCgUsLy8jOnpacRiMXi9XjkcT2336rFntVuGYRiGYZirzGk2zGnbX4bzLbG3zEUuigw+XdfhcDjgcrng8/mkUagrPUIY87XcaiCOOyelfxbWNCjQcXa7HQ6HAw6HA06nUwZNzPmgfV6vVwolOnZcnpjLR60vGm6maRqcTic8Hg98Pp+sM4qr/h0H1S+1O4pPde31euFwOKyHnQmlR8MsU6kUYrEYAKDdbmMwGJy4Lyio18cwDMMwDMO8yJWylE4zMFWsgkETDgto0jvNLdJELwtNMieDlvaRoWg1GimOuu80rManegylqWmanDyv5pN6BiiOKoZeBkoDitF81VDzdJpIfZVrfxXGTcyjclN75dR2RW2J8qj+PS3fuhDl9Jvq2S6ca6j7z4PimqYJwzAQiUQQDodht9vRaDRQLpfRbrdlOyfUds0wDMMwDHPdOctuP4srZy1d1EgkyNgkg7bf78tJ5YQqTkzhkIH2k2gyxaR1ijMYDGQ8dZ/KOOOa4qjbrN7l6C/lwTxn2BQZw9aysW5Tz33aMefxqsdYf6tlZYryg+WaCdqnlsGr5v80KC1V9ND20xxwWMWF9VhVcFD7Imw2mxwaSddvbQO0/yJoQkz5/X4kEgmEw2F0u10cHx+jWq2i2+2i3++fKF86l5pnhmEYhmGYd41xdhpx1r6LcroVfkUZCWcKqgiC5au9WihUSCRw1O2qoUjGriqCKB0yZtWgpm01lNXtlFcyqE1FHJz2l7CKJDUe/R4Oh+j1eieu7TKgfFqv2Yp6/WqZ6WINHwr0P5UDQeVD16qmQfutwVouZ6HWs5ouXR/la1z7UX9TOuq5rduoN5LaEf0eF3ThTfAiUF6pdyiZTMLtdqNer+Po6Aj1el22AfUaGYZhGIZhmPO5uGX5PaIa0FAM23HGMxnXqsGrK8PYaMiS9Xj1NxnJNEFds8wJUdOmdK2o8Wm/us0mPIJZ828KI5v+Emo+yOCmawOAwWCAXq8nj30ZrGVA/5OIpG3q+Si+tXzU8qD9JIRguQ7q0aBjKA79prgqtM/hcLzQw2LNHxShS/vVc9CQOIfDIdsFXQNEHUGpb8q3aellpDiEmmdVbKnlYI13GlSGdrsdXq8X0WgUwWAQvV4PxWIRlUoF3W6XxRDDMAzDMNeScfagFdr/qrbQOyGIrJCRazXCyfjs9/sAAL/fj2QyiXQ6jWQyiUQigWg0Cr/fD6fTKY1gOo4Kk4x4h8MBwzDgdrsRCAQQiUQQj8cRj8dlOm63+4TRq+bpNDSlhwtjhB0Z2rSN4jscDng8HrhcLgQCASQSCaTTaeRyOSQSCfj9frnO0Xl5sGJtQHS8y+WC3++XZaZCAsRut8PlcsHj8SAQCCAQCEinAabSg0RGO12fuujpuLq02+2y7EOhEKLRKKLRKGKxGMLh8AnPauq1Ul1oQvR4vV4Eg0EEAgE4nU7pzMLj8SAUCiESiSAWiyEYDErPb3S8WhcU6FooUDmFQiGkUinZziKRCPx+PwzDkO1JFcKqoBoHlYeu63C5XIjH40ilUjAMA+VyGQcHB6jX6ydEJR3HMAzDMAxzXThLFNH20/ZfBNtnn332mXXj22YkhhBVKhX8+te/xubmJjRNk8bmaWiahkQigVwuB7/fj1arha2tLVQqFYRCIczOzmJ6ehr5fF565fL7/XJ4GZ1XNSTJCLXZbPD5fHIxzVwuh4mJCeRyOWSzWcTjcSkS+v2+dJygGqYej0eKMafTiWKxiP39fTSbTYxGI7hcLuTzeWSzWei6jr29PWxtbaHdbksjl8SWYRhwOp1Ip9OYnJyUgQRfPB6Hx+OR4qLX650QGC+Dmv9YLIZsNotUKiUn8au9U5ow2H0+H5LJJAqFAqLRKAzDwGAwQKfTeUFMAEA4HMb09DQSiYTMrypyHQ6HnC+TzWZRKBSQzWaRyWSQTqcRiUTg8XjgdDpP9GLR9WpCzPj9fuRyOeTzeUQiEVmuXq8X2WwW09PTmJqaQjweh2maaDabsAl36NlsFk6nE0dHR9je3katVpPXrAmx5XQ6EQ6HkU6nkc/nUSgUkMlkkEgk5ELBg8EALpcLiURC5mFnZweHh4doNpsnxLEKnccm3MtPTU0hl8vBNE2srq5ic3MTzWYT/X7/hd4nlXFpMwzDMAzDvAuQTXcR6KN4Op3GT3/6UwSDQWkfnsU7K4joguPxOAqFAkKhEKrVKorFIrxeLxYXF7G0tISpqSnZOxSLxRCLxeDxeAAAnU4HnU4HI9GDQUOkHA6HXEhzampKiqpMJoNYLIZEIoFUKoVoNIpAIADDMNDv96XxD2GEut1uZDIZpFIpOBwOHB0dYW9vD41GA6PRCIZhSANa13Xs7u6eEER0jS6xwOvMzAzm5uYwOzuLqakp2RtBeQqHwwgGg7DZbDINq1AYh7pdE8PCSOTkcjncvn0bU1NTGAwGODo6QqvVkmVlCs9n8XgcCwsLuHXrFlKpFNxuNzqdDiqVioxHwe/3Y2lpCbdv30YikUCr1UKpVEKv15MCMJFIYHJyEouLi5iamsLExAQymQzi8TgSiQSSySTC4TB8Pp8UFFYRSOean5/Hhx9+iGw2i16vB7vdjsnJSSwtLWFiYgJTU1Pw+/1yTo5pmkin08hms3A4HDg+PsbOzg6q1SpMIeqcTie8Xq+87qWlJczMzCCfz8seong8jkAgIIflhcNhJJNJAMDe3h5KpRLq9fqpgoi2BQIBJJNJzM3NIRqN4uDgAE+ePMHBwQEGg8EJYU91qdY9wzAMwzDMuwrZMqfZNGT74TUE0Ts5ZM4KGYKa6DG6ceMGFhYW4PP5ZC/FYDCAw+FAKpXC8vIyZmdnkc/n5RozNJRJ0zR4PB6kUinMzc1hcXERhUIBLpcL7XYbtVpNevUKBAKYmZnBBx98gMXFRQQCATnvRjXKz0ONo17LSPQi0YKeS0tLyOVyCAQC6Pf7KJfLKJVKJ3o1FhcXcfPmTUxPT0txROe4qLqmRmMKYRQOh5FIJBAMBhEMBmUvFIThbbPZEA6Hkc1mkcvlZI9VKBSS56f07HY7QqEQstksEomEFDSj0UgKmlgshtnZWXkdkUgEmqah2+2iXC6jXC5jOBwiEomgUChgYWEB+Xwefr9f5k1T5iB5vV6kUilkMhnkcjnMzMxgZmYGiUQCDocDrVYL3W4XEDcSlZMqKNTfI2XxVqqXQqEAn8+HTqeDcrmMRqOBTqcDv98vBbXX65XngOIi/jR0XYfT6ZQ9ZZFIBP1+H/v7+zg+PpZintJjGIZhGIZhXp5rY0mNRiMEAgHk83mEQiEcHx/ju+++w9/93d/hN7/5DT7//HM8f/4cR0dHMAxDDsOKRCJyPpEu5mokk0nMz89jenoabrcb+/v7ePDgAT7//HN8/vnn+PLLL/HVV19hfX0d/X4fiUQCs7OzSKfTcg4PGeMEiRz6DUUIkXDSlWFoEJPwo9EoZmZmMD09Da/Xi1qthufPn+Obb77B7373O/z2t7/FV199hcePH2NnZweapqFQKODmzZvIZDJwOp3SwKdeg3GoeYWI2263Ua/XUa1WATHMLRwOy2FqhNPpRCAQgM/nk/NzDMOAz+eDy+VSUgUMw0A4HEYgEAAAKS4h1mny+XzIZrOYm5tDJpPBaDTC7u4uHjx4gC+++AJffPEFvvrqK9y9exf7+/uw2WyYmJjA/Py8FIum4vRAHU6n6zpisRiSySRMMezs888/x69//Wt8++23ODo6kr1U1nJSBZamafD7/Uin05ienkY8Hker1cLa2hru3r2LL7/8El9//TW++eYbbGxswDRNec3UGzQcDuUwy9NQBVE8HofP58PR0RF2d3fRarXG1ue4bQzDMAzDMMzpXBtBpOs63G43DMNArVbDo0eP8ODBAzx48AAPHz7Ew4cP8eTJE+zu7qLX60lnAWoPhSmGWGWzWUxOTkox9M033+Du3bt49uwZnj17hidPnsj0V1dXZU9AIpGQvSKm6KWgvy+LruvwC6cQ+Xwe4XAY/X4fOzs7uHv3Lp4+fYrnz5/j2bNnePjwoczjzs4O7HY78vk8ZmdnEQ6HAUV8nWYwjxNw/X4f7XYbzWYTmqYhGAzC5/PBrriLpnKn7a1WS4qKQCAAv98vRQAZ+MFgEF6vF8PhEPV6Ha1WC6Yy9I6GOZqmiZ2dHTx58gT37t3DgwcP8OTJEzx58gTfffcd7t+/j52dHdhsNqRSKUxOTkqBS3NqVPGpid6ibreLra0tfPvtt7h79y4ePnyI7777Duvr6yfm9FjLaTQaYTAYwGazIRaLYXJyEtFoFK1WC8+ePcN3332HJ0+eyHby9OlTPH78GGtra+j1evB4PHA4HNAtrr5PwxRzqciJRKfTwd7eHo6Pj9Hv98e2q3H5ZhiGYRiGedcZZ/fgjO0vw9kW2TuEKb66l8tlbG9vY2NjAzs7OyiXy6jX66jX69jZ2cHe3h5arZbsxXC5XFIQ2Ww2BINBOTxsMBigWCxie3sb5XIZ7XYb3W4XrVYLjUYDh4eHcrK90+lEPB6XAoR6PShvF4GMduqN8Hq9SCaTiEQiAICjoyPs7Oxgf39fDsvq9Xqo1+s4ODjA9vY2isUiOp0OvF6vnL9EntNI9NB5VMOcAgkJEnXNZhPVahXNZhMulwvRaFR61tOEYwGPxwO3241er4dqtYparQZN9KKow+Y0TZOCiIYzNhoNNJtNOaSR1tlxOp0olUpYW1vD1tYWisUiSqUSKpUKyuUyisUidnd3sbGxgcPDQxiGgWQyiVAoBLfbLa9TvUbaViwWsb6+jv39fSnIqtUqWq3WC/VB+abyGolhjKrHt2KxiGfPnmFra0sulErlcHBwgK2tLdRqNZkeiZbT2gXl1SaGIqbTaXi9XlQqFRwcHKDZbMoeMDWPDMMwDMMwzMtzbQQRxBf8crmM/f19VKtVDAaDE0boYDCQ4kgXPRsO4R5a0zS43W5EIhE594bmq4zEJHqXcC3tcrlgs9nQ7/fR7/fR6/WkVzSfzwebzSY9sV0ENY80vE0TvRmRSAQulwvNZhPlchm1Wk16tdOFK2673Y7RaCSFUb1eBwAEg0GEw2H4hTc8XfQ6UfB6vVK0kGtrchVNAqDT6aBYLKJarcLlciEYDMLtdsv8GoYhHTr0ej2sra1hb28Po9EIHo8H4XAYhmHANE3YbDbpmpvmZJXL5RM9RKFQCF6vV66zs7+/j0qlIudl0ZA8TdPQarWwv7+P/f199Ho9BIQrcq/XKwUHCQsSM61WSwqqTqcj0yURollcbdN2iOF+1BsWjUYRDocxHA5xdHSE4+NjOW9IrUsadlir1aSjC0qf/lqh6wyHw8jlcrJ3kNo1uZXHS4hthmEYhmGYd5mL2Dyv+oH4Yhb7O4AmhnjRV3QSBZroFRgOh+j1euj1euiLBUHtyiKtmqZJgzoajULTNHQ6HWiaJj3ZkdOAQqGAVCqFeDwOr9crhY9hGPB6vVIw4SWGMKmiiAx5tYelWq3i8PAQlUoF/X5fxqO4o9EI3W4XxWIRBwcHGI1G8Pl88Hq9cghZMBjExMQEbt68iZs3b2JpaQk3btzA4uIiFhYWsLCwgPn5eUxOTiIYDMoyLZVKKJVKMk3qcSLRk06nEQwG0e12sbu7i729PXS7XSlwPB6PFCYkxobDISqVCiqVCjqdDux2O4LBIKLRKFwuF+r1Oo6Pj1Eul6XIcDqdslfPZrNJBwbHx8dotVowDAORSAQ+n+8FkQPhxODw8BD7+/uo1WpyHpRallbU4/v9PpxOJ0KhEILBIAzDQKfTwdHRkRQ7UBZj1XUdw+FQijDyLki9a8S48zqdTiSTSUxNTcnesu3tbSmITEWsURsflw7DMAzDMMy7znk2znn7z+PaCCJd1+XwsW63K41EMoxHYv4HhJFLX+pVY5LcI+timFUgEEChUMDS0hKWlpawsLAgPc/duHEDS0tLyGaz8Hg8UiDYxdo0JIjwkpVEcTVNkz0Smqah2WyiVquh1Wqd6PmCuHYysjudDkqlEvr9PnQxZ4d6VILBIPL5PG7evInl5WV5DfT7xo0bmJubQzqdlkP/RsL7W7PZlPNgIpGIHDbn8XjkPCzqxaIhdgDg8/ngFouvqj1M3W5XDlOj4V9O4cqa0mq32+j1evJ6VXGiCbfsvV5PDmWk6zUMQwoStR2Ypol6vY5GoyG3EVSephAadA61nKm9uN1uuFwuWd71el322lB7ozqBGD7ZbrdPCFmIelP/JzQhHmkhWhq6eXh4iHa7/cJ5KJ+jU+aHMQzDMAzDvKuo9t9pnLf/PK6NINI0DYPBQE56JxFABi4VFP0l72NQ5myQIQzxhT4s1o1JpVLyL/2mxUppfg/NGaHzO51OmdarQga4aqBT/inPaoC4LhIYBBneEJ7cKE3qIaNhaDR8kOKSaOx2u3JImEusiUTDCmkIYa/Xkz0+zWZTio6w8Ezn8Xjg9/vlgqqdTge1Wg3dbvcFMUJCwir8VIOf6hbi+qziQBciWL1BrALYHOPwQi1LWISSJoQ01bGu63L44mAwOJE2HWMqQsV6LapoVs9J86zS6TRcLhdarRYODw9RrVblcer1q2WitmGGYRiGYZh3HautdhaqrfUyXEvraaSszUKGLAXTNOWXetqmGtQkHnq9HsrlMvb29rCzs4Pd3V35l37TvrW1NTx79gxra2s4Ojo6YeS/LHScLoZbUa8WCRcSDOOMdohhXT1lgVIyxkejEWq1GnZ2dqT3vUePHkkPa+S17fnz59jd3UW1WpVzk1qtFo6OjlAqlWCz2eSCo9Tj43K50O12pYOCVquFWq2GnuLNj0IgEIDNZkOr1ZLOAVQDfzBmoVFN9JhooleIxAWJPioLU8xTUq+d4tA2FUpbRS1Lax2SyIJYvJfyQPlR25j1fxKpat5IRMGSF4dYLysej2MwGOD4+BjFYhG9Xk+eHxbBRfmzXg/DMAzDMMy7jNUeexNcG0FEhWUKo9paeKqhSPtUI5SEBn21b7fb2N3dxcOHD3H37l3cv38fd+/exd27d3Hv3j3cu3cP9+/fl+Liu+++w+PHj7G9vY1GoyGFjHoeq7E6bpuaNzLorYY/iYJxx9I1kMGuiqpms4nV1VXcv39fiiC6Jrquhw8fYmNjQ3pF08Q8okajIefdBMUCraFQCPF4HIZhoNvtotFoSA985ERAE3OhEokE4vG4HC5XKpWk4ws1/3SttC6UpswFIgFAvTJQyoQEBokGNf5ZULxxZalCdUVp0m8q73HpaELIUa/cUHHgoPbkqHXuEJ72aCHX4+Nj7O7uyt5HOr8qxNSgCiaGYRiGYZh3HatNZuW8/RfhWgmicV/PrYas1WglwWEKIaU6XaA5MYeHhzg4OJB/Kag9Rbu7u9IbG/V6EFZj24p1v5pf6lkgb3KqUCDommw2GwzDgMfjgWEYUiTQ/JbhcIhqtYpKpSI9n5HXPQqlUkkKOjLA+/2+FDrdbhdutxuBQADhcBihUAimaUr32b1eT7ombzabME1TutKm4XLU+9YSi4tS+dNwP4heEpqLRb0+1gZvt9thGAYMw5ACsNvtyjKzltNZWNO3/lbTGQwGMu8ulwtut1sKHLoWancQYpuGJ1I89TcUweX3+6XTjuFwiN3dXRwcHJyYo2QqbZ3+XvQ6GYZhGIZhmJNcO0FkNZoJq6FKBiQN0RoOh9KoHw6H0tC12+0wxRA6SoOMeOqlcDqd8Hg8cj0ecnH9KlD+TSHQ2u02hsMhvF6v9PBmFwujqnE1sSaQz+dDLBaD0+mUDgco72Q8q8PR6H8K1NsBi5HdaDRQqVTQbrelB7RsNotAIIDBYCC9qJGoqdfrKJfL6Pf7CAQCiEajCAaDsIvFW9W4JGBoEdh+v3/CPTeVpSpwNNGb4vF44PV64Xa7YZqmdLBgFUTjBMO4bSrj2pKu6xgMBrJ3i5xKGIYBiCGLUNIm0ebz+eD3++FwOE6ITYLqj1xtezweHB0dYW9vT3oWpHIwx/QMMQzDMAzDMK/Gq1nt3zOnGbJkHJKxr361V8US7SdxQ8c2Gg3U63U51CsSiSAajUojVk1nJCa3+/1+5PN56a7a7/dLgfWyWK+rVqtJN8vkktrr9cJms2E0Gsm5UJQvp9OJRCKBRCKBvnCXXalUZK+JqTiYoGNOC1SO1LPR6/XQaDSkl7NEIoF8Pg+/349msyndZ9M1tNtteW63241YLIZQKARd11Gv19FsNmU5UdmSe+p2uw2Px4NkMol4PC7ddsMibJ1OJ6LRKBKJBGw2G9rtNkqlEppiodezoDag/o9zeoqIvnDv3mq14Ha75ZpELpdLOqagnjmbWFw1EokgEAhIMau2T6oXr9cr6280GslFeKk3itqsNU+q8GMYhmEYhrmOnGbrnLb9ZXgnBdFZnGfkWo1dCrquS29qh4eH6HQ6iMfjmJycRCKRgCEWF6WgaRp8Ph/S6TQWFhZw69YtTExMSOPdanC/CpVKBTs7O6hWq/B6vSgUCpiYmEA0GpVzUyCGX7ndbqTTaUxOTiIajaJer2NnZwfFYhFdxQ05CSP6DUUwUqBt1HNDc2Col2gwGEgPfA6HQ64XRM4chsMhut2uHJpHwoXyrQo9KnsSRHt7ezg8PMRwOEQikcD09DRSqZRcDHYkhKjX60UqlcLk5CQymQw0TZNDGqmX6bR6x5ibx7rfipoOeX07OjqCpmkoFAqynVAvmE3M4/L7/chkMgiHw7ALJxXUE0fD5kwxFykSicg2VKvVsLGxgePjYwwUD3bjsF4LwzAMwzAMc3HeSUFEggQWV8z0vxWKT8FqKKvbqtUqdnd3cXh4CJfLhYmJCSwvL2N2dhbJZBKxWAyRSATpdBr5fB4TExPI5/OIRqNy2JQqJsjgJVTjVTVyNYtHuOFwiHa7ja2tLayvr6NWq8Hn82Fubg5LS0uYmpqSrr/T6TTm5uZw69Yt5HI5aJqGUqmE/f19OadJs7jv1i2e9dRAhrpaxgBQr9dxeHiIer0OwzDgdDrlwqQklOg6BoOBFFBDMeTP4/Gg3++jVqudcDxB5+r3+yiXy9je3sbx8TEcDgdyuRwmJiaQSCQQDocRjUYRj8eRy+WwuLiIyclJeDweVKtVuXCpKvpI5Kl1rLYDtS5gEckUj46n/d1uF+VyGbu7u2i1WlLI5HI5JBIJRCIRxONxWTexWEwu4toX89PUc+i6DsMwEIvFEI/H0ev1sLm5iYODA5gWt/Fqninfap4ZhmEYhmGYl+OdFESwDDlShcQ4QQSLCCDjURc9E6px2mw2sbGxgcePH+Pw8BCBQAC3b9/Gj3/8Y3z66ae4ffs2bt68iTt37uDOnTuYnZ2F1+tFq9WSDglUoxeKoKA80nabzSaNd1WEqMPIyuUyVldX8fTpU/R6PSQSCXz44Yf40Y9+hA8//BAfffQRPvzwQ/zgBz/AwsICXC4XSqUSVldXsb6+Loex0fVRoDJR82Q1rCkeCQLqQTs6OpKCj4bL1ev1F9Ls9Xqo1WrSuYJpmmg2m3IIGNUB9XZpmoZarYa1tTXp6S4cDmNhYQE/+tGP8Omnn+LHP/4xbt++jQ8//BBzc3MIBAJot9vY29vDxsYGGo0GYJknRfN1horTBrUdUN3QtVJ82jYcDmVbIY6OjrCysoKVlRW0Wi2kUiksLS3hzp07+OSTT/DDH/4QH3/8Mebn5+HxeNBqtVCtVtHtdmX7oLTtdjsymQwWFhYQDodxdHSE9fV1NJtNeQ0UX607CmodMgzDMAzDXDdUu+xN8E4KIjICIQxKcvNMYsSKajwOxYT/Vqslv9irPQrdbheHh4dYW1vD06dPsbu7C13XkU6ncfPmTdy8eRMffPAB5ubmkMlkYLfbsbe3h9XVVezs7KDVasm0NE1DS6zL02630Wq1ThjDANDtdlGtVqVoIIFARvBgMECpVMLz58+xvr6OSqUCwzCQy+WwtLSE5eVlLC8vI51OQ9d17O7u4smTJ3jy5AmKxaIsDzVP6v/jgop63EgMa6tWq2i326jX6zg6OkK9Xpe9Q6rQoB6fw8NDFItFHB0d4fj4GK1W64QwgRAiuljotFgsYn19HSsrKzg6OoLdbkehUMDi4iJu3ryJ5eVl5PN5OJ1OlMtlPH36FCsrK3KoI0HD0vr9PqrVKhqNhmwjVM50vWq5DIdD9Ho91Ot1KWLomkZCdNPwvgcPHmBtbQ2maSIQCGBqagpLS0uYnp5GNpuVc6z29vZQKpVQKpVkmZEY8nq9SKfTyOVy0HUdBwcHODo6OjEPylovDMMwDMMw7wNko71JbJ999tln1o1vGzKGK5UKfv3rX2Nzc1OKl3GFQOKGjjPFvI69vT3s7e2h3W6f+KJOQe2JaDab0n12tVo9IVJoLky73UatVkO320W325UupUejEbpiLZ2NjQ25KCvN14EwxmnOyFC4uyajuNVqYTAYSIO82+3i6OhIuu6mNChPI+GBjYQcuQbvdDoYDAZy2Nr29jYeP36MZ8+eoVgsYjAYSOExrhxVMUBiRi0vVSRAGQo4FMP5yO14sVhEq9U6ka4mRCvls1ar4eDgAJubmyiVStI5AwkQEhwQIpeEF8Wlc3Y6HVkWBwcHePbsGZ4+fYrt7W3U6/UT6eiiR1ATvVv7+/uy52lcXq2MRA/d/v4+jo+PTzhroLJotVqoVCpoNptSYHfFIrWVSgW7u7vY3NzE/v6+7B0rFovY2dmRQjIYDKJQKCAQCKBYLOLBgwfY3d2VbQQsiBiGYRiGeU8hW+4ithB9aE+n0/jpT3+KYDAobb2z0MyLpP6GGQwGsNvtWFtbw5/92Z/hN7/5jTRiT7sAEkJ2ux1+vx9ut1v2BJCbaYIK0W63w+VyIRAISGN9NBpJw5TSHAwGcDgcMAwDdrsdgUBAukym/IzEkLBmsymFito75XA4ZC9EMBiE0+lEu92WntqGwyEcDgfcbjd8Ph8AoNPpoCnW8jHFMDqrUPH7/YhGo3C73dCEyKMei06nIwUXiUkSCKrAIdSqp/OYopdK3aeWpU2sdeT3+6HrOjqdjhSKdB4SOJQmucbWdV3OHVJF38gyR4caM60v5PP54PV6YRfrMEGIpna7Ld190xBDOqcaXC4X/H4/TNNEvV6XopbKhtKjPGjCg10gEIBNeK+j6xwp7rxJrIxGI/h8PkSjUekmnAS02kOoplmv19HpdGCaJsLhMPL5PCKRCKrVKlZXV1EqlWR5m7zgKsMwDMMw7ylkF5LtdhZ2sVzOnTt38LOf/QyFQkHabmfxzgkiyq765ZyMYEpLjQdh4JKxbBcewEi8OJ1OKYxICJA4IuPbJoZekfjo9XqAUugkAKg3xhTiSxPzV2xifhDFgzIvhYQKGec2mw0DZQ4LGfV0DTbhvUwtF03pTaPeIzonnes06NxqPqgcCPqt/iWxNhTDvii/lE81PuVFF0PibMrcKTWe9RgSA2r5qHVtClFL8U0hHKhs6Dro3Gp5UFxCPQ5KrxnlR60v2qYLwTsSvUV2ZdHcvvByR72ENEzPbrfD4XBgJIZDUnukRWhNMc+q0+nItCh/DMMwDMMw7xtkC5EteBavKojO3nsFsRbKSPQwqMPD1HgqphA7XWVdHuotoP1Qjh0KxwE07IsM1YFYY4Z6Dqh3giChQOKM4lN6pmWY1lCZ7E/Hk+FP8Sj94XAo89JqtdBsNmW+aKigakibFi9llDYF2kZxoSjwcQ2PjiMRAKWc1HyqUP1QWZPgOw1Kh+q03+9jIBYz7ff76PV6MqhlqNajKQQqpUO9WFT3465R/V89/8jSg2WNQ2nRcDlqE0MxF4naAcVpK4vHjkT7oiF2tVoNAzEfy1ovDMMwDMMw7xtWe+1N8M4JIoIKxmrcj2NcAaoigaA01R4IMlrVytAsw9go7mlQvHHnpP3W3gfaPg5NDNeiHgpd6UWi/VCu57Kg/NH1qNd/GmqeTotvTY/Oo56LrlW9XvrfeuxpgTitXKxlbz1O3UdY2wTVA/1Wj7GmZyqiTd2m/q9dcMwswzAMwzDMdeVN20LvpCCyGolklL5sYZ0Wn4xW2q+mTwJJNVovgjV/ZByraZ+WHyvWY8Yda91n3f+qjBMIp2E1/i+CVTiQGFXLXQ0XTfdVGZf+uG14xTKnnkQ1mKfM+WIYhmEYhnkfedM20TspiHBGwZy1nfadFodQDVL1t9ordF4aVwEyyC9imF8l1LJVy3tcuEzGpXfRbZcNneNlhTfDMAzDMMx15E3aX++sILKiGsgkYtR9r8KbMLqZi/F9lL0qHM/q5Rm37bI56/wMwzAMwzDM5XFtBBHEvCD6oq7O4SDj2iqULoJVaL0Jxp3jZfM5DkpXDczpWMvKGqzxTsN63FnxrXEoHoshhmEYhmGY/8ebtIuujSAyxTwTm3BLTRPu1fk+b7IgL4t3IY/XkXGiZdy2twm3BYZhGIZhmDdvE10bQaQJV9AOhwMej0euA6ROvv8+jdv3CU1xevF9iwqGYRiGYRjm3eVt2JLXShBBLNAZCAQQCoVgGIZ0y6zGYd4s1HA14R6c6uBNq3uGYRiGYRjmeqHalW+KayOIaJFQTdMQiUSQy+Xg8/ngcDhOrA/DRvmbhRqr3W6H0+mEYRgwDAN2u/3EWkkMwzAMwzAMcxW4NoIIYnyhrusIhULI5XLw+/0vLJDJRvnlo5anJtyTO51ORCIRFAoFTE5OIhaLwTAMLn+GYRiGYRjmwrwNR1PXRhCRkU3GeCAQgN1ul3OHqDDfdJfb+wiVp1q+LpcLk5OT+PTTT/Hpp59iaWkJoVDoRG8dwzAMwzAMw5wFiaE3KYqunSAaJ3isYuhNFuj7jFq+fr8fuVwOH374IT755BMsLy8jHA4DQrQyDMMwDMMwzFXg2limqhCyiiL1N4kjFkWXj1qmLpcLXq8XkUgE8XgcXq8XDofjRG8SwzAMwzAMw1wEa4fHZXKtBBENxVID8/1APXJ2ux02mw0QPUOmWC+KYRiGYRiGYa4C10YQYUwvEZQFW9VtzOVjFaCmcHDhcDjkXC4aKqcOX7SGl8V6vDWch7W38GWPPws63noOhmEYhmEY5upwrQSRFXV4HBmkr2vkMi9iFQ9W45/2X0QYvM36uUierG3orLgqFM96rDUwDMMwDMMw3y/vhSCi36PRiIdrvSHGGfdWcUN1QHHP6o2x/k/brGHcdtpm/WuNAzGMTw3WOOq2cVj3qeczRa+YujjtaekwDMMwDMMw3w/XWhCRUWoVRszlooocwhTD4mjekCoQfD4fYrEYstksCoUCcrkcEomEXDfqPNFAwsIwDCQSCUxNTckwMTGBTCaDRCIBn8934hj1r2maGA6HsNvtcLlcCAaDSCaTyOVyyOfzKBQKSKVSiEQi8Pl8cmFZK2p6pmnCbrfD7/cjHo8jk8nI9JLJJPx+PxwOh4zPMAzDMAzDfP/YPvvss8+sG982o9EIuq6jUqng17/+NTY3N6FpGobD4bnGMUHGqsvlQjabRSAQwNbWFo6OjqSxajW2T0ubDHjm5aF6CIfDmJycxOzsLOx2O7a2trC2tobRaITp6WncvHkTN2/exK1btzA9PS090ZmiF2kwGFiTliLC6XQiGAxiamoKH3/8Me7cuYPl5WUsLy9jcXERExMTSCQS0DQNrVZLtqPRaCSFGQDY7XZ4vV4pqj744AMsLS1hZmYGi4uLyOVyCAQCcLvd6PV6GAwGGAwGL7Qh0zRhs9ng9XqRTqcxNTWF27dv44MPPsD8/DwmJyeRSqXgcrmkEOOeSoZhGIZhmMuF7NB0Oo2f/vSnCAaDF7LrNfMKfKoeDAaw2+1YW1vDn/3Zn+E3v/kNNE1Dt9s99wIIm80G0zQRCoXwwx/+ELlcDn/3d3+HR48eyaFyNGwJZ4geEk/j9r0sl5HGVeIiTcXhcMA0TUxOTuInP/kJ/sk/+ScwDAOff/45vvnmG9jtdiwuLiKfz8Pn88Hj8WA0GqHZbKJcLuPhw4f4+uuvsbq6inq9juFweCJ9n8+HfD6PxcVF3Lx5E9lsFn6/X55b13X0ej3UajVsbm7i22+/xf3793F0dIRWqwVd12VbSCaTSKfTuHPnDiYnJ5FIJOB0OmVag8EAR0dHOD4+xr1793D37l3s7u7K9kT1q+s64vE4ZmZmcPv2baTTaWSzWbjdbpimiX6/j06ng4ODAzx79gxPnz7F2toaKpUKut3uhcqVYRiGYRjmfec8m4kced25cwc/+9nPUCgUZMfLWbx3PURqgai9BYT1f+b/YS0bKj/6q4v5MqPRCJFIBBMTE1hYWIBhGOh2u/D5fJibm8PExAQAoNFooFarYTQaIRqNIpfLIZlMwmazoVqtolarod/vy3M5nU5MT0/jD//wD/GTn/wEc3NzsNlsqFQqODw8RLVaRb1eh67rSCaTmJmZQTKZRK1WQ7FYRLPZlG0tFArhxo0b+OEPf4g//MM/RDqdBgB0Oh0MBgN0Oh0YhoF4PI6JiQn4fD60220Ui0UMBgOZjq7riEaj+Oijj/AHf/AH+PTTT5HJZGCaJqrVKhqNBmw2G4LBIHK5HHK5HDweDyqVCprNJgsihmEYhmGYS+JVe4jeO0GkpqcKIopzmVCa1yXgjF4v0zJniATR3NwcvF4vPB6PnNOzt7eHL7/8El9++SXu3r2Lvb09DAYDeDwe5HI5RCIR9Pt9HBwcoFQqAaIHMBQK4aOPPsL/9//9f5ienkalUsGjR4/wu9/9Dt988w2+/fZb3Lt3D5VKBW63G/l8HtlsFs1mE8+ePcPx8bE8T6FQwB//8R/j008/RSQSQbFYlMc/evQIjx8/xv7+vhQzgUAA7XYba2traDabGAwG0HUdwWAQy8vL+JM/+RPcuHEDhmFgZ2cHX3/9Ne7du4fHjx9jd3cXvV4PgUAA6XQakUgE9Xod1WoVlUrlhV4whmEYhmEY5uVhQaQIokwmg0AggJ2dHRwdHcn9JIgoLv3Wxngvu4xA57jqQS0Da3lY/4fSU6QKpXGCiOYQBQIB6LqO4+NjfPfdd/j973+Pb775Bs+ePcP29jaKxSIajQYGgwFSqRTi8TjsdjuKxSL29vYwHA5hGAZSqRRu376NhYUF9Pt9fPXVV/j973+Pe/fuYXt7G1tbW9jZ2UG1WoWu65iYmEAsFkO9Xsfq6ip2d3fR6XQQj8cxPz+PH//4x5idncXm5ia++OIL/O53v8P9+/dl3N3dXTQaDXQ6HYxGI+zt7WF9fR21Wg3dbhcOh0MKqx/+8Iew2+347rvv8MUXX+CLL77A6uoqNjc3sb29jXK5jF6vh0gkgkQigW63i8PDQxwdHaHX64GgMmYYhmEYhmFeDhZEiiBKp9MIh8M4ODhAtVqF3W6Hw+GA0+mE0+mEy+U68b9hGJce3mTalx1cLpf863a75W/63+l0wuFwyPlBuhgaZ+010jQNdrsdEE4VJiYmMDMzA7/fj3a7jQcPHuB3v/sd7t27h52dHfT7fQyHQ9RqNbTbbTQaDcRiMWQyGfh8PjQaDezs7KBWq0HXdQQCAYRCIQwGA2xsbOD3v/89nj59ikqlglarhdFohH6/j263C4/Hg7m5OeRyOdRqNayurmJjYwOtVksKoo8//hjhcBj379/H3//93+PJkycolUpoNBro9/toNpuo1Wo4ODjA3t4eNjc3sb+/j0ajgeFwiGAwiE8++QR/8id/gkwmg/X1dfzyl7/EvXv3sLGxgXq9jmaziUqlglqtJgVRPp+HzWbD4eEhtra20Gq1TpQl/WYYhmEYhmEuDgsiUQCGYSCXyyGVSqFSqUAX80Vo2FMgEIDf70cgEDixLRgMXkpQz2Xdd1UD5Zn+WoPX64Xf74fdbken05HOKUaKpzTqQbLZbACAUCiEQqGApaUl+Hw+7O3t4euvv8Z3332Hg4MDtNtt6KLXjhpqu92G3+9HPp9HKBRCu93G+vo6yuUyut0udF2XAmV1dRWrq6uoVqsYDofo9/tSuDmdTsRiMXzwwQfIZDIol8t4+vQpVldX0Ww2EQgEkMvl8OGHH8Lv96NYLGJ3dxelUkkOXyNR0mw2USqVcHBwgOPjY/R6PTmvKZfL4Y/+6I/w4YcfQtM03L9/H3/3d3+HYrGI4XAoe9eobeq6jkgkgkKhAJ/Ph+PjY6ysrMh5VOp5GYZhGIZhmJfjVQXRtfQy9+mnn2J5eRlra2uo1Wpyor/6FZ6MVViGgL0u4/I7bttVgvJ3Wj6HwyGGwyEODg6wsbEhHQ8Mh8MTZaYJxwej0QhTU1P4yU9+gn/6T/8pAoEAvvjiC/y3//bf8OWXX6JSqZxwSmCz2eBwODAajfAHf/AH+Ff/6l9heXkZT548wX/6T/8JX3/9NY6OjqCJHigSZP1+H4PBQPZqBQIBOJ1OeDwezMzM4J/9s3+G5eVl3Lt3D//lv/wX/PznP8fx8TEymQw++OAD/PN//s8xPz+PSqWCJ0+e4Msvv8TOzg7K5bLs0Wm1WtKJgmmacLlc8rrv3LmDf/Ev/gV+/OMfo9Fo4H//7/+Nv/7rv0atVoMmBCLdhLquw+/34/bt2/gH/+AfIJFI4O///u/xH//jf8SzZ88wGAxgKkMQGYZhGIZhmJOcZyexlznR0+B2u5HL5RAOh1EqlVCtVtHpdNDtdtHv92WgXoV+vy+/+tPf1wm9Xu+FYI1z1YI1v6eFarWKZrOJvhAi4wx4EqaRSATT09NYWFiApmlYX1/H/fv3sbGxgX6/f0LckGgYDAZIJpO4ceMGcrkcGo0Gnj59is3NTdl7Q+e02WxwuVwIhUJIp9MoFApy/aDFxUU5XI56Yh49eoTV1VUMBgMp2vx+PzweD/x+P2KxmJzfE4/HZY+Zy+WSNxG1Sbrm2dlZ/PCHP0Q6nUZfDLGz2WxIpVLI5/NygVdafHZmZkYu0ur1erG3t4cHDx6gVCphJFx5MwzDMAzDMK8G9xDZbBgOh4hGo/jkk0+Qy+Vw//59PH/+HKPR6MQQJor/JlCHPlEPAa743JDTypjya5omHA4H2u022u02IOrMKog0TZM9PTMzM/iTP/kT/ON//I/h8Xjw29/+Fv/1v/5XfPvtt7LHxWazyd4eu92ObreLjz/+GP/6X/9rfPLJJ9jd3cVf/dVf4Ve/+hU2NjbkXLBgMHhCvNAQOxraZxgG7HY7kskk4vE4nj59iv/8n/8zfvGLX6Ber8Pj8cDpdOKjjz7C0tISlpaWEIvF4PP5MBgMUCqVUKvVUK/XsbOzg83NTezu7uLo6AjFYlEOG/xH/+gf4V/+y3+JpaUl9Ho97OzsSLfcatlpYnih1+uFy+WCz+eD2+3GN998g7/6q7/C06dP0el0rmz7YBiGYRiGuQqcZytdix6icrl8oR4iVWQQ1EPk8XiQzWbh8Xjw/PlzrK2todPpoN1uo9VqyUDGfbPZfGHf64Z2uy3PSWk3m80X4r0rodPpoNVqodfrSRGkKV7nSGjS8DfTNBEOhzE5OYnp6WnY7Xasr69jZWUFxWJR1hmlQcf2ej2kUil89NFHSKfT6Ha7ePjwITY3N9FqteB2uxEKhTAzM4OPPvoIn3zyCZaWljA9PY1EIgGbzYZer4eKWPA0FAohFAqhWCzi8ePH2NzcRLfbhc1mQ7fbRbvdlr2I5HzD6XQiEAggkUgglUohk8kgmUzC5/Od6CWz2+1YWFjAzZs3EY1G0Wq1cHh4iMPDQ3Q6HdkzSH+ph7LRaKBUKmF/f1/OgyqXy3LuEsMwDMMwDPNqvGoP0dly6R2GeoWoB0L9Ym+appwXc9mB0qcAZc7Suxqo/KyqXL0+amjWeGqZ2O126EI0qYGOo3Ki9Pr9/onePb/fj7m5OXz66af4gz/4A7nGUblcxpMnT/D111/jt7/9LX7+85/j888/R6lUOlH3muipoflPlUoF6+vr+PLLL/GrX/0Kv/jFL/C//tf/wtdff43nz5+jXq8jGAxicXERP/jBD/CDH/wA2WxWDrkzTROj0Qi9Xg/7+/v45ptv8Mtf/hK//OUv8fOf/xx/8zd/g7/5m7/B//yf/xM///nP5d+/+Zu/wX//7/8dX375JQ4ODtAXThoYhmEYhmGYt887LYisBjpt05TeJdWoH6cOx217Hcj4Vw3mdz2oIod+n7aNUMvbZrPB6XRKQUT71XoZiSF05K4cgOxp6fV60DQN0WgUN27cwJ07dzAxMYFGo4GHDx/ib//2b/GLX/wCv/rVr+QaR+vr6+h2uzL/lM9utyuHtPV6PdRqNezu7uLJkyf44osv8Mtf/hL/43/8D/z1X/81/vZv/xYbGxsYjUaYnJzE7du3MTs7i2AwiNFohG63i263C9M00el0sLW1hfv37+Prr7/GV199hS+//BJfffUVvvnmG3z11Vf44osv8PXXX8v9q6uraLfbJ/LIMAzDMAzDvF2urCCiL/vjgop132lhXHwVMswvM7ypdN92oOs4rfxO2wYADocDhmEgFotJJwXWsjdNE/1+Hy6XC9FoFIFAAKZpolaroVKpYDgcwuv1IpVKyeFxg8EAq6ur+Oqrr/C3f/u3+Pbbb7G+vo79/X10u114vV4YhgFY8g6LQDMMA7quYzAY4Pj4GLu7u3j8+DF+//vf45e//CU+//xzbG1tweFwIBaLIRaLwePxQNd1HB0doVKpwBRDBH0+n8x3vV6XwyYHgwF6vZ78bYq1nNS5RgzDMAzDMMz3w5UVRK8CGb5nQQboReIyL4+pDH2DmNzmcDiQSCQwMTGBeDx+QqiQkLLb7YjFYpiZmUEkEsFgMEC5XJZr/7jdbgQCAUQiERiGgUqlgrW1NaytrWF3d1fOBTNNE/F4HKlUCj6fD5pw9ED5sdls8Hq9SCaTco5TOByG0+lEq9VCvV5HtVrF8fEx1tbWsLm5iaOjIwwGA7hcrhM9XaVSCbu7u+h0OnLB1XQ6LYXRcDjEYDCQPVUulwvxeByLi4u4c+cOCoUCDMOQ864YhmEYhmGYt8+1EkRWyNiGZQgXc/mo5UxD4XTh6MJutyMQCKBQKGBqagrRaFTGsdlsMAwDqVQKCwsLmJmZgcfjQblcxvb2No6OjuSQOZpzROmSowKHwwGXyyU90C0sLGB+fh6BQEAu1OpwOKCJdZKCwSDm5+fxx3/8x/jJT36C+fl5hEIh2O32E/m32WzS0YKmadK5RL/fh2maqFarslfK6XRiZmYGS0tLyOVycLvdss2NRiNomoZQKIT5+Xn8+Mc/xk9+8hO5aC2JNYZhGIZhGObtc60tMVUQMW8eKm8SAna7HRCOFWw2G2KxGBYWFrC0tIRCoYBwOIxoNIqZmRl8+umn+KM/+iPMzMyg3+9jZWUFT548QalUQq/Xw2g0koLENE05hC6fzyORSCAWi2FiYgIffPABbt26hVwuB6fTCV04cVDFjsPhQDwex4cffogf/OAH+Pjjj7G4uIhcLodMJoN4PI50Oo2FhQXMzc0hm81C13Xs7u5if39fLtra6XSwurqKb7/9FkdHR9JD3u3bt7GwsIBsNot0Oi3XSbp16xZ+9KMf4Yc//KEc+udwOADusWQYhmEYhvneuNJutweDwYUNReo1oIVZ3W43tre3US6XoSmexuhrPQXioudhXkQtX/LqF4/HMT8/j6mpKWiahlKphOPjY+i6jlgshmQyiVgshsnJSekoYXFxEV6vF1tbW/j888/x4MEDOVyNhEM4HEYikZBzhILBIILBINLpNG7duoWZmRl4vV4AgNfrhc/nQ71ex+rqKlZWVtBsNmEYBuLxOKanp+WCrH6/H9FoFJlMBplMBouLi/jkk09w+/ZtpFIpVCoVfPnll7h79y52d3fR6/XgcrnQ6/UwGAzg9Xrl+kihUAjhcBjJZBLZbBaTk5NYXFzExx9/jLm5OXg8Huzu7mJlZQUrKyu8BhHDMAzDMMwlQKNuXtbt9jsjiE4TMWoYjUYvCKJSqSTFEp1LTVNNi3k1qPFpytyhRCKBQqGAZDKJZrOJx48fY21tDZqmSaGQz+elaIrH43C73dja2sKXX36JL774AltbWxgMBhiIhXt7vR7sdjtCoZCcTxQKhZBIJGQYDodYX1/H7u4uAMDj8aDb7WJrawtPnz5Fo9GA3W6XbcXhcCAUCiESiSCVSiGbzSKXy2F+fh7T09NwOp1oNBq4f/8+vvzyS2xsbEjnCJrwZkhrNOm6jnA4LNcxymazyGazmJqakkMF+/0+dnZ28O233+L+/fvY29uTrskZhmEYhmGYV+e9EERW1H2a6KU4SxCZwg22PsYN97j0mYthLTtd1+F2u2ETC6Xu7u7i/v37ePz4McrlMmw2G1wuFwzDgNvtRr/fR6lUwtraGr788kt8++23ePbsGZrNphQdNptNemujxU41Ma+n3++j0+ng4OAAKysrePDgATY3N6WnN1pviBbp1TQNvV5PLpLa7XYxHA7hdDqlMDEMA61WC8+ePcODBw9knkqlEoZiEVUS18PhEM1mE41GA71eT+6H8LJH59vf38fjx4/x5MkTfPfdd9jb20Oz2QQUZxQMwzAMwzDMq/Gqgkgzr8CnaeoBWF1dxZ//+Z/jN7/5DXRdR7vdHiuIKMtqzwSEgRoOh/Hpp58iEongd7/7HZ49ewabzSbXehkMBiyILhmqB1r7yeFwwOv1IhKJIBKJwDRNHB0d4fj4GC6XC/l8HtlsFsFgEG63G81mE61WC0dHR1hfX0epVEK9XpcOFGjInCncVUejUUxMTCCbzUrB0Ww2cXBwgIODAxSLRZimiWAwKN14l8tl7O/vyzZF+fR4PEgmk3KuD52PBNHW1hYODg5wfHyMdrstF4uFIuQhhgrSsLt8Po9IJAKXywW73Q5TOIA4PDyUQq3RaMg1kaC0aYZhGIZhGGY859lLZHfduXMHP/vZz1AoFE7Ya6fxTgoiQr046v2JRCL40Y9+hGg0+oIgAoB+vy/nuahY/2cuDglM6hmx2+2wibV+HA4HRqMRhsOh9M7mcrngdrulG+tOp4PRaIR2u41KpSKHydG8IVL21FRtNht8Ph+8Xq88V6fTQaPRkKKFBI/T6YRhGPL8g8HghWGTdrsdPp8PwWAQEG1E13WMRiO0Wi05JI5E9Th04bxB0zQp9KjHaTgcYjgcot1uSy91w+EQI7HwLcMwDMMwDHM+p9lhxHsviMhYjUaj+NGPfoRYLIa///u/x8rKyglBNBgMYLPZgFPSZF4eEkRk4JNHN1P06JCggehFUuMTDocDg8FAihHTNGU9Uc8TQecg0aKeG5YFWDXLHDO1uVOalIZNrAekhtPayGm3DeV7XNvUlGGg1Cat5cAwDMMwDMOM5zT7i3hVQXT23ncM1fglo5ogA1eNy1we4xroUCxMSr0zQ+E8YCR6jCiMRiPZA0MNVhOCyioW6DyUBv0lwWGtf1NZIFXtlVGPp3THxRkJMXPRQAKn3+/LMK43SE2XYRiGYRiG+f64NoKIBM5wOESxWMTu7i7a7faJfdbfzOWgCgL1f+tvEgGqOKD6GCc+SOhY07GKJfUYa/zzhIf1WAokqk6Lcxpn7ad06bf6l2EYhmEYhvl+eKcFkdWABYBer4ft7W08f/4czWZTDs86r6uMeT3GGfsX4SwBcRHxetqxr8tZ+WIYhmEYhmGuD++0SlAFEYQB3e12US6XcXBwIF0sk7F+EQObeXVIfHI5M98X3PYYhmEYhnlZ3mlBpEKiZyTmo9D6NPyV/81jFaYqbKAybxv1AwnDMK8P30sMw1x3ro0gorkimnD/TJPZiXHGOvP6UA8cla/6m3qMuOzfbd4lY4jmnXGbY5jLgXr936XnAMMw15M3+W6/NoIIoqBsNhscDgdcLhc04d6YjfI3B70k6YVpClfbhmHA5XK94O2PubpQXZKgUOv2XcNUnG68i/lnmKuC9RnPMAzzffCmbclrIYjoQa3rOlwuF7LZLKampuD1euV+9S/z5tA0DW63G5FIBLFYDG63+8Q+5upB9aLOAVN/v0v1pus6dLFILjtSYZjXhz5yvUvPAYZhrhdv4/lzLSwGMuBsNhucTicKhQJmZ2cRDAZfUJRvo1DfZ3Rdh8fjQTweRyKRgNfr5YVwrzBqTxDdQ263Gy6XC06nU/awvivY7Xa43W74/X54PB7Y7XZrFIZhzoF6WDVNg91uh9frhdvtZsc5DMN8L5Cd/yZ5s6m/RdSv2T6fD6FQCF6v98SaNzTPiHkzkHHt8XgQDAbh9/vlsDl+gV496F6getNE714ikUA2m0UikThhBF1lKH8+nw/JZBKTk5NIp9Pwer08bJNhXhJNzMV1Op2Ix+OYmppCNptFMBiE0+l844YJwzDMON6kLXItnmqqsUNftkwxn4i2UWAuF7WHgf7SPC4atkTK/k02ZObloDpRg6Zp8Hq9mJiYwI0bNzA9PY1AICDvo6vEuLZkt9sRiUQwNzeHmzdvYmJiAi6XC7AMB6TAvBuozxe13lQhz1wumqbB4XAgEAggn89jeXkZCwsLSCaT8iMJwzDM2+Jt2PDX4qk2TvCoL0r1hckvz8tFNUqswlQVS9RLx1w9qK5ouGMymcTU1BQymQwCgYDsYbkq9456b1ObG41GcLlcCAaDyGazKBQKiMVi8Hg80nij49iIfvcYjUbQxZBOtQ5JzDOXBz3L6XkQi8UwMTGBXC6HQCAAh8Mx9p3LMAzzpqBnzZt85lzrN4kpeovYGH+zjGugqkiiemCuDlQnpmliOBxKd9U0B8cwDBiGIecR4Yp/TKC25nK54HK54HA44HA4YLfbZb6vcv6Z8WhibTmaz+JwOODz+RAIBOD3+08Y51y/lwOVIy1boQuvoXQv8fOcYZjryLUVRKoxrhrs9LAfZ8QzbwYyvLnMrxZ0j0C5H2w2m3REQE5KrtoXePW+trYpm812wtU+CT31Wpl3B6o36qV0u93I5/OYm5tDoVCAx+ORcVgQXR50b5HwoXtHE3OLuLwZhrluXC1L5w3ARtD3zzjDlXn7aJYhY6pBo1mGH9H/UL4UW7GmNS6cx2nxrOlQsAqhs9qWdo5XGmvaZwXrMeOOvwjWY8dxWrrW7acdj1PiUvyzjrNiPX7cea3/q5wWf1w4C6pHj8eDbDaLhYWFE4LovOMvwsum8zJxccZ1X+S81nhqfGs6p6VnPd4az/pbU7y30u9x6TIMw7wt3uQz6HRr4ZrwJguPuRhUB6cZrsz3B9WJavTQdjKKTqs3ElCqoaQKkLPuvXHG2GmB9lvjqduJ0Wgkv2Cr8cehxlG3WfOlisRx6alldVq+rKj7qfys+aC/p4k+9ZzWQFjraFwYB23XFKPYmk/aNy4NNY66Td1uPc6aL3W/LnqI7HY7otEoUqkUYrGYdJpxWhovy8sca72W044dt42w1utp8cadS92nKR80xu1TseZ1XFCHKVLaajrWfDMMw7zrXEtBNM6YG2foMG8HKmt+iX5/kFFNQ+LIC6D1PrDODaD76DTICHM4HDAMAx6PR843sBpRVmi/rusn4lOadrsdTqdT5lcXwoSMc1UonNe2rPtN00S/38dwOIQm5qZQMAxDnk81Mq1lQXklw5HyRfvGQfnQhciga7Pb7S84DDDFkD9Kn8rD6XTC4XDA6XTC5XK9IFZo2KAuFqqm9ZjGnWMctI/qgOaT0ZwySoeCCtWJen1UV5QH+k3XQXml9KxlQOnQtXu9Xvh8PhiGAZfLJfOmi7kuapqmMo/U2gYItSzGzT0bh6m8T3RdP1Ev49qAen1UDpRPa/1ZUetULSNKl/JMa4dR/eiW9qvWJ+XX6XSemB9Eaati6LR8XfTeYxiGeRewffbZZ59ZN75tRsKDULlcxq9//Wtsbm5C0zQMBgP5IB73QFahB75hGMhkMvD7/djZ2UGxWJQvRnpRqS8z5vKgMg2HwwiHwwCAcrmMSqUi65h5+5Ch4/f7EQ6HEYlE5F9aVwTCbTV5afN6veh0Otjf30exWESv13vhnnE4HPB4PPB6vYhEIkgkEohGowiHw/B6vbCLuUhWkQWRJ5fLhUAggHA4DMMwMBgMYLPZ4PV6EQgEEAgEZHqBQEAavWTgqkYbADidTqRSKaRSKXi9XlQqFWxvb6NarUrhQ/e+JkSQ1+tFMBhEIpFAPB6X5eLz+eQaWmTwqefSdV2ud0bGuWmaGAwG8hzjDEXTNOFwOOD3+xEKheB2u2G32+W1OJ1OBINBRCIRWS+j0UjmkeouGAzC6/WeyCMZ/S6XC5FIBKFQCMlkEsFgEC6XC16vFwAwGAxkeYxDFwY+1UM8Hpf1QQveOoQzA6oHFSrbYDAo63Y4HEpRQ57L4vE4otEoAoHAiblA6hBNm1gomNpBMpmU3s56vR7q9TpMMbcoFApJr4Ij0VOo5k+tPxUSEKFQSOYXopzG1SFEnWjineN2uxEMBuHz+WCz2TAYDOT+0Wgk6zsQCJyoR7r/AoEAnE6nzJ/1nDabDcFg8MQ5hsMhdF1HKBSS7SUajcLn88lFVOnaSQiRM4pIJCLrktoGOVahdkHpRyIRpNNpJJNJdDod7Ozs4OjoCJ1O50Qex5UrwzDM9wHZmul0Gj/96U8RDAYvZPdfW0Hk8/leEERqGuelx7w8VKYsiL5/qC4GgwEMw0A4HEahUMD09DSmpqYwMTGBfD6PdDqNcDgsjbFgMCgXNB0niMhg83g8iEQiyGQymJycxOzsLDKZDBKJBDKZjDTOyEAk45mw2WyIRqOYmZnB5OQkXC4XBoMBPB4P0uk0JiYmkMlkkMvlkMvlpNjyeDzo9XrSqFfblNPpRDqdRjqdhs/nQ6VSwc7ODsrlsmx/ZPCRkZ3L5TA9PY2ZmRnk83mkUilks1k5JMvpdJ4wqk2lpy0Wi8ljg8EgWq0WWq3WCwKBsJbxxMQEYrEYdF1Hu93GYDBAKBTC9PQ0Zmdn4fF4MBwOYbPZpCMBqjPKn9/vh91ux2AwQLvdhmEYiMfjWFxcRKFQQC6XQyaTQTKZRDqdBgC02210u90Tws0UH4w00RNFdZvL5TA/P49cLifLNhaLIRAIwG63y3yTCKGycbvdKBQKmJqaks8Cm82GSCSCQqGA2dlZWeaUptvtxnA4RLfblfWk67q8nqmpKcTjcUQiEXg8HtkLEgqFZL35fD6MRiP0ej10Oh1Zd1T21ue+JsSbx+PB8vIyJicnEQwG0W63ZV1aBYralt1ut1y4NBaLYTgcotVqYTAYAMraWLSwKd0r1K6pLr1erxSZw+FQHq+Jjxl0n+XzeTidTvT7fXi9XkxNTWFychLZbBb5fB7xeByJRALhcBjdbhftdlver8lkEplMRuaFyoyE8mg0QqPRkG0CACKRCFKpFNLpNNrtthRE1H4Ia7kyDMN8X7AgEi9Pl8t1oofo8PBwrCCiY5jLg8qTBdH3Dxmog8EAiUQChUIBi4uLmJiYQDweRygUksON/H4/XC6X/IqcTCZhGAa63e4JQUTp2u125HI5zM3NYWZmBrlcTooHwzBkj1EoFILX68VgMEC/3z8hjJxOJ5LJJObn55HP5+WQnWg0ikKhgEQiAZdwoe31ehEKhWRPhSa+YHe7XUA4fTBNE4ZhIJ1OSyOvVCpha2sL5XJZiieKRz0NMzMzKBQKsneBeo3C4fAJw7/f78tAbdnv92NychLz8/MIhULodDoolUro9/uW2vi/6OKDTSwWQzablUKqXq/j+PgYvV4PsVhMlqvD4UC73UYwGJTCkcqVeliCooev3W6j0+kgGo1icnISCwsLSCQSCAQCCIVCiIgePMMwZM8K1SkZtjT0KhQKIZ/PY2ZmBtlsFslkEl6vF06nEwHRoxePx+F2u9Fut9Hr9TAajdDv9+Vz2Ov1YnZ2FrOzswiFQrLOs9ksJiYmkEqlEI1GZc9HKBRCQKx51Ww20W63ZVrJZBJzc3PI5XLwer3wer2yt5B6dqLRKPx+PzRNQ71eR6PRQLPZlIJGP2W9IjW/S0tLsoybzSZqtRp6vR6GFqciuhDWDodDip2lpSUEg0GUy2UUi0W0223YxXwnaiPqhwK7GDbnFT2U4XAYfr8fg8EA3W4XnU7nRL4zmQzm5+cxMTEBm80G0zRlW0mn0yfKkYQyAHS7XdhsNiQSCUxMTEhhHA6HkUgkZFzDMDAajVCtVqWIxBmCSO0h4vcowzBXCXrWsyASgoh6iE4TRNqYr4XM63GWIKLy5/B64WVxu92Yn5/HwsICZmdnpfF8eHiIg4MDKRbcbjc8Ho8cBuZwONDtdrG7u4ujoyNp5DscDsRiMSwtLWFxcRHhcBiDwQBHR0c4Pj5Go9FAt9uFpmlyiJ7D4UCv10Oz2ZTGM4mSyclJJJNJOMTcnWAwKA3t4+NjHB0doV6vSwESEsPMdF1Hq9VCt9uVhr3L5ZLGm9frRblcxtbW1glB7nA4EI1GMTs7i+XlZSQSCdjtdtTrdZRKJRwdHaHZbEIXQ6FoqJOmaWi322i329JApl4uMtR1XZf5xZi5FfR8isfjyOfzyGaz6HQ62NrawvHxMTRNQyQSwezsLAqFguwBoR4Um82GUqkk80B15RLziFwuF7LZLBKJBDweDzqdDlqtFnq9Hmw2m4zvdDpxfHws64PuTeo1ox6qRCIBh8OBarWKw8NDaQjbxdBKGurV7/fRbDalQNXFcMKZmRlMTEzA5/PBNE34fD5EIhG4XC40Gg1Uq1UpolxiUV23241OpyPrzC7WxSJhqolhhTabDa1WS6bR6XTQbrdRrVZRLBZRq9Vk7wjVvfX+ofqxiyFzkUgEuVwO4XAYvV4P5XIZrVZLCm6IZ5xdzIOiNry4uIjJyUn0+31sbm6iWCxiOBwiHA5jenoaS0tLyGazUnDs7+9jd3cXBwcHUrBEIhEkk0mYpolmsykFqyl63OgDRCwWk+VCwwhJ4FJaHo9HBur9ymaziMfjMAwD7XYbjUYDdrtdfnDwer3o9XqyfdG79zRB1G63ZTlay5VhGOb75NoJIogvv3RhF0HTNPmV+LweopdJl7kYVL4RMT5+NBqhXC6jVqudEESvw7jjx6U7bhttt3LaNuv2cdtou5XTtlm3j9tG261oYk6C+v9Z0BCy5eVlTE9Pw2azYXNzE0+ePMHz58+xvb2Ng4MDVKtVaTAHg0H4xYKXrVYLe3t7UhDpuo5gMIjp6WncuHED0WgUR0dHWF1dxePHj+UQ1VKphFqtdkLEAJBf7gdiGF8sFpNfzV0uFzRNQ6vVwu7uLjY3N7G1tYW9vT0cHx+j1WpJI5REQKvVkobwSMzVSIthXdRDtL29LYfM2e12+P1+TExMYH5+HtlsFu12G+vr61hZWcHq6ip2dnawv78vewccDgfC4TB8Ph+63S7q9TqazeYLIiIYDMJut6NSqaBYLMqeCYIMW6/XK4c3uVwu7O7uYn19HbVaDZqmIRAIYHJyEvF4HKZwPhAIBHB0dISNjQ2sra3J55omht9Rrxb1BnW7XWxvb2NrawtbW1s4OjpCr9eDx+ORQ+yOjo5QKpXQ6/WkUAyHw5icnMTi4iKi0SiazSY2Nzfx6NEjbG9vy95C6v0Ih8OIRqMYDAYol8tSgJAgyufzSCQScLvd0MQHq3q9joODA9n+SqWSFKDhcFgOmzs4OECn08FwOES/30e320WtVsNgMIBXDC+rVCoyna2tLRweHsr212w20e/3YSqON067X2zCMQSJ5XA4DJvNhmq1KgUXFAGlKfPPqCfNMAxsb2/j2bNnqNfrsNlsyGazcqgfAGxsbGBlZQUbGxvY2tqS7azVasEwDESjUThEr2CxWESr1QKEYMvlcigUCnC73TDFPDTTNHF4eIjnz59jfX0dpVIJ3W4XhnBu4hHz+zxiXlWn05H36+7uruwNcrvd8Iqe3GKxiHq9LoXqaYKIe4gYhrlKqDbmqwqia6MK1BcfxENa/Z95+1CdqIGGY6gGozXOaYHiqsdc1vHjtp0WxsU9b9t54bzjCfWGVrer22i7Wyximc/npVG9srIiDdzd3V3s7e1hfX0dq6urOD4+BkRPi104RCCGYi5LLBaT8yy63S42Njbw5MkTrK2tYXd3Fzs7O9jY2MDq6iqeP3+OYrEIj8eDQqGAVCoFt9st06R7lL5qm6aJg4MDPHv2DOvr69jb25NDkFZXV/Ho0SOsra3BNE0kEgnpMMCpOB+wlh+dB+IjSDgclkO2RqMRtre38fjxYzx+/Fhew9bWFp4/f4779+9jdXUV3W4XsVgMhUIB8XgcDodDGuqlUgmHh4cwTROBQACFQgGRSOTEuen8mqbB5/PJHp92uy3FI/VyQRjApnCO4Pf7Ua1WsbKyggcPHmB1dRXr6+tYW1vDxsYGSqUSACAQCCAWi2EwGGBzcxOPHz/G06dPsbq6ipWVFaysrODw8BDdbhcu4XTB4XAAolzcbre8xnQ6jeFwiO3tbTx9+hTPnj3D1tYWtre3sbq6iidPnuDRo0eoVCoIBAJyPgr14KjXawqB5Ha70Wq18OzZMzx8+BBPnjyRQvrhw4fY2NhAo9GQoiQQCABiDlytVsPW1haePn2Kra0tKUj7/T6KxSJWVlbw9OlTrKysYHNzE+VyWc4f0pWhcqfdLzSks1wuSyEWDoeRzWYRDofhFIsT03XRvUBDCyORCBqNBjY3N3F4eIjRaASbzQaH8ATYFUNP19bWsLq6iv39fdlzvru7K9t7vV6XotUmhsVRHunc1C4Mw8Dx8TEePXqE7777Ds+ePcOzZ8/w9OlT7O3todVqwWazyTlFvV4Pa2trePLkiQx3797Fo0ePUCqV4BDD/wLCeQlY6DAM855x5QXRuJfYafAD/GpARi4ZdBHFq1lEeENSt8VisVcO0Wj0hW3nhfOOedP7x4XzjlGNFTLyxrV3Mkg10dtA80iazSbW19exvb0th0r1hHMC6pUhj2wDMUnemj4NR02lUgCAnZ0drK2tyR4IMizpa/7e3h729/fRbrflkCiPspCmauT1+30cHx/LL/3qhPbRaIR6vX4ij9Sj4VfmPzkcjhfyTOmb4qt6TMy9cTqdKJVKWFtbw8HBgexRoB64drste6poaBPVEfWytMXQQ/pqbrfbkUwmkUqlpNhQr9Eh5ufQMMJKpYJyuYyu4kSAAuWl0Wjg8ePHePbsGSqViuwRazabJ3pfbcJ5xd7enhyC12g00Gq1UK/X5RDJTqcDp/D0RsJrNBrB5XLJ67PZbLIuDg4O5Nwvmt9Sq9WwsbGBzc1NNJtNeDwehEIhaIoAUhmNRuh0OrI8qX5pqF2xWMTR0ZHsyTOEG21NWQ+n2+2i2Wyi0+mcGErd6/XQEs4saN4QDTUjxrUJQhPz0ejaDg8P5fDFVCol57JRLxKEgNQU5xgOh0MK40ajIfNcqVSwurqKhw8f4sGDB9jd3UVLDGEkkdMTQ0mpXjUxJE9tN1SuJLR0XUe1WsXOzo7s6en3+6jX6zg6OsLe3p4ctkntdHd3F8+fP5dtudvtSkFG1+sV7sydTufY965ajmeVKcMwzLvIlRdErwM/tL8/nE4nwsKz2eLiIj744AN8+OGH+OCDD3Dr1i3cunULN2/exPLyMpaXl7G0tPRK4VWOPe+Y8/afF17l+POOWV5exszMDKLRKAyx1sq49k1GJDktSCaTcLlcODw8xMbGBo6Pj9HtduUwoJFwT0y9FTQ8bSQ8cxE0pI4EVr/fl3OQIMQSGbIkBlQjVhPDyxxinRYSO0S73ZZGMRmMaiCjulwuS9Hm8/ng8/lkWagiTj2OtlGZhMNhDIdD7O3t4fDwEFXhlpuO1xSnDeVyGfv7+6hWq/AKZxE0CV0T84qKxSL29vbkvJ5cLodQKASbsqaLrusIBAJIJpPw+Xzo9XooFos4Pj6WwxHJkKayGQwGODw8lEPLqF76/T56vR7a7bYUTlQ2NAxrMBhgINw/A5AG81A4A6C8kbj2eDyIign/nU4Hx8fHKIs5NNTbYYh1f3RdR7fbxfHxsRw+R8PYqMwJXdfRE/Nx9vb2UKlUTvSGmUIMdzoddBXPZZQvCta2TucZClfRdE4qPzWe9VgrpvDsRoJob28P7XYbPp8PmUxGzl+iNuUQw+XIOUm9XpfXRnkZDAYolUp4+vQp7t69i5WVFZSEww1qa2qZUvp0vadB5XlwcCCFJdUjlSWJLofoydzf35dDR+lepNDpdOTwN92ydpQab1xgGIa5KtAzid4hr8LpT95rBj/A3y66sgigOsmXvkLSZHW/3y8N25cJr3rcVQ1ULqcFr1hzhgzS09ozPQxobgtNlq5Wq6jX62iLCdNkpJORR4ZWtVpFW8zJUQ1qp1gfhwxfCJEUE8OsyCVwoVCQIZvNyqFPppgPQ8a4mteR6AlpNBon5iaoUF67wgPXcDiEU6yVYxfr+AyEq2JYHopkwJFId7vdaDab0gFCTzh6UKEyKZfLOBYe4DTRKxAOh2UPi81mQ71el0LEbrcjHo8jk8nALZw/aJoGj8eDsPBc53Q6URdOHJrNpjSQR0K8mUqPz+HhoRQyI9FDYBPDqUgYUc9cuVyWRjfVq6kMU7UKEYgeBMMw4BYOJBzCAYYu3F1TnebzeUxNTUnX35lMBuFwWBr21D4hhpRBKfeOmLtSq9WkgCPxNBQOC+j66Prp+aG2FdVIN5U1n9RzUdyREJVqO1B/WzFNE51O54S40XVd9tBSz6wp2jE5QbDb7SiVSrLnhe6N4XAoRSrNy6Fy9Xq9iMViSKfTyOfz0vOjS7iep+vSFWFE1zIUHy+KxSIajQZMIfjo3rLGbTQaKJVKaDQa0IXYontf13V5j1N8iPv6tOcLwzDMdeW9EETWFyNzuagvT/VF22g0cHBwICcTP3z4UM4foDH/z549w/Pnz7G6unpueP78uQxnbVO3j9umbqfzX2aa47add/y4bep2mmdAE6cHyrAhK5qY9O0Uq9YPlSFB1DNkxWpkk5FEfzUxpIZ6YwzDQC6Xw4cffoiPPvoIH330Ee7cuSPDRx99hBs3biCbzcIwDDnUh4xcMvbIuKUeAvVrP6EayZrovSEjkNKj+1u9z00hLAjqxbLZbOiJoVY90Ruli6/j9Kygax6IIYUktsjwdIqFNCnv+/v7ODw8xGAwQCAQQCqVQjAYlHXh8/kQFa6hB8Ir35FYz0WFjFE6d6PRkKLBVAQE/SYDmuK2hQc6tRzGiQMoIsPhcMAuFk3VxXyfbDaLGzdu4Ic//CE+/vhjWb9qXU9NTcHpdGIoFl2luSdq+dGzgHqzaB/VJZReTXU/tRHKsyqW1PwTtE9tO3R+KMPcTsMUAqvVauHo6AjFYhGDwQDBYFD26lFbM8S6XtFoFMPhEJVKBbVaDUMxt4iegQQJxmg0inw+j4WFBdy4cQM3b96UYXJyEj6fb6wYUlHLk3rUKD4dQ/dQRwzD6wpPjFQGJKzpN6VBdUaBYRjmqvAyz6SXiasy/qn7jqM+0OlBT9uZy4eMEU0sImgXwz9arZYc8rO1tYWNjQ0592BzcxPr6+vnBjpmY2PjxDb173lxrdtO2279/7x4LxP3ovFOi7u5uSmHblF7Vg1CFVMYy0PR80CigMSQ1bBUsdlsGCmLWZJxTX81Me9BEw4CYrEYwuEwQqEQQqEQgmI9lEAgIHtvuop3tm63+4JxS4YZGWpQro3imcJIVsUPlDWIKC5Bv6ktmuLLPmEto9MMULsYPqSW+WAwkKJRE/N9jo6OsLu7i2azCZdwWhCJRKSA8vv9iMfj8Hg8aDQa2Nvbk0Y0pUt/KVD+qNxpu/psGynDxmi/CsWl4ynPFCgdKgcqp7BwnZ9IJOR8P6rjqPCqp4s1gyqViuxVpPQISpP2qee05m0oBJ41HRIZ1vhqfatlQ3GpXq3XOw5NEWU056rZbMJutyMWi0l35U6nE36/HzGxkGy1WpXDTKkeoAhb6qmdmJjA8vIyPvroI9y+fRuLi4vI5/OIibWuHGIoKV2z+pvyTW2U7pWB+CiiCfFM4oYwRVsdWHpO1bJSt6lxGIZhrhLq8+o0ztp3EcZbAe8g9JK0blNfkOe9FJnXQy1vCA9RNMSJvhAPh0P0xIR+2kehKyb70hfNXq+HvrIgJr3cqRfDGsbFtcaxxqV4p8V9lTTPi3vReGpcMnhVw/A0qA5IQJAoGChGE90rqoFEgQwuiqMJoasatZ1O54QXsufPn0vvVbRtZWVFeiR78OAB1tbWcHx8LI1vq0FmNSbHXaeaP+s9reZXbYe0Td2nGtm0j84PZW7VuDSGwsMclcdgMEC9XsfOzg7K5TLsYo0Ymm/l8XikQLKJtYRKpdJYA1bdRucZWhwuqKh1pqZlZdw+tUyoLEajEZrNJvb397GxsYGnT5/KOqVA9fzgwQPcu3cPjx8/xvr6OlrCNboVUxnedto14JR6o/3q9VvvASoDWF6a6vXR33H5I0zRQ9psNuUcKtM0EQwGpQikukylUtB1HYeHh3JY40ARHgBgCNfyhUIBS0tLcnFWj1gjqlKpYGtrCysrK9jZ2UFXrCOk5kctL8r/UPQAUfvTlTl56vXRxwP1viUoXXquWM9xVjkxDMNcRdRnHPEyz7JrJYjGFYY25gV7Wlzm9aCXr/rCpvInA/Q0Y0YNVD/WuLRdDWraFNcaR41L8d/VNKmMVSPGiqZ4zhqJ+QI0JEpNk9JRjWmKa03bFD00lI9yuYxnz57h22+/xddff42vv/4a3377Lb799lvcvXsX9+/fx4MHD/DgwQN89913ePDgwQmXyWfVLf2vbtfHeC6jclL3qYYitUWCvuDrui4ns9MQQLX9qelQDw+VG22ntk3HDsQk+kPh2trv9yOZTCIej8Pv958YLkfe4fpiiNhp0H1EcdTyUvOq7re2LzWeeqxa3lR+VF6tVgvPnz/HvXv38M0335wIVM/379/H/fv3ce/ePTx8+BCrq6tSEFEe1Pqk8xLqddE+qjc6nv6n/VZRRfHUa6T/x6EpQthaThRMMQSyWq2iVCqh0+nA7XYjHo8jHo8jFoshlUohEomg2+2iWCxKpxxQxLxdzCWbnp7G3NwcCoUC/H4/6vU6VlZWZFneu3cPjx49ku2GeiR1Ze08yheVybg6peug/ZQf6zUSFO+09sUwDPMucdZz8aJcG0GEMQ/9s7hoPOZ8qBGqL9hxhqP6cibGbYNieJIRS7/VdNU44/6eFtT9p8W1pnVaPGt86+9xcax/TwunxaMbf9zNT/R6PXSEi2JdzAvx+/1ynggsRqkmjEWn0ykdN6gG2VBMEu+JSfxDxQtbuVzG0dERjo+PXwilUkk6Jmg0GtCEITsSgob+J+cblDcVVUiqAoXKhoSfNsZgpGuAGDLYE0PdDMOA1+s9MVne2gbpfBRvKHpsKH1rOyZX4+VyGQ6xng4takkLlDYaDZTLZTQaDfQs7qFVqMxhERLj7jV1u/UaxqGJeU1UD33hKr3X62Eo7rdWqyXrdVyoVCqoVquy/iuVCvpiMU8SBePqEiKv1KYh8mOK3hnqeaOgQnVtWpwuqNesloP1nqH6VPOlHktCZKg4I1CdK6RSKaRSKSSTSTidTlQqFRwdHUlPbzbRIwvRZpPJJCYnJ5FOp6HrOg4ODvDw4UN89913WFlZwXOxqCz1LlG7onzp4qMItQW1bdM1DEUPj3qtaqB7Vb1WKhv1fFQ+VBe0nRi3jWEY5qrzMs+t8W+sdxT1ZTJuO/NmoJcpvTTpBa2+qK1GvfWFbE2P/lp/v48BY76on4UpjEvy2qZbBBHFgfJF2yYmi3s8Hrjd7hO9RGR80bo5pliENBwOw+v1wiaG5ZExaCpf++12O9xuNzweD5xOJwzDgF14haPz2u12+Hw+BAIB6amM9pEQouB2u+XcpHa7La+RRBEdSwYl/YYQibVaDfV6HZrwGOcTbrutcck4drvdCIVC8Hg8GAoPXzQPSkXXdfTFWkqlUgm9Xg9+vx+pVErOFRkOh7J3iPKsQvcQ/aYyor8qatug+LRdjaPuU6FrpbbSFmsbDQYD6TSA2otalqbSU2EYhpwr5na7T+RJLUsrZOhTeyGo3VDZqm1eF6JV7fXUlDV71PNRe1VxOByy7bhcLvlhYNyxmhgSSh7ihsMhIpEI0uk0ksmkdDtPQx/V+VMQ12632xEKhZBIJGAYBkqlEtbX1/H8+XPpTGMwGMBms8nyo95KavfqdVjLlvapz1EKVE8U18pZ26ic6Xh1n7qNYRjmbWJ9Jl0kvCwvvjmuAWphWB/uzJvD+mI2xZfMcS/ncY1W/d/asE+Le1q4aLyXiXvReC8T93XiqVjLfDgc4vj4GEdHR+j3+3IehM/ne6FOSJT4/X4Eg0HZS0T76FyNRkPOAYpGo8jlckgkEnA6ndIwG4g5XhBzKOLxOGZmZjA9PS0XuaTz0zG6cEVMDhmsw9ioJ4WcFYRCIQwGA9lLQT0TqnFI10ZowvlBsVhEqVSCTbgMT6fTcs0gVbSbYohgPB6Xazl1xLwPtTeEzkXXpE6yd4mFbNPpNDweD5rNply8k3pi6PizUK/Hem2UT6shqxro1nOMxAcK+g0AnU5Huuym4X7JZBJutxsQ5xtZPMElEgnMz89jbm4OqVTqhCA+C8r7yDLs0BTGPImBcXVKx5mi3ZAnRRIIFFeN7xCL+JIL8YmJCSSTyRO9g9Zjer0eKpUKSmL9J0N4VZyYmIDb7Uar1cLx8fGJNZ+oN4bq1el0IhAIwBTtQh0qSaLO7/dLBxZ0b9C10PWrbZJQ86tup7KkeqXypTJX7wlCjW+F8oIL1CvDMMybgp4/455hUJ51eI1n1bUSRBcpDLUwTytY5vUhw0Z9IasNFmPqSTVMVEPAahS8b0E1HNU2bp7SzjVhFJXLZbmop9frxeTkJAqFAsLhMAyxgKrNZpOLctJaKASdl87VbrdxeHiIo6MjmKaJVCqFQqGAUCgke4gcwiW1z+eTYujmzZuYn59HNBqVwoPSHwnj3DRNhEKhE8PLKD3DMOD3+5FOp5HNZuHxeKR7ZKs4UQ1HEjhkZHY6HRSLRSkS/X4/JiYmkM/n5Rd6Khev14tUKoXJyUnEYjFZnmWxuKXVQIUo93a7jZ2dHVlGPp8P4XAYmqbJtYfU4631SNeg/m/dD9GzB0XQqNc+LhAUR72nNOGljAx8XdcRDAaRSCQQi8VkT5FduNamspmamsLCwgLm5uZk3VI90LnU+52wnp+CKQSR2kOi7hsJQUZraZErc+rBIy9wau/mSPRkJZNJzM7OYm5uDktLS5iamoLH45HlqKIpziUqlQoODg7QbDbh9/uRSCTgcDhQq9VQqVTQFW7T1fKn8uyLIYC9Xg92MdTTMAyZz0AgINc5CofDcDqdsuzoXj+vXqm86Bgo95W6jVDbApRrpd5Kik/pU51SHhiGYa4r10oQQflSq6IpQwysvykwlwuJIUItZ3rZ0vZxkEFEgertfQ3WslPLcFx7N00TtVoN29vb2NnZQa/XQyaTwcLCAqanp5HL5eQQoEKhgKmpKcTjcWhivgL1BJB4gZiDUywW8ezZMxwcHMDv92Nubg7Ly8tYWFhAoVBALpfD1NQUpqamMD8/j5mZGSSTSXi9XoxGI3TFWkOURzLG2u027Ha7XKdlZmZG9q5MT09LL135fB66WDD18PAQ5XJZ5pEMRLWsqDwgvMEdHx9jc3MTxWIRuq4jl8vJXo7p6Wnk83lks1l5XdlsVs792dvbQ7FYlAJMPSedZzQa4fDwEDs7O6jVajBNE4ZhoNPpyHlUZERTGahQ/qnOKU3rtWGMoBxnOFOa+phhZJTeUMzNOT4+xtbWFqrVKpxOJ7LZ7Im6yGazmJycxMzMDG7cuCHr1u12y14PSpPyTee2XifGfACha6Rrt17TSCzgS4uSut1u2d6y2SzS6bRsg9FoVPYAGYaBSCSCyclJzM3NYWpqCqlUCoZhvFCmaj4HYr0oWnR3JJxs9IWb9Wq1ekJ4qOkMxTwkGmKq9lAlk0nkcjnZ3kKhkLw+Tczvoh5aKhOrcKNzUXmpUHmpdaHmzYoaX60Ta48fbWcYhrmOvPiWfMexPvjVl4H1t3Ubc7nQC9aK9cV63kvbGl/d9j6E066XtsNShmSkDQYDHB4eYn19HQcHBwCAdDqNubk53LhxA7du3cLy8jLm5+eRSCSg6zrq9bqclwNlIjsZqZ1OB5ubm1hbW0O5XEYgEMDCwgLu3LmDW7duYWlpCTdv3pSGZzAYRLvdRrFYlL0rmmLEUbrNZhPVahW6rkvhduPGDSwvL2N5eRmLi4tIp9NwOBwoFovY2dnB/v4+Go2GTIfyS+7KrULCNE00Gg1sb29jfX0dx8fHsNlsyGQy+OCDD3Djxg0sLi5ieXkZS0tLmJychGEYqNVq2NzcxMbGBsrl8gvOEOgcEPXQbreleCJHBdTTQM4UqAzUdOh4yqtV4FihIVqqKKJjCTqW8mdNj9pLX6y/Q2tetVotBAIBTE1N4caNGzLcvHlT9rB4vV7pont/f/9EHlSxRu3RyrhrVYeeqceZYohcp9PBzs4OdnZ20Gg0EA6HMTs7i6WlJZnHubk5pNNpORfObrfD5XLB4/HA5/PB6/VCE704aj7oPGq+6vU6KpWKFLKj0Qjlcln2GlEeqTzp/+FwiCNlgVfqjVxYWMDi4iJmZmaQz+fh8/nQ6XRwcHCAarWKwWAg80x5o/TpXhxY1hxS65vyTmVPQY1PqMdTfVH+dfEhhs457niGYZjrhO2zzz77zLrxbTMSw1rK5TJ+/etfY3NzE5qyIv1F0ISBQeP2/X4/dnZ2UCwWYRMeqdS0rOnyw/5y0DRNzvMYDocolUqo1+uyjq3lbK0Hwhxj/J+2730JZ2Ft22QU0ZAd6pWg4Tp+vx+BQEDOGWo0GjgSnuJMYSBVKhXs7++jXC5L45EMMvJiR8OAPB7PiTS9Xi8cDgeazSZ2dnakKOt0OnL4UDAYRD6fRyQSkb0TjUYDDocDHo8HwWBQOm5wOp0YCNfWa2tr2NraQrFYlGu3mMJgJqcQAHAkFkulOTt0XTShfSA8e9EQP5fLJfNPQ/bq9To2NzexsrKC3d1d2cOllrX170gM00qn0wiHwxgMBtjc3MTz589RqVQwEAtqqmlQ8Hg8ck7T4eEhNjc3UalU5P1Dx9H1hkIhuFwutFotOcm/0+nI9kLpUq9DOBzGcDjE7u4utre30W63pZgcDAboiDXDyDB3C2ccXq8XgUAAfr8fLpcLNpsNzWYTu7u7WF1dxc7Ojrwueg7H43E4HA4cHx/j4OBAOiCgfJHRrWkanE6nHPrWbrextbWF4+NjKR6h9P6PRE+N3W6Hx+OBIZw70JpPplgU+ujoCL1eTzrG8Pl86PV6aDQa2N/fx/b2thT+hKmIRyqXUCgknSkAwMrKCtbX16W7batY0MVQv+FwCLtwd0/znJxOJ7xerxQbJK5I2He7XVSrVVleVM809HIwGKBYLGJrawuVSkWWI+XbNE14vV74/X64xcKxFFcVPBB1YBNz6UKhEDqdDnZ3d1EsFtFsNqGLuX1e4WWRemWpjanpMAzDXBXo2Z1Op/Gnf/qnshf+vGfVtRVEPp8POzs7ODw8lC8MevmawsBU01ZfaMyrQXVAq9rTC58MUjJcKS6FcVjrwxpPPZ7D+LKhNt5ut1Gv19FVFsLt9Xpot9tycvj6+jr29vZQqVTQbDZRq9XkfJtWqyV7XCi0Wi3Z29FqtaRAonkTlO7W1hY2NzflF3Uymu3CC1cul0MoFEK5XMb6+jp2d3fl+SCM9FarhXq9jv39fWxubmJzc/OEUUZtxTRNOBwO9Ho9VKtVKfBarZY0Wk3xpb3dbqPT6aDRaMgv/bSt3+/L47e2trC1tYW9vT00m00prKjM1fKnh7BhGHL+UTAYRLVaxerqKra3t9FqtUQt/T/U+jNFL0mtVsP+/j4ODw/lMeqwKcqDrutotVqo1WqoVquoVqvoCdfiajz6KDQajVAqlbCzsyPFmVouVN6tVgvNZhOtVgtD4WKdXHPTULCDgwNsb29LYUXPcRIsJCj39vZkO+r1eoDl/qX6s9ls6PV6KIn1nBqNhmwv1nbeV1yFU3umdnd0dISycBmunq/b7eL4+Bg7OzvY29tDSXgDpOunoObPbrcjk8kgl8vBKVxtP336FIeHh/KaVZFBmMJ7X0csON0Xc5/a7Taq1SoqlQoODw9lT6LaHovFIo6Pj2X6lJeR6J06PDzEwcEBWq2WbHOUb4o/EsK/WCzi8PAQnU4HQ9FbZC17wzAwGo2kcD0+Pkan04FNOFsZiIWHDw8Psb+/L3uyrHXCMAxzFaDnYjKZxD/8h/8Q4XD4xHv7NDSTnqTfI/Q1cnV1FX/+53+O3/zmN/IFdt4FEHYxkTYYDOLOnTvIZDL4/e9/j++++w52ux2mMiaavvCqaV+BYnjnIcE5PT2NmZkZdLtdPHv2DPv7++iI3gQyTAl6KY9jXAO2/s+Mh8qV/tLXdHLxSxO4yWirVqvodrvQxVdsp3C3TMYmGY5kBOlibgYNQfJ6vfK8NuE4odVqoVqtot1uo9/vSzFBHy7m5+fxgx/8ABMTE9jY2MDf/u3fYnNzE7r4Ih6JROBwOGAKY52G1dVqNWncqderiR4Wh3DsQKKPzk3x6K9hGLAJt8eRSERut9vt6HQ6UhB0u10pquja1XZI10RiIJFI4IMPPsDy8jLcbjfW1tZw7949rK2tneiRsULX4PP54HQ6ZRlS7571nBRXEz1Ao9EI9XpdChv1GIfw3EduxildUxkuBeUepnbg8/kQDAZlDweUNa7IyK9Wq9CEEU5l4HA4EAgE4Ha7ZT2QaFGfAZpon1QPPp8PANBqtWTdWaHrdbvdCAaDcIkFdtV212w2cXR0JA136uUaiZ4bqlNqF9b8mIqXuNu3b2N5eRl2ux2bm5v45ptvZO+kKiitaKLni3o7PWKdLSo/EuP9fl/2irpcLgyFYO+J4ZZ0vS6XC3YxlK5SqaAnnDWo9QfFxbjb7cZIfLygtIZiYWIV6vnThbgulUoYKb1wTuF1ku7Bdrst2yrDMMxVg2z+W7du4S//8i8xMzMj39NncW0EkU14wwkEAvjBD36AbDaL3/3ud7h//740FqgwyLBhLhcypmhCfafTkYKo1WrBKdbAGWcQXQSus1eDyk0Txr5NePGCMg+FDC/aTgYPGVtkcNF2qjddrClDhplal1ZDTd3ncrmwuLiIO3fuIJ/PY2trC7/97W+xsbEhRYPVCxgZ1GTEqiKH8kJ5Uw1FMljV89N1DsWwJupBUb+KD4WAM4VoUFHT6vf70HVdio65uTl88sknyOfzqNVqePjwIZ4+fYr9/X30+31p1EKZc0IMRU+qTfSm0nPLHPNxwBQ9YgOxno2maej1etB1XQoitUwojXHp0F/aR78dYo0mtXxJBFDZDsQcMzofpWdXvL1RfqwChNCFoKT6trYdWI6h/NiVhXpNS09PWwzPs9YxoZ6D0qbrGI1G8Hq9yOfz+OijjzAxMYFqtYpHjx7hu+++k72dVBbjoPyp5UH1NBDDTtU2TGVA5UZtUK0/CMHT7/dluVvPT/HVuh5aFsIlTNGG6NymcHNPv6mc6f++cLZC5cQwDHPVoHfszZs38e/+3b/D7OzshZ5bZ+99h6CXEz346SVBD396oVhfHszloZbtUHylJqPS+hKGYnxY/75sHVkNAKsx8CpY07mMNL8vqN2TsdMWQ+XoCzwZ3eo9MlJWuVeNIrp+ijcUHularZYcHkTBej9SO6D01XqmsqV9Q/E1ul6vy9ASQ+koLRU6lp4DA2WhVmtc2jZShheRgWntVaJ8apaeIU2ILqfTCYfDAbvdDq/XK732JRIJ2Gw2OTSKem7ofBToWtQyoTJV86CWO6EJo5nSpN8UR/2t/lXPr+aB9qvnoPLodDqy54WGgFHe6L61tg26Bmpj6jWOw7Q4VaC2Z80T/T8UPT0dMe+pJYb6qT1LI9EGBoOBbJOUd8qvroh6u3At7vP5pKvuZDIJu92O4+NjOVSO8oYznhWUV6obyiu1Y4LijkS7p7aoXrtaT9RbS8dYy4jiDxUnDOYYMWyK+5ryR+dVjQY1b5TGeUYFwzDM9436zFOfe2dxbZ5smmIUdMRwl4H4KkkvCubNor64yTAhw1RtlPRSPevvuDAOa5xx4WWxHj8uvOtoiviherMG9b5R41KwpmcN1mPV36YwaDVlUjgZb7D0bBAkyigdKAYbQf+PO99ZaJZFaNX4tE0tE5vNJtelIVfUCwsLuH37Nubn5+WEdnVOxkgRaOMCLNetXu9pWK+fsIqUV0HNkzVY60Y9xtqOYMnHuLqgbWr8cenDcjyVHYko67nHtWP1N53H5XLJhXrz+Tzm5uawsLCAqakpOJ1OVKvVE/Nn6DphafsqlK+RZQFa67mt5WGKe4OuTd1vPcfroNYlxjwTxjHuOhmGYa4i6vP2Ipz9tn2HoAd7r9fD4eEhnj9/jlqtNvaFw7wZ6EVOE3CtE4OtqNvUl/K4uKdxXtzz9o/jvGPO239VUe8Dq9H4OoG+5o8L1rjqMSMxT0ETPR0khtQ2MLL09pqK6B5XD3TsWUYdTikLSpt+W41D9bcmvCnOz8/jRz/6EX70ox9JN+bhcBi1Wg3Pnj2T3sioR8CaJ6twGXdeuh41HmFNj6BysMZ/Fax5suaPOK3sRkI40N9xUDxrfZ8FxVPbFQUSFGoZaGM+uEDUQSgUwuLiIm7fvo07d+7g448/xvz8PFwuF6rVKtbX17G/vy89ZqrXf1Y+reVgDVbUMqX8n7ZfvQ5rvIui5kNN+zRe93wMwzBXlWsjiOjlMRwOsb29jZWVFZRKpRNffTHmpci8PlSOVKbValV6+Gu1WjDF0Azry94aXpaL1t9F4+El4l403lVGNW7edCCsBiL15tIippoietSgHmdNcxwv06YumpZ6Xk04KEgkEigUCshkMgiFQtA0DQcHB3jy5AmeP3+OYrF4onfIijXNcWX2qlxGGi8Dlbf1+Ur1aS1DK9b6v0j9UXz6TUE9l3pO6zYKhmEgkUhgYmIC2WwW4XAYmqZJ1+dra2vSWxvlT033tPamxrGi5nvcdtpn3X8aF41HUJ7pfOPyfxovey6GYZirzrURRGRw6MJTTrPZRE+4XD3txcNcDpowQHQxIXgwGKDRaJzw4oRTXsDWQOldhMuOh5eIe9F4zHhMsejls2fP8OjRI+zt7aHdbp9oC6qIUNvHRXmVYy6KaZrSNfb6+jrW19extraGhw8f4u7du3jw4AF2d3elGDLPEQPEReJYUa/xvOOt99tlhrM4b7/KRdN8FUxLr4sp2lm73cb+/j52dnawtbWFlZUVPHr0CA8ePJAOMVqtlhwCp+btsvN50fSori8jUHrjoDKyinr1WIZhmHeda+NljuLpiocl2k6XaO2loH1qHObl0RSXu1TGA8s6FWo5W42Scb8vUh803OgiWF/mp/Em0mROQvWvLvrZFWvEqK6GcYaR9ibQxQTzi6DrOtxuN3w+n3QVTW6su90u6vU6+v0+NMXxwTjOOieVE7XJ09K4KFZD/l1g3P1I5WV9jlwU6sGCSEsT3vTUhV1pThK5v6Z5Q+qwztOgMj4rznmMu+7vC3pm45R8ndZ+GYZhvg/Iu+fLut0+e+87BBnjVmOKHuTqQ10b84WMAvPykGFiWoaSqP9bsRpm4+qJuZ5Q22g2mzg+Psb+/j6KxeILPYrj2s1VYTQaybVudnd3sbOzg+3tbezt7aFWq0nPaurziLk6WEVLTyzmu7+/L+vx6OgI9XodnU7nBWcfDMMwzPXi2ggiQhcLCrrdbhiGIQ1s1dBWX2rWv8zrQV8LyYWtdQ7XOKxi6KKCyFq3Z4WLYj3urPAucJ7YV/dfRrgoFHcg3BFTb8rLpnOZvGydkuCh9ZFGYliR6mb6PC4Sh6A0rceM2zYOa11ddngTWO859TrpnPT3ImUAJU21jjTFsQc5/FD/p/jWNMYFaxxrOb3J8noTXNU8X9V8MQzzbnJtBBG93AzDgNfrRTgchtvtlvs1ZeiJalhYA/N6aMKFbSgUQiQSgcfjOVH2F+UidWGtu7PCRbEed1a4ypCRQGVP/6tGndVAu6xwUShf1ItI4vll07ksXrZOKf9kQFP+KZ2LXMNZ57Qeb57iBe9lsNbVZYbXxXp/nRVgKR/rfjXeONQ4VKYjpUePAo08gOKR7ax0cUYZU1rW8jovr1cBa56/bygvVylPDMO827yclfoOYLPZEI/Hkcvl4Ha75QNTNQqtL8134YV0lVFfSk6nE+FwGLlcDolEAi6X64RRwLwdyABTFw/FGOPrvPZvvUfOC6/K6x7/fUF5vowyOI9x9xGdb5yhfZ0ZiZ44cu/+Jsv9IoyrG+Zy0ZSPDTabDQ6HAw6H40KjEBiGYc7jWgki0zRht9uRSCSQy+VOGOOqwcAvrsuFXlS6WPHd6XQiGo0iEonA6XQCrzDxluvp9dCEK+FIJIJsNotEIgGfzwebzXYinlXQnBbG9UycFi6Ty07vXea0e+I84/A6lKHavkgA0bPGbrfL57vaC3Nar/TLlIf1nXFaYN48VM6aGIWQSCSQz+dPfHhjGIZ5Vca/Md5ByGAj48DtdsNut8v9msWTHD88Lx8qYzJUXC6X9PbxKl9x2dh4dUajEXw+H6ampnDr1i3cuHEDmUwGbrcbuvAESPVF9UK/1SFEqiE6Lq41XCbquZgXMcVHCKfTiVAohFgshkAgAJfLZY16JcvwVe9tm80Gn8+HVCqFVCqFeDx+Ymiu+pe5Xpji/eL1ejE5OYk7d+5gbm4OwWDwhY89DMMwL8O1EUSEzWbDSJmToPImjTfm/5WvLlyfm8qEYrXML1r2XE+vhilEjcfjQSaTwcLCAubm5pBMJuFyuWCz2U7UjVo/1vuDjEqrOKXf1nhvG+oRsGLN73WD6ljXdXi9XuTzedy4cQPz8/NIp9Mn6udtBbU9XaT8ab9ah6bivECtVzVNp9OJeDyOyclJLCwsYGJiAoFAANopXkW/by6aD7Usx/3P/F+ozSeTSUxPTyOfzyMUCskPoOe1O4ZhmHG8aEm8g6gvX00IIfUFPe7Fwi+Zy+e8F9HLlrm1zpiLQz0HPp8PkUgEPp8PTqfzRO8QYS1j9X4aZ5yp9TIu3qugGrwUyFAe165om91uh2EYMAwDLpcLDofjxLPguqLWg9vtRiwWw+TkJKamphCJRGQ9nNfbd5nholBcU7RDp9MJj8cjxboqiKx1SG2DeohmZ2eRTqflcFBK87KwtsmLBLU86H+c8jyzlqG6f9w25v+WqcvlkmuA+f1+uFwuKaAvs/4Zhnl/uBaCCBbDjIwiU/RW8APy7UHlbrPZxn65vyhsCLw6unCmQAbacDg84T74dcpVNfzwGgJIxWpQjgvj0HUdDocDfr8f2WwW+Xwe4XAYDodDrmd0Gfm7TE67ltdhNBqh0+mg3W6j0+mg1WpZo1wINW+v0k5UA/6842m/w+GAz+dDMplEOp2WninPenaQwAOA4XAonSuYysJ7Z7Wbl8HaDi8SSMif9u6ha6e4445nxqOJD570fqEyU9vbWe2OYRjmNK7Fk5dehJpw4atOLKYHJvN2UF/qr1PuZxkUzNnowrkFGQo0tIoClK/zal2dFVSDg445Lbws1jpW/6fzW6H86LqOcDiM2dlZLC4uIp1Ow+PxvBDvTTIufypqOaplfRHOikf10m63USwWsb6+jrW1NRSLRWvUFxgJF9PkMhyirMb1Jqn5vywobfJKOTU1haWlJRQKBfj9fnltsLQB2lav17G3t4fV1VVsb2+jXq9jJIZK0/Wcxpu4HhXr/USoZQrLs1IN1nxZ/79srPm6LNQyuMg1WOOfdpxaRvSX2i79ZhiGeVle3nq5otCLZdzLkB+Qb5+zXmjM20E1aGl8vWqMWY0zFWv9jcRClarBTPecGlc1VC5S/9b91rRO20/nt9lsCAQCyOfzyOfzSKVS8Pl80BRD8zys57MGNc44aLtqWKqBjqWyspaZms64baehCeO/Xq9je3sbjx49wrNnz1AqlQBLXY+7Dms+x9UtfYlXjVDrtdF++nKvLspMx1FeKA/0VxfzQTKZDGZmZpDJZOD3+0+cc1x51Wo1rK+vY2VlBVtbW6jVaifyZWVcOappqmm/DpSOWl50/WflzVrG6j7rtjcJ5WNcXnCKeLLm0fq/dbt1n7rNev5x8RmGYd4E51sL7xDWh/Q4xj3QmcvjtHJXX2zWOOpLkIIKvxhfDlMYt2o7V3sE1HtAU8SF3W6Hw+GQbozJKNHFEDxy7WwVV9b7aZyBc1bdaULYUPq6YlxbUdsCra/kdrsRCATg9/sRDAblXCLKs2rUW9MiaL9qyFMe6P9xx0FcP5UT/bXGp7QpfbUXW8VaF6qoUIMav9PpoF6vo1QqoV6vS4cmUM6tXhvNu3K73XC73TAMA3axXpVhGLLsnE4nbGJezrj6pbQdDoecx0V1QueivKp/aTvly+l0yrrz+/1wu91wOBwyLYpHYSSGCJZKJRweHqJaraLX653bHuna1Xqgtq7mUT1G/U15HrdPtwjCcdeu5kutH+t5VdTrVvdZ06L7nRiXVzrGWj424RXU7XbD5XLJerQrw24Jaxrqdajn00Qbdjqdsh5tlvtZTdsm7n9r/VA8K9Z8MQzDqLzKM8L22WeffWbd+LYZiSE95XIZv/71r7G5uQlNzH246AVp4mupy+VCPp+H1+vFzs4OSqWSTN+0GC7M5aAp87V0XUcoFEI4HIZpmjg6OkK9Xn+hLqmxntZo1To6LQ4zHiqvUCiEbDaLeDyOXq+Hra0t7O3todvtYiSGF1FwiLk4fr8fDmUOninmg3k8Hvj9fng8HthsthNu1K2GGBnchmHA6/VKw2pc74NNuNANBAInDGKv1wu32w3TNKWBT3mhc4RCIYRCIWQyGaTTaRiGgVarhUqlguFwKA1r1aCkuUWUV2q3JAZCoRA8Ho8MJBio90Q9TjUGHQ4HvF6vzLfNZkO/34fdbpflql6f2+2WIpXKRK2HcDgs82KzCDJTGMCUDypDr9cLwzAAMbcG4j5yuVzweDwyb3RtXq/3xLXS/2QUu8XC1tQzSOem8rTb7fB4PAgGgwiFQggGg/B6vfD5fPB4PLDb7XJIHj1/AcAhhK/X60UwGEQymUShUIDT6US9Xke1WsVgMJDlbxeu+/v9vrxul8slDXibcMRA51GfNZoQQuRgxOfzIRgMyry6hRt6ikf1SvVBZajruiwTwzDkOSkv1Ib9fj+8Xq/Mlybavfo8o3ypeSSs9xLl2TCME/Pi1Hxa26Ip1uNzu90nRK31eGr3Xq9X3kvBYFBeBx1H+aM2QOeh+5zuM2qnVLeRSASRSASBQABer/dEGxgOh7ApH0HI+YvaRnVdR7/fP3Fto9FIDrOkOWf1eh2bm5s4Pj4+cX8zDPN+Qs+aRCKBP/3TP0UkEgEsz9pxXBtBRAXgdruRz+fh8XiwubmJcrl84iVDcZnLg17CZDiQgWSaJorFohRE6kscY75yqoG2qVj/Z8ZDxlcoFJILF/Z6Pezs7GBvbw+dTkfWlynmcQSDQaTTaaRSKWnQdzodjEYjGIaBVCqFfD4Pv9+PwWCAbrd7QhQRmqbBLbyeZbNZxGIxOBwO9Ho9aViTcRkIBBCPx5HJZJDL5ZDL5ZBKpZBMJpFIJKSBROchY8cwDESjURQKBZnnaDQKl8uFfr8PAPD7/YjFYgiHwzAMQxrTtJ+MK8Mw4Pf7EY1GkU6nMTExgWw2i0wmg0QigUQiIY1DaueDwUD+Hok5iy6XC+l0GtlsFuFwWO4Ph8NyOF8mk5F5jcViAIB+vy+FE3lOm5iYQC6XQz6fRzQaRSAQgNPpxHA4RLvdxkjpDdB1HYFAAKlUCul0GoFAAP1+H61WSxrs0Wj0RNkmk0nE43HEYjHEYjHE43H5Py2oTM4NAKDVaqHX6wHiWe1wOOByuRCLxWQ+M5kMMpkM4vG4PA8ZtSQOB4MBdF2Hx+NBOBxGKpVCJpORCwc7HA4Zh8oiFovB5/Oh1+vJ3i+HwyHPnclk4HQ60e/30ev1oCuCSBMC0+fzIZFIyPKn+qU1jHw+H7xCuI8UkUrthMo5Ho/LcnQIxx0ulwuZTEbWGYlzEgI28fFAFRN0D6hQeyFM04RHuM3P5/OIRCLQdR29Xg+9Xk+2X7pOSoOCz+dDOp2W5UPHUdoOh0PWgVoeiURCtgkSYnStas+jzWaTbTuTycDr9QLC62MsFkM+n8fk5KS8j8LhMPx+PwzDgGma6PV6MAwD4XAYiUQC2WwWk5OTiMfjCIfDiEajcDgc6HQ66Ha78hrpng2Hw8hkMiyIGIZ5AXqeJpNJFkSqIKpUKideRpSe1ZBjXh1qfJr48h8IBMb2EKnxrcdbMS0CyVQcZ7yN8CawnuNlwstwmiCiHqJOpwNN1JXT6UQ0GpVGezKZBAA5DGswGMDn82F+fh5zc3Pw+/3odDool8snDBX13HQPzs7OIhaLYTgcolKpoNVqYTgcwhA9MblcDlNTU9KoIiOSvuAHg0FEo1HY7XYMBgO0222Zn3w+j6mpKSQSCQSDQfh8PmnQksEUjUYRFl7narXaCcPeJnqnUqmUdFddKBSkER6LxeRip2TMkdFHQlFtl263G9PT01hcXJTGq2EYyOfzmJiYQCqVQjgcRiwWQzAYRCKRkCJnMBjA6/ViYmICk5OTyOVyiEajiEajCIVCiEaj8Pl8GI1GaDabUtyRYRuLxTA1NYXZ2Vl4PB7UajVUq1X0+304nU6khHvqXC4njVO6xkgkIg3gaDQqRWAkEoHdbken00GlUkGn05HiJhKJIJPJYHp6GlNTU4hGo/CIHkTqIYpEIrJXzOl0otVqodvtAgA8Hg+SySQmJiYwMTEhjW+bGG5GPRaJRALxeBxutxu1Wg3lchmDwQBOpxPZbBYzMzOYnJyEpmmo1+uo1+uAeHZoQgyFQiFMTExgZmYGhUJBXmsoFEIgEJDijwT1YDBAr9eTwojat8PhQKFQwNzcHCYnJ2ETw7ni8ThmZmaQz+dlmVpF5Wg0km2fxLT1vrH+bwpBROfMZrOw2+1oNpsol8snem/oWPrf4/EgnU5jfn5elg/dfwDgcrkQjUYxOzuLyclJZLNZeQ95RE+h2mvk8XgwtHjzs9lsSCaTmJubw9TUFDweD0zThN/vx9TUFCYnJ2Vbo7KIiwV0qWxJUE1MTJx4BlBct9uNbreLZrMpxZhpmiyIGIY5E/rg9LKC6Np2lagXrinDCug3c/mQkU1lTdso6MrQJTJIbcr8jvOCmtabDpeNNf2XDReF4qrH0V+1Tqjsw+EwJicnMTs7i3w+D8Mw0O120Wq1pOFNRjcNvwsGg9CUL9RWTNOEy+WSxjUNlxkOh9DF1/+MmEQ/Pz+PeDwOAGg0GtKYbzQacDqdJxZf9Hq9J+5jmzJPYyScPpDRSb+hfCwhY04Tw32CwSAmJiZw69YtzM3NIRqNAgCazSYqlYoUhMFgEFNTU1heXsb8/LwUM2oZ67oOv9+PXC4ny5O8pgUCAUD0BpEgDAQCmJycxNzcHAqFghRlsVgMuq6j2+2i3W4DAEKhEKamprCwsIB8Pg+3GEpIZe1wOBCNRpHNZqWh73Q6AfHFXlPm+lC90fFDpfeCDE3qbQqFQifKWBcOENLpNJaWlrCwsIBEIoHhcIharYb9/X0cHBxgb28PtVoNXq8XU1NT8hr9wnsctQO7mCuiWYZ90V+qU9pHzwBdiE0SZrFYDIZhnGiTuuiJymQymJubw8TEBMLhsBR51WoVpVIJrVYLbrcb8XgcCwsLWFpaQkr0klI6dG6PxyPPqbbfaDSK4XCIRqOBer2OdrsNwzBOnJt6i2C5Nwm6ZhW6/0jUkbDWLb1LVD5Uj4FAABnR80YfBOh8NpsN8Xhcts+ZmRn4fD70+31Uq1VUKhWUy2VUq1UYhoF0Oo2ZmRlMTEwgEonA6XTK81DvWzweRzablaKcPki2Wi00Gg2MRiMEg0FkMhnZzqempmS6sVgMTqcTnU4H/X5f1u3ExP/P3ns1R3JkadpvZGRGaq0FEloVSpJskt0znFmzmWmzuZj/1Bd9t/1z1mx3dnq/mSF7mk3VJEugqlCQCSRSa60ivov14+sIJlAoRRaL/pi5ARnp4eF+3CPynDjuxxextraGeDwOm812oa1ikkgkEhHz8/W6vLMeIrfbjZOTkx9MmaN8hjB1S/JqkEJDSrbH4+Eeolqthl6vx+VNycKMHDr/siTm+TF5lR9acxsovSrXKUNUGskLE4vFMBgMcHp6imKxiPF4DCtb8LywsICVlRXEYjEAwOnpKU5PT1Gr1TAYDKAoCoLBILLZLNLpNIbDIVd8R6MRv5/E61utViTY1C9N01Aul1EsFtHpdGBn0+/IY+FyuVCpVHB0dITT01OUSiWUy2W+9s/F1tCMRiM0Gg20223ePp0trqcxpygKarUaTk5OkM/n0Wg0UK1WUa1WUa/XMRwOMZ1OobI1USsrK9je3kY8HsdsNkO9XsfZ2RlOT0+Rz+dRKpXQ6/Wgskh2Pp+PT8trt9t86iEA7uHJZDJwsE0iNU3DaDRCtVpFoVBAsVjk9SejyMnWwfj9fu4JKZVKqFQqqNVq6HQ6cLvdfArRYDBAq9VCu90GmIIbCoWwwCLsdbtdruyPRiOuSE4mE/R6PdRqNVQqFS6bUqnE5TObzXg9RHnUajVMJhM+zYoUX6/Xi3a7zUNfn56eolwuo1wuYzAYcE+Ey+XiRki73eZGNhkRhmFwo7lWq10YC4VCAYVCAZVKheclY5u8Mq1WC6enp6jX65iwNScOh4OPs4WFBVitVlQqFRQKBT51tFAocE8atY2Mtl6vxw1SmqaXEqbDGcxTYbfbUavVcHx8jHw+j0qlwtvo8/kQCASg6zpqtRparRb3qj7vmUC/UTT9NMKmnvZ6PRSLRW4swfQiiu6vxcVFhMNh9Pt95HI5fr/a7Xbef8lkEoqiIJ/P4+TkBMViEdVqFZVKBfV6HXa2BtDj8cDGpq/RiwIad8lkkhs0dja9bjgc4uzsDMfHx3zM0z3ncDigaRocDgc3uBuNBorFIgqFAhqNBmazGVwuF3w+HxRF4YYaee7IcJceIolEYkZ8tkoPkYnLFNvnCUZyfcwyJuPHwqbYaKZIQ+JbZ/GceQmXvFF904hKy+tIrwoZkC9alphfEaY2OhwOxONxLC8vIxqNYjab4fT0FHt7e6hWq+j3+/ztPL3Zpr+kiF0F1ZfqTH2psQXRkUgELpcLjUYDBwcHePr0KZ49e4Znz57h8PAQ+/v7ePr0KZ4+fYrT01MeKEFVVYzHY66EHh4eolQqYcLWBvV6PeTzeRwcHODZs2f8/F6vx1+8WJg3Z2VlBalUCgCQz+dxdHTEr3twcICjoyPs7e3h8ePHKJVKMNiaoEwmg1AoxMcyBK8bycxqtWI8HqNQKODp06d4/PgxHj16hIcPHyKXy6HdbsNqtSLM1vcEAgG0Wi0eSvrg4ABPnjzB7u4u8vk8hsMhXGztjYutzRET1UGUvcrWr9TrdRweHuLRo0fY3d3F06dPsbu7i93dXezt7eHw8BDlcplP59J1Hc1mkyuzZGRYWIAGTdNgGAaazSaXGRlFZGyQUdrtdrnB53K5oLAgDc1mkyvNpKzruo5Wq4VcLofHjx/z/t/f30ej0eBtU9izxXxvGWx9FynrS0tLyGaz3NA8PT3F0dERjo6OcHh4iMPDQ96/JycnGAwG3MuXTqf5FEka7+L9p2kaLBYLSqUSjo+PcXBwgMPDQy6Po6Mj1Ot1KIqCEJuSR3KjMnTTfk/m596MTTWl4EB2ux1RtubOxoKFiO2n/gkGgwgGgwDAXwiQcadpGlwsWMVoNOJ7OVE6Pj7m6eTkBNVqFbqu82l0ooeI2qKwiI92ux3dbheHh4fY3d3F/v4+nj17hkePHmF/fx/NZpMbnvF4HJqmoV6v8/t0b28PT548wf7+Pr/faNqexjyeBMlJbL9EIpGYfxdehHfeIII0ft449MMk/phrLKoTKQP0Iz0vhdi88XmJfhBl+r9ToRwOxwuNZ8qrCNPk7HY7YrEYNjc3sbi4CMMwUCgU8OzZM5yfn3PjASbFQ3zQUD/Pg65jCHvbEDYWgcrBonANBgPU63XuPej1enzqUblcxtOnT/HgwQMcHh6i0+nw69Lb6nq9jna7zb3J5AlpNBp86k+n08FoNMKULdi3sSmApJT1ej1uXJEnq9/vo9PpoFKpcAOtWq1CZdMM4/E43G43VCEstkXwPk8mE5RKJZycnOD8/Jx7e5rNJsrlMn/jbWNRtgaDAc7Pz3F6eorz83PuIapUKiiVStyAcrlcsLGQ1HRdkoko75kQiGLI1oO1Wi00Gg0+Laper6PX60FRFPhZtDebzYZWq4WTkxO+vw9NcaN2VSoVPHv2jCuvZEDTdafTKdrtNqrVKrrdLiAYEFTnwWCAdruNbreL4XCIGZu6N2OBI9rtNtrtNu8LMsp0YRodTEYFjTOXy4VYLMYNzX6/j9PTU5ydnaFSqaDZbKLN1pQ1Gg3k83ns7+8jn89jPB7D7XYjEonAy/ZDor6lvqa61ut17O3tIZfLodVqYTAYoN/vc49guVxGp9OBlUVEdAsRF6nOVyWdrRkrFosoFotQWIAMmoYp3tvUdo/Hw+s+Ho9RrVbRaDT4CwMysnK5HDdCzs/P+X3U7XbR6/W4N5GeBXQNkruIxiLZ9ft97ims1+vodrvodruoVqv8vrKy6HcWNiPk7OyMX79Wq6FYLOL8/Jx7GZ1OJ4Js2h/VA895/kgkkl82Zn3luvwiDCL58PzxMNhb2hlbK0GRu9bW1rC+vo7Nzc0LaXt7G9vb27hx48aFtL29ja2tLZ42NzcvfH6dyVynV72WuZxXLY/KWFpa4p6Jl4GUkXA4jKWlJaysrMDhcKBcLnNjoNfrcQXYKuzRctU9RA8eQ/AM0nmiQaSwtTvi2hEykMhIMpgSP2PrUs7Ozvh0nn6/D0OIjjdhkcvoujT26DuaVkSKNv3vdDoRi8UQCAQwHo9RKpWQz+e5AkjljsdjzGYzdNjGp6Qwe1kEO1JKKZHCbLFYMBgM+PQ/UirJSByNRmizKXdkANCUoU6ng+FwyL+bsLUdQxbUgLysVhbSWuwDmDyt1F5SZOkY3Z8TFt0uxSKZBYNB6LqO8/Nz7jXq9XoAM3JJmT48PMSDBw/w+PFjnJ+fc4NlOp3y+tB4EWVDY0NhyvVkMuHrRqh/xP6fMeNK7DvMGVNi/1tZUIZgMMjXbpXLZeTzeW6gjIQIiTM2bY+mjbXbbT7Vz+fzwcbW31AS+1ecdkf1nLLgH+12G81mk8vPKez3RLJ5HjRWarUaCiwYCq3FicViXJbU91arFUEWtU3TNHS7XdRqNW6sKsw7d3Z2hu+//x7ffvst976RwQSTN1q8l+kvQf1KXqNarYazszNUq1X+AmLKIlJ2Oh20222M2X5RvV6PTw0lbzSNSZLfkAV/oZcn8+RGbZdIJBIIv4Evwy/CIJL8eBiGgcFgwJUBmiseZlGzKNG8eIrKZE7kWZqX/3WmN1l2RCj/Va5D54rTpUjWLwKtq9jY2MDy8jI0TcP5+Tl/O05rNGbM22Jhb8XNSof5gSMqi+Z8YIoUKbtkDJAS6fP5sLGxge3tbSwLUeMo1DUpmWavAJUnKm+GYBCR0Uh1FetsZ1HuHA4H91B1WAAFaqshTMcxmAJHb70dDscFbx3Vh2Sg6zr3kAzZOiMqz2DyJcVQ13V0Oh1Uq1W02doTVQg2oigKxuMxRqPRhfaa20TQNahsMGOG+kZnBpHODMNoNIpsNouFhQUoioJCoYCDgwM+HmgsUDv7bJ+nWq2GRqOB8XjMlWJaO5hIJHh4ao/Hw69L5Yj1pL4VjTuqOx0ng4jkS3IRyyIUZmQ72d440+mUe8bI2CW5UH5VmIZJXgyKuGZlmxDT9eie6Pf7aLfbGAwGfIyKht2EhQEX+4hk+CKQwVapVFAul2GxWBAOh5FIJPi6K7A+puiFwWAQs9kM1WoVzWaTT0ckedN4K5fLvA8tLGBGKBRCPB5HMplELBbj0RtpTMI0xmi80zOfnvskZ2r7dDrFcDjEeDzGhK3BK5fLaLfbfDyK/UoyJRlSH9N1KZ/Y9xKJRCL+NtLz57pIg0jy2hmyhfcHBwc4Pj7mb/kp5XI5nsTjl+WR6f+mYrHIlVTMeWN7Fbquw+PxYGVlBTs7O0gkEuh0Otjb2+NTo0i5FRVSUYGb93AxK6MQjAn6LB7v9XrI5XJ8nYCqqlhaWsLdu3fx/vvv46OPPsJ7772Hmzdv8jDJpJSRokR1EutGMiElTDQAKB/ViZR3Ko8MDjKIRKV7yrwepJh2u11Y2dQ1s5JGSjspnV0WYUsxGSmiUm4wI3HI9lsRFUP6awh7MFmY547aQ2UQ4pigc8V8M/YWXlVVxGIxvo7K6XSiVCrh6dOnODo6ujDOxPLJQBmNRphMJnA6nUgkElheXsa9e/fw3nvv4Ve/+hU++ugjbGxs8IiEVA+SAyUqn2QjyoXOofpD6ENFMESpz8X8Ktv0U9d1jEYj7u2jvCJ0DnknqByaCmbOKyrrYyFEN5VvYQarLhi3YtuvA+XTmbFRq9WQz+fR7/f59MZ4PM7vC03TEI1G+TTQDptySoY+1UeUAcnI6/UilUphe3ub34MfffQRNjc3EY/HYbfb+ViEIC+SE8l4wMLi03UIGpPUptlsxqekkreO+p2+F8fBPMQxIZFIJK+D62tUEslzoB/d6XSKSqWC4+Njvlh+b2+PL5rf29t7K9O8+tGxy45f95j5+IukZ8+eYX9/Hzm20TApOKSYmPvAfIyUFxfb/yUajcLhcPB1ODTliRRJUaHTTfP2xf8vQ1SeCDp3PB6jXq/j9PQUz549w+npKcbjMQKBANbW1nDnzh3cu3ePpxs3biCdTsPj8VxqAFJdRUSljeqqCMaOzWa7cFxUFOlcOp+O09vtGQvuIJYvXocUxJlpM2L6n8ozmIFCSqQob5LfZW0Qj4nf0Xl0jBDLs7H9eSjamM/nQ6vVwsHBAc7OztButy+cT221COtoaNrh8vIybt++zftrZ2eH78vj9XqvNN5IDoS5PXRdkgHm9KtYhllpVwUPI+UX5UbQMdGoofPF8oip4NUyjxmC+pLG27z2XweqV7fbRbFYRKVSuWD8OBwOzGYzuN1uRNmmppPJBLVaDfV6HQNhI1/xr0WIQrm1tcWN2Tt37mBjYwMLbFNgWrMm1l9sJx0jA1Ec89RW+l9hxtOMGeUkZ7FcykPnmq8lYpa5RCKRvMozYb6GIZG8BPRjN2Xz6OktYLfb5Z8p0cLdy5KYd945Vx0Tj887Zj5uTua6mtPzvr8szbu2WKd5qdvt8nx9trmlqEiYb35RkTB/RwofKSMulwuBQAB2u50rSXSuGVHBobLn5YPgxbAKa5DAyrCwKTaNRgOHh4e4f/8+vv32Wzx9+hStVgtgC8NTqRRX1G7dusX33yEFk8rTBe+P+HceiuB1gaBAk1xEBY4Q6w9WxjxlT5QN1YsSKXv0PUH3CyXCXPa886jdYn4IfSNem+ozmUxgsVj4vkpbW1uIx+OYTqd83VCj0eDji+otXpvWqayuruK9997DBx98gK2tLWSzWVjZxqGlUgkHBwc4OTlBp9O5YBSI8qIxJ8pGlPdldRDbK0J5qEySA4QIifOg65CBA8EYo+/N1ycPmdgPVA4dm9d34v+XQW0WPw+HQ1QqFRSLRUzZVNNYLMan0NJ0Ob/fj+FwyKdgTlnUPSoHLAhCOBzGxsYG9wjduHED4XAY0+kUtVoN5+fnKBQKqNfrmDLPKfXbvDYYwnRVRbjPzPcqlSHKhsqmz/S/eL15fWC+NyUSiUR8Xsx7Vl2FfKJIXiuk5BHmwSnTxUTK4rwk5hGVCPM0nOugKAo6nQ7y+TzOzs7Q6/W4YptKpS5MS7sKUmouQ2GBE2i6EdWd6kptIu/U6ekpvvvuO3z++ef4/PPP8f333/NwvzabjU/rWllZQUAIv0sKv2gcUNkwKc2iskWQAaSq6oUyCKqr+NnCPCRm5VoxrSMSzxH7Tayf+D2E6X+Ux5xP5KrP4jWpToYwVc7n82F5eRnb29tIJpMYj8c4PT3F4eEhXwxP51I9yFDQ2bojOn9zcxOJRAJjFpji4cOH+Prrr/HVV1/hiy++wP7+PjeISGairAwWBIHaOq/dxhyPnYh4jvk7+t5qtcLGwlRTXebdZ4oQiZFkQGWayyZ5Uv3oWoppyqV4rphPbBdxVVsmLLhGsVhEs9mE1WpFjG18TGs0I2yD2k6ngzrbdNYwGQ6qqiKRSGBnZwc3b97E0tISXC4XD5bx3Xff4a9//Svu37+Pvb09lMtl7j0W2yHWmzC3/zIZiOdfVtY8RJlQu8xykkgkkpdFGkSS146oSMCkpL1KEn9MrzomHp937HnnQ/ihnne+2KZ558879rwyL0uiMiMilnEZ9B397XQ6fJ+UWq0Gh8OBhYUFrK+vI5FIwOl0mkr4fyhMMaY6X1YvMC+Cg21OqpgWkuuCV2TCoow1m00UCgU8ePAA33zzDVeqDw4O0O/34Xa7kUwmEY/HL9TRLAPlCsVKlIXoJSMF2OzNEqH62+12HkhhPB5jytYX0XVFBRBC/UTEz8Zz3pqb8xPzjsHURuojqpNhGLDZbMhkMrhx4way2Sx0XcfZ2RkeP36Ms7OzC4vvqQw6VxemWS0uLiKdTsNut6NSqeDhw4f46quv8P333+Px48c4ODhAkW0ALE6NMivIBlNq6Rpiuwk6j4wY+t6cD0I/TViEwRmb2iga55clyud0OqFpGhTWxzTmRZmTjOh6oqyvqqtZpiJUnigTUR4G8xKV2SbH0+kUQWHD5Gg0Cr/fj8lkwoMlUH+K95/D4UA2m8WNGzeQSCQwGo2wt7eHr7/+Gl9//TXu37+Pg4MD5ITNXM2Y6y5CshDbKSaCPlP96DtRlvTZjJhXIpFIRMzPmRdhvgYgkbwC837wXwdmJeGyY+Lxecde9fx5x162TLPCcJnycFle8Xsxv/mYxWLBiIXwpbUizWYTdrsdCwsLPKS3uX4EGTK0B465LQrrc4vFAo/Hc8HjZBHe5IpKH61NmLFplv1+H5VKBUdHR3j48CHu37+PUqkERVHg8/kQiUTgdDp/0DYIyqYZuj6l2WzGpyKOx2NYrVb4/X74fD7uGTCfbxgGj0zndrsxYVGyKAKWwTxN5vPNMqJjmNOXEGQjlmH+TJjLJebJwWCemEQigdXVVWSzWaiqinK5jP39fb5xrSEo5VR38bPNZkMoFEKEbarbbrext7eHp0+f4uTkhEfhG41GsLB1Rg6HgyvkJH/RkBCVdTpmbi/1IbVr3l+q+4wFfOj1ehizfZ5oHQx5ieZhs9ng8/ngcrmgszVgfRYO2oxZgQdr22Vlw3SPmj3odE+pl6xZIqZsQ9vz83N0u11omoZ0Oo1sNsuDH7RaLR7KWjTm6Pr0coGmx52fn/P1jWdnZ9yzNGGBNyigAi6pEyG2TxzH4liiPqJE9z2NCTH/85g3TiQSiYSeCy/zfLj8Cf4OcZ0HrERCPO9Gus73ohJy2THz8esmUhCvUsDMGIJnpNFo8I1Iu90uD2iwtLSEYDAIVZjepDCDRYwq5vf7eVhjsS6apiEUCiGZTCIYDMJqtUIXppHpug6Hw8HzRCIRblxRu6YsPG+r1UK9Xkez2QSYd0bTNG5kUZkGU7Jo/QLloTZYTKHDdV1Ht9tFoVBAs9mEqqqIRqNIJBJwuVwXPAlk5NjtdoRCISQSCTgcDrTbba50Ur1JvmI/0fUJOkb/kzFAyqBZyRP/h8mYMiOWR9efsmANdrsd8XgcOzs72NjYgNfrRa1Ww9HREXK5HNrt9oUgEIRohJCB4/V6uZeu2+3yTWPH4zHAvIN2ux1utxthtpcPyZ/aR9eg/6neCpuyRt46OkdUlkVjhI5RPip/MBjwDXlVVeUh/L1e7w+MeYVFaPP7/Ugmk/B6vRgMBqhUKuj1enMNIhGxLEKUISn/VE+D7ZGlsP116F5Ip9NIJpM8eIi5jlRWj23UWi6XMZvNEA6Hsbq6ikgkAl3XUalUUK/Xebh3qo/BXkLQNggUVKVcLvP8YP1ns9ng8Xh4/1lZYAyxH0WoXebrUZvpnjX3I32me43uFVF+hHgNqgMdk0gkEsL8fHoRrq9R/YwRH6TyAfrm+bnL+Hk31PO+FxWCecdfJ5cpKOIxuiaN/9lshmKxiKOjI5yenmIymSASiWB5eRnZbJbvb0IKEAWAGI1G0DQNsVgMyWSSK0sqm24UjUaxurqKTCbDw1pTPagOHo8HmUwGOzs7fFG/eQNMUqpdLhccDgesVismkwkP00tlUnvIu6Sz0OI+nw92u/0HyjWYUjcYDJDP51GtVqHrOkKhENbW1rhRRG23sql/4XAYCwsLSCQSsFgsaDQaqNVqPMywYXrzbf5M7Rf7AaapV4ppGqI5P31nlqeYn76ncsEUXK/Xi0wmg+XlZYRCIei6zjcrJW8OydzhcEDTNGiaBpuwnw+VJV6LPBvk3bBYLNyTlkgk+JoWMkLoOtTP1PaZEFTC6/UiEAjA5XLBbrfza1MfirIlzwJ9R3WYTCZoNptc0Q8Gg1hcXEQymYTb7YaVBfygNgaDQWQyGSwsLCAQCGDANtXtsf10xL4QEdshIuYXxwB9N2NT+TweDxYWFnDjxg3cunULGxsbPAKkOMYJhYUGr9fr3EtE0f7cbjf6/T730pHRRdc0hL25SGYkLzE5nU74fD6Ew2EepIGmv9K9Tu2mY/MQxyN9pmOWK9b+0Ng1t1v8TFzWLxKJ5JfLvGfFdflFGETij6l8gL5bvEx/iue8zPnzeF3lXAflkkX8IqISQcqLje3LorMNNkulEg4PD3F+fs7fNq+vryOZTMLBdocHwKeYDQYDKIqCcDjMPUqJRALRaBSZTAYrKyvIZrMIBAJ8Ogxdm+Sjqip8Ph8ymQy2t7extbWFxcVFxONxPh0rGo1icXER2WwWsVgMuq6jWq2iWq3yfWIM9mZ5NpthMBhwJdDr9SKbzSKRSHDPQCgUQiwWg9frhcI8XrSvCy1Qz2az2NzcRCaTQTgcRiAQ4F6Dzc1NLC8vw+v1ot/vo1qtotvtXoiqRQo6yRsm74Bhmo5GCqh4nL4T+5DKMSv9YGOO+pm+U9m0PboGGarZbBahUAgWFuUPLNpYPB7H0tISlpeXsbq6iuXlZS576lsyEmds/xham0L710SjUfh8Pr4pK5XhdDovtI3aJLZ/wtaRDdgGp2S8JRIJHiggGo0iEonwzXpJZhA2nbWY1u5QAJFisQiLxcLHp9i/wWCQt39tbQ3RaBSGYaBcLqNcLvNpZ2KfiO24LmRIwKTw2+12xGIxrK6uYmtr68K9R9eBIDOFjbNOp4NSqYRGowGDeUUVReEb0NLLAQhGA42P6XTKPYJOp5PLNxAIwOv1IhKJIJPJXPDyinWgdtBYJ7lrLNgJ3RMiZPBSGYRiMnDpPPNYoTYYQiAFOofaKZFIJK/KO20QmR+s4jHJzw/xh/GqY+Lxeceed/68Y5cdn3fsx+B51yVFgt5GmxVznU0dy+Vy2Nvb42t1MpkMFhcXL0R0m06nqNfrfGd5h8PBN3i9e/cu7ty5g1u3bmF5eRlOpxOdTgfVahW9Xo8rz6SsjkYjdDod9Ho9OBwOLC0tYWdnh0/nWl9fx/b2Nu7evYu1tTW43W6+7omioOmCR2U8HqNWq6FSqaDZbMLBAkWQsbW5uYnt7W1sbGwgGAxypW44HGJ/fx/7+/tot9twu91YXFzErVu3cPv27Qvn7uzsIBaLodvt4uzsDLlcDq1Wiyt5ZGRQoAVRWSTPl9gnVH+YNqGksigfhH6esemOVH/zm3ldmDZIZSlsOlgkEkE8Hofb7eb5Y7EYNjc3uXeCEkUfu3XrFra2tpBIJKBpGnRhg1DqW4o4t7W1dSEtLy/D4/Gg3W6j1WpxL5TNZoMqREdU2T5BzWYTxWIRjUYDiqJgcXGR72e0sbGBGzduYGVlBdFoFJqmzZWhKDudTS07OzvD4eEharUaNE3D8vIybty4gRs3bvC1VJubm1hfX0c6nYau6zg9PcXe3h6fMideR2ehy2kqIh3HJc8bMgTEe04cuxbBI+Pz+eD1evnaOxoTmGN8DYdDPp2UPFjUN61Wi+89JEJlDIdDnJ+fo1QqAQDi8TjW1tawtbWFlZUVLCwsYGFhAbFYDLPZDPV6nY91mIw7sGcDfWew6YCGybAXx/BMeFFC45j6jeQi5qV7isqge00Xnmckd/prlpdEIvnlYH4Ovwjq7373u9+ZD/7Y6OwNaKPRwKeffopcLgeFvcm97sONHqROpxMLCwtwu904OTlBs9mEwn6A6aFrfmBLXh8k4zeB+QfQfPxljl12/FWOvan2E8Zzxi/1Aa0D8Hq96HQ6OD09RaFQuLAugt7QGywKmdPpxHg8RrfbvbBAXlS4bcJCdZ/Ph1AoBLvdzqcqFQoF9Ho9brCUSiVUq1WMx2NYmKfBwqbbaJoGt9vN6xoMBhGJRBAMBqFpGjfanj59inq9zg0iQlQyqTxN07iCSSGJVVXl612ovwaDAcbjMVRVhY0tug8EArxN5Pnwer3odrs4ODjg0wxpOhXJ22q1XliDks/nUS6XYQhri0iRtNvtfGqfYRh8w81+v8/bJeL3+/l6q16vh9PTU25oUJ9RwIdqtcqjjI3HY7jdbu4tA4DxeIzBYABVVXnQA4/HA6fTCZfLBafTCY/HA7fbDZvNxhVtCjBgMI8E9R8F0PD7/Xxt2Ww2Q7VaRa1Wg8ECUoxGI1QqFT4OwKbcGWzDW50ZzVYW5MLr9cLtdiMUCiEQCMBisaDT6aBWq2E2myEYDPJxVywWubePFGUwZX00GmE6ncJqtfL2Uf/6/X6EQiE4nU4oioJCocDX1jWbTT5eqa2BQAAejweGYfAx3W63oZimKVLbvF4vwuEwAKBSqeDs7AytVgsK8w45nU6Ew2F4PB5Mp1MeVrtcLqPX6wEmLwnd8wozJmKxGOLxOFRVRaFQwMnJCcrlMjqdDiA8m8RnBRkaVqsVTqeTT5Mko4yM1vF4jGq1iuFwyO/ZVquFarWKTqcDRVG4l81isaBer+Pk5ASlUgkGM1wswjRPp9PJ+2w8HqNQKPCxQLKzWq382RAIBPiYrdfrF2RnsVjgY0FWaE3fyckJGo3GC+kMEonk3YSeAfF4HL/97W/5s+R5z4ZflEEkct1yJZIX5ccYW1ddgxQRUlz7/T5qtRoPJECKPJjSNBwOMRwO+dvdVquFfr9/YS3CdDpFj20WS0omLTofjUZ8XcPZ2RkqlQo6nQ4mLBpbqVRCs9nEiO1xM5lMMB6PeZqw0MzkkZqxIA6k6NAeOcPhkBs/BP0/ZcEYhsMhZswrpghT2RqNBjfU6Fmgs2hig8EAIxY0gq5PCt1oNEK1WkUul8PBwQFv24x5dkhBs1gscLlcAIBWq8UjdpGyR0oo2DQvMgCGpoXt9KyiOirMy6NpGsbjMVcOacoeKbAqm0pWqVS4d2M0GkFlQSFI4a7X63zKX7fbRa/Xw2AwQLvd5p87nQ46nQ7a7TZPJHuSz1jwhk1YmOvhcIh2u43z83Ocn5+j2WzyqXDtdhvlchmtVouPKavVyscDjYnBYMD7BoLXodlsXpgm5mRrm0ajEQ8RTXWkfqH+Faf5jVkobfJ0kEzr9TqOj4/5WKWxYGHeC4sw5bTT6fC20BROcVwqgvdD0zQMh0Nu6NC0U+ozKpPWPFWrVVQqFf4iwgyda7PZkEqlkEgkoOs6D5BBhhy1XxEMKrC+mzIPF43NEQuooes6N3oKhQI3zIbDIbrdLhqNBhqNBnq9HhQWHc9isaDLgmvQHkl0TfG6dI9omoZOp4OzszPu8QXrZ4vwskRjwVEGLMAFjWkqi6b0DgYD1Ot15PN5dLtdfj2JRPLLhZ6dL2oQKcZb8AShN3iHh4f4/e9/j88++wyKomAkLKB+HiqbfhEMBvHrX/8a0WgUn376KY6OjmBhb7gNIbDCdcuVSH5uWNnCdYr2ZbfbobNpRKQcQnhoGOztLL05n06nmEwmGAwGfB0F3T92FnEtEAjAxqaDGYaBbreLTqfDvU10fQBcKRUNMVVV4fV64ff74fF4uNJPitxsNsNwOESj0UC73eYKsz5nzYAiKKD01t/lcnEDhZSmWq2Gbrd7oQxS7MjD4WOBIizC1J1er4c6W6xORgApwVSGYRjweDw8kAAp1mJ7qF9UtubCx4I/9Pt93ka6Jj2WqX6hUAherxeTyeSCcUgGj8vl4p6GLlvvNRqNuExIxgYzMFRTJEGzXKm/yZAiZZOUVZ/PB7/fzwNwGMzTMxqNuEFNY8Dr9QIsKl2n08GUeShp/JHi7nA44PV6EQwGuYfKYAo7Kerk4aN8mqZxY47GB8mFZEhjOxwOw+l0cuOGDCq6J5rNJobDITee6HwLWydDHiawMU15DZOXWGEGlN1uRzAYhM/nQ4ut76H7g/rNy6L2WZjhRcbFdDqFygxnM06nE4lEAh9++CGWl5fR6/Xw/fff4+nTp2iz9UEKe6FIGMJaN6vVCrfbjWAwiEAgwMeCzqbRtttt/rLDygKL0NgZDAbcIHI6nfz5QkaT6Nmi64rtTafTsNlsKBaLaLVavF6Uh8aC3W6H3++/YMzTGFRVFW63mwd8IKOWZGsI96ZEIvnlQc+0W7du4Q9/+ANWV1dhmDapnscvziAirluuRPJzg256UnYJUVEQ7wVSIqws5K740JiwDS4pPynElI8Umul0yhVdKlM8j/LRfSgq83a21wkpOxCm9kynU4zZFKurlBxSquwsqhkAHka73+9jwCLCTafTHyjiYEozTSFSVZUbJwYzCuYZY6IsqU3kuRgMBphMJvxaxpxpRFRn+ktJVGRJLtQ3OlvHItadyqLyzQaVlXlDSOEkeZrHhlg38Th5gwiFGS/0Fp+upTNjZMi8dFSeKAOxXvSXjluY4UHGCrVdZ54e8u7MhDVDFmZImMsX5Qo2hY36luSlMKOBxpk41sVzKa/KjG7Kc9l4oLpRmxwOB6bMk0plU72pDZSX8kHwJIrlKoqCSCSCra0t3L17F06nE6enp3j48CGOj48xHA5/cB+aoWuRTEh+OjPcxf4W+5DymeVvYWNOHHd0HfF/hRlRKvOMTtlaIoKuQf1ILyYg1I3yi9c22D1K51GSSCS/TOh36fbt2/jv//2//7INot/85jeIRqP4z//8T24QGaYfsOuWK5H8HCEFhCBlSlTiSfkQoXyE+D0dJ2XI/J1Yvnic8ummiGP0gLKyReSGKTQwXc+sjM+D6iTe66JxZW4nQeUZTAGjB+m8cy77LMqSHriisif+NctWPIc+U3nmc83niZjLpmMQ5KwI3iqx7vSX8os/GnSOOG4swh5NFiFqHcmAjEdzOQrrIxFz+8wyoT4lY9ZgfWsIAUOszPNG51EZqhCRjq5vlpE4JkkWMNUHJgXcfC7loyS202DjSpQ7fS+2XZSveE3KrwhT5ZaXl7Gzs4OVlRW0Wi08ePAAe3t7aDQa0JnBTOWKbRKPUZlWIZS6IchWrAOdR4j3Jn1H5YrXozYR1GbKI8qLvidE2Yj5SVbi+DDXXSKR/LJ5WYPo6m9/hhhsTQStFRAfrBLJLwlROSCFgRDvCzGJec3Khah4TNnUMfENu3jMrKRQMqOwt/Q6U7rNii8pP2Zl1Ix4PbrmmK1RovLE9sH0TKB60DlincQy57XFrLwZgjeIlEDx2uL54jn0PR0X6zfvvHn9JtZLPIf6RReUWTGveK157RavZQhyNvc1lS+WB2FMmculOuimMUVeMBpblF8XjC/yIFA+uo7CDA7xOpRnXr+a6yRibrdYx6vOE78jzxOVJ34vts9cDk3ljEQiSCaTSKVSWFxc5HtmjcdjlMtlFAoFPmVsJnhRzHWiY+J16H/6TH9JhuJ5lMT+FdspympeEq8tXucyKD8lOiZ+L/YF1e2q54REIvllID5nrss79+SYzWY4Pz/H8fEx9zC9qFAkkneBq5SN5/Ey577IfWYI3iDxmKgozUvPw6xUknJEyhMpVnTMnESF7WUeqMR16vqmEOst1l/83yxX8vaQATfvHPN5JC9KZBxZhE19zf1mlqthUmqpf6h88bgieFaozpRPrKdYJ7E/xTpc9f086ByxTua2zENsu5mrzjNY4IilpSXcvHmTh0K/c+cOVldXYbVaUSqVkMvleLQ28/i+DJIj3RuiLMz5zInaS31t7tvXDckZpnFN9aV6QPDivYl6SCSSd593xiCih/l0OkWxWMTR0RGazSZ/MyeRSH48RGVxntIoKlikVNGxy843l2FmXl6zkjcv39uSXncdzUq7OZmvR4gK87wk9tE8w0Isiz6bFWuYFHFzHvFcsWxCVMTFsSRi/kzHxHoT5raZMbeN/or1Ff9/HdhsNr5x68LCAo8qZ7Cw3/v7+zzioMFeMFzn+pfJ3ywvsc3z2j5PBiJif14nXYb4vVhn+k7MY+5XiUTyy+KqZ8nzeKcMIoNNk2m32zyilGgQmR/4Esm7yqs8FF4HZkVKvPeepwDhkvOfd/+av6friF6F61zbjLkObyr9mNc087zvzZgVaTrHME3JMst7XvmX5RHLFKG8l13D/L/5e2OOgWZO83hennnHXoUpixjYbDZ5KhQK2N3dxf3793FwcIBGo4EJC2NOHh/Mqas5mWU8DzGPmNcsg8vabb7m89I8xOOKyVCHMAbE8XhZWRKJ5N3nVe7/d8YgAns4Tlm0IF1Ye3DVQ18ikUgkFzErwmal+G3lp6zn677mcDjE8fEx7t+/j0ePHuHJkye4f/8+Hjx4gJOTE7TY5ryiEfC66/BTIho59Ff05Jn7+l1qu0QieTnE5+GL8s4YRCQEhYWEdTgcPJwv8bJCkkjeFM97QyqRvI2I49Y8fn/KsSwqyJfVw1zvy/K9CK/bCFMUBePxGNVqFScnJ8jlcjg6OsLJycmFTWjNMyBeR1veZi6Ts3hs3vcSieSXAT0jXuZZ+M4YRGA/Ipqmwe/3IxAI8D0WxLnhLyMkiUQikUiu4jJl/WWZsWh74/EYg8EAnU6Hb7hLkRMh/Ka9q79tz5Op+fvL5GA2gl+XMSyRSN4uzM+E6/JOGUQG25gxkUggm83C5XLBMMUef1lBSSSvE3qDYbPZePjgqxZ1v4vQvSjvyf+LlMPPmzepYBtCyHGLEFL8TV7zp8bcLpKBuEZNIpFIXhfvlEGk6zrsdjui0SiWlpbg8Xh4WE654FLyNqCwSEiKosDj8SCTyWBpaQmxWAwOh+MXNT7NBtEvqe3zkErez5c3NXZFI0B8dhiv2Rv1tkG/1WaDT2z3vO+vgs41J4lE8m5Bz8gX5Z0wiMQHotVqhaZp8Hq9sNvtMNieCRLJ2wApNTabDclkEp988gn++Z//GR9++CHi8Tg0TePKgEQikUj+H6IRREmMOieRSCQvyzvxFBGVR/EBaT4ulUzJ24DFYoHdbkc8HseHH36If/qnf+IGkd1uB97gG2eJRCL5ufMyb38lEonkKt4JgwiCAklv1+dNkZNKpuRtgIx2u90Or9eLSCSCYDAITdOgvKSrVyKRSN4VnvdbLU53k1PfJBLJ6+CdMYgI8gTNe0iaP0t+WqivzOmXABnsBts7i6Z1/pjTO39J8pZIJBKJRCK5jHfOIILp7RIpnfMMJMlPB3lJzOltU9BfZ32oLDLYaYE0RY26DLPB+DrT6+R1lyeRSH6ZyN9riUTyY/NOGkS4xCii/yU/DWKfmBVzSm+qf65S1s11uMpYuOo7wpxnXn6xrTabjRuDr6P91x3v1wlh+zx54JL2EVd9J5FIJFchnx8SieTH4p01iESep9BJ3jyiYq1pGpxOJ+x2OxwOB2w2GzcGFNNGumBBCOjcef9fh8u8UFQOHVdVFZqmQdM0vkcQ/YXJwKB6kAFC5ZrrqarqhXLoHPprsVigqiowZ8qcIYSMF+totVp5UlWVXwsmQ8ds7FAe8bvLZEjXouuJ1xD/t1gsF2RFiWQoykI8TyKRSC5DPiskEsmPyTtpEJmVPflg/Wkgmeu6DqvVCrfbjVAohGg0ilQqhXQ6jWQyiVgsBr/fD5fLxTcphWB80Ll+vx+BQABut/uCEaNc4VmxWCxwOp3w+/0IBoNwu91QVZUbDGQ8qKoKl8uFQCCAWCyGTCaDTCZzoX42m22uR4XCaHu93gv1o3oHg0Ekk0ksLCwgFovB5XJxI4bKslgsvD4iihCAIRAIIBwOI5VKYWlpCSsrK1hcXMTCwgISiQQ8Hg/sdjs/hwwtt9uNQCCAQCDAw9GbjZR5KIoCh8OBQCCAUCjEZUdlg3m3PB4Pl9nCwgLv12g0CrfbzQ0jMq7E8yUSiUQikUh+atTf/e53vzMf/LHRdR0WiwWNRgOffvopcrkcFEXBbDa7VFkTIcXSMAz4/X4kk0m43W6cnZ2hXC5zBZHWbNA5VymDkleH+kXcLHdjYwMLCwtYWlrCwsIC4vE4NzgcDgdmsxkmkwnfUJeU8nQ6jeXlZSQSCbhcLoxGI4xGowv9ab42AHi9XqytrWFzcxORSATT6RTtdhvT6ZQbIQ6HA5FIBNlsFqurq9jY2MD6+joWFxeRSCQQiUTg8XgwnU4vnEftA4B4PI61tTWsra3B7/djNBrxjVepzJWVFXg8HgwGA8xmM6RSKdy+fRuxWAyFQgH379/H+fk5JpMJN2bImxYOh7G2toaVlRWsr69jfX0dq6ur3AgJhUJQWHTFyWTC62a1WpFOp7G6usrzTadT9Pv9ucYdhHuD5L6ysoJoNApFUdDtdgFmrGqaxvtla2sLm5ubWF5e5kZRNBqF0+nk3jXR+0V1lUgkP3/Mz9/XybxnlEQikVwG6WjxeBy//e1vEQqFgGs8p95JgyiVSsHlcnGDiN5GkxJLZdJb8rcBqpsI1VVMr4q5vBdN10VhCq/dbkc2m8Xdu3dx79493Lp1C0tLS1hcXEQqlUIqlUI2m0U8HkckEoGqqhgOhxgOh9zz4nA4sLGxgQ8//BBra2twOp3o9/tot9vccDKjsKl52WwWv/nNb3D37l34/X6Uy2WUy2VMp1PYbDY4nU4sLS1hZ2cHt27dwq1bt7C5uYnFxUXE43EkEgluuCmKgtFohNlshvF4zI1si8WC5eVlfPTRR3j//fcRCoUwmUwQjUZx+/Zt3Lt3D2tra8hms3A6nWi1Wmi1WojH47hz5w7i8TjOz8/x4MEDnJ+fYzwe8w2GPR4Pkskk7t69i/fffx/b29tYWlpCKpVCMplEKpVCJpNBLBaDz+eD1WpFr9fDeDzGeDyGqqrY3NzERx99hHv37iEajaLf76NYLGI6nV54SUBys7ApcNFoFO+99x5u376NRCKBdruNcrmM0WgEu92OlZUVfPDBB/jggw9w8+ZNZLNZ7h2ifk0kEvD5fNB1Ha1WC9PpFIbcLFkikUgkEskb4GUNond63goZQs8TwvO+f5OQoUHGmZgsl0Rhe5VkLu9FkvICcrJYLNyD8N577+E3v/kNbt++jVQqBY/Hg+FwiG63C13X4ff7sba2hl//+tf45JNPcPfuXb5JqUWYmpVIJLC1tYXt7W2srq4iGAxyQ9iMrutwu91YXV3FnTt3sLy8DK/Xy9uhqir34Hz44Yf4u7/7O9y8eRPRaBQWiwW9Xg/dbheapiGZTOLmzZv4+7//e9y5cweRSASKaa8rj8eDxcVF3Lp1Czs7O9yA2dra4gY6TS9zu90AwL1N4hogRVhf5HQ6kUql8MEHH+Dv//7vcevWLUSjUcxmMzQaDZRKJbTbbei6jmQyiQ8//BCffPIJNjc34fP5YBgGhsMhxuMxvF4vNjc3ce/ePWxtbV36gLCwqX4+nw/ZbBa3b9/Gzs4OUqkUHA4HFEWB3W7H0tIS/uZv/gaffPIJ7ty5g0AggOl0im63i06nA0VREIlEsLW1hY8//hi3bt2C3+/n7ZPeIYnk3YGew28iSSQSyY/BO2sQ0cPUbBBAMEJEzJ9fFvP1rpvMxgcp7uZkzvOiyVzei6bnobA6qqqKaDSKW7du4YMPPsDS0hIcDgdKpRK+//57fPbZZ/jTn/6Ezz//HA8ePEC73Ybf78edO3fwySefYGtrC16vF7quYzweo9lsotFowOl0YmVlBWtra4jFYnxdj7luFosFoVAIq6urWFpaAgCUSiU0Gg0AgNvtRiKRwK1bt7jnyWaz4fj4GF9//TU+++wz/OUvf8GDBw9wdHQEwzBw584d/N3f/R02Njbg9Xr5GLMwj4rP5+Pro8iTMxwO8ezZM3z33Xf47rvvcHBwgHq9jul0yutpli0dczgcWF9f5/IDgOPjY/zlL3/Bn/70J3z66af47LPP8Ne//hXlchmhUAg3b97E3bt3EY1G4XA4MJ1OUSgUcHZ2htlshkwmg83NTaysrMDlcgGmsU+Git/vx8rKClZWVuB2u9FqtdBsNqEwQ+dXv/oV/u7v/g5ra2uYzWbY3d3F559/zvv166+/xrNnz9Dr9RAOh5FOpxEIBGC55ksKiUQikUgkkh+Ld9YgIkhBF/8qzEMgHje/pX8dyWyMzEuU921GfFOnXBHAAEyZt1gscLlcWFhYwM7ODlZXV2Gz2XB2doa//vWv+Mtf/oK//vWvePDgAb7++mv8x3/8B7788kscHBzA4/Fge3sbOzs7iMVisFqtGI/HKJVKOD4+RrvdRjgc5tPs3G43N3wJwzDgcrmQzWaxvLwMp9OJWq2Gw8NDlEolzGYzeDwerKys4N69e1hYWEC/38fe3h6++OILfP755/jqq6/w7bff4osvvsBf/vIXPHv2DLquY2NjAzdu3EAgEIDKIsNRBDYKGmC32+HxeNDtdvHw4UN89tln+K//+i/813/9F77++mucnZ3xdUL6nNDXNC5sNhsikQj8fj9arRaePXuGL774An/+85/xzTff4LvvvsNXX32Fb775Bo8fP0av10MgEEAmk0E4HIbdboemaWi1Wjg5OUGpVIKu61hYWMD6+jr3hpllpzCjZ2lpCYFAAM1mE0dHRygUCphOpwiHw7hx4wZWVlYwnU7x5MkT/OUvf8Hnn3+OL7/8Et988w3+/Oc/409/+hO++eYb7O/vo16vw2CeocumOUokEolEIpH8FLxza4i8Xi9isRiCwSAajQba7TacTidfi+J0Onmizw6H440kCit9nWS323+QLjv+Kully3Q6nQCb5nVZn5C3xGKxIBqN4ubNm3jvvfcQiUSQz+fx5Zdf4ttvv0U+n0er1eLT0prNJl/3srCwwNcSlUollEolDIdDTCYTuN1uvnZGVVXUajUUi0XU63WoQuQ4i8WCSCSCjz76CO+99x40TcP9+/fxzTffoFgsQlVVxONxfPzxx3jvvfegKApX6h8+fIhqtYpOp4N2u41Go4FOpwNVVRGLxRCLxTCbzbinZzwew+VyIZlM4vbt20in0+j3+zg/P8ejR4/w1Vdf4fDwENVqFc1mk7cVANLpNA+qkM/n8fDhQ+TzeYxGI4B5aaLRKHRdx+npKXZ3d3H//n3k83kMh0OMRiM0m02MRiM4HA4sLCwgGo2i3W7j7OwMxWKRryWyWq2IRqOIx+MIBAIYDAYol8vcQBQJBoO4ffs2bt68Cb/fj/39fdy/fx8nJyfQdR2Li4v4zW9+g2w2i1wux42yQqGAdruNfr+PTqfDZVipVHB6eopisYhmsznXoyeRSCQSiUTyqlhecg3RO2EQQfBikNJMC9ttNhuCwSCCwSBCoRBCoRD/TKGIzYm+f9VEZZnLp0ShoF/kmi+S93WlcDiMQCAAXdcxGAwuXf9BXhKr1YpsNot79+5he3sbs9kMDx8+xFdffYVcLod+v4/pdIrZbAZd13n0tvF4zAMZeL1eVCoVnJycoNvtYjKZwG638yACXq8XrVYLZ2dnqNVqgLAmh65PU+8qlQr+/Oc/Y3d3lxvIi4uL+Pjjj7GyssKn8T148ODCdLbZbMYDKCiKwkNcz2YznJycoFgsot/vXzCIMpkMWq0Wdnd38e2332J3dxedTgeTyYQHMZhOp1BVFel0Gnfu3EEsFsP5+Tk3iAaDARQWFGIymeD8/ByHh4fI5XI4Pz9Hv9/ne/6QXHw+H9bW1pBIJNBqtZDL5ZDP59Hv9zGZTGAYBjweD1KpFGKxGBRFQbFYxOnpKb8eGZPJZBIffPABNjc3MR6P8ejRI+zu7qJUKsFisSCTyeD999/ngRZOTk5wdnaGXq/Hr0Vy63Q6qFarKBaL6Ha7XJbXva8lEolEIpFIrsvLGkTvxJQ50TMxGo3Q7XbRarX4OpZoNIpIJIJwOPwDoyjIjAwyTuj7V01i2WYDg5KYz5yu+u5l04uWSfnpr9vt5iGU5w0sUqo1TUOQGVJOpxPdbhelUgm1Wg3D4ZBPy6I+MwwDo9EI9XodJycnaLVacLvdSCaT8Hq9UFUVhmGg2Wwil8uhXq/zIAu0/44iBDkQp8vZ7XbkcjmcnJyg0+lgNpvB4XAgFAohEAhA0zRukLndbiwsLGBxcRGLi4tYXV3F5uYmstksb7vKgjEEAgHYbDYYwtQvMgT6/T5OT09xdnbGw1uTfDAn/LQZC5vC2e/3cXR0hAcPHmB3dxfn5+cwWBhzn8+HRCKB7e1t3Lp1C8vLy4hEItA0jdeJXhIoioJer4eTkxNuYNK0w0Qiwb1/AODxeBCPxxGPx+H1elGtVpHP53kAh9FohFarhUqlgkajAZ/Px9d9ffjhh7hx4wYymQxCoRBvQ71eR6PR4J4qGicSiUQikUgkbwPvjIfIImz0SOsU2u02er0eRqMRD+V8WbpOnpdNo9EIg8HgB8dfJr2ucq6bBoMBBoMBRqMRnwIlKtwi1AdOpxPr6+vY2dlBMplEuVzGgwcPcHBwgF6v94Pzqf9nsxlisRhWV1eRTCbRaDTw6NEjVKtV7l2hqG+0/qXT6XAlX2frcVKpFP72b/8Wt2/fRr/fx+eff4779++j0WhA13XEYjFsbm7y6WqTyQS6riMYDPI9kmjj05WVFR4mfH19HalUCoqi4PDwEPv7+2g2mzwa3M2bNxGLxVAqlfDFF1/g+PgYrVYLAPj6IvIQ2Vk48tu3b/Ow2+Qhmkwm3PCcTCYYshDkmqYhGo3yvX82Nzdx8+ZN7OzsYGtrC8vLy/B4PHy9VS6X4/ImWQeDQcRiMcTjcRiGgWKxiGq1isFgAIvFglQqhbt372JzcxNWqxWPHz/Gd999x8tSVZVPP6UNXyORCBKJBOJsT6lIJMI32RUNaIvlxSIVSiQSiUQikbwIL+shemcMIsIwDEwmE/R6PbRaLbTbbb4WhNZwmFO73eZ7w7zORNc2H79uepVzL0svWibJqNVqodPpYDQaXTllDgAcDgdWV1extbWFaDSKYrGIhw8f4uTkhG+mKnp0wAwGMma2trYQi8XQbDbx6NEjFItFPhXLZrMhFAohHA7D6/ViOp3i7OwM9Xoduq7DarVie3sbn3zyCeLxOA4ODvDFF1/g6OgI/X4fABCLxbjBFgqFMBgMoKoq9yLSWqFYLIZoNIpYLIZQKASPx8O9Hru7uzg4OECz2YSDbWB68+ZNxONxlEolfP311ygUCuj3+zAMAyoLwEBGG635mWcQjUYj7klRWPjtWCyGtbU13Lp1C7/61a946PGFhQWEw2EefMHhcKBYLPIpdr1eD7PZDFarFTrbFyoajWJhYQE2mw21Wg2FQgGtVgsOh4PvLbS4uIhms4nvv/+eG37UDsMwMBgMMJlMoGka7HY73G43l106nUY6nUaMreVzOp2YzWZ8bRRhNqglEolEIpFIXgVpEDEMFsnK7PEZDAbo9/s80WfygLzpdF0vEeUbjUY/aIPYFvOxq9J1yjQnuoZY/9FoxOU7D+orMTR2IBBAsVjE7u4u8vk8xuMxzy96LsgAoEAD0WgUzWYTDx48QKFQwGAwgMGmRpKBEIvFoGkaqtUqzs7OMBgMEAgE8OGHH+KDDz6AxWLBN998gy+//BKVSoWPp2AwiPX1dWxvb8PpdOL4+Bjn5+cXDL9ut8sNWkoUxCGXy+HBgwc4PT1Fv9+H3W5HJpPhHqJKpYLvv/8exWIRA+Z5AVvjRPLTNA2ZTObCxqyiQUQeFZfLhZWVFbz33nv49a9/je3tbaysrPAbvF6v8+s4nU64XC5UKhUcHBzw9Vo6C2JARqXX68XKygo8Hg8mkwlKpRKq1Srcbjdu3LiB999/H8FgEEdHR/j2229RLpfR7XZ5H5NB1Gw2L0yHs1gscLvdCAaDSCQSPABGMBjEZDJBs9nka8WkMSSRSCQSieR187IG0TuxhsjMbDbDZDK5kMRF/DqbUkd/6TtaSzLv82XfXZVPzPOy6XWWRclcpjnNyz8TZHcVpOiS4kznkDIuYh6c5BFRWUh0Xdj41BDW5xQKBR5cIMT2GorFYnC5XIhGo1hZWYHP50O1WuXGznA45OXPBEN7PB7j9PQUX331Ff74xz/i//yf/4M//vGP+Ld/+zf+mdIf//hH/Ou//iv+7d/+Dc+ePUOz2bxQf2qD+NfC1gORHEQjUISO0V9VVblh+cknn+Af//Efce/ePfh8PpTLZTx58gRffPEF/vjHP/K9iMgwMssVwjTSRqOB4+NjnJycAACfFhgOhxGNRrG6uopIJIJOp8NlNxgMLsiM+oEiB/7bv/0b/vf//t/44x//iP/6r//iwSscbB+ljz/+GH/zN3+D1dVV2O32ue2XSCQSiUQi+al4Jw0iCN4HUQElhfi6ScT8nTldlQ8vMD1IVIxFBdrclhfhOmWKyay4K8IieHN7RSifYRgYj8eYsL127HY7VGGfp8vQNA1erxcOtqHocDjEdDrlxpTCvBzNZhNnZ2doNpuw2+1YWFhAKpVCJBLB8vIylpeXoSgKX0fT7XYxY4EMFEXBVIj2NpvN+DokCl7w8OFDnh49esTTw4cP8eDBAzx69AilUol7rcxpntFIspk3Ngg6V1EU2O12xONxvPfee/jwww+xsLCAbreL3d1dbph9+umn+O6773B0dIRKpYIhC1hBHikzFhZ0pFgsYn9/H+12m6+bIrktLy/D4XCgUCjg5OQE9Xod/X7/Qp0Nw8B0OsVgMEC9Xsfx8TG+++47/Od//if+5//8n/gf/+N/4N///d/53kjhcBhbW1vY3NyEz+eDzWbjUwglEolEIpFIfmrma06/QEjhFz9fpbia/5+X713huu3SdR2qqmLEIsa1220oigK/349YLAaPxwOY5GdhkeYAwOv1Ip1Ow+fzYcSimXW7XT5Vj9yg3W4XZ2dnKBQKGI1GCIfDWF1dxdraGm7evIlEIoF6vY6nT5+iUChwY4i8XLPZDMPhEP1+H7PZDE6nE5qm8T17xuPxD6YWkoFnsHU0ZLiYZUNGEUxyo7wWyw8DC1B+8orpbAppOp3Gzs4OUqkUut0uvv/+e/z7v/8798JQMInpdAqr1QqXywVN0/g6H6qjWB/DMNBoNHB0dIR8Pg9d15HNZnH37l3cunUL0WgUExbqm8KKi94hgj4rbC1Yp9NBsVjEyckJvv32W/zrv/4r/v3f/x1//etfUavV4Ha7EYvFeHQ+iUQikUgkkrcFaRAxSJEV02VcN98vDfKMTCYTVKtVnJ+fo9fr8TUrmUyGL+4XDQSV7V0Uj8exuroKn8+HlrDHkOjdMdj6lUKhgOPjY1SrVXg8Hty6dYuHfXa5XCiXyzg+Pkaj0bhwrq7rGA6HKJVKKJfLGI1GiMfjWFhYgN/v/0FUNIMZxl6vF5lMBjdu3MD29jbC4TDsdvsPDAXzeBANBzERNIboONURzEBMJpOw2+1otVo4OjrCwcEB3ziWNnh1Op08PLrD4eDlU13Mdej3+8jlcsjlchgOh0in0/jVr36F27dvw+PxoN1u4/z8HLVaDePxmBuR4rXS6TSy2SyCwSA0TeNTK6fTKfr9PorFIp49e4Znz56hz/ZqIu/fbDb7gZwkEolEIpFIfiqkQcQwK6xmRVfkuvl+aSjMW6DrOtrtNo6Pj1EsFvlakq2tLSSTSb7vDclO0zSkUim+nw4A5PN5HB8fo16vwxCitIEZXPV6nW9UarFYsLi4yDdGpfUt5XL5wnQvMj56vR5yuRzfTDSZTOLGjRvY2NjgexopisL3GbLZbIhEIvjoo4/wz//8z/j1r3+NbDYLj8fDFXuzcSwevwo6z2y8kFFEXiMKbkGyUBQFDocDXq+X77nk8/ngcDjmXlMR9n2aTqd809tqtQqHw4G1tTUsLCxA13Wcnp4in89zg2vG1pLpug6324319XX8wz/8A/7lX/4Fd+7c4XsOUf8rbMqfqqrQNI0Hb6B2zltPJpFIJBKJRPJTIQ0iyWtFNDpOTk6wu7uLfr+PTCaDe/fu4b333uNR0gKBAGKxGJaXl/Hhhx/i17/+NcLhMFqtFo6Pj3kUNwhGKJiCPhgMUC6Xkc/n0e124XK5kEqleNjpo6Mj1Go1TKdT7ukhyCA4ODhAPp+H3W7Hzs4Ofv3rX2NjYwOpVArhcBg+nw/RaBSLi4u4efMmPv74Y7z//vtYXFyEw+HgRoDYbrNR9DzFn9pF5YjHhsMhOp0ODLbZbCqVQiaT4WG2l5eXsbOzg5s3b2JhYQFWqxUG8zaZ60ZT9UgWvV6Pbx47HA7hcDhgt9vRbDZxdHSEYrHIIwLqbCoklZNIJPDxxx/jt7/9Lf7bf/tvuH37NrLZLEKhENxuN/x+P5LJJDY3N7G+vg6Xy4VGo4GzszN0u10ocmNWiUQikUgkbxHvXNhtyduBzkKfT6dT+P1+xONxeL1e+Hw+uFwuBAIBJJNJLC0t4c6dO/jVr36FtbU1jMdjPHr0CH/+85/x7Nkz9Hq9HxgLYEq+1WqF2+1GPB5HMBiEy+VCt9vFw4cP8dVXXyGXy3GPhXmanhisIRQKIRqNIhQKweVyIRKJ8GOLi4t8Ot7y8jJ0XcfBwQEP5a3rOmw2GxKJBHZ2dhCPx1EsFvHgwQMUi0UMh0NY2BopGueGYfBQ3Xfv3kUkEkGpVMKjR49wcnICg3mlNE1DKBTi669cLhfcbjecTicSiQQ2NjawsbHBN6mlzVAbjQZOTk5wfHzM9yEi7xDVZTabQVVVRKNRHhq71+vhyZMnfO+hfr+PyWQCsKh3VO9gMMinQPr9fng8Hni9Xr5WbG1tDdvb29z4VVUVx8fH+NOf/sT3oqI+lEgkEolEInldkJ71omG3pUEkeSMYLBLZkO2DRHvkRKNR+P1+ZDIZpNNppFIpbG5uIh6Po9/v49GjR/jTn/6EBw8eoNFoXIgwR9BgVxSFR6bz+XwAgGKxiC+//BIPHz5Es9mExWK5sAaJyqFpaJ1OBwBgt9vh9/sRCoWQSqWQSCSwsLDAw1Ink0kMh0Ps7u7i66+/xqNHj7ixZrPZ+PqnUCiEs7Mz3L9/H6VSie/PQ9ek66uqilgshs3NTXg8HhQKBb7nEk1Po2ASgUAAPp+PrxOKRCJYWFhAPB6HxWJBqVTixp/T6eRrhA4ODtBn+xCRd4cg74/f7+dllctlfPvtt3j06BFyuRxfPySeZxgGD2FOsg+xjXITiQQWFxexvb2N5eVlRKNRGIaBXC6H+/fv48GDB3xNmHEN75lEIpFIJBLJiyANIslbyXQ6RbPZRKfT4caBqqqw2+2w2Wzce1OpVHD//n18+eWX2N3dRbPZxGQy4cYMTN4hnU3jgrDGpdls8hDQp6enXHEXDRGxrJkQba7VamE6nUJRFFitVr72hYIAUNS6r776Co8fP0a1WuXlWK1W7ikZj8c4PDzE3t4eGo0GptMpv6ZYD4WtAfL5fJhOpzg8PMTu7i7q9Tp0YX+sKdvIdDabwWazYTwe83a3Wi3s7+/jwYMHODk5wWAw4OurDg8PedAEna1HUoQpc+SFSiaT3JA7PT3FN998g2fPnvF6KIIRSbIcj8fo9/u8T8E21rXb7fB6vXC73Vxm+/v7+O677/D48WM+DY/qIw0iiUQikUgkr5OXNYgU4y3QSihs8OHhIX7/+9/js88+g6IoGI1Gz22A5O2FFHCLxQKPx4NMJoPV1VUeoY2U6+FwiGaziVwuh1qthk6nwzcDvWx4zmYzOBwOaJqGcDiMZDIJj8eD4XCIw8NDHiENlyjeNK5sNhs8Hg88Hg/S6TTS6TSCwSBUtjHqbDZDu91Go9FAPp/H2dkZOp0O+v0+j0inqiri8TjS6TQCgQCq1Sry+Tzq9TqfcgY2zsnboqoq/H4/1tfXEY1GUS6XcXh4iGazyQ0+sKhuoVAIS0tLyGazfG1Qr9dDpVJBPp9HtVqFoigIBAIIBoOwWq2o1WqoVCoXpr1ZrdYL64yi0Sj+4R/+Af/4j/8Iv9+P7777Dv/rf/0vPHjwAO12m+cT70GqP3nUEokEMpkMIpEINE2D3W7n0/YajQaKxSKPNkjT96g/qI0SiUQikUgkrwOKZnz79m384Q9/wOrqKowr9mgkpEEkeaOQQq3rOhwOB8LhMFwuF1+TQh6QXq+HbrfLjQHyrChzFuDTMRobDocDDoeDf9fr9S54l64aQ1arldfR4XDA4/HwKHgOhwO6rqPb7aLf72MwGPA1QdPplBsns9kMLpcLDocDNpsNw+EQk8kEQ7ZRKl1f9HgqbKqdx+OBqqq8zqKRQP+L3iq6JkWdG4/H3LNlYYET6FxVVTGZTLghpqoqLCxqndfrxfr6Ov7lX/4Fd+/eRbFYxGeffYb/+I//wNnZGS8TJoOSzqd6aJoGn88Ht9sNVVX5pqvtdhuj0QiDwYAHxjAbQObPEolEIpFIJK+CNIgkby0KM2DIWyT2KRlA5Dm4qr8v+04RwmrTX0r0/WWI51E++ks3z4yt6VGYYUfuWMon3miUh/6K5ZlvNfGaZCyZ6yrWTfzObEyY2w72UKC6ktzp8+LiIj766CP8wz/8AwKBAL766iv853/+J7755hseCU4sT2wvTOu4qGwxzVjQBupbgsoQ6ymRSCQSiUTyOnhZg+jqbyWS14Co+Oq6jslkwtN0Ov2B4fAikNJOZYiKttmImIdYNypnxtYkTYVIdFQOGQKUn/7X2f5LZNiJBstlyj/lE29UyiueQ/nEa4hliGWLbaZ6u1wuhMNhRKNRZDIZbGxs4Pbt27h79y58Ph9KpRKePHmCfD7P920SyxPLpURl03V05tWbTCYXwnVT+0TMdZZIJBKJRCL5KZEGkeRHZ56hYv58XUTF+lUU7avOpe+uyvMqXLdcMd+8c+YdUxQFqVQK7733Hn7zm9/gk08+wT/90z/hV7/6Fd/E9uHDh3j69Cnq9frcaYbz+guXXI8wDOPCeiHxuPmYRCKRSCQSyU+JNIgkPzqXKdhvGz9nxZ3ka7FYsLi4iI8//hh/+7d/iw8//BC3b99GJBJBo9HAw4cP8f3336NQKGAwGFyY0jjPKDInCHIS85PhYzbgfs4ylUgkEolE8m4iDSKJ5B2GDBAKcT4ej9FsNnF6eoqvvvoKf/7zn3F0dIR+v48Z28DVbLCajSDxe/GveFwXQnaLZUkkEolEIpG8bUiDSPLKmAMl4BKPgNk7YFaWzQq3OUleDMMwMJlMcHx8jC+//BJ/+tOf8Omnn+L/+//+P3z22Wf44osv8OTJEz5VzjAFThD763n9YPYGyb6TSCQSiUTyc0EaRJLXitnoETF/J5XlN4vB1vEUCgV8+eWX+Pzzz3n661//iqOjI1SrVe4dEs+bZ8xSEoMlmI+JwSR+CsyG2FVJIpFIJBKJBNIgkrwOSCEG23DUIoTXlgroTwcZNMPhEOVyGeVyGZVKBZVKBY1GA/1+H9Pp9IJnR0Tss3lG0jzEvr6s3DeJecxdlSQSiUQikUggDSLJ68JiscBms8Hr9cLr9cJut881jCRvHrPhQuGwR6MRJpMJz0P9Qcbsq/aP+fzrGlGvE7PRc1mSSCQSiUQiIaRBJHllRGMoFoshnU7D4/FAVdULyrBURH9cRIPHbJzQd4ppM1di3ud5+Z7Hi+aXvB6kASiRSCQSyfWRBpHklSGDyO12IxwOIxKJwOl08k1MpUL25jErwFfJXDRuFEW5sCksTEbSixhB1833JjG3zWq1QtM0OJ1OOBwOWK1W3ubnyenHZl7/vUgfmPttniEs5v05JIlEIpFIfgykQSR5JQy2cF9RFG4U2Ww2/h39NStkxGXHJdfnZZVIMhrIcAUra17UwJ8LoiGgqipcLhcSiQS2trawvLwMn88HVVXnyuynbrPFYrmwBu9FEdtus9ngcrng8XguGIKYM17e5iSRSCQSyY/Bi//qSiQmZrMZxuMxdF2HzWaDxWL5wdtps1E075jk5XhZxXGe7OnYz9UoonFH+yB5PB4sLi7ivffew/b2NoLBIBRF4UY8WFtf1gi5Di+q4Ou6zsOgG4LRelUZ9B0ZVYFAAMvLy1hfX8fCwgJcLtel50okEolE8kvnzWgAkl8MpKiJ+9iQ4mVWwMzG0TyFXPLivIoc5/WDqISL3qPr8CJ53xRUf4N5SkKhEBYWFhCLxeBwODCbzTCdTi/kF/++CcR7Yd516L4xhBDmYh/Qiwaz0UZlUV6bzQZN0xAMBrG+vo7bt29jZWUFLpfrwjnz+l0ikUgkkl8q0iCSvDIKW6tByvNVCqZUxN4urlKORa+DmMTj877/qTBMG8JSu2w2G5xOJzRNu1A/yvcmEOU6b48ms7zN9SC5qqoKTdPgdrvh9Xp5O4h55Sts+qrP50M4HIbX6+Xtputc1ucSiUQikfwS+em0F8k7ASlitPZBVLRE5Uvy4yIaKqLif1lfzDtOXgpxXcu8RNf6MRANHjNiWy1s2iZNoYPQHjHfvHIuQzyHzlPmBKAQk/l8w+RFnZef/icDh6b9bW9vY2FhAR6P50KZokFE3q9ut4tKpYJ8Po9yuYzRaPSD+pivKZFIJBLJL5UfR4uRvLOYFTsI+9pIfhzMyqyo5JMBIHoIRGXerOCLkIJNSVS8RWND/N9cFxHz9czpOpjz01/DNM2P8lAABXO9zIYA5b+sDWLZ85L5GpSfjEmxfXQN8Vrmz2L7QqEQbty4gffffx8rKytwu90X8osyMQwDk8kE1WoVjx8/xnfffYenT5+i1WrN7afLyjGn63BZfnNZl+WTSCQSieSnQhpEkldGMSmSUtH5aRG9I6LngJRhUkbFPpuHwtaGjcdj7nkQyxGPWdj6lav6XlS+zem6iG0iqAwy3MTyFJORJB4XZUAGoyFEanseVJ7ZMKJExpBoFM0zpOYhluN0OuH3+xGPxxEIBGC1WqGq6oW85uv0ej3k83kcHx+jXC7zDXnNiPIX+2Oe8fQ8xPMvOy6Wac4nkUgkEslPhTSIJK8EKXSicmNW9OYpfVIpenNYrVa4XC64XC7YbDYYzFiwWq1wu93weDzwer1wu91wuVyw2+1cyRb7k5R2AFBVFU6nk+dXVZWvG9M0DYFAAD6fDw6HA5Y5YbxFhd3pdMLtdl9YF0Pfq6bNfEVIoRYNFpWF1vZ4PHA6nXyNjTiFE0I9ROiYzWbjxhzJQEzitRVFgaZpXGYQItspwpQ4OgesP5xOJzweD+8XqieFw6a8BgsXbrFYYLVaYbPZuJwJCqkt9ofYVpIj1V9snwi1X9d13keapsHhcHBZUshu+p7Oo0RjSxH2fBJl6XA4eKKxR6HAqf1Utrl+EolEIpH8WKi/+93vfmc++GNDP8iNRgOffvopcrkcFFNoXMnbCfUPLeKORCIwDAPVahW9Xu8HfThP2ZV9/OqIMqR+CAaDsFgsGI/HcDgcCAaDiMfjiMfjCIVCCIVC8Pv9cDgcgKlvdLYuzDAMWK1Wfm4oFILVasVkMoHD4UAgEEA0GkU6nYbf74eqqphMJtxwIcPJarUiEAggGAwilUohFoshHA4jGo3y88g4mEwmFwwLM6TwezweBAIBxONxRKNRhMNhhEIheDwebmB5vV6kUimkUil0Oh0cHx+jUqlgNpvB4XDA5XIhEonA5/Nd8F7QM4mUfjJUnE4nl62qqphOpxiNRtxjRfmsViscDge8Xi8CgQAikQjC4TACgQACgQD8fj83ikhWlOi8UCiEaDSKRCKBTCYDp9OJXq+H4XAIRVG4EepyuWCwqXKTyQQKCzcejUYRiUSgaRr35FEfk8Fis9m4nKiO1D5K1H8ALkTng2AM2u12RCIRhEIhuFwu3vderxd+vx/hcJj3dyAQ4AadwtZAkUGnM6OTmPe8kEgkEonkMuj3JB6P47e//S1CoRBwDV1TGkSS14JoEOm6Ptcguky5kX18Pa4yEui4oihYXFzE6uoqEokE9xQEAgFkMhlks1lkMhluGMXjcfj9fsC0ZogU/Ol0CqfTyfe0SafTsNlsGI/HPLTz0tISD2ttsVjQ7/cxHA4xGo240REMBrGysoLV1VUsLi4ilUohmUzyv2SYqaqK0WjE62BuL3lbfD4flpeXkU6n+fVFY4+8Dm63G7FYDMlkEp1OBycnJyiXy5hOp3CxTVvX1taQTqdhsVjQarUwnU4vyJrGrc1mQzQa5de12+0YDAbo9/vcMAAz2MggSafTWF5e5u2kOiYSCQQCAXg8HiiKgul0iuFwCF3X4fV6kc1msba2ho2NDYTDYQSDQTgcDihsCp3X60Umk0EsFoPX68VsNsNwOMR4PIamaUin01hbW8PCwgKsVis6nQ7fK4zaRvdsLBZDNpvFxsYGFhYWkEqlEI/HkUwmkU6n4fV6uaeIDCuwsWYwT6LL5cL29jbW1tYQDof58XA4jIWFBayurnLDNJVKIRKJwOv1wjAMTKdTPvam0ykUk2dOIpFIJJLrIg0iyU+KzWbjb5kNw0C5XOYGEXkaJK+GKEPxvhAVSFVVsb6+jhs3biAWiwEA7HY7QqEQkskkgsEgbDYb7HY7HA4HfD4fgsEgf1s/mUwwHo+5l0bXdbhcLqyvr2N9fR2hUIjfm6TsB4NBPvVtOByi2Wyi3W5z5T6RSGBpaQlra2tIJBLweDxQVRV2ux1er5d7UbxeLzweDzcORqMRwB5u9NdutyMcDiObzWJ9fR2pVArhcJhPD3Sw6V40lUzTNIRCIcRiMfR6PRwdHaFSqXAP18LCAjY2NpBMJjGbzXB+fo7BYMCfSRAMUVVVEY/HuWFosVhQLpd5WykvGVqUL5PJwO128/rQFD/ycLndbsxmM/R6PUwmE7hcLmSzWW6ckFFpZdMabSyMOMlcVVW02200m01uwC4uLmJjYwOJRALj8RjVahXdbpcbmiqbaphKpbC2toaVlRVu/Njtdtjtdrjdbvh8Pvj9fvj9frjYXkaDwYCXYwies52dHWxsbMDn82E8HsNqtSKVSiGdTiMajXLDigw8GgeTyQTdbpevVSPI4JJIJBKJ5LpIg0jyk6Gw9QNerxfRaBS6rqNSqXCDCExRlMrN9SBZkSKusGlFBnvrTn9hMoYU9tZ/eXkZmUwGPp8PFmFdyHQ6Ra1WQ6lUQr1e54q8zWZDJBKB3W7HbDZDv99Hv9/n13W73VyxpelZqqpy46jZbKLVaqHb7aLRaKBaraLT6UDTNMTjcaytrWFxcRGBQACTyQTlchmFQgHVapUbT6JBbbPZMBwOuQJPbbZardwzRB4Hi8WCdruNcrmMWq2GWq2Gfr/PjQiPx8OnBrbbbRwdHXEPkcPhQCqVQjabRSAQQKPRwNnZGXq9Hpc99QcZROQhCofD6PV6OD095RHcFLa+KB6PY2NjA1tbW/D7/ZhMJmg2m6hUKqhWq2i1Wuh0OrDZbAgGg3wa4mAwQLfbBQC43W6oqsqfgQ62NqvX66HVaqFWq6HZbKLb7aLdbqNSqaDZbELXdWiahmg0iqWlJbhcLrTbbZyfn6PdbnMvDHmYVldXsbS0BK/Xy6PTnZ+f8/HR7XZhs9ng9/u55204HKLX63FvkZWtTaNxR9Pr7HY7XGz6XLPZ5HWezWbcMHS5XJhMJqjVarxMQhpEEolEInlRpEEk+UkghZwMolAoBF3XuYJDfSgq9+b0S8YsC5IH/a+yaGIkP9E4gCmABXlQMpkMotEoPB4PXz/SbrdxenqKk5MTFItFbox0Oh1Mp1P+Bl/XdXS7XfT7fRhswbzH40EikUAqlYLL5eLT8LrdLvL5PHK5HM7OzlAqldBoNNBoNDAajRAMBrG8vIy1tTUEAgH0+33kcjk8e/YMp6enKBaLKBaLFzw2wWCQr+fpdDoYDAa8Hna7Hel0mnuGbDYbCoUCDg4OcHR0hGKxiEKhgEajwfNHIhG+ZqXZbOLk5ASVSgXT6RRutxuJRALJZBJerxelUgmnp6fodDq8D0j2FrYmKRKJ8L2AWq0Wzs7OuJKvqioCgQCWlpawvb2NSCSCTqfD5X50dIR8Po9qtYpSqcS9OaLnpd1u8yl4nU6H14XWWVUqFRwdHWF/fx+np6doNBqoVCqo1+vco0ZesWw2C03TUKvVUCgU0G63ucERjUaxtbWF1dVVuFwutFotHBwc4ODggE8rLBaLaDQaAPM8hkIhOBwO6LqOVquFXq/HvU0etldSMpmEwp4HhmGg0Wjg5OQEx8fHyOfzqNfr6Ha7UBQFPp8Pbrcb4/GYG0s0ZY7GtTSIJBKJRPIivKxBJKPMSV4aUYEXsbIoZxTFjCKKXZZo+tDbnsz1viyZz7sqmc81n+9iU8GsLOCAKHPRS2SGjtE6l9PTU+RyOZTLZf62vlKpcGW1WCzCarVyA4EW01NZZATRm/3hcIjj42Ps7e3h5OQEuVwOh4eHKBQK6PV6sNvtiMfjyGQyCAQCGI1GOD4+xrNnz7hRUqvVuLdob28Ph4eHaDab8Pv9WFpaQiaT4UEHFLZ2JhqNIh6Pw+12o1Kp4PDwEIeHh8jlcsjn86hUKigWizg8PESpVMJ4PL7g7ZknKwihs0kJF/OZ/6d8ojGqMCPA7/cjk8kgEolgPB7j9PQUh4eHODg44EYjGYKHh4fY29tDLpfjBo3FYsF0OuXequPjY1SrVYzHYyiKguFwyMNpk6GVz+fR6XQuTGOjsUF1Ew0L8mJls1lEIhEMh0Pkcjk8ffoUx8fHKJVKqFQqKJVKODs7w+HhITcUA4EAnwJnYRHqqGxRThaLBYPBAOfn5zg4OOBGc6FQwMnJCS+PvEsuNiVQfHEikUgkEsmPhTSIJK8MKTCkFLrdbkQiET7NitZRzEsLCwtYWFhANpt96xPV9TrJfO7LpmQyiUgkArfbzZV2UsRFpdEQptmRgjpjC+0rlQpOT0/RbDb5+iBap9Pr9VCv1/kUR1pk7/f7YbPZeNmKMG1vMpmgUqkgn8+jVquh0+nwBf29Xg/j8RgeFlSAplnVajUcHh7i/Pwc3W6X10HXdUwmE9TrdZydnaFYLGI2myESiSAej0PTNChsKqDb7eZrT8bjMc7Pz5HP59FqtTAcDnl54/EY9Xod5+fnqNVq3OtARqUZkhcZEWavhHgOyZ08d/SdRQg/HolE4HA40O12Ua1WUS6XuScOzCM+mUzQaDRwfHzMDbpyuYzBYACwvhsMBny9DvWBYRgYDAZ8vVGv1+Nrngxhnx8yVsS6Un1pHRb1DXm6KpUK+v0+ptPpBVmWy2VUKhU0Gg0oisIjxmmahhkLwkFyoTrSuCsWi+h0OphMJhiNRtwL1mq1eAALVYhESJj7QCKRSCSSN4k0iCQvjVlpIeWLolfR2/xYLHYhupaY6Ph1k3ieuRxz2WJKJpM/OEbHr0piZCyzMXdZEs95XiKDcV5KpVI8dDJNqyKDyCx36gudLe4nT0O9Xkc+n+fTkUTln4yn0WiERqOBdrsNhYVsdrvdsAobgFK5uq7zNSs0NY6+IxTmzaGQ0DpbQ9JoNC6sK4MwhmazGdrtNgqFAlqtFl9fI9bD6/UiyEKJt1ot1Ot1PrVPEfYZojbR2iZqtyg3ajslXOE9EhEVfxEyiHw+HzweDwzD4GtwaGoZKf0GM1yGwyFqtRqOj49xdHSEarWKIQupTe0x10037cNEf0XIEKJxIf6vqioPlOBwODAcDrlBTNMTqVyDTVXs9Xpot9uo1+vo9XpwOBw8bLg49qiO1PazszM0Gg1eX4VF0xuPxxiPx9yQo7aa+0cikUgkkh8LaRBJXglS7kjpIeV4MpnwSGHD4RDD4ZC/8Z6XaCH/dRLlv+755mvNS1THy9JoNOKK3HUSnXNZus73YxZ1S2frNMwKLjFP+SVlmt7Gj9nUMbHfCFJ6R2wNioNtmknlEFRmt9tFvV7HcDj8gXFD56gsihytYRoMBhiPx8Acw4PGzJAZCAPmJfGwDWQNZsyQoaYoCu9z0cgTMZgni/qPvDOXYa6TiGEymqidZsg76nA4MJlM0Gq10G63MRwO+fniPQJ2n1BgidFodCGfwUJSk4eIjhNivahOVD8xD0F9Q5EFNU3DYDBAo9FAp9OZe96U7bPU7/d56G7y1jkcDtjYPkaiPHS2xoiMLNGLRP+TBwpsfZLoHZJIJBKJ5MdGGkSSV4KUMjKKdLafSLPZRKFQQKFQwNnZGU+np6evJb1oWZflF+uWz+cvTWK+66TnnfO87ylRRLjRaASFTVsT5U6KKxkupBRTIsXTnJ/Q2bQoUUElw4f6Uhc2KSXjhpR8UsDN5UIwMsi4I+PFrLTTZzIm6foai46nsLVLdrsdNpsNBjN2yGCE0H4RatuY7b9zGfPqLkLtE+Vq/h6sHWQgiHKasil7YManuQyStYhYJ+oDXOGhovpB2CyV8ot5IER/UxSFGztmg1k8xyxH6g9N06CqKu8vRTDEqd3mMhXW1/SsMJixKw0iiUQikfyU/FCLkEheAYMptv1+n78lrlar/O/rSOayzJ/NqVKpoFwu/+B4la3voDUSlMznUqK8z0viOc9L5nPL5TJKpdKFvzQ1jJRICJuokrJOiaa40WdR8RT7SPxM34tKLRkYpADTcZ2tfxGnoV2mpNN3YJ4GKh9zjBDRi0Df0TVVVb3QLrB6UZlUDzpOecgTIXpYLsMsIxFRNmL9L2sLtZvOE+tM/QfBODAnmMoU6ybWQZS3eC59pjximWIehRnYE7bnlJhXhM6jetBf0XAmo8/cD+byRJlRuuy6EolEIpH8WEiDSPJKkBJEytFsNuMKszj1i45RIgWYlNbrpMvyX3ZcTObrm9NkMuFpPB5fmLr2Uyeqj6jYz1M4DWYQicomHYdJUafP84wfgr6jMukzKdLzlFlDMMIIyiOWbYby0/kWi4V7RsSxRXUU601tpetS3cyI17+sLpfVk8qb1xbxM/0vGnH03UyYXkjHxSTWWTyOS4wZEfqe8pCcxHw6M6IpiX1rbpMIHRfbIfYDHRfLgyCzeX1BiH0mkUgkEslPhTSIJK+EWSkiZZSULlJ0xHyvkqgsCMonfX4e5rLM5YpKpahYvw1JVPLpr/g/5SMjASal2bzOQ2y7+B0ZH3RNwhC8R/SZkviZ/iflm8o0X19ErAcFUFAUhRuohmk8GczwI4ODjosyorpSedQuM+b6k6Eljgmqj9Vq5SHQ56GYNtCldlkE406UAV1brDvJV7w+/U/liXWlY2K5dN48qG/E65F8xOuIKEKwFIP1BdUBguFM/1+FuV7UPvNx+k4ikUgkkh+Dq3+9JJJrIirPpHCZISXKrOiIx180icrd8xLlvU4yn/tjpsuYp0yL/4vGjMEUTYfDAafTCZvNdkHxpP9nbENRl8vFgykYLEobed/MdbqsvoagYOts3YnOoqtpmgYLm3KnX2IYOJ1ORCIReL1eAEC/38eIRbGjsM3k2bDZbDzB5BEhBd5ut/PF/6LngqB+JrkpbA2QwcYKyYiOBwIBvsmrWYknWVA9FWHdk9VqhS54wCAYN2JbrFbrhT4019MsM/pM34v5xLwEGSsUbGI6nULTNPj9fh7FkPoHQn+SPB0OB28LlSHmFev8Iswzol6lPIlEIpFIXpQf/hJJJC+IWRnDnLfMrwNSkkRFyfz5KsTzn5feRq6qFynBonKsKAr8fj8ikQg0tsHpzLRnzGw24yGufT4fwAwR2ucGgsKN58ibrk/ldrtdjEYjuFwueL1evsksGQJg5ZGR4/f7kUql4PP5oCgK+v0+V9xJAR8MBlBYaHAK6y2ONdHb4XA4+Oa2ZkRZKcy4IQNG/I5k6XK5EIvF+B5DdE06n84ZsmmOFhbNze/3c28WebTo+na7HX6/H9FoFIlEAoFA4EIeykdGqYV5Yih8tyhDkiMZKGL9KJHce70ems3mhb73er28HWL/kizJuLTb7RiPx+h0OhiYwnSL130elI/adN3zJBKJRCJ5E0iDSPJKmJVjUUE0Ix4XFTXJy2NWeEX5WywWBAIBpNNphMNhKILBQvnsdjuCwSBisRi8Xi9arRbK5TLfv8fcj8/rL50tsB8MBiiVSqhWq7DZbEgmk0in09w4mwkBD2azGdxuN9/A12az8U1Nu90uzzcYDFCtVtHv9+F0OpFKpfgeTWQgKMyAcLvdiEajCAaDcDgcMExTAMHaQsbWbDaDy+VCKBSC3+/nnhDDMOBwOBCLxZBMJvmGtTSNTpS7YRh8Tx9d1xGNRhGLxXgdRGNH13V4PB4sLy9jZ2cH29vbiEQiF9pBkKFjsVj4HkBut5u3h4xAi2m9F0F9RuX2+32+YaqiKEgkElhcXITP5+Pnz4TpjoFAgMta0zS0222+ya/YdvF65mMi1DYaozSDPFAAAP/0SURBVKJRJLb7svMlEolEInndSINI8lp5ngJN3z9PaZK8GCRHUoZJ+bbZbEilUlhdXUUymYTT6eQKtN1uRzKZxPLyMtLpNKxWK+r1OgqFAprNJlfCzVzVZ6RM9/t9FAoF5PN5jEYjBAIBrK2tYW1tDeFwmE8TIyNkcXERy8vLCIfDGI/HOD09xcnJCTqdDlfOabPPWq0Gq9WKdDqN5eVlZLNZuN1uaJrGy0ylUlheXkYwGISqqnwtkoiu69wbRkZUMplENptFNBpFIBBAJBLBwsIC1tbWkEgkYGHrgaxsg1UqkwyxUqmE09NTDIdDhEIhpNNprKysIBaL8WlxTqcTHo8H8XgcKysr2NraQjabhcPh4DIU6zpm+1rpug63282NLJvNBk3T4HQ6eRhsTdN428jIEMvSdR2j0Qjn5+c4OTmBrutIpVK4ceMGVldXEQqF+Fop2lx3bW0N6+vriEajmEwmKJVKqFQq3INori8duwrzc0IikUgkkp+SH2o7EskLIirjhmmtwzzFZ94xyfWYp2iKSjnJ32q1YjabodVqYTabIZvN4t69e7hx4wY3PtbX13Hnzh1sbGzA7/ej1+uhUCigUqnwMN+iQm1WrudBb/mn0yna7TYKhQKKxSJmsxkSiQQ2NjawtbWFlZUVrKysYGNjg3tIUqkULBYLisUijo+PUSqVLnipyOtUKpUwGo3g8/mwvLyMmzdvYmtrC8vLy1hdXcXOzg5WVlYQDAYxGo3Q6/UwnU4vrCMymHeo3W6jWq1iOBzCbrcjm81iZ2cHOzs7uHPnDu7du4fbt29jZWUFqqqi1+td2I+H2qyz6Yj9fp+HSzcMA9FoFNvb27h9+zbW1ta43G/evImNjQ3E43G4XC4e3VAX1rCRvLvdLiqVCrrdLlwuFxKJBJaWlrC8vIzl5WUsLi4inU7D7XZzA5aMSILaPWMeuXa7jYODA1QqFVgsFsTjcezs7OD27dtYXV3F6uoq75vbt28jnU5DURRUKhUUCgVUq1VMJhNeV7oGfaY0D/H7eXnmHZNIJBKJ5E2i/u53v/ud+eCPDb3NbDQa+PTTT5HL5aCwN65Sef55oCgKfD4fIpEIFEVBrVZDu93mCi0lyiuVnqu5TD4KW+BO3yvC/kAqiwRGU88Mw0CxWESxWISmaYjH44jFYojFYlhcXMTS0hIymQz8fj/6/T5OTk6wt7eHRqOBfr/Pr6FpGhKJBJLJJCwWC0qlEnK5HF/PI2IIBrHB9qSazWaw2+0IBALweDwIhUKIRqPIZDLIZrPIZDKIRqNQVRXNZhOPHz/G8fExarXahWeAwgwtha0PstlscLvdCAQCfHpaOp1GOp2G3W5Ht9tFo9GA1WqFx+PBaDTC4eEhyuUyrx9Bm5UGg0EEAgGEQiEkk0mkUilEo1EMh0OcnZ2h1+vB5XJB0zQ0Gg2cnp7y9VbUdoMZWzabDR6Ph9cvHA4jHo9jcXERi4uLiEQicDqdqNfrODw8RKFQQLfb/cFzj4wvp9N5QYaJRAKpVArJZBI+n+9CoINwOIxUKgW73Y5arYbT01NetpVFyRsOhwAAh8MBu93O799wOIxYLMaN1mg0CkVRUCqVcHJygnw+j3q9zvuWyiBPWL/fRy6XQz6f514kCMaywtaA0ZosXdeRz+dRKBQwHA4vtN08viQSiUQiuQoLC04Uj8fx29/+FqFQCLjG74k0iCSvjMKUclKoLBYLqtUqWq0WJpMJn7ojuT5medFn5RoGUSaTQTqdBgAUCgU8e/YMrVYLNpsNfr8ffr8fgUAANpsN0+kUrVYLR0dH2N/fx/n5OYbDIVfwKRKZx+OBw+Hg060o32X1pPpNJhP0+31Mp1M+JcxqtcLv98Pn88Hj8XDj5ezsDCcnJ9jf30elUsFoNLpQrsE8CpPJBIPBAMPhEDMWGMDj8cBms3FZkJep0WgA7BlTLpeRy+XQaDRgsVgwnU6hs4hpg8GAX8sqhP42DAPtdhv7+/s4Pj5Gt9vl5xYKBZyfn3PDQGdremYsoMRgMODR9VRVhdPp5Mlut2M4HKJer2N/fx+Hh4doNBoX2gzBCByNRhiPx7BarXC73QgGgzzIgc1mw2AwQKvVQqfTwWQy4bI1DAOFQoEbsBB+LGgD5cFgwJ/BqqryABgk02q1inw+j/39fRwdHaFarfLofzR10Gaz8amQ9XodJycnqNVqcw0iMAPU7XZDURT0ej3k83mUy+UL+ekciUQikUiuy8saRIohvib9iZhOp7BarTg8PMTvf/97fPbZZ1AUhYevlbzdWNii6FQqhc3NTaiqiqdPn+Ls7AyDwYArlzAp9rhk/YHk/2KWi8HWB9F0OIN5JFRV5feQ0+nExx9/jA8//BAA8PjxY3zxxRcYDoeIRCJIp9PcGOp0OhiNRuh2uyiVSqjX69zDMJ1OYbD1QBQOOx6Pw+FwoFQqoVAooN/v/6A/Rai+ZFAlEgkeVtvhcMDCpndNp1OUy2U+LazZbHJjR4Ty29g6Ia/Xi0AgwANCTKdTHqr7/PwclUoFqqoiHA7D6/ViOByiXC6j3W5zY09hIbUdDgfi8ThCoRBCoRBsLPz2ZDJBtVpFsVhEt9uFzWZDKBSC1+tFp9PB+fk5JiwoA/WXYRjccEmlUggGg9ygpPGu6zra7TY6nQ4qlQpqtRo3MkTIKFNVla87ymQyCIVCvA2j0Qj1eh1nZ2d8iiR5pHw+H4rFInK53IXnKf1VWXjyVCqFUCgEt9vNow1OWcAJernRbDbRarUuTBlUVRWz2QyapnGv13Q6RT6f520iuYhjxOv1IhQKwePxQFEUNJtNlMvluQahRCKRSCTXxcqCIt2+fRt/+MMfsLq6yvWRq5AGkeSVEQ2ijY0NqKqKvb29Sw0iShDWHUh+iPnWpBtaNIhUFiBhMpn8wCAyDANPnz7Fl19+iVKpxJV0u90Oi8XClVXyFEwmkwv9YghTwGhalcViwZCFljZPZ5sH1VFVVR4AQAyDTUr9cDjEeDzGhG3GSt+JqEKUNisLPU1tIsV8Op1yI4GUawqTbTADh7xfYrJYLHwqnIPtt6OwzWG73S43FMnAI4Op1+vx4+b6KmwvIjEpwnqj8XiMKYugR31x1b2gMg+g0+nkbVKYJ33K1kNRe+x2O8DaPhgMeIhs8w8C5Xc4HHCwfaicTifAvHuz2QxDFvqcklhPkisAuN1u2Ni+UCR/0agVx4iV7U0lnk/9L3LZuJJIJBKJZB7SIJL8ZCjsTTEZRBaLBXt7e8jn8+j3+1y5FPOLvAVD8K3ELBe6oW02G5+iRcYo3UNkEH300UfQdR1PnjzB119/jfPzc0yn0wuKu/iAoDf+5u/pLxm1CpvCJRpDmNOnZuhcMAOarqcLi/LFz/PKo7aC1YnyW9maGNGgo7xUntgWUa5UBtWPzleFaYmiN048D4LcxHMJuhadK8raYEYFGYt0rasMIrDrijIQmbH9nBRmZIif6ZhYR1EWVK6Yh/43y4y+M0OGOmE+zywfMnDpOvqcDZ3N50gkEolEchUvaxBd/a1Ecg1EBY+UZVERNStGlx2XXOR5irYZMb/CIs0pprV4pHSS4kl9RcwzIMTzROPgsvrNg8aHWAZdC4LiqzDF3Fy+whRzsX5U98lkgul0euF6dB2xveK1xHrT9SDIVhzH4jmUh8o0nycmwnyeiLlN18HcJvFc8bO5bubv6Rjlo/JmLBKduW7m88yY82KOrM356Rz6K+afd45EIpFIJG8CaRBJXgsGm3rVbrfRbrf5FCCp1LwZRKXUYG8+RFmLBgIp4aKSSn/Fc8xKr/kapMCKZbwq5jo8D1F5hsnYMLdlXr7rIMpHRCxrXr3NshPlZ5a5hQUwUAQPjJj/Mq7KK8qCPovHzIkwH5vXtutgNvaex2X1kUgkEonkx0YaRJLXxnA4RKVSQblc5iF9aVrMyyhYkv/HZfIzTNOxDObdGAwGfJG+2VgCK++nUkLNivDrUopfZzn091XLIsztfBPlzuOy45dhruNVZUskEolE8q4gDSLJK0PKdb/fR7VanRtd6mXfOksucpVySsprp9NBrVZDvV5Ht9vl3iJzP8j+kEgkEolEIpEGkeQ1QAbRZDLBaDTCYDDg0ajwHCVe8mKIRozoGYKwbqZareL4+BgHBwc4Pz+/sMeOaBRJg0gikUgkEolEGkSS1wQp16SUmxffy6k3rwdRhuL/JGcyiA4ODvD06VPk83keflrsA+oTieR1Ir2PEolEIvk5Ig0iyStDirWF7dEihtNVVZWHRZa8PPMMSjI+KXgAhZqezWZoNBqoVqvodDrcOJ1XhkTyuqDxRca2GNRCIpFIJJK3GWkQSV4Zii7ldDoRi8UQiUTgcrn4via4RKGXXJ95U9wUtneLuC+Q2+1GKBSC2+3mwRSkYip5HdAYnDcWCfF+h/QUSSQ/O8T7+3n3u0TyLiENIskrYbB9S1RVhd/vx8LCAjKZDLxeL1RV5cq6mF/y8piVUnoTT2u2qA/i8Tg0TQPmyJyMU/NxieQqDGFjYFVVf7BfFK1n04VNfiUSyc8Lmulht9uhaZq8jyW/GORIl7wyBpsa53A44Pf7EQgEYLfb+VulF92fRPJ8yBiCsLGoYRhwuVwIBoPwer18+hx9J769l8aQ5LrQfWyz2RAKhZDJZBCNRvk9Liar1QpN02C1WuU4k0h+hlitVgQCAaTTaSQSCbhcLv6Cg54FEsm7iDSIJK8MPShpDYvFYrmwgac5SV4PJEvRILJarbDZbLBarXMDXEjeHkRP3dtsONC9HQwGsbq6ips3b2J1dRU+n+/CmLLZbPD7/YhGowiHw3C73XzzWRqfEsmLQN4Jen7RX/l78uZwOBxIp9PY2dnB5uYmYrEYnE4n/22Xcpe8q0iDSPLKmA0gyDUEPwmKokBV1QtBLSA9dG8l84yDecd+auj+tdlsCIfDyGQyyGazyGQyCAQCF+5vh8OBVCqFGzduYGdnB+l0Gi6XixtFVJ75/6uS5JeNha1DFQPHyDHy+hHl6XQ6kUwmsba2hsXFRSQSCdjt9rl5JZJ3CWkQSV4JejCKypz4oHwblbx3BfFtKf1vht7qSd5+5vXf24LNZoPT6YTb7YbX64Xb7YbD4bgwtux2O6LRKFZXV7GysoJwOAxN07hCqzCDXfQkv81tlvz0kBFkt9u551uOm9cPydPC1ghScB6v1wubzTZX3vOOSSQ/Z6SmJHllRIWcHpLGWz4N6F1CYZHkSP7UH5AG0VsB3Qti+jkh3tsURp8MG3O+6XSK6XSK8XiMyWRyYcom5aG3/RQynj7PS5JfJuJvis/nQzabxdLSEkKhEF+fJnl1SI7ib4jFYrlwn5sDI0kk7ypSU5K8NkhBkm+OfhrEHzdCNFIlPy5XyX2eQjfv2OviqroQ865PU5bMCpE4rkhxHQ6HKBaL2Nvbw/7+PqrVKsbjMS+XypnNZlzJusoYmlefXyrXlYX4MuR5mJ8T1+FlnieX5b/qOPW/qqoIh8NYX1/HnTt3sLKyAqfTCYMZ1uZx+bJcV2Yvglm+l7X3ZZhX1svcM2I5hrCXHX2mv3LateSXgDSIJK8dUVESP0veLPPk/Lp/iCXXw6zUi58VFo3N7GWhfjLfP+YpZuZ0GaJyJNZDESJGiX9pOpIIlW9WiMzXVhQFo9EIxWIRu7u7ePz4MSqVCqbTKRRBwSWlSwy2cFkbLjsuYpYFtcWcrlPWm8RcR/OxeYqoWTaiDKkfzfnEPqfv6LhZBlSO+L/5mmBliHUTz5uX11wf8/rSy+pK3ymKwo1lm80Gr9eLTCaD9fV1ZLNZeDweKMyjYTaI5pVJiPUS603HnzdOqOzL7kVc0qcW9lLBENZA0V9RlgQdF68lypu+N1+DniliX4p1nVfneXVQ5shGIvklIA0iySsjPjTpoW9+yEt+HMw/cvIH7ceFlA4wI0JUNhRB0bNardwAoSSWQedZmPEg5hOVHMo3L5HCOJvNMJlMoAv7VdG4EMsTgx+I9cFzFE2w72ezGbrdLqrVKqrVKvr9/gVDiq5H9abpddROsV1Uj3ljV5QnlSVOvTO3hY7/WFC9zHU39w1M44XymPOKdTd71OgzyYGmJ4ptNvezhSnPdNwwDIzHY8DU7/OuPRqNMJlMeL+J0PXp2rquw8JC/1NearcyZ8NosT5iUlWVr11zOBxQVZX3N5UpymUe5j4Rxw3VmY5fhthnYr+Zy6XvxbwQfhsJswyoHPFFCbXJ3C9kCJrLJvlRfczyoHx0DbG95rwQ5HGVXCSSdwVpEEleGfmwfDuhH1P6IadjMP2IS14PJGtFUaBpGlwuFw8+QHvz2Gw2eDwevl+XqOQRolKlaRo8Hg8CgQDC4TCCwSD8fj/8fj8/j/pZxMIWojudTp7o+lRmKBRCOBxGJBJBIBDgQRJobFx3fNC1VVWF0+mEx+OB2+3mi7HNCax+NpsNDoeDty8YDCIcDiMQCMDlcl3wopkVN5IzJU3T+ELwWCyGaDSKUCgEj8fDZXTd9rwq82QnysjtdiMYDCIUCiESiSAUCiEYDHKZUXtFpR+sXLEP7XY7vF4vQqEQotEoEokEotEoPB4PHA4HbDYbwGRNBqIoOxqH5uuax5LoraFx63Q6+fek1GuaBofDcWG8q6rK+yYYDCIejyMajSIWi8Hv90PTNC4rgxnJAPg5LpcLTqfzgjxpXJORJI4VG9s02Iw4VuhlhMPhgMvl4vep1WoFLjEMIJRhsO0NnE4n7HY7Ny7FPBACkfj9fsTjcaTTacTjcYTDYfj9fn6u+GJErCP1sd1u5zIFaz/dLzR+XC4XNE3j94uFGUp0T9J4o7Hmcrl4fen5IT5HxOP0WSJ511GMy+7+H5HpdAqr1YrDw0P8/ve/x2effQaFTcGQN+LbD/3gLi8vY319HYZh4Pvvv0epVMJkMpF9+JrQ2RtXm83G3/zTj/NkMoHb7cbt27eRzWZxfn6O77//HsPhEDO2Oav4FpR+MEWFS3IRGrcv8og0DANOp5MbL5qmodPpoF6vAwC8Xi/i8Th8Ph90XUez2UShUECtVuNv6VVV5UoQGQmk5FLAgsFggEqlglqthk6nw/vRYAqvy+VCLBZDIBCAYRhoNptotVpwOBzw+XyIRqPcSLJYLBiPx6jX6yiXy6jVaphMJrwu4/EYdrsdt27dwp07d5BOp1GpVPDVV1/hwYMH/B73er38mpPJBKVSCY1GA5PJhJdHyhrJiIwf2rOIxnK1WkW9Xker1cJgMMBoNOL9oOs6V/xI4SQl0+12c8VxNpuh0+mgXC6j0Wig1+thNBpxpftNIT7vSMGlyF0+nw/xeJxvnKxpGkajEUajEVqtFsrlMjqdDr9v6Z6fTqf83rfZbPD5fAgEAggEAvD7/VBZuP3RaIRarYZer4d6vY5Go4HZbMaV7Rlbv+VyuZDJZBAKhTCdTlEsFlGr1TCdTrmBQxjM2AkGg0ilUrDZbKhUKiiVSphOpxgOh9A0DYlEArFYDFarFc1mE9VqFZPJBH6/H8lkkht95Bms1WoolUooFosYjUYA61u3241wOIxQKIRAIIDFxUU+Ve78/ByHh4dot9uYTCawWq3o9XrI5/NoNpuAYMCJUD9QcjqdvHybzYZOp4OzszP0er0L54nozLNrt9sRi8UQDocxmUyQz+fR7Xa514wMs3g8zl82OJ1OOBwO6LqOXq+HXq+HarWKZrOJXq+HwWDA62xhHjwydBVFQbvdRr1eh2EYiMVifMNUGj+tVgudTge1Wg2VSgW6rsPhcPAXHqFQCHa7HTozssvlMk5OTtDr9fi9OZvNYLPZsLi4iN/85je4efMmGo0G/vznP+PBgwfodrtcDjTGzXKWSN4GrGwfxtu3b+MPf/gDVldXYZg8rfNQf/e73/3OfPDHhh76jUYDn376KXK5HH94S2X67YcUbFLeAKBUKqHX6114eEpeDYO95aY33qS0WNg+UHa7HfF4HH6/H+12mysslI/6gfpLLFPyQ0iJfFGDyO12I5vNYmNjA0tLS3yn93A4jI2NDWxtbSGTySAcDsNqtaLRaKDT6fBpbU62D8jq6io2NjawuLiIVCrFFaxoNHpBETYMgys1ZBD5/X5sbGzgxo0biMViXJnLZrNYXV1FOp1GJBLhChMlr9eL2WzGo8RR+1VVRTweRyKRgM/nQ7/fx/n5OcrlMpdPIBDA+vo6dnZ2EI1G0e/30el0MB6PMWVriejNfzabxfb2Nra2trCwsIBkMsm9HKREhsNhPraHwyFvm8IMDFpbsrGxgfX1dSwsLCAajXIvhti2QCAAC5u+NRgMTL32ZiADxufzYWFhAWtra1hZWcHa2hqy2SxXbMU6k4eDDDe6P0n5d7lcSCQSWF9fx/b2NpaWlpDJZBCNRhGNRnmfksKss2mSOpsaRn3ldDqxsrKCra0tpNNpzGYz1Go1jEYjWOasWXG73Uin09je3kYqlYKiKGi1WnwKnYNt5nnv3j0sLS1BVVVMJhMEg0FsbGxge3sbi4uLiMfjCIVCSCQS3FNBRhUZqh6PB0tLS9jY2EA6nUY6neaePqvVCo/Hw70t6XQafr8f/X4ftVqNvyia90yjZ+ZsNoOmachms9jZ2cHa2hocDgdqtRq63e6Vz0RN0xAOh3Hjxg0e4KFer3ODhn4HU6kUtre3sbGxgVQqxV+QUD9HIhEEg0F4vV7ev2IAEk3TsLS0hHv37iGTyUBl0d7i8Tg2Nzf5eqp4PI5YLIZ4PI5gMAiLxYJ+vw9VVRGLxbC9vY3V1VVks1mk02nEYjGkUin+7CC568LUS4rql0wm0ev1cHp6imKxyOsnyofqK5G8TdAzLB6P47e//S1CoRBwDU/n1eaSRCL52WK++ed9luny9KI/9nSehXkuIpEI4vE4kskkFhcXsby8jHg8Dk3T+Ftys3KhqioikQi2t7exs7ODxcVFeDwejMdj1Go1tNttjEYjBAIBrmiurKxwhZ/qQIo4KUBkCC0uLiIajQIAOp0Of7MMALFYDJubm7hx4wZSqRTsdjuvm4hZNvRZVVX4fD4kEgkkk0n4fD4+Jcpgnkyv14tUKoWdnR2srq4iFovB7XZjPB6j3++j0Wig3+/D4/FgdXUVd+7cwfr6OsLhMOx2+w+U4hs3bmB9fZ17pRqNBkqlEkqlEsrlMgaDAeLxOG7evIn19XXE43Euo9fNPLnY2d5Ma2tr2NrawsrKCjcCer0earUa6vU6ZrMZwuEwVlZWsLKygkgkAquwzgdsClY0GsXNmzexs7ODTCYDt9uN0WiEXq+HZrOJ4XAIn8+HTCaDzc1N3Lp1C9lsFm63G4rwkpEMShqffr8fVjZlTERsk9vtRiAQ4N4Rm83GDXHqF/o+lUphcXGRG39OpxMztsZsPB5zo3htbQ07OztIJpP8+qSck9cLgqFPRoeVTR1U2VRAK5syB9M6qHmQkWgYBjcwl5eXkclkoLF9s+ahMs9tJBLB4uIiwuEwvyaNKZfLheXlZdy+fRvr6+sIBoMYDocolUo4OTlBLpdDtVqFqqoXNj8Nh8PcgzSbzWBlU/r8fj+i0Sh/QbK5ucllNRgM0O/3YRgGwuEwVldXsbW1ha2tLSwvL3NjORgM8pcKs9kMLpcLi4uLXO4Oh4O3WXyGYM76LPpfInkXkR4iyStDP9qih6hYLKLb7co+fA2Q/Eh5Vk0eIrpXyEMUDAbR7XZRLpf52z8IniRC/rBdjSjf64xhUiYcDgfi8TgymQy8Xi9UYV5/s9lEsVjE2dkZzs7OUKlU0Gq10Ov1uMK7vb2N7e1teDwedDodHB8f4+DgAPv7+ygUCmi32wCbfhcIBAAAw+EQ3W4Xo9EIOvMQZbNZbtjY2LqTwWCAarWK8/NznJ6eolQq8Wk7drudT80DM5hIiaI3zmYPEU3PAcA9IalUCrqu4+zsDKVSiSttHo+HK3br6+vQNA2NRgOnp6c4OjpCPp/ndRoOh3ztg9PpRLfbRbfbxWQy4W/pyQvndDpRLpdxeHiIk5MTnJ6eIp/Po1wuY8KmksbjcdhsNn5fkOJ5nX69LvRWksaLzWbjRs7y8jJ8Ph9GoxGOj49xfHyMo6MjXt/hcAhVVfmastFohHa7fWEaZSwWw9bWFm7cuAGXy4V2u43j42Pkcjmcnp7i7OyMT1EEgFAoBL/fDwAYj8fo9XoYj8ewWCzweDxYWFjAwsICbDYbzs/PcXZ2huFwCIUZQfRc13WdT4lLpVLwer1ot9s4PT3lY9HtdiMWiyGbzfLpgG62Lqfb7aJQKCCfzyOXy6FWqwHCWiBN09DtdlGv17lXUlEUbjROJhPY2XqbWq2G4+NjnJ+fo1QqoVKpIJfL8RkJsyvCcFN76D7VNI17bMgor1arfGqYGVVVEQwGsbS0hGw2y8f4+fk5hsMhLBYLUqkUbt68yacW5nI57O3t4fj4mN/ztVqNPyd8Ph+sViuGwyGf1qkwwyoajSKVSnHvGI2NRqOBk5MTHB0dcaPf6/XC4/HAbrdD0zT4fD74/X7MZjNUq1Uuo8FgAIWtH3O5XNwo73a70NlUVJ/Ph8XFRSQSCXS7XX4uTWuEYHTK3xDJ2wg9i6WHSCJ5xxBv4nk/QOZj9MNvFRbriko5/ZiR4iHT/ESKk1lu14HOo7fKqqqi2Wzi4OAAe3t7ePjwIXZ3d3F0dIRGo4GpsK5jbW0Nfr8fvV4PT58+xf3797G7u4snT57gyZMn2Nvbw+7uLk5OTmCz2RCJRBCLxeDz+aAIb/RV9obdarVyxevs7AyPHj3CkydPuAFxdHSEx48f4/DwEK1WC16vF8lkErFYDA4h0IJoWItjjuQ1D5rCRApdOp3G4uIiXC4XOp0O9vf38d133+HRo0d4/Pgx9vf38fTpU76XUbvd5tPsbEKQBgdbEK8oCmq1Go6OjnBwcIDDw0Ps7+/j6OgIp6enyOVyKBaLmE6nCLAgFm6321zN14rB5qpbrVaEw2EsLS0hkUhgOp0il8thd3cXjx49wtOnT3kfkMHbbrdhYQaLjQVF0Nk0SjIAaUrs4eEhdnd3eZjzvb09PkZOTk64tyiVSiEajXKjQmEvVcx9Zn6O0DHxnqDzFCE4gXifGELAAa/Xi9FohGfPnuHRo0c80dg/Pz8H2FTLSCQCFwuOMJlMUKvVcHBwgMePH+P4+JhPZRsMBnj69Cm+/fZbPHjwAA8ePOB7XtGUO/Gljwi1l8ZypVLB6ekpGo0GVOaxSafTsNvtvA8pv8IMqBAL2mG32/m6ntFoxKfhhUIh+Hw+zGYzlMtl7O3tYW9vD7lcDufn5ygUCsjlcjg4OODrCgMsQALJluRIf8mbp6oqarUadnd38e233+Lhw4f8PiaDxeFw8GmiiqLg5OQEjx49wu7uLh48eMDHRrPZ5N4xMmDN9/SLPO8kkncBOeIlbwTzj63k1RF/LMVjZiwWC1wuF4IsslCYLVAOBoP8GKVwOCzTc5LL5eLK+HUhJQpMQWu32/wNMQVRaLfbaLfb/K0weVAikQhGoxFOT0/x7NkznJ+fo9PpYDqd8gXU5XKZewTcbjdfh2K32y9cn8aK+Ja+VCqhXq+jxxZ3t1otPqWnXC4DAPwsMpbX6+Vl0F9SgMU2mjFMkeDorXU8HkcgEMBwOOQL5IvFIprNJrrdLnq9Hl8cfnJygqdPn3KjcTAYwGBrQEajETqdDo6Ojrhx2Gq1MBwOMZlMeJ56vc49XaIRQIr+68IQPLb0lxa1h9lasVqthsPDQ5TLZTSbTfT7fQyHQ+4dyOVyePLkCXK5HDqdDl+fYxgGvGy9VDwex2w2456HQqHAF+f3+33U63XuMTo/P8d4PEYgEEA0GuXeNmq3KIt5iMfphYr4ndj/9FlU5pvNJk5PT/l4r9fr6Ha7fLzRPlUOFmnQ4XDAarVixtZ5tdttPg0Qglei1WqhUqnwRJ4vfU4wCBFzH/X7fRSLRRQKBb7eaWFhAaFQCKoQmdDCXmx4PB7EYjFEIhHouo5Go8E9chZmAI9GI5ydnXHDnDy6orE2HA7RarXQ7/cxYwEvxOeLaFjSPazrOqrVKvb393F8fMy9OhSUhZ4RFjZddzKZoFgs4vDwkAecqFarKBaLPIAG2H3ucrm4bM19ehlXfSeR/FyRBpFE8hZDP+L0Q0U/lnQMc97QW9lajWQyiWw2y6fGZDIZHrFJpuundDqNIIsY9zzEPiGlYTqdolqtolQqodvtcsXeYMo9TXektQIOhwPNZhP5fB6NRgMKm37lYiGCFTadqMOi1xlsLYTX6+VrdsDGDilzzWaTT9cZDAbcaKA0nU650jQajeByuRBiYavFtlDZoqfADLWNkqqqfHqQz+eDYRioVqt8WtuIBRCgZBgGhsMhyuUynj17hidPnqBYLHLFeMYCABwfH+P+/fvY29tDuVzm+x45WOhn8syRvHQ2Ndv8UuF1QDIS+5+m/NGUsEqlwvdnIgV+xiKijcdjtFot7O/vY3d3l0+jM5iHgLyADocDw+GQK/KDwYC3zWDBNdrtNp8mValUoCgKf/lxnTFMUP/hkhcv4vdiX1M9isUiTk9PucEyY9PZdF3nUyBpob7NZoPdbueKOY1LkikZB3S+OHap7YawxYBYN0L8THnb7TYKhQK63S40TUM8Hkc8HoedRWSDENUwGAwiGo3C7XajJ0Txo2mN0+kU5XIZDx48wMOHD3F0dIRms8nbTfLRNA02m43XUZStIezlpAhTFgeDAe9zmtJnYdEHu90un25H7aKpqJVKBUMhYiG9UKFgJ1a29or6TZSjWX4i8+QrkfzckQaRRPKWY/7RNCN+R8qDUwhHTNGnIixCGf01e0JkujzRdJ7rQP1FSjK9yTWvCREVEE3TEIlE+Lz/GXtzHIlE+LocMYXY3iOk4NtYOGZ1zh4spICWy2X0ej1udEBQEhVFwXg8RqfTwWAwgKqqcLE9YEhJFRUgswFwGbSehcajy+XCjIXDbjQaXOk3K1fj8RhdtslrsVhEu92+oKB2u12cn5/zNSkkV9ETlU6nsbCwgDALyED1nSejV0V8w04KprhGpNFocG8HGQE0RsDaNJlM0Ol0uPeEDEBN0xCLxfjieNEjNGPTEakc+tvtdlFjIdnJC0PGNEz9fhXmvjGfT4hjGez65XIZbRYeWzRwZswDRIa5wQx3m812wStC59B1FWEjU/FaxjUVeHo5QPnB1t6Vy2Wcn59jOp3C7/fzdVJ0nq7r3DsUZpEPG40Gv5+o7/r9PqrVKgqFwoVQ+ja2fs/NwolnMhn+koXqA9O6HPHFF90v5O0kY2nG1sAZzAAlWY7HYzRZmH0yvHVhk1xaZ0iypWmPBtsHiupznbEhkbxLSINI8kaQD8vXg/lHiX4k6X8z9AM+ZouoW60W2u02Op0O2u02Wq3WhdRsNmV6Tup0OvyN6nUQ+4WUmW63y9/Uikol5SUDRNM06GwvForStbm5yaNHUaIw06FQCFa254KoGIMpWDp7K/z/s/eezXEkW3rwU12mvfcAGt6QBIcc3tm7H3ZXWr2h0L+RFLKhlVaxWn3QRkgRCvmfs5+05tqZO44ehG+0995UvR+UJzeR7AZAEiABTj4RGWhUZaU5mVl1Th6TvV4PHXZWCjFRlGwhNPNkMuGMEjGQlP8yiHnoNzGeFju0kxje4XCIDgu6QnC5/i7M+XQ65UyerF2g+/1+HwMWBIAYWQrYsLm5ycOeh0IhXjfhKv15H2iCzxkJRQ7zfSFNCd0X20AMKvWbtGZgDKvP54PH48GY+deQMER5aNxJcCBzPFHgIMZXzi9CnBfyNcwRiOQyAKDb7Z4ThsRyafxk5luki5hPrP+itonXIdBC/i3+P51O0WDa2GazCa/XixQ7S4vM2HRd59HefD4fF6IajQYcJtg6bB2JcxbCuWMUUW5nZwc7OztYW1vjApHYJrB+UJlTptkZDAbo9Xp8g4Hqo7wiPQeDAdccyvQi4YjgMK0V1S3euwpkmiso3GUogUhB4RZj3gd93oeLPoiNRoP7aLx+/Zo7bVN69eoVv67S20mkzcnJCRqNxpUEIpGZgbDzP2Ln+lAeYmYgMIMGc1InxpU0fOQDkkqlkGTnzaRSKR5BrNVqcXMxuX4woYx2imkeifNJbIv4V2Z2xD7J92c9T/2iv/TbNE1M2AGzYjlyfeJ8dwSa0dy32GGhuVwO29vb2N3dxe7uLhcWE4nEOZM/qh9CH8Q6rgvUDxKKbCZoknZIbAMlooOYRNB4keZsKET8on4QXei3yJiTloKYfCpf7r9cL4Hqp/wi7eRx0oQIceK8nFW2fE3+X8Q82sj/Y0Z7IdBbbPd0OkW320WpVEKxWITGzgsj/zlRsxOPx+Ewc89CocD7ZrPNCFq3pKXM5XK4d+8eHj58iAcPHuDevXtYWVlBNBqFx+Phgsisdsp9EAUe+RmbCdOTyeScMC3SivKKNJTpJtKF8ioo/JSgBCIFhTsC8aMp/pYxHo/RZeeSVKtV1Ot11Gq1c4kcglWan0RakfnSZSCGhRgvkeklRkdkaug37dyTYNRut1Eul9FoNM6NF/2uVCoolUo4ODjA69evcXh4iGq1ek4DBDZPHCHAAV0TBRSxLdRGyif+JVA+Yqrk+yKoDrE9GmPw6P9ZZdD/RDe5Lo/Hg0wmg/v37+Px48d48OAB1tbWuI+Hbdvc+b7NDr0F08RRuWI9NwGqi+glarsuYzbleUGwhTN0xLaL5Yk0pnGnJGqJxPwXgZ6lOYMLhBPKD/YeGgwGfPxkXFbvPFB7LoNc5ywaOWwDqV6v4/T0lIewpoOL/X4/wuEwj+I4Go1QLpdRZYfYklaP5pPX60Umk8H29ja+/PJLPHnyBFtbW1hcXIRlWeixA2QLhQL3/5O1RCK9SWii+SOuY6I/0VdjYz5PK0f9p/ziWhch0onKlekt01ZB4XOAS14wnzopfB4QX+wK7w9aE+LaoN9EW5HOtI4mgoO6XI4jMbTiNZX+X5Lp8j7zmBguKpNA5Yp5KB/t8lK0sDdv3uDNmzd4/vw5D69Mf589e8ZD7+7t7fGoYrOEENlcSpw78yDOKfG3SCcC1UW/5f7J9NWkEM6zMOu6xiLWxeNxrKysYHt7G0tLS/B6vRgOh/xcmv39fR7yuNFovCVEiP35UMxqJ1jZVK/BnNflcZmXCJokVBvswE7yF6P7Ynk0/gY7vBRMSzhh5pDyeIrtmQfy7yGTR3nsxWfpnmiKRXXIfaf6L2uDmOcqEOsTaSqWQ7/Hgu9WpVKBy+VCMpnkEREpOqfL5eIBDMQIcVS+YRiIxWLY3t7GvXv3kMvl4PV6uQbq9evXeP78OV68eIGDgwNUKhWM2blLcv9EYZbuyTSna/TbxcwNxbGmvOIcEZ8X6ySIeagNIugZZ46wpKBwmyDO9cuS0hApKNwxzPqIiRA/UuJu8KwP1yxNgUqz02V0nwfxOSqHrmlsTGhndzQaYTQaYTAY8HNSTk5O+Jk6dOhoPp9HPp/nvyuVCprNJteEiPWSuRQJRfJ40/86C61MbaIyLuv7RfcdxqCRySCVZ1kW3xkX5yjmMMvUPrBd+GQyyaMnGoaBSqWCvb09ftbNq1evcHx8jEqlAps5lIs0p3QdmFcO9UFjZoKWZfF+z+qzSHvqty0IyWD+RH6/HxaLFieXA6F/pmly0yzSZEyEg5pFiHOSQG3RGLNvWda5yH0E+TnqM821D4Vcvgii8TzIfRXnlNjO0WjENTf9fp+HwI+zoDTBYBDT6ZRraWkui0K9yQ7iXV1dRTabheM4OD4+5hsXFD1QjDY4C7PWqAhxrGiO2Mxsjq7TNfEZgrzGZYh5iUYX5b/onoLCXcKHv60UFOZAfHErXC8uoyt96DGDKYDEcFGiayqdT+8CkYmkvzJjowmMMl0jIYh8TOi8mHa7zZ3xJ8zvZsDOrqFzagg0zuJY2sy/we/3w+/3c2ZcZLjof7fbDa/XC9M0YbNgDLJmhdo/C/OuT1lkKyrP5XIhGAzyKHkinanNDtOquN1uuN3ucxoRwzC4X1UwGMRgMMDp6SkODg5wenqKcrmMWq2GwWDA+0WaDQgMJ9V3HRDbL9KexsftdsPj8cCyLN5n+Xmis878UXQWgWw6naLX62E4HMJgIfUDgQBcLGgGZgh5OgvSQdERh8PhuXDrRGN6VtT+iH0AE8LooFUxNLYMyi+P6TxcJQ9mrCkCtWMWPWleEx3FeQ6pbp35eXU6HW7KZlkWwuEwstks0uk0AoEAxuMxms0mj9RI9KYxIJ+2OAtvXqvV+OG7Z2dn/OyhCQuEQYE+qB0i/WgcxP+p/zR21B/KSxqheXCEd8482ov1EMR8s56ZdU1B4S7i1pnMOWpx3Vmocbx+EB3FD6R4XQbRXjSNkT9wED58Vx0reWyv8sxPFSJtiPaz6EVjoGkaut0uyuUyms0mHMdBLBZDNpuF3+8HBCZeFF69Xi+y2SzW1tawvLyMeDwOk51vAsY4uVwueDweJJNJLC0tIRwOn9MUEUPl8XgQi8WwuLiIQCCAbrfLD0wVhS6xzfS/2DeRQXeEHfThcIhKpYJqtQrbtpFKpZBKpXgoaCqDyrZYGPIHDx5gd3cXCwsLvG/U3kAgAADo9Xool8soFAposwNNRyzccTweh9/vhyFEmKM+i+39EIhrgsbGtm10u11Uq1WMx2MEAgF+OCoJnPQMrVU6fHVjYwOLi4s8ZPdkMkGhUOChoZPJJBYWFrgZF9GEmH2DmW6l02mEQiFuglksFtHv9/kcIuGIBMxgMMiDLtDcsFjIbzowmDRT1HaZDhoT6OR7kAQakVbitVmgjQCHhacnwZ7mCo2n+NcwDIRCIR56fWlpiUd1E4UIarPNInOWy2WcnZ3BcRwkEgmsra0hk8nA5XKh2WzyA1FpzMQyDBYN0OfzwWZnARUKBVQqFfT7fb4pYJomIpEI0uk03xSQ182EmTwT6L5IN0dYX/NoJ4LoRfnFMum+Lvi9ES3F523JhI6uKSjcRohr9Cpp9laPgoLCrYD48bnKRw8zmA35A/Y+SWSgKcl57lq6CYhjNK8e8QVM+UajEYrFIkqlEmd6V1ZWuFBETKHN/Eh8Ph+SySQ2Nzd5QIFYLAaLHcxK9dJYBQIBLC0tIZ1Ocy0FweVywefzIZPJYGlpCaZpotVqoVgscv+bWWVSGfI8cySNEu3AU5ADclxfXV1FJpPhPjEkqJF2Y2lpCffv38fu7i7S6TRMFp1OZB5pV5wEB2IidV1HJBJBLpdDOBw+N2fnge5dlGcWaCyJRi4mpHS7XX4Yr9/vRy6Xw+LiIiKRCBcswOjpdruRzWbxxRdf4NGjR1heXkYoFOIMfKPRwMHBAVqtFu/X4uIiwuEwTNPkY6GzENHZbBa5XA4+nw8ddihsvV6HzYTkMQu8QlqnRCKBhYUFRCIRrrnw+/1Ip9P8cOJgMAibmfDNoxH1XRZ2MONdJq4B+T7lARN4O50ObHYeEJ0rJTLnpFWDNJ/v3buHL774Avfv3+dC9ay54DDBtNlsolAooNvtwu/3IxqNIhKJcJM60vJQ20VhQFwX4lwmAd1hAkwkEkE2m0UymeTrldpDf6eCfxLRXBSEKE0EDa7YJ7pGoLlJCdJmwKzxgBQYBDPGSCxPQeGu49ZpiBQUFD4M4odThvxhvCy973N3Id0EnBk7q7iAcaAxchwHzWYTp6enKBQK0DQNi4uLePDgAVZXVxGNRhEKhRCLxTjzSucT0Q42jbsmmORNhPDHgUAAm5ubWFpa4ge7hkIhrnFYXV1FJBJBv99HqVTizuPUH+qDIzGC1H5b8GUQ5yBpDFqtFtcSOY6DxcVF7O7uYnNzE0nhoGA6jHZjYwNLS0sIhUJwGPNHfjCdTgedTgcuJuyl02ksLCzwMkgzsLCwAIud7eQ4Dkx2gC0x7mBjIzLJImNLzO28JI8z0QIAp2M+n8d4PEYikcDGxgbW1tb44bqxWIzTf319HRsbG1xIFOnc7/dxdnaGk5MTjEYjJJNJbGxsYH19HZlMBuFwmB8eury8jNXVVSSTSUynUxSLRZyenvIw0S6XC8PhEPV6nR8eGgwGsbGxge3tbSwsLCCRSGB1dRVbW1tYWlriwhCdb0P9FJPGmHcaf2q7nA8Czema/M6iuTadTtFhBxuPx2N4PB4sLy/zM7go6EEsFuPaVDBztGw2i62tLezs7GBrawvpdJof0CuuFarPZuf9lMtllMtlDIdDvnlAETtbrRYXQkSIz9OaiUajnJaRSASZTAbLy8tYXl5GIpEAmKmsLYXtpvJIGCFBX6yT8olzltYZ9UtM4jNUDs1v+t8RzO5cgtaK7lG5YjtkOigo3DbQ3L1KevttrqCgcGsgf3Do43YRxA+huNjlPBBeFpdBfnF8Dumm4AiMgy2FPZ5VL+UfjUY4PT3Fy5cvUSwW4fP5sLu7i8ePH+P3f//38fOf/xy/93u/hydPnuCLL77gwtCUHS5JBzfS2GqMoez1eqjX6+h2u0ilUnj8+DF+9rOf4eHDh3j06BG++uor/OxnP8PS0hI0TUOpVEKhUECTnXQvtlGTop7NoqUoTNA9h2lMyuUy8vk8Wq0W3G43VlZW8OTJEzx69AhffPEFHj9+zP8nbRVF9hqPx5xRq9frKJfLsG0b0WgUq6ur+Oqrr/DkyRN8+eWX+NnPfoaVlRVowiGlk8nknB8PMYikhSGIjCD9LyeCJghQkOg0nU5Rq9W4D8l0OkU6nca9e/d4W7/44gt88cUXePLkCTY3N+H3+/kByoPBgM+h0WjEyzo5OYFlWcjlcvzZR48e4eHDh/jyyy+xu7uLlZUVGIaBQqGA/f19FItFjMdjrmmYTCao1Wo4OTlBvV6HaZpYXFzEF198gZ/97Gf46quv8OWXXyKXy8Hv9/Oxo2ACNPZEC6KD+F4Rf4twmP8LaUds4VBaGSQQnZ2dodFowDAMbGxs4PHjx3j8+DEePnzIz55KpVIw2CHFpmkiGAwiFoshGo0iHA5zHyh5HdJ4gYUKbzabKBaL3OySTDLJ9E3uF40/mYWSljcWi2FnZ4fPya+++go///nPsbCwgOl0imq1ysszWdANURCRhSCxLghCE9Gd6GoIvmDUN/pfHDMSuGgsNWb2B2GMKJ9Yngi5fQoKdxn6n/3Zn/25fPFjw2a7VvV6Hf/3//5fHB0dQWMfFHkBKtw+aOxjGIlEEI/HAQDFYhHdbhf2jLCdClcH0U78INGHje7RR9SyLCSTSUQiEXQ6HdRqNW6qgTnCj/y/CPljqnAxaDzcbjdSqRSi0Sgcx0Gj0cDp6SkajYb8CAfReDKZYDgcwma7xuFwGH6/H4lEgocCTqVSiEQicLGd68PDQxwcHKBWq3EGi0y0kskkxuMxisUiCoUCDOZfkkgkkE6nkclkkEwmEQ6H0e/3kc/n8fz5c75+SRtA6zuZTMLr9aLT6XBmeir4wND8GwwGODg4QLFYxHA4hM4inRFzT2ValsXNoKiPyWQSgUAAtm3j9PQUb968wdHRET8Lisoi3xwKWEDmTaFQCG63G91uF/l8Hu12Gx6PB5qmodVq4fDwEPV6HRrzVaLADR6PBz6fD16vF16vlwtPYh4xWZbFfUbof5lBnbIIe2BrzePxwOv1IhaLIR6P87+JRAJutxulUgl7e3s4Pj5Gq9Xi70+aG/1+H6PRCLquw+PxIBgMckd+oh8dRlsqlfD8+XOcnJycc+Yn2pMAQkwwlRcKhRAKhbggVK/XUSqV0Ov1YJompkzrREKzwzRv8XgcqVQKuq6jVCrh+PgYzWYTLsHPiZLBgkOQ+WC9XsfZ2RkPHgFhPdFYk8BAYxwOh5FIJBCLxeDxeDAYDLjGy+fzcc3MdDrl9/L5PHpSdDdi+MU6w+EwNzkslUp49eoV8vk8ut0uILxLNSEIxpQFD9F1HW63mwcyiUajSCaT3F+oUqmgXC5jMBjwZxuNBjfVG4/HME2T9822bZRKJZydnaHf7597F1N7A4EAYrEYgsEgOp0OTk9P+SYCzR+wcXe73Uin04jFYhgMBlxgHo1GMJjvVTqdRjQaRavVwunpKReoqT6xbgWF2wZ656TTafyjf/SPEIvFgCvMWSUQKXwwtBkCEb3clUB0M6APnMN28qbTKUzTPCcQVSoVbpLhSGZO4gedfstJzCd+hD8H3MScpDINFqJ4Op2i3W6jUCigUCjwqGeYI4jSGNnMNKnVamHIDn+k+1PBZOz09BT7+/s4OjpCqVTCkEVx0zQNgUAAy8vLSKVSsG0bZ2dnODg4QKfTwXg85kwXAHQ6HbTbbRwdHeHVq1c4Ojri+WiOgIW7NpivztnZGT/IkhhtN4sGN5lM+HlA7XYbExZZDoy5JQdzYtJJoKJ2Ud+Pj4/x8uVLnJ2dod1uczpoTKvQY2fBTJhJEWnIaIc/n8/j+PiYP0tajpOTE7TbbViWxQVMSiQgiuZ72WwWmUyG3xefSSaTXMAk35ahEP2P2tfr9dDv9zlzP2bamgkLqT0YDLg25/j4mG9m0Jq1mRZlNBqh3++jwxz7qQyNmUf2+300m03OxIv9pzlH42mzwAr0DJU3GAzQ7/fRaDRwdHSEk5MTLvx0Oh0uaJbLZT72mqbBzSLQUQAHEj40aWOF5sJkMoGu6xgLArs4n6hcmhuDwQDdbpeP/1QQsCnggejz5mK+Uo1GgwtchUKBjw19m6g9VK6bbWgsLS3B7XYjn89jb2+PC1vUJrFfRFPRX2gqRFccDodoNBo4Pj7G8fExD84wYlEjS6US39CYTqfQdR0WM/Wss4OYa7UahsMhpyHNDYeZpbpcLvSZaWW5XD63oUHtczHTOiq7Vqvh8PAQzWYTNtuEofuTyYSvIaIrgcpTULiNeF+BSBuPx29/mT8yJpMJDMPA/v4+/tN/+k/4q7/6K2jMhOSyDih8emhsl2xtbQ0bGxsAgG+//RbFYhETgRlSuD7Qx5w+hpPJBF6vFw8fPkQul0OxWMTz58/RYc7I4sdT4f/hJt4tNNe9Xi98Ph90Xee73sSU2nNMzSAwNwYLFxyPxxEKheDxePhL3mYhsRuNBhc4iFGiMjOZDP7gD/4Au7u7sG0bv/nNb/DrX/8atm3Dz86xoahiYxZtrNVqcdO7We2jcM902GSn0+EMvcZChZMGZMqEQbHfEGhOWhYyY3Iz3w5NYOx7vR663S4cx+HmY8R8En18Ph8CgQA8Hg9fE/1+n/ty9Pt9WCwyGY1Nq9XCYDCA3+/H48ePsbGxgVAoxJlFaivV5xI0PtR+mT7U7v39ffzud79DuVyGwxh5ej9alsW1L6SxorXpYtq+er3OBVsqX2R+6X/SQJDvkMvlwoQJl8SAt9tt9FlUObm91BeDHd5qmiai0Sh8Ph9v95gdWDpgId5dTKPn8/m4QEvtdxwHfr8fwWCQt50EeqKZ+NdxHD7+pmny9tJcEdtKME0Tbreba8HAaDEcDvl8bDabANP6uN1uBAIB6Mw0TBQkp4J5Ho0v1Z1Op/Gzn/0Mjx49wnQ6xY8//oivv/6am2gSxP4YzP/HZuZ6gUAAfr+fbzpMmSDc7XYxGAwwZUETLMuCx+PBcDjEgJl1TpigGAwGebnieqKxE2lEa4jKGrHzzMT20nOmafKxog2EIdNKg9EjFAohEAhgNBrx9UJl4IbenQoK1wWdBfJ59OgR/st/+S9YX1+HI2zGzIMSiBSuBYZhYHV1FZubm9A0Dd9++y0KhYISiG4IxPw5MwSixcVFFItFvHjxgmvpxA+jws2BGCttxq64xhjgeQzfLHjYwZoQmBEqY8w0ODJs20Ymk8Ef/uEf4sGDBwCAX//61/jlL395zuyJ2gdJ+zSvfdQHyi+ua00Ityy2k/rvzPA/0ATHeiqL/h8ysynKJ89fXTJzEttCzK747iGaif8Hg0E8efIE29vb8LHw3wTqi1zvLLiYX8d0OsX+/j6+/fZb7jM0EXbVHbZWPcL5MyJtSJARx0X8TWXYTIACe++aLBw50W4qBLUgxlt8XvxNz1BZxEiIZRDkNsn0obJspmmg52eNO9VN94gOIuT/Icwz0kTK7aD+XlY+5RdpozEt19raGn7+858jk8kgn8/j+++/x9OnT7lQIIJoQXWJfaV1C2H+URvoN7VTbA9dF2koPyPWRf9PmWaJytKYoCbSh0Bz1mbfBqIjWFt1wa+O1pOCwl2BEogUPgnoJWqaJpaXl7G5uQld1/G73/1OaYhuEOJHTBSIdnd3kc1mUSqV8PLlSy4Q4QIG46eKWfS4DhCDchVc1gZaOxflo/ror23bSKfT+KM/+iM8ePAAtm3jm2++wa9+9SvU63UYzN9BZpLksi4D9VFsIz0n36P5KoL+F5k+un5Z/cQ4Qsgvlw9BsCEzKY0xktPpFIFAAIuLi/w8H2ICr0JzzFg7tm2jWq2iWCyi2Wy+JQwR5OdEXDXfLBADTmXQeMjliPfle1cB0VAc71mQ54II8Zo4fmLbZDgCQzPrvoyL5pFcp4tp3VKpFO7fv4/79+9D0zQ8f/4c3377LU5PT9/aRJj1V6QN/ZXnvtwmsZ2z2jzvfypTpJlIH40Jj7S+6NpVIPZp1ntCQeE2470FotFoNPuN8REhCkR/8Rd/wQUiUd2ucDtBL2PTNJHNZrG9vQ1d1/HDDz9wR8zLJqHCu0MUiAzDwHg8hs/nw4MHD5DJZLgPgWj+JH/YfurjItPjOkEMu8zMiPcgMK0XQcwPiUGi3/SedDFNRTqdxt/7e38P9+7dw3Q6xffff49f//rXKBaLMJgT/byd31lM2TyI72eak2JbrsLAinOT6r6oDbPmLT0jw8V2wUVNCZVN5kouQZNA92S6yqD65P6PRiMMJTNByn8RZrVf/v8y6NIhnbPqFPs2r4/i9VnjINNKfEbMI18TIdcp47JnxbV7WVmzQJo1i0W6I1PP5eVl7OzsIBwOo1ar4ZtvvsGrV6/OBUQRNT/i3BHpJtKFxvaiPhFE2s4DlSmWJ7bJEYQwKkdcX5dBXF9yPQoKdwEGizb5xRdfvJNAdPFdBYVLoAlmL+12G/l8Hqenp+dMXhSuH/Sxox1wSr1eD9VqFe12+62dSRnicz/FdNMQGXCROflQiOWI5VK/6NqEhVieMv8FUYMg5hPLmfX/RYkglyfWc1Gi3WsZs64R5DKo7ln3qXxiXCmfi/nc9Ho9tNttNJtNNJtN1Ot11Ot1NBoNNBoN1Go11Ot11Gq1c4nyydcoSpgsbM+imYh5198F1NeLkpiHIOcRr88q05ZCkIvPXBVyGXKSIY/vZfScB8pvGAZSqRS2trbw8OFDPHnyhJ/5FQgEeDTCs7Mzbio3q75ZdJVpRvkug0zneYlAbZFp4wjrQfxfbvtlkOtTUPjcoQQihWuBxs77ODk54SFjycRA4fpBHzhdCGc8Ho9RLpdxfHyMcrmM0WiEKXMgnvVhkz+0P7V0kxCZFTFBYDSvykxeJQ9YXaSVIYafnONpLmAGo3Mda3QWw0X9nNX+eWMxK68M+dmLEi5omyP429hMcJTbctUkMsGfCnI7ZqXrxEXlzbv3vu2Qx+99oTFNjdfrRSKRwPr6Ou7fv4/19XWsrKwgFAqhVqthb28Pr1+/RoMdCCs/L6aLaH4ZxHeDKLTL5chJfB6CgHmVOq8CuR4FhZ8ClECkcC3QhFC4FA1n1k6fwvVBY74QNnOydtiZN5VKhZ+obl+iJVK4GVzEUDgzzKOuAyJjNZlMePjlSqWCJjtk9abqnodZdJjF2H0oHEHIvG7Ma+dN9ONDQXSY16aPOfaz8L70ep9nLgKVR9pTCj2fz+fx6tUrvHr1ioeyd2ZoWK5r7GWBSDTB+1S4jn4pKNxFuMSFfRuSwt0Ejd9NMCQK80H0Nk0TLuY/IprsiB9chY8HWgsXrYfrHBeN7SpTfaStff78OV68eIFKpYLBYHCtdV4VH+vd/iF9o/bJ3yJx/bxr+lS4rG65nR+a3gXv8wyuUSBymHAzHo9RqVSwt7eHH3/8Ed999x2+/vprfP3113j58iU/OJWsHDTJB+h9+38RPtY6uQy3oQ0KCtcF8Z1+WVIaIoUPBn1kbNs+F1lJ4eYhfpTpNzlX0zWFjw9iKj42c0H1jcdjnJ2d4fXr19jf30e9Xj93qOTHBn1woOakwieEuD5qtRr29/e5edzr169xcnKCer3OD0gVn5mFi+4pKCjcLSiBSOFaQIw4Re4hpvyyqB4K7w++q8HM5ShaI9EfAvOpPtyfBjfF/Is71LLw6zBN0ZAd3tpoNDAYDLj55KeaCzRfP1X9F0Gm53WnWXXdRczr013DdDrFYDBAq9VCu91Gr9fDYDDg2vVZGvZ56UMgronbvD4wI6LebW2ngsL74taZzDlqkd0p0EfB5XLB7/cjkUggHo/D4/HIWRWuGbRW6EPlcrkQDAYRCoXg9Xr52DhzHH8VbgYizen/jwmqm9oxmUy45vZTj/2nrn8eZCb3XZLo+3FR+hxA/b3r/SFrBloftFZpfs4aM/n/64D8Tr6t6wPC90Zs303QREHhOiGvrYuS2r5X+CBowo6z1+tFPB5HIpGA2+0Gbvisl5866GNEi9myLEQiEWSzWYTDYZimye8rfHzous5Piv+YoPmg8HHgXMF3chaD/SkgC2lXTQTq612fY2L76Tf19S736yZhs+A9ZAVimqailcJnhVunIVK4W6Bxs20bbrcbsViMM+PiYXEK1w9iVGgMDMNAKBRCIpFAJBKBZVlqXX1kOI4DXdcRDAaRTqeRSqUQj8fh9Xq5Gak8bgp3FxozFdZ1HS52COyscaX/5esfG7Kg865JbL92CwQ8hY8HXddhWRbC4TDi8ThisRgCgYD6zivcatD7+CpJaYgUPgjih17TNAQCAbjdbhiGAcMw1EfzBkGLWGRYaPeOGHCRgVG4WdAYWJaFeDyOnZ0d7OzsYHl5GX6/n99XfnWfB1wuF7xeL2KxGNLpNPx+PyAckCrCuYIW6VNCbq8Mmrs+nw/hcBixWAyxWAxer1fN558AyCzUMAxkMhlsb29jZ2cHmUyGWyIoKNx1qDeZwgeBmHIwRkB05lfC0M1CFIbof4dpKEQmRRSYFG4OokAUjUaxsbGB7e1tZDIZ7lOnzTHJ+Zhjc51zYdbcuq6ybzNs24ZhGIjH41hdXcX29jbS6TTcbjffiPjU4zwL89pE74zL2u31erG4uPgWQ0zvIoXPEw4L3qPrOuLxODY3N7G1tYVkMgnTNNXYK3wWUAKRwrVA/IjSy3HWh1XhekHMqEhrEkrpDA0RsxhYhesB0dU0TR7cIhaLwe/3c62pSH95LG5qTObVdVG6DMQgmaYJwzAuZKY/R5A/RTQaxcrKChYXFxGNRuH1evk4Ez2IJkTXWXSS6X+VMXgfyO3RWWRQ0ug7LMjAdDp9q530OxqNYnl5GYuLi4jFYnzz5Sptlvs4LyncHmjsSA3HcWCaJjweD0KhEMLhMHw+31sbcAoKdxXKh0jhWiGOo/qwfTzMovVtNtH5XDGdTmHbNj8ol5iF28jsyUzoVduoMWbfNE2Ew2Ekk0nE43H4/f5zwsBl5dxlUN9cLhfXCpFQKPb7Nn7XqE0aM4Gj8bMsC4ZhnNNwyW0nxlhnAUPEPn/O4/1TBo2rxrTfNotgaRgGcAfMQRV+uhDfY1dJSqxXuFaoD+OnhxqDTwdbOJyYmEl62YoO93TvNuKyNpKA53a7kUgksLW1ha2tLSQSCViWBbA5+LnuGjtMAJhOp2i328jn8zg7O0O73cZoNOIHet5G0JiSyV8qlcLGxgZ2dnaQTqdhWRYfX3n+Up8rlQpOT09RKpXQbDYxnU7fSUv0rhDn46ykcPMgWrukwCGOELb8JsZeQeFj4vP8Yil8UtCLUX2sFH6KmMcYXCSozrsOSZNzVczLL18TyxbvyflmwTAMxGIxrK+vY319/Zz5FK39q5SDGe2Y1SZI7xTxt5xPflYuU77/LvmIMSTh4PXr13j16hWq1eq5M5/kMt41XQQ577wkg65RHxKJBDY2NrCxsYFUKgXTNN8KCiH+pj6/evUKe3t7KJfLcK6gDZTbNa+NF30zZuUXr8vpOvCuZcltuOhZOd+sNA/z8snX5SRDvj8vHyTBWEHhc8StM5lzLnghKtwtqBfnxwWtHbWOPj1oDLQZviQynBlnu4h55fsXlUN/RaZWXIcuFi1KzDedTs8l8Vm5HWDaBcqr6zqi0SgP806+J6PR6C1NmQyR+bJt+60+yn246H0i1zGLqRf7R79FaEwDQn0QaUL3xbyTyYRriI6Pj9FoNHi91F7ql5zEtsxLVA8lkTbzkvi83H/6S2k6ncIwDESjUcTjcfh8Pm4GR89TomcHgwE6nQ6q1SoKhQI6nc65sZlXp9w3uZ3iczLEdszKK5ZzUZny/1cBlUegMuT5KM9jMYkQaULtlfsm92FWu+flm0ULOZ9cjvy8nIdAc1BnxwfImPecgsKnhDzHL0pKQ6SgcIdBCxkzPtLqA/Vp4Eih0Any/8Rou91uuN1ueDwe7pQPJrx4PJ5zaR4zIjIrPp8PPp8PlmVxEyiHaQQ0ZsrmMObHsiwe/CESiSAcDsPv98Pj8cCyLB6gA4KZFYV1p3qobcFgEMFgEJZlIRAIwOPxnIu6RqA5a7PABNROn8+HeDyOTCbDGXTR4Z/6KJZBfSbaud1uHgaY6EchouPxOBfciPHTmBDkOA4fBzrLKxQK8fD1VKcoLJFg6WK+YrYgxBCtDcOAx+PhtPJ6vedoJ9PQ7/cjFArB4/GcGy8acyrTMAy43W74fD4kEgksLCwgk8kgEokgGAzC5/Nx2hLdaP7R+AUCAVjsrDKNBVjwsbDaoVCIjyHNoel0ivF4DJcQTIPa5TDTKQLVRXQxDAN+v58HG4lEIrx8gjimMjweDwKBAAKBAB8TcvCnNtOZX6FQiM87oh+N1VWhaRr8fj98Ph+fUzQP5DEBmwOO42A8HvO5ZAk+WTQGNF8tyzrX9lAoxAVTcfxn0UIcRyqDfBZpzlN50WiUl0fCrjhv3W43AoEA4vE44vE4DwwyK3IgtYXqF+8pKHwO0Lrd7tsr7iNjMpnAMAzs7+/jP//n/4y/+Zu/gaZpGA6HatHdctBL3rIsLCws4OHDh5hMJvjhhx9QrVYxHA7lRxSuEeJHy+/34/79+1haWkKhUMD333+PwWDw1k64ws1A13WMRiPEYjF89dVXePz4MQKBAF68eIHf/va3ODs7w2Qy4UzTZDKB1+tFKpVCIBCAy+VCt9tFrVZDq9Xi0eri8Tg8Hg+GwyGKxSJ6vd455hMCkxIIBJBIJOD3+9Hv91Gv19FqtTAej7mgoOs6Z/6TySQSiQQMFmFsPB5jNBqh2+2i0Wig2Wyi3+/DZlqNYDDID1+ORCLcXG48HuPNmzc4PDxEt9sFmMDX7/dRLBb5NZv5GjhMQCMmORAI8MhVlmWh0+mg3W6j1Wqh2+2i1+uh3W5z5pp2vV0uFwKBADKZDLxeL7rdLrrdLkajEbxeL2fyNMacj0Yj1Ot11Go1NJtNjMdj2LYNr9eLhYUFzgR7PB6MRiP0+31UKhVUKhV0u104TBjSWECCRCLBTQVrtRqq1SpGoxEcdlByJBLh4ycyt7Rm6S/NBxI+zs7O+PuTniNm2ufzccHJ7/cjHo/D7XbDYRqcXq+HTqeDfD6P6XSKbreLyWQCFztHJpVKIRgM8mhxy8vLsCwLb968wf7+PqbTKZ+nrVaLp9FoBNM0kU6nEY/HMZlM+Fyl94wmCAs0X0zTRDKZRCQSgdvt5n2ZTqdoNpsoFosYj8fo9/sYj8d8fhCozkwmA9u2US6X0Ww2YRgGgsEgF+S9Xi/6/T4GgwEajQYqlQra7TZ//5HAehGobjpY2efzYTAYoNlsotVqod/vc0GFEpj56GQygaZpiEQiPAR7tVpFuVzmppQkyNJcDwQC8Pl8vAxd1zEYDNBut/k8HQwG0HWdz1WDHcBNQqXjOPzdEg6HEY1GubCraRr6/T6nc6fT4W22LAvZbBbRaBTBYJBvElQqFZRKJTQaDT4ek8kEbrcbqVQKDx8+xO7uLnRdx29/+1v88pe/5JpCBYXbAPpGPHz4EH/xF3+B9fV1OOybcxH0P/3TP/1z+eLHBn3YGo0G/vqv/xrHx8f8haoW2d2ArusIBoNIpVKwbRulUgn9fl8x4x8BtEYsy0IymUQoFEKn00GpVMJkMjnHXCjcHFxsF93n8yGbzSKTycCyLFSrVZydnaHT6WAqmGQZwjk2GxsbiMfjmE6nnPECgFAohIcPH2J9fZ0z/IPBAOPxWK4epmkiFotheXkZKysr8Pv96Ha755hCx3Hg9XqxurrKhZnl5WVkMhlkMhmubRCZ+E6nw5nJYDCItbU1PHjwgIea9vv9cDEzq2QyiXQ6zfvv8/nQarXQ6XR4O212XlkwGMTq6irW1tawsbGB1dVVrh2Kx+NIpVKIRqO8Hf1+nzP2xIzquo5YLIbt7W2sr68jHA5D0zQEg0EsLy9jZ2cHKysrSCaTWFhYQCKR4AJjq9XCcDjkwtCDBw+wvr6OpaUlpNNpHn3N7XZjOByi1+txZt+2bQQCAaytreHevXtIp9OYsiALtAlkGAYWFxfx8OFDrK6uIpVKIZPJYGFhAYuLi/w30SqTySCbzSIWi8FxHPR6PS78Ul9N00Q2m8X6+jo2NzeRzWb5OIRCIS7gxmIxrtHo9/ucXl6vl58hk8vlOFOt6zp0XedRA1OpFFKpFBdOW60WNKY1WV5exvr6OuLxOBzH4fNV/FZrTIORzWaxtraG+/fvY3l5GUtLS7xs0mh5vV54PB70er1zc4TK8/v92NzcxMOHDxGLxbiwlkwmsb6+zvsSj8f5+MZiMWiahm63ywU85wr+L8QwJRIJrKys8H6SoELfNPGd6hK0LoFAAMvLy3jw4AFyuRwmk8k5IdmyLL6G1tbWsLq6isXFRT7fRNoHg0Eu0DhMgLRZBMuFhQVsbm5ifX0dwWAQ/X6fl7uxscHLzGazSCQSCIfDcART1lAohEwmg/v372NjYwPZbJav3UgkAo1tSPd6PS4o6bqOQCDA20eC++npKUaj0aW0VVD4WKBvRCqVwj/8h/8Q0WgUEHiledD/3b/7d7dGIKrX6/jrv/5rHB0dAXPOUVG4nXC5XFwgchyH72QrgejmIQpEZOrT6XT4zqT48Va4OZBARAw2HVpJ/hatVovvIrtcLmQymXMR2sbjMUqlEmegwASiR48eIZfLwbZtVCoVzshrwk46lRmNRpHL5ZDL5aDrOqrVKt/pBWMul5aW8OjRI+zs7CAYDGIymXBGaTwew+v1IhKJcPOrfr/PtQw+nw9LS0tYWFhAOBzmJlVgwhaZF7ndbni9XkwmE77bTEw5tXNjYwOPHj3CysoKIpEIZzqHw+E57RgJZwAwGAz4nHaYUJlIJLC9vY3V1VX4/X4A4IIhPetimiQSHAzD4NqXbDaLnZ0dLnS6mObK5/PxHXzHcdBsNjljO2Xaj5WVFWxubiIYDKLZbOLk5ASDwQAaM23LZDJYW1tDJBKBwcwNyQyLTN4okcmU3+/HYDDgUdwmTBvo8XiQTqexu7uLnZ0dLjiRBoMECmJag8EgdF3nGhzbtuF2u7GysoJcLsfpYDDtII2fJZgw9no9FAoFNBoNrp3K5XJYXV1FKBRCt9tFoVDAYDDgc8DlciEUCmFlZQX379/H1tYWUqkUDMPg2lGXZK4ViUQwHo+5hpIEIsdxEA6HsbW1hZ2dHXi9XoCZmeZyOSwvLyMQCGDKTBhJc0kaktFohPF4jMFgcKX3oMY0rX6/H8lkkgtamqZxAVW0eiBhiMY7Eolgc3MTOzs78Hg8KJVKyOfzGA6HMJi/1urqKnZ3d7GwsACPx4PxeIx2u41ut8sFHtL0BgIB9Ho9vi4mkwlM0+SH49KmCwCkUikuHJvMpJFoTBsLw+EQLpcLuVwOm5ubWFxchJeZILrdbq7RpLXb6XS4QOZyueDz+bhApGmaEogUbiVoLpJAFIlE4FxhQ+RWCURKQ3R3IWqIHMdRGqKPiMsEIjHfbUt3AVdtp4tpSWZpiPL5PNe0aJqGUCiE7e1tbG5uIhKJoNPp4NWrVzg6OuIaHdpk2NzcRDQaRafTQaFQ4AKT3C6dBTjIZDJIJpMYj8coFouoVqsYj8cwDAMrKytcY0EM28HBAY6Pj1EoFHB6eopOpwOD+b5YLFAC1Wkwsx4SsIiRmk6nKBaLODs7422sVqsolUrnGGYSTLa2tvDFF19gYWEBjuOgWq3i+PgYJycnODs74ww+zelAIADTNLlJHM1rMj/K5XJIJBLQmX+Gj/nQ1Ot15PN5FItF9Pt9GIYBr9cLS/CjIc0YBUg4OTlBr9fjWhOfzwdN09BoNLiGznEcBAIBLhy63W4UCgUcHBxwMyNqC33bqtUqarUaarUa6vU6KpUKms0mF3pIUBqNRigWizg5OeFzRhT8dnd3EQwGUavVcHBwgNevX+Po6AhnZ2dc8CSGngQiURi3LAuTyYSbYhFDXKvVUC6XcXZ2xoWxQqGAQqFwjnbZbBbpdBqmaaJWqyGfz/P54HK54PV6kcvlsLu7i42NDYRCIbRaLRwdHeHg4ABnZ2col8tcgAsGgwiHw3CxDQUyz9OYJo60fel0GhoT/IPBINfcnZ6e4uDggJtA0vjrzHet1+uh1Wq907dI0zR4mP8ZaR1JU0bCJeWjNe12u5FOp7G2toZ0Oo1arYY3b96gWCxCYyaWm5ub2N3dRTabxXg8xunpKTdVPD09RbVa5dpUEt57vR66zIR1Op1yLSEdjAv27vf7/RiPx6jX63z8+v0+H2MfC5oRZOaAgUAAnU4HxWLxnPAdYL5dtm1zU0Hi0fx+P9LptBKIFG41XExj+84aon/7b//trRKI/uqv/koJRHcM9PEPhUJIMZO5crnMd7wUbg60PqbTKTweD+LxOILBIAaDASqVCt+tJkaCnpmXCFfZTf2pgGhx2btIYzvaPp8PmUzmHNNYKpXQbrcBAJFIBIuLi9jc3EQsFkOr1cLe3h7evHmDKgvdTOWFQiFsbm4iEAig1Wrh7OwM9Xqda5DEXS/TNBGNRpFIJBCNRjmzWK/XueZnc3MT9+/fh9frRaFQwLNnz/D06VPOFFE7J5MJpsyJvt1uo1wuc0Gg0+mgVqthNBrxHejpdIqXL1/i+fPnODo6QqFQ4Ix1q9UCBGY5lUphZ2cHCwsLAICTkxO8ePEC+/v7KBQKnDGvVCoYj8fw+XyIxWLwMh+Rer3O/XlIICJTOxJKO8yH5vXr13jz5g1OT085wyz6CZGWpFKp4Pnz53j16hVOTk5QZf47VL5hGGi1WpxB1JgWgYQDwzBwdnaGk5OTc9q78XiMWq2Gs7MznJ2dIZ/PcwEtn8+jUqmg0+nA4/EgGo3Ctm0Ui0UcHh6iVCqh1+vBcRx4PB4sLCxgdXUV8Xgc9XodT58+5fQmfy/yn9I0DbFYDIZhcGaaNPbdbpdrGn3MD8owDBweHuK7777D69evudBSKpXQYaaeLuawn2Y+RC6Xi+cZDoeYsqiD8Xgcm5ub2NzchNvtRqlUwrNnz/D69Wucnp7yudFutzEej6GzoBh+vx+maaLdbqPZbHJBg+hMvlq6rmM4HKJQKOD169d48eIFTk9PUavV0G634TDTQB/T7JE/EQltVwH1JRwOIxgMwuPxoN/vo1arcTNGGmMx7+LiIvfJOjg4wN7eHrrdLjRmxklaGQDY39/Hy5cvuTBL/n7dbhculwsR5hs1Yn5vxWKRa5BIKCFBEgBarRYODw9xcHDA1yCtPa/XC7/fD6/XiyDzFyoWi3j+/DkXxsiqI8iCoxDt6H3jYpsZqVQKyWQSLpcL+XxeCUQKtw60GZJMJt9JQ3Sxh5GCwjuAPhBQDPVHgUjjCTscz5Eib9GuM5lQmKZ5LhnMZIYSXbcs6628153INOe2J13XOdNxFYjrAOzlTC9in8+H5eVlbG9vIx6Po9/vY29vD69eveI7wJogoLoEcxx5fYl1aELI6CnzNYDgSO4w/4UQc8SfTqeo1+soFApci0QMdbVaxcHBAZ49e4aXL1/i8PCQa3gmLNR0uVxGsVjk2ixRcCLNEJVLpmkQzLnI/6Rer+Po6IgLAKRFqVQqyOfzfPe83+8jFApx/yaiC/XdYSY9LpcLnU4Hp6en2Nvbw9HREUqlEhdK9vf3Ua1W4TBhysv8sl6/fs3bUK/Xed5yuQxbiMbnYeZ3RFNi2iFEm6OxIZOjSqWCYrHIaV0qlXighk6nw02VTCYMHB4e4uTkhDOZGttwcpi24/j4GHt7ezg4OEClUkGfBSMYjUbosJDY5XIZ9XodLrar72F+WOPxmOehMad3x2Aw4AJOrVbjwikJ6PJ8E0G0cLGzjXK5HAKBAOr1OheUSTgnobJQKGBvbw/7+/uo1WpcOEulUtz0EUIIdaKvbdt8jpIQTUIPafgqlcq5vtP6oSRCvE5pyvzBSPj2eDxIJBKIsMAQ4txzsah74XAY6XQa0WgUvV4PRRZMhOaD4zjodrs4OTnh5zjl83k0Gg0Mh0OMWWCJTqfDtZEa0yxZzCwO0trX2LthzLTBJPyTwJ1nhwa3Wi24mEBrMjPevb09HB4enst/dHSEYrGIyWQCv9/P6UdzXqadgsJtgzhH33W+Xv0rr6BwAcQPzayPjsLNwbZtbitPO67BYJA7X6+urnJH+8vS6uoqT+T4e1NJrOs2p8XFRSQSCXiZ/8I8iAyj+JsYdZ/Ph4WFBSwvLyORSGA4HOLNmzfY29tDtVo95+cgMmdgDvraJRsOIuMorkWCwwRlsDZZTOi1LAtu5tNiMRO5Wq2Gvb09/Pjjj9jf3+cCEQlYk8mE+zRQ/0gYA9thp7xUt4v5jcRiMe4nQyZZDebnRMzelDnCl8tlvHnzBvl8HmAmEMQwa8xcicqndtXrdZycnHCTM1oX7XYbjUYDHRYRizQNpVIJp6enaLBzhABgNBqh3W6j3W7zvpumyZ+jsZglEEHov23bXNs2lZzx/X4/9zFKJpMYjUY4OjrC/v4+F3SofOrX3t4evv32W7x48YJrE0lgd5jAQ+0hQccWzj2iNtP/9N6gdlJbxbZfBJEODtPMxONxbsolarvIF0VjQsR4PEaz2UQ+n0eJBYDxsTDUwWAQEOY09clxHLTbba5tIw0IAIzHYy4YkYkcbfTQuMxaN7PgsCAelUoF9Xodtm1z7aufBREhIYHmdYoFijBNE+VyGYVCAT0hKMFoNMLp6Sl++OEHfPfddzg9PT2nJaN5RTQdMX81l8vF1xlBnHNjpoU8PT1FhUXWo3HtdDrcxJTGqdVq4fj4GMfHx+fuTdhmh6gRcrvdMJiPmYLC545bdzCrCPmeSrc3iWMmfrzow0ofBZWuL0FiSEajEXq9HkajEd/RpEhW5OtAUa0o0bVPkcR23NZEbaUdfHkM5PGg3+Ia0JkfSjqdxsrKCoIsUAExJbVajT9nM4acmCORGZHroPEX7xGzSRD/n0wm6Ha76LOIYHEW4W51dRXZbJb7ZZjsTBObaQ3kPsrl018xn5gHkkBEJmi9Xo9rSUTGV+zncDhEuVzmJnt+vx9hdlaSxgQies7lcmEwGKDb7aLFIp8RPUnAmjJtFhizXa1WuaaL7ov9GDPNC7VJ7A/VK16j/8X3HaRNIodp60RhaDgc4uDgAC9fvkSlUsFwOMRoNOLCyWQyQaPR4Lv4pVIJg8EALhZK28sCYcRZmHG/3w+L+S8Rwyu2W2zvvCT2R+6/2G+bCW0aM2+LRqNwM1+oZrOJRqOBiWBiJtZBWpFut8tNFMlEzcUEe1oL9I5rtVqoMl8bm2mlKO+EBQgZj8fn+i22Vf4WzYLDBASqq9lsws3C1IdCId5nqjvAgkNEo1H0+30UBF8/auN0OkWlUuFmgy0WDt/FNieCLBR6PB5HOBzm7xsSXkWaUxtt28ZwOOSatwELOkJ9pHkPtgaGwyFqLDz8gPlCiXSg8oh2RFeZXjLtxPsqqfQpkwz5/kVJaYgUrgXiy1p8gSrcLByBGaQPOJnljEYjDFio2MvSYDDgeem3eE3OJ1/vsQhM75LkNtzW1GXn4BBj8S5wmGlWKpXCysoKlpeX4XK5UCwWsbe3h2KxyE3KxPVCv2ld0TiL/4t/KS+tPfpf3HkeM7Ma2pkOBoO4d+8evvrqKzx8+BBbW1tYXFzkUb+IMfV4PLxssQ0yNMa0ksbBETQHGhPufCxym8vlwnA4RJNFbiPYgrM6odfrcdMljZ21RLv0Ih2I4aNdb3HHnfJQG22mJamz4AYDSfCjRPnm9RkzmEMR4nXK53a7kUgkuPbR5XJxP6oCC0BBbRXbThoVYqTJjC8ej2NxcRE7Ozt48OABVldXkUwmuRM9leUShFSiM5UNiebU94vGWwSNLwWq0FnEwI4UpUzMT/SgfN1ul28ekKkqab8gjDHlpT7QeMpzh/olroGrQmNmcx12fEGlUsFkMkEsFkMqlYKHRT2cTqdwu92IRqM81HmdBTXosaARVC9tSAyZv5WLaY0jkQgXjre2trCxsYFcLodgMMgFYnlsqG80L8jEDjM2LGhNkrBYr9fREcLgy/QS/8q0pXsKCp8jlECkcG247IOjXqbXD/pQWewQvk6ng8PDQzx//hyvX7/G3t4e9zd4l3R4eIjDw0McHR1xTcbx8TH396B74u/3SWLZ85L8zMdO5JMwvMIhwyLzRn8ty+I7vxF2xgeZb3XZOSnis+Lz4prShB1p8Zp8X7xOO7xgJkXFYhHPnj3D/v4+ms0mvF4vD4/8+PFjPHnyBPfu3eNMNWlzNEnQktc61U0MnMi0QegP+ak5TPszYAd6ysyYyKRNBPM8ui4yyprA9I1GIwyHQ9hsV54EGmqP+Nu2bfSZkE9jIDLOlJ/WGF0TIbdXhpzfZGdFrTIzVjIdpE0MsS0EeYy9Xi+iLLz6xsYGdnZ2sLu7iwcPHmB7exvZbBYRFuZbnCtyWdQ2Gi8RRCNc0DcIc0EUXkzThM58fUhbIc4ZTdI4kBBLGjF5DdFvqmfCTPvkexfBJQnPYv/omghq42Aw4D5t/X6fBwUJh8P8OZ/Px9cKma+J/oAOm8O0UWCaJkKhEJaWlrC1tYUHDx5gd3eXR+XLsrODyFdJ1/VzPlBiezUmuNEGk4tpDMVxp99Tph2lzR1H8LubB1EYEutXUPgcMX8lKCjcAOQPj8L1gMyc+iwSUqVS4f4ZJRY9jBymyQRpXioxh/jLEjmJEzP3OaZiscidnq+iIZKZC0dgwolptCwLBjuThgRZkXG8CmTmRGQ2iaknZozWnG3b6Ha7OD4+xosXL/Ds2TO8efOG+1t42flJGxsbnFGjCHfkPyMykzIjTXWKbcEM5poYMTGPKHQQKC8JN/SMiwl5ct0QGDhZ8KG84jMOGxswQY0g0lV8TnwWQn9n3SOI171eL2KxGBbYwax+vx8dFgCiUCicEwroOVFAM1kUwbW1NWxvb+Phw4fY2dnBxsYGjxRHWrdOp/OWcKUJQToIjiBMaMLceV/INHHYvBfXhXiPIDLdchsJdG0imDZSfeIz4pjJkK/NagtBY4J2u90+55cUi8V42OpAIIBYLIZMJgOdhS4vsRDWkLRXLqYRisfjWF9fx/b2Nh+/ZDIJy7LgMCGMfIuoX+IYYUY/xDkurhW6Rn2Rn6Py5fcWpHVw0TUFhc8Ft9qHSOFuYdY4yv8rXC/EjyUketOH2BFMH+T1Rkn8cNMOLO1q3lS6avlXzXdTaTrDIX4eZIbBZloI8qXodrtwu92Ix+MIBAJ8N5cYQhmzGCBnho8O5XMJO8Q0rvSMw3aqm80mjo6O8OLFC3z//fd4+vQpXr9+zZ3UdXae0draGjY3N5HL5RAOh+F2u88xWqLQQW2axZhqgvDiYk7glEecbzLtwAQVUcCzmbBDc1UEtU28T22DREsaU4J4j36L7SbQ/+J12m2fBbGsYDCIBRZUIxQKod/v4+TkBMfHx9xsT1yHMk19Ph8P176xsYF4PA7DMDBgh7ju7e3hxYsXPAhFn0WfgzBnqCyZLtRvMc3rEz0rJmozjdGYrVvqh86CGhCILlSeOJ7UFjGvOD40dmKdYl65PZokMM3KfxEmLLgH+d14vV5kMhnuy0baoeFwyMOVD4QgJER7y7IQj8exsrKCra0t5HI5riGsVqs4PDzEy5cv+Rg2hMOMxX6KbSZ6E83EMSHQ8/J1ESJNCPPyzruuoHAbIa6Jy9Lb2wIKCjcE+jjNevkqfBiuk7ZiWR+SSCMyLxGDdpUkP/sxk0iXiyC/XB3GpEwmE5RKJRwfH/NoaZlMBisrKzxqFWn4qA65HMI8xk5n9KSoUOI4gAkJYur1ejg7O+PhtX/44Qf88MMPeP78OU5OTtBsNqFpGjKZDDY2NrijvCYxXSRU6JK/DkGkAz1rs91yg0UAI0ZYhsb8UtxuN/x+P9xuNybMD4K0BJRPBtUj0g4CAyne04Qdcrom/z9rLAizrkF4Zsq0b6lUCktLS8hms9A0jTvYl2YcYi0+6zgOTNM8FwQjHA6j3W7j6OgIz549w48//ojf/e53ePHiBUrMf0WcuxDoJI6hOE8oiXPsqiB6joUgFKIWVKSfWDfY3LHYQbkQBCLKR5DbJN6X54I4p6hfIuia2B55vtB9AOiwg65HoxEXbOjsq3g8Do/Hg263i3K5fE6QoTJ0FvlzcXERGxsbSKfTcBwHxWIRr1+/xsuXL/k4kjAkCkFUltwPF9v4kPtBEGkkQmyfjHn35pWloPC5QAlECh8d8otW4XohfyDfNV0GGr9540gf7s8lXRUX0a7LDsOkQz8ty8Lq6iq2traQSCR44IJZIAbHxfwzTNPk/1MbDcOA3+9HMBiEz+fjjJLGGDISLAFwoWnCzskpl8s4PT3F6ekp9yE7OjpCq9WCx+NBJBJBIBDgZU2Fs5LEHfBZjDTlcxij1mVR7lzsTBQ6F0ln5+yIz2tMqKbIY7quY8yikpE2Zd44iWNBv+U8dI/qpXZihukj5X0XuJgg7/V6kUwmkU6nkUgk4HK5UK1Wkc/nUa1WeRAIagcJl0QzMB/BWCyGbDaLUCiEwWCA4+Nj7O/v87NnKPDEZDLhgqQ4D0i4Ish0m9U/Of9lIF8Wh/nWxNlB0SKdRdi2fU5jSuM7Zb5EJMA7M7SiIsQ1gjl9EftLa8nNoirOEuhpDGgcKCKipmlIJpNYWlrC4uIiP6S00+lwc0XbtnmZYEKffAZXqVTC/v4+Dg4OzgnGYJpRt9t9ri1UliaEm6dr1F97hrAv3hdBfZNhXxBIZFZ+BYXPBbfOZM5RC05B4c5gFhPxuUHu40Wg95f4LpsyZ+Zut4uzszMcHh6iUqnwgAbr6+tIpVLnGCCweqcsbK7DtASUiFmjtrlcLgSDQX5wpCOY2WiaBsuy4Pf7OZMaj8e5Zmo8HmMwGPAIhfl8HkV2aj3tvLuYqZvDGFNiusT3tcaYeVE4ojyapmE0GqHRaKDZbMJxHAQCAUQiEUQiEXi9Xk5jYmqpXz6fD8FgEIZhoNvtotlsos9Ch4sJjO5yvXSP/oogOon/z/o9638C1UX3qX4X09jF43EsLy8jm83yw0opYEeVHVxLz5EQJf6FwFAHg0FomoZWq8XP72myA3VtdoCsGMlP7LNo2kf9loUk+RnSMon0JYh9JpAP03A4hI8dtBqLxc4J/PK4kdmZ1+vlz5Ng4DAzT7HdMr3FNojtlJ8huFwuHpgilUpxLa0lHH5KcAQTPTqsttfrIRgMci1vOBzm7W61Wuj1enDY+DtsDlKddLgvaZMKhQLq9Tra7TaGwyEMw+BRFC3LOif4iIn6JM5dukftlmkh00SGWOY8gYgg01RB4TZCnvuXpflbLgoKNwT1Ir17kF8cmPGRvugDehcg95HSu/ZNnt8OY+rIl6hQKODk5IQzVhSOOxwOw2DO/VTfhEVYG4/H5zQqHo+HM8Ak7CSTSUQiEW6iRHXbzEQtEAhgZWUFu7u7WFtbQyKR4NokjZn2TZi/FvkhTadTDFiYdZl5przkpxIMBhEKhQC2yywKRWCC4WAwQLPZRLvd5poT0iJQ34nulmUhHA5jeXkZ8XgcAFCtVlGtVnmdGhMaZcaQyhEZfCr3IlB7KZ/87Lzn5WccNm98Ph8ymQyWl5eRTCZhM00DBesgutJzJGi6BJNC6gOZoOksghvR3sUEUAq6QFHQyAzTxYQrsS8aE1AH7NwaErg8Hg8MFpyB+iP6IWlM6BX7SXCYyVxFOMw0FAohlUohGo3CNM1z89s0TS5YhMNhaJqGXq+HVquFIQtNLddBGwQiw07tov9xgYbPZhqpRCKB5eVl7OzsYGtrC5lMhmtBKS+lKQvn3uv1UC6XUa/XMZ1O4fP5eL/a7TZqtRo6nQ4mLPiKKMzQGBssDPp4POZ9pOuksQoGg/zwYhp3mQ4EmvtEA5EWYl8IdE2mFwT6XJRHxlXyKCjcFbz91lBQuGHMerEr3G6IH9lZ6XOAyASJ6X0gP09MVbfbRb1ex/HxMU5PT9FqtRAIBLC4uIiFhQWEw+FzJlP9fp8HYwgEAlhaWsLKygpWVlaQyWSQTCaRzWaxurqKpaUleL1evjNNDA4xTIZhIJvNYnNzEzs7O/xQ0FAohFAohEgkgmQyiUwmg8XFRe4oTueWzGK+Op0OWq0WXC4Xcrkc1tbWkE6nEYlEEAqFEA6Hzx1qOxgMUKlUcHR0hOFwyLUnuVyOM/KhUAjRaBSZTAZbW1vY3NxEMBhEq9XiB14Oh0NoM/yB5PEigYDu0VyVx4euyRDzXXZfhItpBNLpNPcbCrEDPQFwU8RUKnXuEOBMJoOlpSVkMhkuPLiYdq7VaqHLzpohYZLoHAqFkE6nsbi4iHQ6Db/fD4cJ4lQGCTKEAQspTQJmNBrFysoK0uk0HwMSwC0WDZHKIZrKa3/MQrvv7++jVCrB6/Uil8thdXUVmUwGkUgEHo8HAXaQaS6XQy6Xg8fjQafTQaVSQaVSQbfbhSOZyTnSfCaa01+akxfld5g/TyKRwMrKCjY3N7G9vY3FxUXuwyQ+K9ZDa4EOVbUsCx6PB2N2DhAJuNRmEi5IgB2NRvzMLY/HgyA7iJXWSSKR4OMXjUbhYppYFxOOZcxqI4Hey2K/Kb+YhyDeF9/rctlyeQR5Higo3EUogUhBQeFGIH88P+ckgpgJ2vUlRpQ0JL1eD9VqFUdHR8jn85hOp0gmk9jY2MDS0hICgQActjNNYdRrtRps20YqlcLW1hbu37+PR48e8fNLlpeX4fV6MRgMuLBASaybAhIkk0lsbW1hZ2cH29vb2Nra4odCrq+vY2lpCX6/n5v2tFotTFjUMBfTWEynUzSbTZTY+TmRSASbm5t48OAB7t+/j62tLV6Wz+eDw3bGa7UaZ5hdLhcymQzu3bvHw3xT2O/t7W2sra0hlUphwgJTlMtl9Pt92MxHgxhe6qczQytEf4nBmzU2NG4iKK8+4xwYuq/rOjdhBKOzIwQUIL8fMmFzs0N6t7a28OjRIzx58gSPHz/Gl19+yf8+evQIW1tbiMViME2Ta+LoENnRaIRoNIrNzU1OL9J0JJNJmKbJNT/UDhJkRBo4jsM1lt1uF6FQiI/f5uYmP9tobW2Nn59Fz4rlETSmZWw0Gjg4OMDe3h56vR4SiQTu3bvHz9khgfzevXu4d+8estksAKBUKiGfz/MxpnqoDhIMSGsmCktUP403tU8W3mg8/X4/YrEYEokEUqkUYrEYNMHPSlzT9NyE+dwVCgU0Gg3ehk6ng1qtxsNyU/vEdgPgmxuTyQTBYBBLS0t8fVC4+/X1dcTjcQyHw3NmgybzG6T/wcKw0xyWaUH5qL/0V54DBBKs6DlRGKeyxXkDYb24hDOeFBTuMvR/82/+zZ/LFz826CPbaDTwN3/zNzg5OeEvJ3HRKtxeGIbBVf0A3vJBoI+KgsLnCHFum6bJfWMcx0GtVsPx8THf9XYk/w3y+6Bd+Ha7zf1sKK9lWTBNExaLxuXz+ZBKpRAMBuH1ejGZTFCtVlGv1+FiIX4bjQZOTk5Qr9e5poAYO/LL8fv9iEajSCaT3J+CfHq63S7y+TyOjo7QaDQwZgdLEgNEfzUmYHg8Hm7WF41GEY1GOaNZr9f5gZAAMBqNMB6PobOgCaFQCMFgkO+UZ7NZxONxmKaJ0WiEfD6Pvb09HkGNvg2apiEQCPBzYZrNJiqVCmq1GhcMSZAjBjIej3Mh6+TkBPl8nkdGg+BHI77TLMvi53S1221eXjweRzQa5ZqRk5MTDIdDuJiGiLQ/lmXxQBCGYcDn83HNjpjI7FDXdTSbzXP+Ui7mT+Xz+biGgdpH82A0GqFcLqPX68Hj8cA0TTQaDe5rRLQA8w9yGLNN5dJcJO0VaSq63S46nQ5M0+SavOl0ilKphEKhgCHzg6I5MWbR5jRN4xqhIPNxS6VSPMAEac1Ia3h2doZ6vc7N9Fws+EYymUQsFuNz4ezs7JxZH9EHAG8/rT86L42CHVB5FB1uMpnwgCetVouvZfGbpTF+hATpENOo2raNfD6P/f19lMvlc8I5/aX5RMKI1+uFycwZyY8uFoshFApB0zQ0m03UajWAvUv6/T4qlQrOzs4wmUzgcrkQDoeRTqfh9XrRaDRweHjIhS1RgDFNE36/n9O61+uhWCyeMzslUH46VwkAzs7O+Lec5nQ8Hkc4HObmkRV2aK2Cwm0AvQscx0EqlcL/9//9f/xdQGtyHvQ/+ZM/UQKRwgdD13WEQiHE43FomqYEIoWfFMS5TcKCpmmcGRWd50kYspkfCJg5zmQy4SZ17XabvwPpsE4yuZkyPwqwXedyucwPyi2VSjxvuVzG2dkZZwSJGe52uxgz3xPSfhiGAS8LbDCdTlGpVHB4eIiTkxMUCgWMRiPOSBMTahgGxuy8GRLewCKiuZi5j6ZpPJLdYDDg/XUch++CU5+oHZZlwe12Yzweo1qtolAo4PDwEPl8Hu12m9cnMppi/mKxyPMRrUWGlPxk6vU6Tk9PUa1Wed/oPaWxj6qbhRqfTCacORwOh/ybRTvpnU4HJXaQr0hbr9cLXdfRarVQqVTQbrfR6XTQ6/Vmpn6/j+FwiFarhWq1yk0ViWZjFtiChGmXy8XnTbPZ5EExWq0WBoMB+v0+97tqt9vnyqK2U7kG828hxthxHIxGI7RaLZTLZXQ6HQDg5nitVgtnZ2eo1Wqc1qStmDITURJ8iV4606hRH3q9Hk5OTnB6eop8Po96vc6FU0fwh/F4PHC5XGg2m3zMSOAS5wKEKIo2O1S1UCjw+Qf2rSKBZDQaoVar8ShvVKYM6hP5+KTTacTjcYxGIxwfH/OojPIzBGpnn0XQo7Wgs5DjNjuvrFAo4OjoCM1mk2uTW60WD9hA69Dn80HXdfT7fa5Zo/F1ScEcaLNiwrSs1WoVLeanRXkJIm36/T6K7NDt0WgEFxNOPR4PAKBer6NaraJWq3GhXUHhU4PmvSMIRNFolN+7CFqtVvvkus4JU+0fHBzgv/7X/4q//du/haZpfIdP4faCXqZutxsLCwvY2toCAPzwww8os3MbIE1ENaYKtwnErIiMwTxcZe46jgO/348Ii/g2Go3OMXrElBKzEhcOaR0Oh2g0GlyIIaGCdtnJx8bn82HMosMRg93v99Hv9xEOhxEMBjGZTLgpj81MYkxmYhMKhc4FYSBGlnb2ScsyYCZ41GbqH9jutcMY62g0yusl8zib+U3UajVUWMhiEhZEIczr9SIcDnOnfkK/30e320W73UaLRe8SGXpigjVN4xqB4XCIdruNXq+HMTtUl2hosENew+EwkskkNE07Z44o9pHaSP0JhUKc+bOZIGtZFoLBIN8EqtfraDQaGI1GnLEMMj8RYnpp/lw01zQmlDYaDc4EO8w8z+12c78T0jQ4TDhpt9vodrtcE+Xz+bjw0ul00GDn44AJ5cT40jiQD5uLCS4k7DYaDRQKBXQ6HT7WPp8Ptm2j0+mgy0J9k+BJgoDGohuSNiUQCHABE+y7P2GHnpKfGgm7NK46M/MibSO1h7RIGvMjo/yapnGhJRgMwmQaMhIwwAT5QCCAaDQKv9+PKYsgJ2qmbMHXBkxQsG0b0WgUy8vLePDgAeLxOKrVKp4+fYr9/X00m823hCDxN9GGtIBED1p3rVYLdRY63RA2BizLwohFaByxzYNAIIBEIgHLsjBhGi7SXFK9OjMHtSyLB1Dp9/vo9XrodDpc+CPhGmxNu91uxGIxrnElzRfYd57Gczweo8NCjRNtFRQ+Nej9Zds2dnd38R//43/E2toa/2ZcBCUQKXwQ6EXqdruRyWSws7OD6XSKp0+fcnt3zPg4KCjcFriEMNKX4bK5S2UQo6kzrcRgMOCMnlyPx+PhAgkx5uJfMOaGGGKTmc6RtmDCDiudsvDAVC+EKHUiowSB8fGxKHNUN9VLO9gk2MgMosjgaYJPDiXq65RpAUg4IYh0on5ZLOwxfbSIIR+zaGpTtvtN/aC/NtNMWMIBoFMhXDm1xcV2DYl+LqZdEelIMJgfCP02DANTpnnTNI0LdrqucwGw3+9jzLQhOtO80fM6M097F5CQQbSnPhC9aNzAaEVzgPpMc9DFGO4+O/9Jvk+/yWSOaEzjRUw0zSFT8JmidSP2jehNbaaxIWFcLN9mmpEB83mCFOqb8pOAYNs2hizqItUpzk2iEdVlmiamTFtF/bGZ2SL1g8aT+A1d13nbqM86W8eZTAbb29u4d+8exuMx95UqFAoYCAEVqP8iiC40N0g41JgGkjRq9LzDNhto/GheOUK0PJoDI0ET5zDhmfJqTDA1DAMjpmES+0ZzBoJ5n5tp2Uhzres6X08mM7EcMX9ER1o7CgqfEi4lECl8Kogv3Gw2ywWiH3/8UQlECncCxHyITN0syPOWnhMhMxYa28GeCj4vMojZghSuWmRuIQghxGgTiCGhZ+WXvsys0IeB/lK5Yl/E38Q4yffoOSqDmDG5zFl9oLyUiAbErGqMSaQyqA2UqB1iO+kjSPUQ/cR2TpiPBQk41F6wgAgEasOYmTWJ7XYJgqsmhEWeSoeIEmMttlHGRfcgzCOC2AZIY0F0ov9JsADr21QwpyK60FwS56c4h6ifVC49T3XQNRmUR8wrlg9WNs0DykN/6ZrYFoJMU+oP/aZnxLkk9sFmgoXI5FO5LmYmOWUCNdHaYGZn6+vrPBBEpVLBs2fPcHBwcE77KY6XDJH2JLDQuFH7CNR+FxOIIAiL1C7qL9GM5rBLmn80h2mcCXRNHgOiObVVpCG1XaxLHA8FhU8Jmvv2ewhEt/JgVkoKdwsO2yUlIUhB4S7gKu8bmckhJmHWdYLDGBSRSZ0FYoZEhk1kjsR3os18gSgRo0vtF/OJ/RLbKv61GcNLzB8lsQy53XIfxeeofdQusf+UX2wTBIaK8lF75uWX+yf3mdohQu6DyAjLeQlyPURnsXy6LpahCcKJIzCUlMQy5D5QugziuIvlUfniNWqbOO70W+4fzSuxffIzBLnNYrvFumh8qWzS/NE8cQQhhtov1kEaQkryeInzAkKfbOGsJrGfBLlvxCzZTGDy+/0IhUKIxWJIp9NYXV3F6uoqEokExixaYq1W49ozETJd5LohrHORDiLEdUFtFMdT7KfYF3pu1rqW2ymD2inOaaqD4GL+VFTnZWUqKHxs0NwU/14lXSwuKShcAnpRO+zDRbbs8oRUULjLkOexyPDJoPUgpln5CJRHvib+pd+y8EPMEK1Dui7nIWZTzCf+Fp+b1R4Z856T84i0EPPLeebRR37+ojbOq2MW3iXvLFzl+XnXNcH0jZLBzPIo6YJpmdz/i+gFSUAQnxWfod/EzMrjKQp/Iub1aRbEdoptEdsjtoPuyc/R/2KaBfm6XCc9K2qNZpWrsUhwFB79wYMHPLx9LpeDwQJyUDj6qRA4iOq9CGK+WbQQMWsMZIj1zSpj1rWr4qK+XHRPQeEuQglECh8MjX20W60W8vk8jo+Puc+EyIiJu4AKCrcJsxgSkVGS710EkQnDJQzJZWWLa4d+E5M0i9mjXW7Kb88IA0yQmbFZ6aoQ2yC3ke7PShfdE/NQmeI1GbPuUR8cYaddrpd+i6B7cl/o96y8onAxqx6xPhlynnnPymXI1+bdE68T5HaKY+5Ifb4q5DrlssX3vzhf6FmxDBFyebPqECHO+1kQ5yZYeZpgQhgOh3H//n387Gc/w5dffomtrS0sLCzAMAwegZHOS5I3Kd41iXR430RlURsIIr2pLrn+eZDz0fPyPKfyFRTuOpRApPDBcIRDJOv1Omq12rkQoOqFqXCb8bE+6jLzITM1syBfJ4FHBOURyyKzGWJiMIMJvGnIDJfMXMlpXj7x+vtCLku8rs0w07JnmKDNahPhfWgrlzkvzct/XaCy5Ll4XXU4gk+VPNflOkVQ/Y4wHjIN5tFCviaWIZs40n1qBz1L2jubBXKoVqvY29vD06dPsbe3h2q1yk0v3zddF2aV6Qhr3xEEdjGvTIdZkMslzBozBYW7jFvlQ6RwN0HjZwtnnZAZAQQnWDXWCrcRsxgy+f/rgFym/P9FuGjNiOVQPmIeRSaP7l1U1m3DTbdVZBhFyP9fBjE/Md4Kf4f3oaeYxDX6PmXJ/89ae+IaaTabePXqFb7//nt8++23+Pbbb/H111/j+++/x97eHg9JL37n7gJkutI1BYXPDeL8vmp6e7tRQeEdoUmmOrQ7TfdmfXwUFG4jxPlKv2eliyDnvcoz74t55TqC7xCU4/OFkBnCeTS9Km5yvH8qEJmZd8FFtJfXIv0lZkjUQHW7XRwcHODp06f44Ycf8PTpU7x69YofejtmYb/ftX23EfPopaDwU4MSiBQ+GPSRodCk4nkW4n0FhduKWYyNyEDJ6UNxXWXMK8eRdtUJs64pzMasOaHw+YDWgTjOJBTZ7HwkChLU6XT4WUli/lll3DXc5bYrKFwnbpXJHCWFuwdNOCE8FArB5/Nx+2tHcrBWULhNoHkpCwqz3kvytQ+Z03I589I8yHlmPUd/lSCkcFOQ5911pA/FVea7aNpI+R3B14j8Xx0hLDjlJVxHWz8l7nr7FRRkyHNafrdclJSGSOGDQB8QXdcRCASQTCaRTqf5qfHKVEfhNmIeg4MZL1BZqBdNa5xbwFBQ+0Wm7nPYuVZQ+FDIa/syyPlnrR9aZ3f920b9+JCkoPA5QQlECh8M2lGzLItriAzD4IyjeoEq3DZozMSTEl37kKiI7/vcdUIU0rQ5EdJmMXkKCp8rrvvbc51lfUwoYUZB4WLo//pf/+s/ly9+bJB6utFo4G//9m9xcnICjR2cpnD7oWkadF1HKBRCNBqFYRioVqv8gFZizBTuJj6n8dN1HaZpIhgMIplMIhAIQNd1fp4ILtgVln3i6JosZMiMx6z0LpjVHkj1QNDWQjjlXkHhrkLN35vFvPeQorvCXYb4XU4mk/gH/+AfIBKJcF70IigNkcIHgyag+Ff7jJhohf+Hy14mBJFJfx8B4CahaRp8Ph/S6TQePHiAnZ0dpFIpuN1uQGIGxLaL81tMlEfs78fAZXRV60/hY4E2BK47iWvrormu8P6QaazorPBThhKIFG4EtJvuCOY7CncHIoPvcrkQCAQQDAbh8XjO3ZchflhFoUG8/76Y98Ged30eTNNEOBzGwsICFhcXEQqFYJomDMM412aauxCiT4nXRMaNnntXvGvbCbOeEdea2E4FhbsG8T0iJoXrgyyAyu83BYWfGm5dlDkR8v8Ktw+OdAK44zjnDmKlD5kay48HeU2JtJf/n8dkkMrZ4/EgFotx4SEYDMI0TX6Kuwy5vOl0yufDhwoOF2llrlqm4zgYj8fo9/vodDpot9v8gEXx1HkxgAIlmTkT5zblnYVZ+alM8VmilVjnrDKp3yLE+jXm8E1lz0oKCrcZs+a4uOYVrgfye0G9GxQ+N8jz+6J0NS5CQeECzHqRyv8rfDwQ7WlcSHCh6yRAiJoQOdHBg5ZlIZVKYX19HRsbG9xHDExo0nX9QiaFv2hY3lkCzUWYJUiIEOcZCUViu6gO+mvbNrrdLorFIl6+fIm9vT0Ui0WMRiNozBeOhEERdI2EFjFR+VfpD4Q2Ey3o2qw0C2I94viJdKJnr9omBYW7gHdZZwoKCgrvAiUQKXww5I+UzIQqfFwQY09JZLwhafUcJqzI90lTYRgGwuEwMpkMMpkMgsEgdF3nWh+qb1bZEJh+YtTFeq8KKl98fpb2RKzT5XKdq4vuOY6D0WiERqOB/f19HB0doVarYTwe8zZqLAKdTEOxDrktREe6JwoldI0ga9eIPuI6EuklliWvKWqvWM6svLPqUFC4Lsjz60PTRbhKHgUFhZ8mxO+l+N29Cm6dyZzzjh1QuN2gj5ca148HjZlMaQJjb1kWPB4PvF4vvF4v3G43LMviwoPI/NNzbrcbHo8Hfr+f+w+Zpgm3231O0BEFBk0IrGGz6JFutxumacLj8cDj8cCyLH6NzO/oeRnie4GEEZ1FiqM2mqZ5TgAiYU6ed1QOXe90Omg0GhiPx28JhVQ20Yi0QURLoo3b7YZhGLxMoolYFrWB2meaJizL4v0m+tNYES0Mw4BlWbz8WWUTRLpf9PuuJYWPA5nunzpdhqvmU1BQ+GmC3hGyfHFR0gqFwifnVCeTCQzDwOHhIf7bf/tv+OUvfwlN0zAcDtVL75aDmD23241MJoO1tTW4XC68fPkSp6encJjJ1mQymcv0KlwvHCY8mKYJv9/PhRA6c8dhGqDhcIhOp4PxeIzJZMIFGI1FYnO73Uin09jZ2cHKygomkwmePXuG09NTNJvNv3uJaBpqtRqGw+E5YchhJnckhPl8PpimydvX7/fhOA4GgwHa7TZGo5HcFQ6qyzAM+P1+eL1euFwuLiyMRiN0Oh1MJhOABU6wLAu2bWM4HPI+gs1Vn88Hg52VNRwOMRqN+FwWBa3xeIzRaITJZAJN0+D1ehEIBLggQ3UPBgNeDglYVB7Yy3k8HsO2bQSDQfh8Pni9Xt6G6XSK8XiMXq/Hzfd8Ph98Ph8Gg8G5vkHa+aJ3JL38r4Kr5vvU+FjtJBpepb6r5r1qPrxj3pvAXf3O0ntBQUHhp4OL3lca26QFgHv37uHP/uzPsLa2xvmbi6AEIoUPAn2M3G43stks1tbWoGkaF4hs2+YCEWkfxOdwyeRW+Dtc9PHX2G4IaVFcLheCwSAymQzi8Tj8fj98Ph/PPxqN0G63USwWUa/X0el0MBgMYBgGgsEgUqkUUqkU4vE4MpkMQqEQHMdBsVhEs9nEcDjkGo9+v4/nz5+j2Wzyum12UG8oFEIikUA0GkUoFOLhrW3b5sJDt9vF4eEhKpUKF8xEkODh8XgQiUSwsLCAQCDAtTPT6RTdbhfVahX1eh22bcPv9yMajWI0GqFUKqFer3Ohh/qXyWTgcrlwenqKQqHABRFqcygUwmg0QqvVQrvdhs/n430Ro9KNRiPU63VUKhWcnZ1hMBhwGhBEzdvS0hLi8TjC4TAsy4LDfLY6nQ4KhQKazSZcLhdSqRRisRgGgwEODw9RrVYxnU6hzRF83mUdzXr+p455dJ2Fq+ad9b67Cq5avsLF70UFBYXPD5cJNrquw3Ec3L9//50EIv1f/at/dWsOZm02m/jFL36B09NTaOxg1nf5yCt8OhAjHY1GoWkaKpUKWq0WIHzciSmUP/bE8Kp0cSJaykm8bts2P2dnY2MDm5ubWFxcRCQSQTgcht/vRyAQQCQSQSQS4eZnw+GQM/KhUAgLCwtYXl5GJpOB3++Hrutwu93cZCwcDiMWiyEQCEDTNBQKBR6tDQAsy0I6ncba2ho2NzeRzWa52Z3GBAM6yJe0WCQgkSChsXlimiZCoRByuRy2trawtbWFdDrNhSwSfvx+P9eKpdNprK+vw+fzodfrodVq8feM1+vFwsIC7t+/j0gkgna7jWq1CptptQKBAJaWlrC2toZIJALLsmBZFhYXF7GxsYFsNsvpF4vFkEgkePS9breLfr8PsPcajYvL5UI8HsfS0hLu37+PtbU1xGIxLqhGIhGEQiGuffL7/VhbW8Py8jI8Hg8/6Piid+K86wrXj5um9U2X/zmB3hMKCgo/DVz2fiTBJ5lM4o//+I8RjUbhXOVgVtpduS1J4W6DxtBhTuaO4FcxD/IcUGl2IjrOSgTTNBGLxbC8vIyNjQ0kk0lMJhPU63UUCgUUCgWUSiV0Oh1YloW1tTWsr68jHo/zM4YmkwkPS93v9zEej7kPzWg0QrfbRbfbRbvdRrvdRq/X48IEMeyxWAwrKytYXV1FNBrFeDzG2dkZ9vb28ObNGxwcHKBarcJxHEQiEd6OcDgMQ4hiBwAejwdLS0vY3t7G2toaAoEAxuMxCoUCTk5OcHZ2hk6nA7/fj1wuh6WlJWQyGSSTSSQSCViWhel0ystzHAc+n4+brvl8Pi6skw+Pz+dDOBxGIpHA4uIiVldXkU6noes6arUa16z1+33ous5pnsvl4PV6uTAE9vImIWt7exvZbBa6rnNBLJ/Po1Qqod/vIxKJYHl5mQujsVgMwWAQbrcbjno/KijMxEXfFwUFhZ8mZB7qsnSx/khB4QoQGT+N7YbTBCNGGYJTOUUoE/OodHkSI7tBWOyi5s3tdiMej2NxcRHxeByO4+D09BQvX77E06dP8ezZM/zwww949uwZjo+P4TgO11JYlgWNmapWKhUcHBxgf38f9XodDvP1KZVKODw8xOvXr/Hs2TO8ePECBwcH3B9I13UEAgEsLCxgaWkJsVgMo9EIJycnePHiBV6+fImDgwMcHh5if38fh4eHmEwmiEQiXNNiCxoig0W5W1pa4sJGtVrFq1ev8N133+HHH3/E8+fP8ezZM5ycnHANVzgc5n5EmrCDTDQk4UcMWkDaLQh+RIFAAMlkkpvPHRwc4Mcff8QPP/yAH3/8ES9evECpVIKu60gkElwTRnVAEFIzmQxyuRwsy0KtVsOrV6/w9OlT/Pjjj/j222/x/PlzFItFWJaFeDwOn88Hl8vFtWrOjIiACgoKf/ftUVBQUHhfKIFI4dogCjj0gRIT3aN8Kl09EUg4cgRaEpPscrlgWRZisRiSySR0XUe9Xsf+/j5evXqF09NTnl6/fo0ffvgBT58+xZs3b9Bqtbj/znA4RL1ex/HxMc7OztBqtbiGqFKpYG9vDy9fvsSbN29weHiIfD6P4XAICGcAuVwujMdj1Go1nJ6e4vj4GIVCAdVqFZVKBeVyGfv7+3jz5g1qtRps20YgEODaGp05Rfp8Pu7PZJomWq0W3rx5g5cvX3Lt0NnZGQ4ODvD69WsuYPn9frikg1ypf8Q4Ec1IAAObwyRggvnGWZaFTqfD6z04OEA+n8fh4SEXCDudDtxuN8LhMCKRCPeV0gQhlbRVtVoNR0dHODw8xNHREdfcnZyc4Pnz5ygUCuei6Om6fq7dCjeDm2Kqb6JMhbeh6KygoEB4n/eB/i//5b+8NT5EjUYDv/jFL3BycgKw3dz36ZTCx4WmaTBNE8FgELFYDG63mzPIPp8PgUCAh3wmEyVKgUAAfr//g5Jc7m0t86qJBINAIIBQKMQ1GOJaEAUl0TTR5/NxkzFN01AqlfD69WvUajVMJhOuIZlMJhgMBuj1emg0Guh2uxgOh3zNkXmcz+dDLBZDLBbDdDrF8fExTk9P0e12MZlMeKL6NSZkmKaJ6XSKRqOBQqGAYrGIXq/H20Dlm6aJbDaLeDwO27ZRLpdRLpd5OwOBANbX17G4uIjJZIJ8Po/9/X2USiXuc0T9mbJw29FoFMlkEgAwHA5xcnKCarXK/ZP8fj8WFhaQyWTgOA7Ozs5QLpcxGo24hmlhYQGRSASGYXBh6Pj4GLVajZsIkvBoWRYSiQRisRiGwyEP7kDlJZNJLC0tIZvNwrZtHB4e4uDgAOVyGf1+HzbT/k2nU/R6PUynUx4Iw+v1otvtYm9vjwuOMmgeXOVdSXlFIVvh/0HefLgMV8171Xwy3vc5BQUFhZ8y6FuYSCTwx3/8xwiHw5xHuQhaPp//5G/diRBl7r//9//Oo8xR1CeF2wuaZB6PB5lMBpubm4jH42g2m+h0OtCEOPDz8CFjPK/c21bmPMyqi7QWhmHANE3UajXuZ0LPkHaItBkOC0kdi8Xw5MkTbGxswDAMVCoVfPPNNzg5OcFoNOKaBjIPM1kYbPqfxpMY/lwuh/v372N7exuTyQS//e1v8ezZM7Tb7XN1g9GHnvezQAm2bWMwGGAwGHDBibQ25Hvz5MkT3L9/H/1+H7/85S/xww8/YDQaQdd1LC0t4auvvsLa2hrq9TpevHiBFy9eoF6vcyHCNE2ARZYJBoO4f/8+njx5Ar/fj3a7jV/84hd4+vQpF/hisRi++uorPHr0CLZt43e/+x2+++47tNttGIaBdDqNx48fY21tDYZh4OzsDN988w2Oj4/R7/cxGo24KR7R6Pd+7/dw//59dDod/Pa3v8WPP/6IVqsFr9eLjY0N7OzsIJvNotFo4LvvvsObN2/QbDa5AKox88DpdIpAIIDf//3fx87ODtLpNMrlMv7yL/8Sr1+/xoSFrxfnDQlJVM5VMEuwUrg6xHl/E7jp8hUUFBQ+J4h8iMGOF7l37x7+w3/4D1hZWeG8x0W4+K6CwiUgJmzKQh/XajU0m81zUcTC4TBCoRD37VDp7xJFKxMTRRujg1DpAFCRiRVNwYgJJsGGgiGYpol4PI6HDx/iiy++wNraGtLpNMIs3LPOwqGLmiOxHBK6HKaBIWHnMti2jXa7zbU99Xodw+EQjuPA4/EgzIIVkJbG5/Pxug0Wytpm5ygFAgF4vV4A4Nos0jQR6NnJZIJer4darYZOp3Puni2cseQIh7xiBvNJfdaYmV2z2USz2cRgMHirnNFoxDVVtLFjsVDaYAInafscx0G73eb0IPraTEM0YSZ9JECORiMuMIltmwdq97ykcH24aXredPkKCgoKnzuuwq+I0E5PTz/5m1fUEP2P//E/lIbojoF2rF0uFwKBAGKxGNc8iOMnS+cyI/quoOflMj5kztxEmbMglkd10jWNaR5ISOn3++h2u2g0GgBjlkQzOY0JpI7jIBQKIZ1OI5fLYWNjA36/H2CmY7VaDfV6He12m2vw2u02Jsx8jvpsC35KKysruHfvHjY3N+E4Dn73u9/hxx9/RKfTeWs8IWiYwMbbxXyKyASRhECv1wuThcgOh8MIBoNot9t49uwZvvnmG7RaLYTDYWxtbeHhw4dIJpM4OjrC999/j8PDQx4ifMqix9FvwzCQy+XwB3/wB1hcXESn08EvfvEL/PDDD5ym4XAYT548wZdffgnbtvHdd9/h66+/Rq/Xg2EYSCaTePjwIdeKPXv2DN9++y0ajQafGzo756Df72NpaQm///u/j93dXUynU3zzzTf4zW9+g0ajgUQigfv37+PBgwdwu93Y39/Hb3/7W1SrVS7wgI25KAg+efIEu7u7WF5eRqPRwF/+5V/i5cuXGI/HvG6R5uLfebjuOaygoKCgoHBbQPwHfSPpHKKraoiUQKTwwSBGjhhSOjCTGGtIjDLhIkZOzjsLNyG83ESZsyAKP1SnWActXNLUTJl5GLVLXtjEWFuWBZ/Ph1AohNXVVSwtLSEYDPJoapPJBOPxGO12G41GA/l8HpVKBbVa7dxhq1TP8vIy7t+/j62tLTiOg2+++QZPnz7l5pBg61eEYRgwDIP7jcXYWT2kISSND2k/PB4PfD4f6vU6nj59iu+++w6tVguBQADb29t48uQJ4vE49vf38d133/HACRrT4JDp3mQygWmayOVy+MM//EMsLCxwgej777+Hw7QxoVAIT548wZMnTzCdTvHtt9/im2++QbfbhWmaXCDa2trCYDDAy5cv8d133/GDZ0UMh0MsLCzg5z//OXZ3d2HbNr755hv88pe/RLfbRSwWw71797C7uwu32429vT385je/4T5dthCABGwtmKaJR48e4dGjR1heXka9Xsdf/uVf4sWLF1wApHUlQp6zF+G657OCgoKCgsKnBPFR7ysQXXxXQeEKcNiOOTFq4/EYvV4PvV4Pg8GAH/rZ7/fPJbo+HA7fK33Is/PSTZQ5K5FZFNFFpE+v1+MHfI5GI26uJgtNIigq22g0QqfTQbFYxPPnz/Htt9/i5cuXODo6Qq1WAwAEg0F+yOju7i73b/H7/ecE2HmQGXhRgCJQoIHNzU3s7u5ia2sLCwsL8Pv9GDJt1dHREQ4ODrigQX0gkBBIcwtC3eKLTRYkXcykje6JdBPzUlnyPeqL2De5f2D56cU7677cRsonJrE/YttE4XdW2QoKCgoKCgrXh1t1MKvC3QSNHzGApNG4jJkU/14XRAb3unATZRKINuI6kJlnoqPMwM/DlEVwq1arODg4wPPnz/HixQv+982bNyiXyxiPx0gmk9jY2MD6+joP1S3WQ+0TtX2QmHSNOTHqLFy2y+VCLBbD+vo6NjY2EIvFoOs6KpUKXr16he+//x7ffvstnj17hr29PVQqFdgsiAQJRZoQ2IEiyVHZLimogDjHSDtlsMNd5TZTPrFvs8oS74nzWBwbsRx5rsvlgLWFaEVjKN6nDQVd12EwXyq5rwoKCgoKCgpXg/gtviwpDZHCtYGYaJkJpXtivnnX5N8X4X2euQzXUSbR4V3SLIgLFXPoRhCZZvpt2zZ6vR7K5TIODw/x8uVLfqjos2fPkM/n4TC/o2QyiWg0Cq/Xe65Ncv3OnLOkCC6Xi2uglpeXEQ6HMRgMsL+/zw8zff36NU5PT1Gr1TAYDHh9YjlgdVPQgul0CsuyYJrmW2pvEpwcFmmPItxR28SyxTpkOsp9ka+L90h7JeYRaUbCzXQ6xWAwwHg8hmEY8Hq98Hg8PKgFPUMbCGBCnd/vh2VZXCAS66bfcvsVFBQUFBQU3g9KIFK4FohMmsyoiYypfA8Soy//vmoSyxHr+pD0IWW+C2QmnP6XGeFZkNtHPlykrdHZoZ79fh/1eh2FQoGfg3NycoJ6vQ4A8Hg88Hg857QXszQjdF3WiEDwCYpGo4jH4wgEAphMJiiVSjg8PMTZ2RmazSY3lwQ7p8rPDlGlcjVmigZmAjgajeA4DizLQjAYBJjfEtUH1n+KSkcHo5KAIY6JODZkpibTkH6L+amv4thQW4k29JuSbduYTCbodrsYsTOJ/H4/fD4fTNPkz1FZRFOPx4NAIMAPdxVpTJDrmnXtoqSgoKCgoKDwd7hVJnOUFO4eZo3dZcyXnP9d8aHPz8J1lDlLg3JZugxy/llJZ+fw5HI5fpipz+fjjL9t2xiNRtxPicJzgwkHpKUQhROHhdy2mSkXaTgAcFM2cYw1JsxQyPDhcIh6vY5Wq4Ver4fhcAhN03jwh1gsxoUcep5MxQzDQK/XQ71ex2AwgN/vx/LyMpLJJD97SGTy/X4/kskkAoEALw/SmM76Lc5TTdImyQlzzvCha2I+hwk63W4XlUoF/X4fPp8P6XQa8XgcXq+Xn2dE/Y5Go1hYWEAsFoNhGFwYFMu9aE0pKCgoKCj81CF/u6+SlIZI4dpADBs+ItMm1nlduIkybwrUVmKovV4vlpeXsbOzg9XVVSQSCfh8Pu6XYlkW11L4/X54vV5MJhMe2IHKo78kRA2HQ+i6Dr/fz5l58tVxu93cnE3TNIzHY/6sbdvcPMyyLLjdbng8HgSDQaTTaaTTaa4hcpipGSWbmfwVCgUUi0Xouo54PI61tTUsLi4iEonwMiORCNLpNBKJBNxuNw9PTb5Es0AvQfF/+TcJSM6cgBZiPvqfBBz63e/3USwWUa/XYVkWcrkcFhcXuTBIZy3F43Fsbm5yQZa0e/J8FP+f1SYFBQUFBQWFd4MSiBSuFfJuu5jeBcSEXpbmQc73Lmke5Hzz0seESF/S4gQCAaTTaaysrGBzcxNLS0tIpVKIx+NYWlrC0tISVldXkcvl4PP50Ov1UK1W0Wq1uNaHMBgM0O120ev1AIALJMvLy8hkMkin01hYWEA8HkcwGITL5cJ4PMZgMACYSVw8Hkcmk0Emk8HCwgKy2Syy2exbh7KSTw3977BzfkqlEk5OTtBqtaDrOjKZDLa2trC9vY2NjQ2srKxgfX0dq6ur8Hq9mE6n6Pf753x8LoMjHNYqzl+6p7OADvI9uk/35PGnPpBQ1263EQgE+Bisra1hdXUVGxsb2N7exvLyMtxuNzqdDnq9HhcqqSwFBQUFBQWF64f+L/7Fv/hz+eLHBpnpNJtN/PKXv8Tp6Sk0dtjkuzLSCgqfI+atA5cQYMBhQQWCwSA3bYtEIvD7/QgEAkgkEkilUkin01haWkIsFsN0OkW5XMbJyQnK5TI6nQ7XShCTTyZwfr8f0WgUlmXB6/UiGo0im81yEzYKs+5yubgfDD1nGAYCgQBSqRQSiQTXCpE5Hp2T1Gg0cHZ2hiE7E4mETApKoGkaP+A1HA4jGo0ikUhwrVWz2US324VlWQiFQphMJjg+Pka5XOaChcfjQTabRTwex3Q6RbFYxNnZGQaDAdeCpVIp/nypVEKtVuPnolGbSEDx+/3IZDJIpVIYj8coFArI5/O8vOl0ivF4zAU0okkgEOB9iMfjiEajAMD74Ha7EQwG0e12edh0R/LnmjcvFBQUFBQUfmrQmLWM4zhIJpP44z/+Y0QiEX7vIuj//J//81stECncLYi76grXh8sWMtHbZo78NgtjbZomPB4PNyvz+Xzw+XywLAvj8RiVSgWnp6c84AH5rMgaj8lkwk3yXC4XN70LhULw+/0YDAaoVqvodDqYTCYYjUZ8XZumCcMweL2O46DT6aDRaKDZbPJDXqfTKQ/8QAIEXacgChSVzjRN6EKYb9u20Ww2USgUMJlMEIvFEA6H0ev1cHp6ykN7a5oGt9vNI+qRBoqeo/YGAgFYlsXvNxoNHgiC6E1jItK22+2iXC6jUChwAYreY0SXKTtcVWdnGFEfyLSuUChA0zSEw2EEg0H0ej0uEFEfxPqpPQoKCgoKCj91iALR3//7fx/hcPitb+YsKIFI4VohMtEK14eLFrIohDqOg8FgwAUSOtyV7o3HY/T7fbRaLR6Om4QhMnOjFweVO51OMRwO0ev1uL8RAAyHQ+5fVCwWUalUMBgMYLOzg0ajEa9vPB5jMpmg2WyiXq+jXC6jUqmg0Wig0+lgOByi0+mgUqmgVqthKoS1Ji0LaaBarRa63S5arRYXqsrlMvL5PNespFIpBAIBDAYD5PN5LhBR2G5N0zAajbgA1mw2ubBBmqTxeIx6vc4FPfKNgmQaSoIZHThbrVZRr9cxmUw4/WwhBHer1cJwOES320W9Xke9XkelUkE+n0ehUECr1UIkEuF9aDabODo6Qr1ef2ttiWOvoKCgoKDwU4csEF1VQ6QdHR198i/pZDKBYRg4OjrC//yf/xO/+tWvOMOicLegBKKbgUs6e0cELXJi5MG0FhS6ORgMwu12cwGDtBSTyQSNRoMLTRCEKhcLbCAy/pZlIRKJwOPxwOv1AkJ0ulqtxhl9sDaR2Zrb7eYBF0hLQgLQZDLhgRYsy8JwOES73ebCm6Zp8Hg85+YVmbWJNCEBTNd1ZLNZPHr0COl0Go1GA19//TVevXrFAy2Qpsvv98Nh2iqqk8r0er0IhUKwWWAH8kkS66Q2GYaBUCjEAzgMh0O0Wi0uEImaMsuyMGVnKrlZeHQIY9Lv96FpGh49eoTHjx8jFovh4OAAv/rVr3B4eMiFVaKFEogUFBQUFBT+DoZhwLZt3L9/H//+3/97rKysnPu+z4N2eHj4yb+kokD0v/7X/+ICEYXoVbhbIKZN4fogCiazQEyyI5yPo7MgBSQE0AuB8mlMCzsej7kwJTLaxKxrTGsiXqMXi8ic20KobgK1geokOCyct5iH+kd1TSYTeL1eJJNJeDwedLtdNBoNLihNp1PeD5uZCIZCIWxsbGB3dxc+nw/Hx8f4/vvvcXx8zNtHdZmmya+RsEhlAeChvcV+GYbB+0Emb3RdpCGV5zgO3G43wuEwLBZiu9lscgHMMAxOUzDByOv14smTJ3j06BF8Ph+eP3+Or7/+Gvl8Hhqzj6a6FBQUFBQUFP6O9xQFoj/90z+9skB08V0FBYVbAVmgmAdRsJhMJphMJhgMBtyMjszYJpMJxuPxOWFIfp4g1ktlUllkNkdlykLPeDw+l4fShPnrkIBGQsmU+Q1Rm0KhEBYWFnDv3j2sr68jkUjwlx3RhAQWl8vFg0cEg0Fu8kaaKGoT1UV9EYUhh/n0QBKESBCh56lu+l+kAdGB6BiNRrG1tYWdnR2srKzw0OA2My0csEh+3W4XLpcLkUgEkUiEn+NEWjyRrgoKCgoKCgrXB3Uwq4LCHcFV1wcx4uJfeY1RmqdpkIUiuUwZs8q9antFUFsJhmHA7/djYWEB29vbWF9fRzgchi6cq0TmZ4FAAAsLC0gmk9A0DfV6HbVaDf1+n/dTFPhIyBGvgWm/SGtF+Qhy/0SBSQZdsywLsVgM2WwWq6uryGQySCQSCIVCsNj5TTqL5BeLxbC4uIhUKgVN01CtVlGtVjFifmCz6lFQUFBQUFA4D5kvuSwpDZHCtUMxbTcHWrgyxGvz6O8I2hRi5Gdh1vPyi2NWonxXFYbk52eV1W63UavV0G63EQwGsbKygu3tbWxvb2NxcRHZbBYrKytYW1vD5uYm1tfXEQgE0G63kc/nUa/XMZoTLpuCHYjtEf+KkJ8Vr4EJUaRBgiRA9vt9lMtlAEA4HEYul8Pq6iqWl5eRy+WwtLSE9fV17O7u4v79+1hbW4Pf70e1WsXe3h73R5oloCkoKCgoKCh8OPR/9s/+2a2KMverX/2K28qT+YzC3YKjdrJvHJfRdxZTL4OEBPF/OREuK++y+7NwWR/AhBYSXFwuF3w+H6LRKKLRKGKxGD8YlrQqHo8HrVYLR0dHODw8RK1Ww3A4fEuYuQzUNlFwlNsr+mORbbIoINFfCpZA2iyfz4dgMIhIJMI1R5lMBslkEqlUip+n9OrVK34g7Wg0OidwKSgoKCgoKJyHJpi3JxKJd4oypzRECteOyyadwu0ACa6y8CPev6ogIQtSV0mXQWO+RBR2+sWLFzg8PESv1+PCUTAYhMfjgWmacBwHlUoFr169wuvXr7l26F0h9ntW36n94j1Z4yY+P2Hhxl+/fo3nz5+jXC5jOp3C7XYjFAohHA4jEAjAMAz0ej2cnJzgxYsXODk5QbvdxmAwOOfnJLbhXeipoKCgoKCgMBva/v7+21/8j4zpdApd13F0dIT//b//97mw2+pDr6DwNkgDMQ/zfIPuGjS226PrOvcTikQisCwLYD5GGotIN2ZnHjUaDbRaLS7wiYKN/PemQe3XWBhy8RBX0zR5JDuwgBX9fp8fVkuhvqkPl70LP5cxV1BQUFBQeF9Q4KV79+7hT//0T7G8vAznClHmlECkoHAHMWth01pxLgiWcBchmqOZpgm3282vUUS4KQsfTuZ1sm8QCRWEj0kfl3Cmk84OcaWgDWLIbbAzjMjEb8rCist55uFj9klBQUFBQeE24n0FoovvKigo3AnYtn0ujLTNztv5HEAaHhIS+v0+D1NNZ/p0u130+30MBgMeSpzM2EhAFMv5mLBZmG8ao+FwiF6vh3a7jXq9jnq9jmaziWaziV6vx8eQ2kkC3acez09dv4KCwvVCfh/Se0atdYWfIlTYbQWFOw7btuH1enkoZ9IofC4fNfG94AiR8qbsLCESdkQNmZhPTJ/iHSO32WGCHQmw8nlI9Mys358St6UdCgoK1wta23JwGAWFuwj5+3nVpDRECgp3GBrzUYnFYtjc3EQmk4HH4/lsI5LJLzAIGphZgQcIn3LXk+oWhSJbMm+T+yXu1GqSH9THBLVFNPUj8z9ItBZNAz9VexU+X6j5dLPQdZ37NRqGwTfWFN0VfipQApGCwh2G4zjwer0IBoMIBoPw+/2flPm/acjCEDHfhFn9nnXtU0AUbsT/xfbRPbGfzif0CdM0DV6vF9FolB8o6/P5uPBDgrcjCE60y3xb6K5w9yDOe1G7q3C9oPePy+WCaZrw+XxIJpNIp9MIBALnNj8UFD53KIFIQeGOQmNaB03TYJrmOVM5mdH+KeC291dkPqit4lhdlj62UKQx4c3v92NpaQlbW1tYXFxELBbjUf5s24ZhGAgEAgiFQjx8OD1P/VRQeBeI80ZcAwrXD4c5m5umiUQigfX1dSwvLyMcDn925tcKChfhVvkQKSgoXB20bshUzPmEmgSFyyEzduLfixgO+bmPBY0JRB6PB5lMBsvLy8hkMggEAnC73dz0LxwOY2NjA48fP8bq6ipnpNR7XeF9oQkbB59q/v9UQOvcMAysra1hZ2cHy8vLiMVi0HX9k/leKih8KGQZ47KkNEQKCp8BFNNw+/GhwuqnGFuNaR99Ph8CgQCCwSBM0zzHREWjUSwuLmJzcxOLi4sIBAK8rZeFOVVQmAWHaS28Xu9n7RN5W+Cw8P60xgOBAEzTPGeq+CnePwoKHxPqa6WgoKDwkUD+EFfFpxYoSPChdtNBuCKIYbJt+1xghdsCatNdBvVhVj8+lqAwr/7rgly+ZVmIRqOIx+PweDw8Dz5in38qIHpOJhPuB+gI1gcKCj8F3CqTOUe95BQUrgR5rchrSK2n2wNxHMRxEoUG0u7JY0bCk/yenJVE4YXKof/fB5eVQfdbrRZKpRIODg5wdnaGTqfD8896ToSs1RT7L/dPhHiNnqeyZgmd8vMfGxe1d57wSP0Q54UjzZuP1a95bbwIF/UNUv9lWui6jnQ6je3tbWxubiKVSsHtdvM8RIeP0f/L+jFrfhLEZy9rM5UjpveBTM+LkvgMZmzY0HUxr4LCXYD4zrxqurntHgUFBYWfIOYxDzKTQ79FJom0Kxpj7MUDWt8Vcn2zMItBEj8Qcl4C3bdtG61WCwcHB/j+++/x+vVrNBqNtwSSeRDrkf/OAwl8cjsv+/82YFa7MWccXC4X362XNTOU72Np46itYvsIcltm5ZEh36dnaN6YpolYLIaFhQWk02lEIhF++jzld65w8vwsvO98kNtMmHcd0niL43lVvG9bRVzUPhEuFliB8jtC+P/raIeCwm3HrdMQOWrhKSgo3FE4gjZFZA41xjDOOsdHZEDEJD5HSWZuZr0v6TnR9EW853K5YBgGDMO4sC0E+j2rrul0itFohFqthkajgVarheFwODMvXdOEHX5qw6x2yH0lUB/kcuicJNM0YVkWZ6A/5nfloj5ownlO1F5xbKlP8nPifJgFoof8/Ky2iOmiMgmUl8oXr8v3idZimbPaNKtOuU0ulwtutxt+vx+BQAAej+ecMKFpGiaTyTuPq8bGQG4//ZYhX5vVD7lP4n1qM427uAbk5+R7kOg3i5azyqJyqF7xrzZn3MU5RnmojI+5fhQUrhs0f6+S9H/6T//pn8sFfGw4bPek1Wrh17/+NfL5PDRNw3Q6fWvhKigonGcgaDc1GAyi0+mgXq9jPB7LjyjcMDRNg2VZ8Hg83LyH3m2macLj8SAQCMDv90OXojc5EsNhmiYCgQDC4TB8Ph+8Xi/cbvc5poaeF2EYBg+AQOGvwRgbOq8qHA7D7/fD6/VC13WMx+NzzCy1h+qKRCLIZDIIhUIYjUYolUqo1+vo9Xq8z263+1zAhXm+B8ScWZaFYDCIUCgEj8cDn88Ht9sNsL5D+JAR6FtgGAY/PJJoSmdwUb+8Xi80gWn+mN8RqksThGBd1+H3+xEKheDz+fiY6iyssQiXdL6TDMuy4PV6eZhzv98Pt9vNhUt6hn67mABs2zZ0XYfX64VlWbxd87R5DnO0tyzr3PiI92kcfD4fHzcCrQWfz4dQKAS/388FVfq2i2OjM2HW6/UiEAhgcXER8XgcLpcLnU4HnU6Ht4cCLWjvGI6e+u/z+Ti9MGOuEcR5o2ka3G43vF7vuXUowuVywePxwOPxIBwO8/GhMaLy6HkZhmHA7XbD7Xbz8QFrt8/ng2VZ58Lbk2BN7aDxJhoFg0HeXxofccNGpJ3P58PKygqi0SgGgwEKhQKq1SpGo9G5Oa2gcNtB775EIoE/+qM/QjgcBq4wf7VXr169/Rb4yJhOp9B1HcfHx/g//+f/4De/+Q00TTu3EBUUFP4OGhOIptMpfD4fNjc3kc1mUSgU8ObNG3S7XWDOrr7C9UJkcqLRKLLZLHRdR71eR7PZhK7rCIVCCIVC8Hq9cBwH3W4XZ2dnqNfrmEwm0Fg0N8Mw4PV6EQ6HEY1GEQgEYNs2Z+y73S663S46nQ56vR6Gw+E54SMYDCKZTCIcDqPb7aLZbGIymcCyLEQiEc4gud1u2MzcrVgsotFooNPpAMyxmvqjaRqWl5fx6NEjLCwsoNPp4IcffsCbN29QrVZhGAbC4TDS6TRisRg6nQ7K5TJqtRrG4zGfpxCYUb/fj0gkgnA4DMuyeN9s20a328VoNEKn00GlUsFwOORMKzGgxID7/X7EYjEEAgEuAIF9T6bTKbrdLorFItrtNgaDAW/PTYIYfBIm/H4/Z44pepeIwWCAer2Oer2ObrfL205rW2NCFZiAEQwGEYlEEGDnPlF/JpMJ+v0+ms0mGo0G+v0+xuMx/4YahoHJZALDMLCwsIBIJALHcVCpVFAqlTAajc4JU2B9obbH43EYhoF2u41qtYp2uw0w4TUUCvE5T/PIcRz4fD4uFPh8Pmjsm07j0ul0MBgM+Pz2+XyIx+MIhUIIBoPI5XJcIKpWqzg7O0O/34fN/Fy63S7q9TrK5TJv8zxojPl3u92Ix+NIJpNwu9283NFodG4dyfPEcRwEAgGkUikEg0H0ej20Wi2+fh0mHHq9XsRiMSQSCa7VMgwDjuNgNBphNBqh2Wyi1WrxeUn9cRwHwWCQr/vxeIxOp4Nutwu3241EIoFAIIAAOzB1OBxiMBigVquhVquh1+vBZmHwiYYkdFP+RqOBRqOBdrv9Vp+TyST+/t//+9jY2EC9XsfXX3+N58+fo91u83Us00VB4TZCZxs99+7dw5/8yZ9geXkZzhVMbJWGSEHhDoI+TvQhljVEo9FIfkThChA//Fd594j5dF1HJpPBvXv3EI/H+T0SkjKZDD/Hx7IszlRNp1OuESK/icXFRaRSKcRiMS5MxWIxRCIRvrvtOA6GwyHAdn11XUc0GuXPE+Pk8/mQTqeRyWT4PKEySQOl6zomkwk3gQPbrQaASCSCdDqNYDCI8XiMYrGIer2OwWAAXdcRi8WwurqK5eVlGIaBVquFZrN5bifaNE34/X5kMhmkUiksLy8jlUohFAohHo9zJi4QCCAajcKyLPT7fW5+R3OddsqTySTvJzHRtBMfCoW4wEXRyYgZvcqYXhcsy0I8Hsfi4iJyuRxSqRRSqRRvWyQS4X3WGMM+Go0wmUw4k6wxsyuPx4NEIoGlpSXkcjlkMhmu6QsEApyGHo8HpmnC5XLxsXQEbaJpmlheXsbKygpisRjG4zF/X4iaBqKTZVlIJpPI5XJIJpPQdR29Xg/9fp+XF4/Hsbm5iWQyybUuwWAQi4uLyGaziMVifO5Go1FEo1GYLKTzaDTCcDjkAhHRiuYbbRJYghYymUwiEolwYbpSqUiUfxs0fwzDQDKZxNraGtLpNEzTRLvd5ky/DLpmGAYikQhWVlaQy+Vgmib6/T46nQ6m0ykMw+B9XllZ4UInCa5ionGybZsLrVRXMBhEJpPB0tISYrEYNKaVisfjWFpa4hsPkUgEkUiER+AbjUZc4EulUlhYWEA2m0UikUAikeB09/l8sG0bg8GAjyHVTRqiWCyGwWCAs7MzVKvVtzYlFBRuO95XQ6T/k3/yTz65QEQv/mazqQQiBYUrQJMEomg0ygWiWq2mBKIrwJlhQ3zV9w3lpQQhMtb6+jpCbPeexsbv98NgIasnkwnf2aWIbF6vF6lUCrlcDktLS4hEIoDAyNu2Dcuy4Pf74RNM4obDIWeqDMNAIpFAJpNBNpvlgg4xZbquo9/v8zQej2FZFheSHKaBol14Ym5DoRBnUAeDAcrlMqrVKsbjMVwuF2KxGDY2NpDNZjEcDlEqldBoNPjuMzGL6XQaq6urXCiwbZu3gwQ70dRI0zT0ej3efzCznmw2i9XVVWSzWbjdboxGI7Tbbc6oj0YjmKaJIDMPtCwLw+EQ3W6Xj/NNQJwTHo8HyWQSKysrWFtbQ0QICkBjSvTz+/18N58EBBJgdKZVy2QyWF9f54yyZVkYjUZcS+hiPjfBYBDBYPAcwz0ej7kWw+fzIZfLYXl5GeFwmGvier3eW7unjuOcY8bD4TAXoEhD5PF4EIvFsLa2hmg0Ck3TuIAWDAbhZgf4OkwYMdmZVh6PBxrTGHU6HUwmE74hEAgEoAu+Vpqm8TlCWi7bttFut9FoNFCv18+1exY0JnCSsLa0tIREIsE3Jur1+jltifgc0S2TyXCBodvtolQqodVqAUwzm81msbm5iXQ6DZfLxTV2pPWcME1wIBBAJBKBaZp8XtJ40+bFwsICQqEQDMPgmwR+vx8AuFbYsiwEBI0RzflEIsEFJZqP9O7w+/1wHAf9fh/tdvscj+X1erG6ujpTICJaUF4FhdsMUSD6wz/8Q4TD4St932+FQOQoDZGCwjuBPk6OsEsbDAa5SYvIVBEDSL9Vmp2IRuLfee8fuq4JJk26rnPmkQQgYuwGgwEajQaq1So3W6lUKuj3+1zLsry8zIWhbreLcrmMYrGISqWCWq2GZrPJGapwOAxd1zEcDrnpjc40RGQSZFkWNGYuNRwOUa1Wkc/nuYlWrVaDbduIRqMIh8NwMbOaVqvFaaIxH6J0Og2/349+v49KpYJGo4HxeMx3zomR6nQ6KBQKqNfrsJnWymLnyeRyOeRyOfh8PvT7fdRqNeTzed7HTqcDje1Ux2IxeDwebjJEAl88Hsfa2hpWVlbg8/lQr9dRLBZRKpVQqVRQZ2aKo9EIbreb78b3+33eZtqAu25QmTozkczlclhfX0cikeD0Pz09RalUOuefQZqkQCCAyWTCBQSHCSQkcKysrMDv93OTs0KhgLOzM047x3HgZb5FpCWi8SThy+12I5PJIJfLwTAMXk6v1zvXBwJppjKZDNxuN5rNJiqVCtcAilowv98PF/NV03Wdm+/RfOn3+9AYc+71emGaJjcZnDKzeZuZz43HY25eqes6arUaCoUCGo0GN5UrFouoVqsYDAbn2jwP4viEw2HEYjG43W6+hkhgdjFTURHRaBRLS0vIZDLQdZ3Trd1uQ9d1JJNJbG9vY2VlBaZpolwuY39/H2dnZyiXyyiXy2g0GnAcB2FmPmkYBvr9Pu8/9TmTyfD1ZjA/Ocdx0Gq1UK1W+UYK3fMynyaLmVR6vV5MJhPU63Wen+aZj/kStdttNJtNDIdD3lePx4O1tbWZAhF9b2S6KCjcRogC0btoiC42qFNQULhTcNhOrM4iKdGuLO22qjQ7kWkOCTC6EKGNhKN5IO2FizmvgzFdLuZQX6/XcXx8jNevX+PVq1fY39/H6ekpZ5Bod3lpaQmBQADtdhuHh4fY39/H4eEhDg8PcXJygr29Pbx48QKVSgWapiGZTCIWi3FG1BEi3FG/dCY0nZycYH9/H0dHRzg5OcHZ2RlOTk5weHiIs7Mz2LaNxcVFrK+vI5VKwTRNbkKnCcEhCPRh0ZhJlyk41NNOPN0Lh8PcXMzn86HX6+H4+Jj37fT0FGdnZzg6OsKLFy9wfHyMDvNnonJJuPcwJ33HcdBut1EoFHBwcICTkxOUSiUUi0Xk83kcHBwgn89jOBxyMzoPM5+jdt8UDCYkZjIZLtyenp5ib28Pb968wf7+Pg4ODnB4eIi9vT3s7++jXC5jwny93G43F0Y9Hg83dwyFQuh2u9jb28PLly/5PDo+Psb+/j5evXqF4+NjDAYDeL1eLC4uIp1Oc40LzQ0I2iwRs/7XhaAPJKxQOfRXXDOkiazVajg6OsLr169xcHCAg4MDPH/+HEdHR2i32zAMAyHm5xIIBGCaJhf0iDb1ep3PIyrv6OiIr6FCocA1NFeF4zjo9XpcuLIsiwt8JHjIc93PfNWSySRM00Sr1UKtVkO/3weEQCakDSuVSjg8PMTR0RHK5TJKpRLy+TxOTk5wcnKCWq2G6XTKTehMFoiE3h/0rna73fB4PBiPx6hWq3jz5g329vY4fY6Pj1Gv1+E4Dt+0CAQCGA6HOD4+xps3b/Dy5Uu8efMGb968wenpKV8P0Wj0nN8d/b3sXaeg8DlD/8f/+B9/cg0R7dg1m0385je/QT6f59cVFBTehiZoiGgHPhgMYjKZYDgccibV4/HAsiye3G73zP/dLLKReO9zTsRsUL+9LPIWMTce5hANgRmfBRoHCGenpNNpeDweDJkTMzHrtVoN3W6Xm7gNh0O4mbP0ysoKFhcXMRqNcHBwgL29PTSbTQwGAwwGA76DPBwOYbFIUyEW9Y2ctG2m7YnH44hEInC5XKjX68jn8zg+PublkQkVaUsAcDMnl8uFZrPJ8xJzT/4+ooZoMBjAxQJJ5HI5RCIR3l/SIJD2cnl5Gel0GqPRiDO95XKZO4LbzHxuKJgANhoNrhkjDYLX64XH4+HMcz6fR6PRwIg5iE8mk3PmYWHmI0UmTv1+n5tw3QRczGdrYWGBawuIOS2VStyZnQSL4XDITf06nQ7fue/1ephOp4hEIlhfX0c2mwUAnJ6e4tWrV5x24ljSbzcLV+3z+TBmjvlUntfrRTqdRjqdhiFoiGisITHFXhbgg4SBZrPJNRT07kkmk0in03CzKGrVahX7+/s4Pj5Gn5lnDgYDDJnJm9fr5X5Eg8EATWZWRhoaog8x+S6XC8fHxygUCmg2m2i323yezDJzuwgk8GiahhDzX6N2kPYJbF1PmW9fJBLhPoAAUCgUcHx8zP2OdObXBnZIMQk/pOmjtUsCpdfr5SZt7XYbpVKJrwMyeYvFYjBNE51OB/l8HoeHh8jn8+j1ehgI/j9eFsTBy4K1NBoNHB8fc01wt9vFgAVuME2TB5Po9/soFotcM0jzlgJZ9Pt9FAoFVCoVjJjvnSwwKyjcVtAGYTwefyeTOaUhUlC446APLe3GLywsYHV1FZubm9zUZnV1Faurq1hZWTmXyMF6eXmZ//6ppNXVVaytrXEa0W+iw9raGlKpFN/5ncVEi8KSwzQ0xDyMRiNUq1WUSiU0m02Mx2M4jsMZOY1p8Mjvw7IsDAYDbgJFZYu71cRA1llodZ8QwpkEZHrp2ywSV42dETRh0ePAIrFpzJ+JTOiGwyFMFjXMZCZXYt2zQHXJ7aTrJMSEQiFuntRqtdBqtdDv97kGYDqdwmY+L8ViEa9evcKbN294u4i27XYb+/v7ePHiBQ4ODlCr1c4JedQO2mkHi8BG10WNx01AYyZhtEExHo/RZGZm3W6XC0LUn+l0yple2sUn3w63241oNMpNuzqdDhes+/0+LwtsrMn8qlqtcsY+xJz4daYxFsdUns/anBDWYj6a2zTX6Bqtj16vx33M+syfi4TU8XiMPvOrIZ8l2rQxmL8aaUccx3mLVqLgR4IQ9YX6dZU5S/OI1pmbmSWSEOJizJTGfABJsHa73Xw9tdtt3rYx0+DQvDw5OUGLncdFbSX6k4AERjfqG9GS6tV1nc+NBjOxpTEHm9Nd5u9H5dMGDJnnjVhAjel0yjdW6BptmNE6vWheKCj8VHDxm0NBQeHWQmSqJsxh1yOEyU0kEkgmk0gmkzzakHiNzJjkRDvIn2Oi/qVSKU4jMaVZFCe6R8IGMUpEdwjMmMgkUgILiNBmzv4jIciFJpxPYwnnFhHT52KO3+FwmPs6xITIUpZlAUyoMU0TbuF8GJG5mk6n6PV6XCtBjBhY26m+wWCAbrfLd4tJuyAyTFeBLQiDBGJ4ycyt0+mg2WxyRo7mrthmUegjTQS1lYQC0X+E6nWzoAI0jolEAsFgkDOXtFZuCg7TPpAg4/f7MR6PuSbHFsIrE+jaYDDgguKYhQcns7JQKPT/t/cmzZEsXV73P3KeB2VKmZqlKtV06z636QfD6IYPwhIWDbQ1BmaYwb4/BhgLetF8B4xhDQv6PvNzh7q3qjQrlfM8R7yL9r+/R16RUqpGqcp/Zm6ZGRnh4X7cI+KcOO7H4Xke6vU6arUaRsacGZ6X8uE8tbkyqui5gTBUZd+lAbBIETaP9YP5TCYTPY+LbcY6zlXUOxqwZn40VmVZXGGgme1nXoe3YTKZaMPN8zzt2U2n0wioCH3BYFB72zgUkAbK1FjnrafCzXONrpl6QRUXYeYZDCSfzyOoIvr51ZNymU6n2nM1UGt+sf94wpPG3zQ2O52Ovt946tqhYTYX87LltXpd+1ssXwoBXgh3LcG+qbBYroUPNL59pFJVq9Vwfn7+Rjo9PcXp6akey74ocb/PObGeZt25/fj4GKenp/pNr6fe3JrKl6cUDqnoUnEZj8cYq4hQ5v3NE56MiAp+4KhhPA8fPsRXX32Fr7/+Wqfnz5/jF7/4Bb7++msd0SsSiSAcDiOs5tlQ2aGCO1FrvoxGI11OeW+VCis/Q2odpJha+FLW0+9+LI1EKqtS2QuoifzyjTc9BzSGmGi0sGz0BlBOUG/GuZ1KaVpFsNvd3cWDBw/w7NkzPHr0COvr63p+FfM2lfD3BdsvIBbm9JTHZKjmmvghFVJ+sv4B5UEJh8NadoPBQMuV/Y6J/Y4GmOxjNDb8zukac4tkWzMPv35v7s8+T8+FNIb4v6f6iTyG+zFPaSBzH6m8vy3ynK7rauN6NBrpeUK5XE7LirJjJLf5fI5Op6PbwMzPFX02qgJ6rK2tYW9vD48ePcLz58/x9OlTrK+vIxKJXJGJLCM/5/M5hmooJQ1IeU4Ig3qu1t2iF5Ly4jGUsx8sgzy3/E3M3xbLfUH26evS7V+tWCyWOwUVFj6wOan39evXemI+J9MfHx/j+PgYR0dHelI7/2eS2z+3xPrJ+pqJMjo5OUFTrbcjFRAqZvzuLRibPFVzfmgowFBGqUCHVGhhV0XtYrhmDuvbFUMad3Z29HyOiQq7zGEwVFqDKqDDTM0noyIjlS9HeSAcEc0zpAIxmAowyyyVrEUE1BA4KRPmR6OHyRMKIT+lbOWDKqiGUkHVL6nWNHry5Al+8Ytf4Je//CX+9E//FE+ePNFrwHB/GAbLh0DKLKwCdNDgkwbAIqjYmrLgyw5PrTlFQ4fb2C9NWUojg2Vjkn0ZwjPDfKDkxe+ybrLtzb7AMtLYZf5yH8qE8DysE8R1JetO+bwPmN9gMMDl5SXq9TqgIskx8Af7WzKZRKFQQCQSQb/f13PnpNylsZ1MJlEqlbC/v69fanzzzTd49uyZXjNLDhGU/ZHXDrcxb7a5hDJj4r2mrxb35T4Ssz1uuh5ku1ksXwKLrwaLxXIv8JTC6IjFHUejkZ6AS0/FSI0jX5SW3e+mNBRr3byvZJ7jXZOZv0xSDhxqYip/NDpMhUIqIVRozGNhGCcB5Qlw1VvrWq2Gy8vLN1KlUtEhfM/Pz7WxW61WtbeE56LiK9+2y/8CYj4NDRQq71KZlse+DVRoTbmYSlnQiO7nKg9JQAznokKXTCaxtbWFZ8+e4U/+5E/w5MkTrK+v63DDjUZDhzumguhXjreF5ZLJzFfKS/YDs7/wfxhGEWUk2wzKe0IDyzyen7I8PJb9i8oyz2Uqzzy3PD/r6NcHpFzlcRKW3RFDvvjb3JeGBQ0G5sm2NzGPvw65L6+NTqeDi4sL9Pt9JJNJvUYWPXMcruq67pXhaKyHoww3DpPc3t7GN998g2+++UYb58lkErPZTEdEZERB1s2vfCZShhLZfjJBtDHhb78+6Icsm8XyJbDclWGxWO40UjHjQ5Df/ZL5AHWVcmTu96UnCCXElJmEMvRT8hYplDyHpxSrqQoo8P333+Pbb7/Fr371K/z617/W6Te/+Y1Ov/vd7/C73/0O33///RWDCEIJhjB2uB1CQWd70wjiPtxuHvM2sBysJ2H+i2QJQ2Hm8clkEru7u3j27Bl2d3eRTqcxUZHrfvjhB/z+97/HH//4Rx3KmpPfl1UC3wXWiTKVMuRvxwhcIOtuyoEvOaC8TvQ8mXmYyHwCynNMWfI/9kmeg+dhP5X/03PIc5uwDc0yyXPJ49jfeR653a+tuL+5jZj/MQ8zH/jsO1TR1ur1OgKBgF7Di8FKOI9QBlOgRxaibLlcDgcHB3j27BkePnyIZDKpg2X8+OOP+M1vfoM//OEP+OMf/4iLiwtM1Zwys81N5HVJecljXHGfkm1g1pMsOp+fPBflYbF8rty5OUQWi2V55HXjGG9rCbfzux88hg/pt00QD+/3mczzvGu6DrkfFQ5+h6oft1P5kooJ8+Cn9FBIZL6OikA1GAzQbDZRq9VQUQuOml4ifq+pBVt7KryvlBPU+igMJS6HRUEocvTKUM6umAdBzHr5yXDR9qkKoc3yOUKpkzKCkIc01KSMQqEQisUidnZ2sLGxgUgkgsvLS/z000/47rvv8OOPP+rwzM1mU4ciN4eEmWU0f1+Hn5JNZP8glLGUL7ezrtzOsvF4ygCiLcMquAeNEzPJ/XkOevykMi3lwP24ndugDDGeV5ZfYspU/ja3s5zcRyaI8/I8i/Lib1l2uR2ireQnv3uqT81mMx1KfDwe6zDWDKqSzWbhui4ajYbehwELWMZwOIx8Pq/XfQoGg6hWq3jx4gX++Mc/4ve//70Ou84hrGZ9/XDFvQc+14lfkvvBxxglZl5yu3eDAWqx3CfMa+S6tPjubrFY7i1v+wAzH4RfOqYcKR8qdlLhMPflTdZUlOW2uZgjwIhzDKHtquGPNCj4ttgTxgwVPCqGVHBcte5ILpd7I4y2TJwnkUwmEQqFMFJRrThcUJZ72b4h9/NUcIexWhuLi3HGYrErdWD5AejIaJFIRBsTHJa0traGlZUVBAIB9Pt9HB4e6kVKGUZ5pIJIcA0uGgJmuZjeFyE1Z4nBLFzXRTweRyqV0vNSPDWnR5bFURHyEmr9K/4/U6GVe70e5vM5UqkU0uk0wuGwzsdMIbHgaSgUwng81pPyJTyH2Tf5nfmxP4bFwrsmZn1wi75CZDuYxpCnFpsOqBcPzDsgvI8SGsCsBz+JI4yyuQpGUKvV0G639TC5zc1NlMtlpFIpTFT4/EajccUY4nlpRHGx00ajgcPDQ7x48UIPkWNwFvZ39mtZb5YLQh6L/pcs24+536J8cM05/LZZLJ8bd85D5C1xYVsslr9HPtyx4OFoKhg8xi/JPC1/jykPKlnmNhhKHP9ne0jFkQrncDhEp9NBv99HKBRCoVDQBoMn3mIzj9lshlAohHw+r0OFM5Ia9+dwuEgkgmw2q9c44jnZX+i1SaVSep2V0WiEXq93ZZ6ErJesj0RukzKYqbDe4/EYUAvA5nI5xGIxQPRNKphU/NfX11EqlXRwBEetCROJRBCPxzFXUdfkmjBMjuMgHo8jl8shGo1qD4lUnM32WwapVPvhiChv3W4Xs9kM2WxWD7ti+0DJiN4cehhWV1exsrKiw6qPRiM0m000Gg3M1EKlzIv9QtbbVQt7rq2tIZVKwVXr7fT7fa3Is4xTFb0vkUggGo1qY44ymc/niMViyGQySKVSCKoogSy7hHVivzLhNilv9g/X8HZQxo7ydnF4Go1k2QbyGOZNgzCTySCfzyObzeoojlBllXnwHFwEeDabIZVKYWtrC2trawiFQuh2uzr0NWXAfuYqDySvwfF4rNeCarfbuvzcP6zWNaJxDHFf8G4wVhZBOdyElDd/S/zaZ9H/FstdRvbx26Tr7/AWi+VeYD7MTPy2+WEferfDlLvno3SYsuc2x3G0AsWJ1gzVm0ql9DClkIj+FgwGkcvlsL+/j+fPn+PBgwdXjAaWx1OBNrgGSi6XQyKR0MOf+OY/n89jfX0dKysrmM/naLfbV4bg0dDyKzt83s6buGrBUCqTyWQSq6urKJfLem0XKqnhcBjxeBylUglfffUVnj17hnK5rD1m4XAYQSPwAhXNoFrTieGTC4UCVtSCppQhyyzf0sv83gVXGCj9fh/1eh29Xg/hcFivi0SvDc/F9llbW9PzT3Z3d5HNZhEOh/VwrlqthuFwiHQ6jc3NTR1O3KxHKpXS62jF43Hdtyh7VxmcI7XuFNTCralUCvF4HEE1XyioFu3kml3pdBrOAmOHBIw5O4vuI6ZBQ2Q/CqiIhEOx6Cjn9NBrSNhH+T2pog8+e/YMz58/x+PHj1EqlXQfksdBGAmtVguXl5fodruIRqMoFArI5/Nw1XA5LnQ6F+v4QJWV8neVocl+STmG1Vph6XQaKysrKBaL2giS16z8Lsv4PmH55f1JIuXit91i+Zx5t6eAxWK5E5gPsJsUVRPzYWxZjJQtDQTXZ1w/fBQMUwl01Vv88/NzXF5eIhgMYmNjAzs7O9pQyWazSCQS2pjY2NjA7u4uNjY2tOHEMlExpdJIb1I+n0cul0MqlUIsFkNShRPe3NzEzs4OcrkcRmpB1KFaQ4b5yfLKuvF/s+9JaCBwOFsgEEAul8Pe3h52dnaQyWSQTCaRTqf1vI2trS0dXjykwldDyXKkoid6akhcNptFJpNBQi2gm8/nUS6XtSeFwxDDYmHd65TQRdxkMFHmAeUlaDQaqNVqGI/HyOVy2N3dxdbWForFIlKplPZilEol7O3tYW9vD5ubm9poikQicJW36eLiApVKBQBQKpWwvb2NUqmkF39NJBLIZrNYX1/H1tYWstksAoEAOp2OjrTnKqNzohYL7na72hu3sbGB7e1trK6uIpfLoVwu61DvhUIBYTVETxqV8LnnwJCTn1yvuy/Ja0YOF/Q8T5drdXVVez3T6TRSqZQ+LqA8XsViEQ8ePMCjR4+ws7OjF0J1lPFEWbDtPbVeFIfFua6LWCyGYDCorwnpHZJQpqPRCPP5XHuoisUi8vk80uk0crkcSqWSvqbj8bj2yHni5QLL4yc3E+5jyvO6Y+W9Se5nHsP/ze0Wy+fO9Xd5i8Vy5zEVE6kcSyXjpoecfGCaeS7L2x531zFlQmNGyhoqiMBchEX2xHAZ+CjgjuNgOBzi7OwML1++RKVSQTKZxMHBAZ4+fYqnT5/i0aNHePToEb766ivtFUqlUhgOh6jX6xgOh9pYYVk8NXdnNBohHA5jc3MTe3t7ePDgAQ4ODvDw4UM8ePAADx8+RDabxWAw0AEbOATNUUOCHOWBCYVC+jysNz0PrvKQzFRYaJZhOp2i3+/j4uICr169QrfbRTAYxPr6Ovb393FwcID9/X1sb2/j4OAAX331FUqlEmazGbrdLjqdDmZqMdZer6cnwM9mM2QyGezs7ODp06d4+PAhdnZ2sLe3h42NDYRCIT2czvM8hMNhJJNJPXyKecr2oCFCjxzf/FOZ9ksBYYDy+3w+R7VaxcuXL3F2dobZbIZyuYz9/X08ePAAjx8/xsOHD3FwcIAHDx5gY2MD0WgU3W4X1WpVzxny1Lo+9XodL168wPHxMQBgZ2dHLz7LfB4+fIj9/X1sbW0hEomg0Wjg6OgIl2rhUfY1ep1arRbG4zESiQT29vbw/PlzPHr0CM+ePcPTp0/x4MEDZLNZ9Pt9VKtVPY9NGgWOmLfGvjAej7XBwX38YN9yReAIieu66HQ6OpBBOp3G/v6+riNlRwOQfTQQCGhjM5vNIplMwlGeWBr5zB/iBQLPV6/X9Ry06XR6xTskr2N5fQ8GA23wz+dzvRgr+/fDhw/x8OFDlMtlAECv19NykmsSURaUzUwNlWVZJVL2LBe3+SHLy7aBaAe5H/9nH7wuWSyfE8G/+qu/+mtz48eGF3Sn08H/+3//D+fn53DEgoEWi+Uq8sEcVhOBU6mUVhrH4/GVB9+7wgfuMulDYJ7jXdP7xlVDZFZXV7G6ugrHcdBsNnFxcYFer6fP6S14O8tobJPJBCk1eZ5zOLLZrB4GxuFUg8EA5+fnOD091UYDAGSzWZTLZSRV2N/z83MMBgMkk0lks1k9lIzD1mKxmB4udHJygrOzM3S7Xd13AmpifaFQQCaT0V6HbrerFe1cLoe1tTXE43G0222cnp6i3W5fMQz5nd6seDyuPRtyPhS9G9VqFUdHR7i4uNDKI58TQTU8LhaLIZ1OI5FIIJ1Oa9mMx2N0u120220EVKCB4XCIVqullVFHBTLgUDGoYA5hFdqaBhG/y+1+2wJiDpejDA/O2wmFQtqDJdugWCwil8tdMWBOTk7QarW0vOZijSjmzWNSqZQOE835Mp7noV6v4+zs7Eo7wFCKHcdBJBLRbUIPZKFQQCqVgqO8cfV6HYPBAGG1EHC9XtfzaTw1LJNtGAgEcHl5iYuLC22kO8awy3A4jFQqhbW1NUQiEb0OEIdpsi2g5ssFAgHEVVCHeDyuPUO8FqLRqPbgzGYzxGIx7YXxPA+tVkuH1ZYGEZGKveu6SCQSephmt9vFyckJTk5O0O1237hv8F7iKgOQ/Sei5uul02ntAY3H4xgOh2g0GhgOh9oA6vf7qFQq6PV6cF0X0WgUuVxOl5/RJhl4heel7DOZDAqFAkKhEOr1Oi4vL3XbmPvGVfAHXsfcl32Nww0zmQxarRbOzs60MWjWnSzabrF8Svj8KhQK+Cf/5J8gk8no+951BP/Nv/k3n9wg8tRbCWsQWSzLwevCU0NZTIOIyuoyNwFy3X7X/fe2BIxx9NclPuDfFx+iPo6aqxIOh/WbdUZsgxhyJvfnp6e8AVRmXPWGOBQK6WM85fWp1Wq4uLjA+fk5ms0mRqORVj45DCuZTKLdbuP4+FgrsAD0UCxH3V8rlQpOTk50KO9Op/PGfZcGyGw205P8+/2+ni8RU9HcRqORDgXe7/fhKOMFYj2kwWCgy2J6XqbTKbrdLprNJs7Pz3FxcaFDZ1OBnCsvhOzffHs/m81QrVZxfHyMdrutgwkwX3qMZrOZHppHBTGXy+lIYZxzxe/cns/nsaIW6uRvGjg0umYi/DkNmZEKKjFXgS7mIpw4+8nr169RqVTQbrd1RDjZV1y1aO9wOIQnAmLwXAE1VK9SqejQ4+12WxsB7FM8djAYoN/vYzAYYKwCXlCG4/EY7XZbGzccckeFvtlsaiPV8zw9P6ev1uqp1+va6ITwWPL6CKq5NZPJROdH7wrrBBWtj4bgTHmnHGVgzVV0xuFwqL1gczVkTRrFvAZ7KtKe7NfEVcZ2JBJBqVRCuVxGOBxGvV7H8fExKpUKxipCHIx7Kj9d18V4PNbXxGQyQTAY1LLu9XqoVquoVCq6Dw4GA3Q6HTSbzSvDGgNqGF6v10Or1brSjrLMjjJqg2poX61W020j7xmExrunjGYau9wnFAohFothNBqhWq2iXq/r69xPbvhA91GL5V2RBtE//af/FNlsFliivzp/+MMf3q+m8RbM1cTJk5MT/Kf/9J/wd3/3d3Ac59o3ExbLlwwv+Pl8jkQioYdkXFxc4PDwEJ1ORz+4gyJCFERYWj9cn+EZt4Vlk3n5bfsc4RteKsij0eiKQbQIysdRRk1WzRvKqnVQ5uot7kwNeRoMBhip+TS8T4ZCIWxvb+NP/uRPsLGxgcvLS/zud79DtVrVXoCsGl5EA6PX6+mQwMxLKnxUeDkPY6Y8Hz0RiY7zNqLRKHq93hWjRxIQYZw5n8lRCj3rNp1OtTLLc1DhhxjWFolEkFFzh2bKcASAVquFZrOp6xhRgRaghiqxXBx+FVZzi6gUynr74RgGuqdeSHBh2Gq1qpVOXnvRaBRJFdwilUpp5Takwpy32210u12Mx2NtOMnzsy5sC85DYnQ4GgKj0QidTgedTgfD4VDLjv3OrGNShVvPqDDdQRUYYKaGK9IAY59MJBJ6fScqyQHlCYnH44Dy6kijjudjnUKhEKLRKPL5vFa+u2JOE9uZn0EVLCKdTiOZTGovDPvJcDhErVbDYDCAqzws+XweiUQCoVBIG35dtaAq8yUBFcDBdV2USiX86Z/+Kfb39wEAr1690gupTiYT3a4wFKuAGDaZzWaRVZHtIpEIJpMJhsOhNt66ashoJpPRfZb1n81m2vOXSCTgOI4uP8soCSivVCaTQTQaxXA41B5Qc19HGU8s33A41P2OfTWkXqzFVRTHfr+Pfr+vDWY/pBwslrtCUEVxfPz4Mf7jf/yP2N7evvIcWYTz+9//3v/O/xGRBtF//s//2RpEFssNUDGbz+eIx+M4ODhAqVRCpVLB4eEh2u223o/KL1l0U1ikBN4Geb2aSp257XPEUUowFVFHzMMhplzM31SuQmqNIKghdZ4yHOYqVDDvkdweDAaxu7uLf/AP/gG2trZQrVbx7bff4uzsTBvEERGC2FPelbny3tDwgvDezedzPTSM/7G8rGPQmD9j1pvn428aNVTAZZ4zNQ+JdTL7C435oPIy8FjmNVWLysp+HxAeCkcNlTs4OMDu7q4e3iTPY57zJoLBIGq1Gn7zm9+gVqtdqRfrTOU1ooapQbX1VM05mytvkl+duS/lGFbR9kLK28Lnp6w/DRAsqI+jovbJ/sb8eSzbe6aGroXUHDL+7ykFg4o9DVP2AcJ+we+OsSAwjRtZR/Yn9i+2E4+H8iA5amgfjw8pDxHbeSLmPpl9gbhqza69vT388pe/RCaTQbfbxffff4+ff/5Ze0nCKrgEj2UdZV5sGyaeVyb2V8qOLxlkX5FypKzleeR3nhdiTp9fmzPfcDiMufK0zpSnEaqfRNQcOgiPoWxLE7McFstdgPfDJ0+e4D/8h/9gDSKL5XNGPpTpIVpdXcXl5SVev359ZQiGY0ycXXRT8HuIWm5G3qOk4sLv18lV/s/95bagMq5kHlQUIRRuT719393dxTfffIPt7W1UKhX89re/xdnZGQZqrgDz4/Hy3EzmPVf2F+5PxRKiDuZxLJuUB2Ge3AcqHypzMn+JPJdfGUzlzTxnQHmpisUiCoUCAirct9xv0Xdi1jMQCKDVauHk5EQPFTTLwjKbx0q5mWU3kcey/o4yWmWfYJmvK7tfeShP/se2Yb7cn9vMPOR/xFNtSYOIRhCPCajhYayDmRfPwf7COpnlkwYXlCyDPkPcZJn5PRwOI5PJ4NmzZ3j8+DHG4zHOz8/x448/4vLyUhsOZj/xay9ZNxjnltsg2tATwxll/f3aj8j6UMY8ZtFxPBePlS8OHDXvjdcI9zPLZSLlaLHcFaxBZLF8QfBBNFehc7e3t5HP59HpdHB0dIS+WmfEUQ9oKgywBtF7R96j3lWGVC7kp8yT2/kfoSKzv7+PX/ziF9jY2MDFxQX+8Ic/4Pz8XA9JkgaWX/7LYJ5flpeykP8R7iP/N/eV+5j45WUeayK3cZ+QGrYVUQugviuBQACj0Ugr9sRUmBfVz6/cN3GdLK7DPLf5e5m8Fv0vFWtHGEf0lHjCMwJ1roAyiLgfy2OWiyySn195JDwmqNY0ioi5dJx3t7+/j3w+j/Pzc/z00086mMLMJwQ9fNp3GUzZsVw3ld9EyoB5mnmbmPtJI9IRzwjeI7DgOpYs2m6xfEre1iAK8GZyl5LFYrkZRykdM7Vmh4z+ROw1df9ge/GT7eyIt7ncLj/5NjeohuuYebliyA63vU3fMI8zv/vl6d1gDJnfr0OW39x2HdxnrhYn7apIdK1WyzdxjsVNiUFMqPRTzua5ZbllehvM498mn0Xn99smWfS/mZ9ZNiriZh9k314WWXfznNfhqqFxhUIBu7u7ePjwIZ48eYJHjx5hb28P8XgcjUYDZ2dnqNVqeu6Ot0CRuk2ZiVnW25SfmOc15fy23LYd5H3JYrmLmPeJm9KbV7nFYrk3BNRwFIZD7nQ6gPFw84TScd3D67r/LIuRN9R3xWwj84Ytz+OIoUSSuZqPwn3mRvQuvKUidhN+ecptZh3Mff1Ypt9eh9/xNFjm18y3gCov9/VLZl2uq6vfNvP/j8Gic/ptI1KGfvIk1+Xtt4/cd1Ge7wtPGTVhtR5VqVTCxsYGNjc3USwWEQ6H0e12cXx8jLOzMx1tET6eIcl18sAS/9+Gd83HlPUyZfP7X27za2+L5b6y+Eq3WCz3Atd19Rtv00N0G972OMuHw1RcTAXFbLOBWp/o5OREv+WWgReuMwDeFzflbypYHwNZJkd5KuQ2/jbLLrebyTSO5DESs+380ueAWW/+NrebfKz68zyuCj4xHA4xViHGj4+PrwyTk+so+ZXP8xm6d99hXW9qL4vlc+XODZkj8rvFYnkTeY1QMeOwnbfhPj3gb1PWZfdddj/cct+3YZn8zful53lot9t49eoVfv/73+Ply5dotVq6b8i5Gx+SZcr+sZFlMstn/n4bzOcX+RwUTL9+ZtaJv70l5rIQmY/ZBn7H+21bBqnoT6dTtFotHB4e4uXLl3jx4gV++OEHfPfdd3j16pVei2uRMeRXd2Lua3LT/9fxLseSRW1nsXzOyH5/U7IeIovlHuIpxcOcUyIf4m/zAHwfD94PjazvTdxmXyy533V53lbe1yHbchkcFYim3W7j4uICtVpNryHCfnLbPBexqJ7vI2+J+cDyO+eyyLpfJwvzfMskP67rJ3eB62Rgcl095fZF+xCei/vx068My8gYRj38kmQymaBer+Pk5ASnp6d4/fo1Dg8P9XDjyWSi8/Q7v8zTr0zXndvv/2XT+8SUp2wLb4FB+6HKYrHcJaxBZLHcU+QDzFHhYxk5SxpKJuaD3kzLYh53XVoW87jbHn+XWCT/D4mnokeZ6/nwP3yiclnuNjf1CU8Mt2Si5/E+4bquXoR4OBxiOBzq6wSGwWPyOdyPFtWNXPe/NYosnzvBv/zLv/xrc+PHhu7pTqeDb7/9Fufn53q7xWJZjKfCCKfTaaysrCCkVqznpPr7+vC+DvlAvql+b7PvsvtB7RvwWTMnYCyG+7GQCotUXL23iOa1DKYsLMspnncFs79ch6wTv9+Xet6G+2z03Aazn5ptaf7mPY33PMfHk2Sx3AX4TC4UCvjzP/9zZDIZ/Qy8DushsljuKQG19kwwGMTKygrK5TIymYy5m+UDQ8MnoFaCT6VSSKVSiMViOvz1x4Jv7ZneZU6Z5XocNWT1uihk9xn2G9ZRGkH3vc5+5ZcvDyxX8TwP4XAYqVQK8Xhcr/PiJ0eL5b5ie7PFck+RD6NwOIxEInHjG5DPgU/heVmGYDCIdDqNcrmsw/kmk8lPojRQuTO3+W233B4py89Vnqb3IBgMIhKJ6GG599lw+Fzb7H1hPkdCoRDy+Tw2Njawvr6OdDr9xj4Wy33n4z+pLRbLe4MKGYc/yGEQ8qEvlfLbKui33Z98SIVpWUVUektu4rb7cV/KJxgMolwu49mzZ3j+/Dn29vaQSqWu7POh8WtnKu/m9tti9jFTYf4SFCTP8xCNRpHP57G5uYm9vT2srKwgHA4jGAxq2S7Tjz419Pos026hUAjZbBa7u7vY2dlBoVBANBpFKBRa6njL/SYSiWB9fR2PHz/G48ePsb6+jlgsZu721vcWi+UucOfCbjPhAytUFsvngHeL8dzm/37XnAkfcAE1bEYq2csij70uLeK68n1qPDHMJhgMIpVKYXV1Fevr68hms4jH41phfNt6mO20KBGp5Mrt3O9tlXV5LlcMx/OWGJttYpbdrx4fE7MMfon7RSIRbG1t4euvv8Y//If/ELu7u4jFYlf6MK/Hu5zm8/mNQyoDat5IJBJBsVjEwcEBDg4OUC6XkUwmgSVlx2T5dJhtcVMigUAA0WgU8Xgc2WwW+Xwe+Xwe0WhU/2+x3EXYj82+vSjZnmyxfGFQgZf4KbTXPej89jdZZp9lWPYt9qdAlstxHC1bR4REN/f5kFyXP/+7bp9lCAQCiEQiSCaTiMViCIVC5i6fLY6K5hiPx5HL5XSKRCLwlJHh1+634V2OXQZZh1gsps9l3hMkgUAA8XgcqVQKuVwO6XQa4XAYuOE4y/1H9mfe17iNzwgqlBbLfWaxxmOxWO4dUpniA+o6wwYLFOTrjrnuP5Pb7HufYL2oHMCQo2dM0DaH130oTKXEVK792npZeGwoFEKxWMTu7i62t7eRyWQ+eL3uEpPJBK1WC9VqFRcXF2g0GphMJjp8s2zrt5H3h1IuZftx+Nve3h7y+fzC9nPVxPn5fI5+v496vY5arYZut4vpdHpFKbZ8vrA/clgof79N/7ZY7ip3bsicxWJZDnm9+F1DNz2sTGWZvE8F522HZ91XKFNPTLhnm3Db+0YawH7eP/P3uxIIBJDL5bC/v4+DgwOsrq5eMRBv4n2X52Mzm83QbDbx4sULfPfddzg9PcVwOISnPIN+bfAxWXRdQ12PkUgEhUIBjx8/xrNnz7C2toZgMHitp48Lmr5+/Ro///wzzs/PMRgMdJ2XRb5AuMt8jDJ+yHMsk7dfu/ltg7i3sP14H7uur1ksn4pFutFN6earxmKx3GmWfSCZ+5k3A95EqMhLuM3vv5swj12U7hOuUnr9yi0NFFPm3E5Zy99SWeRbWO7nlw98tktFyFFv783Q3/Lc/M2yBoNBBINBfSwTfwPQcwmKxSK2t7eRSqX0ea47J8/L/2VdqZA7ypiU514mkYCQWzAYXChb7id/M0kZSPly//l8jna7jbOzM5yenqLVal1Z94uy5O9QKHTF2JCyNduPx/Nc/J/9TW4jrJdZTxP+H4lEkEqlUC6XUS6Xkc1mdYAEc3+eczqdotVq4ezsDIeHh6hWqxiPx5jNZm9cA2b5zD7hCsX6OngM28o8JqDC3IdCoTf2M+W4CDNPHsM63VRGIs/HY5i3/M9T/RJCDouO53e/PAj/M/efz+e6H8t9iCMMd/Z15sH/WQ6zPSFedJn5Wiz3meWudovF8tlgH2KfDiotVOKCwSDC4bA2BqiIuK6rFSfTuDBhfuFwGAGfABvyO88RDocRjUYRi8UQj8f1fBLmQcVLKlQ8lqGX5Xap9PspULJuTPzN/CiHUCi00FB2F0RUhJIDy8K8YrEYYrEYIpGI3peKaCgU0scERUjpcDiso8b5yU7KZj6fv2GsyPoFlaHH9paffvWmcsqyBoRyzbyDwSCi0ahuP36y7WR5iCwf1LA51p/ykvnyN3FVEA05NFDmJ+F/sk6yrwfVGjZm27Ku/M62pLx4LpbLUf2YfTgSiWj5yTa4CbkPZc88sMT9Uv4fVNcLyzifzwEfOck5XPL6C6m+z3ObMoI6B9sOKm/KlknKxOxPlKksA/uRWU7ZJsS8t9wkH4vlvhD81//6X/+1ufFjw4dct9vF3/3d3+Hi4gKO42A+n79xgVoslr/HUcpZOBxGPp9HKpVCv99Hq9XCdDp9Q2kxf/thKgfkUz/0qNzclD52OeV5o9EoisUiyuUyQqEQWq0W6vU6Op3OFSU1FAohGo0ikUggmUwikUhohU/uk8/nkclk9HY/5chRSmMsFkMikdB5zWYzray7yrgKBAL6nJlMBul0GtlsFul0WieWYzqdAkrus9kMwWAQ8XgcmUwGa2trKJVKyGazcF0Xg8EAk8kE8XhcB1oIqLfUEEagIxT6YDCIWCyGTCajy5JOp3X5qNh6hpeNv5moTNLDIaNhpdNpZDIZZLNZxMQiuZ7nYTabwVGKZDKZ1NGzKJOYCilsGhdUKJPJpF58F2pIGetJRTObzSKbzSKVSiGZTOpj0um0XryX7Z9MJrUCy/LxfJRbNBpFMpnUgRyy2SxyuZyuYyqVQigUuhI9jrILqQWDs9ks1tbWsLq6imKxCEc9d4fDIQBoxZhGy2w2u1JnthUVd7YxCShDhEp5KpVCPp+/Ut50Oo2gMjb57Gc5ZZuHldGeTqeRTCb1f5Qv25f3vng8rg0FaYjwOD94XrZdNBpFKpXSodShjJqAj5cFqr78P5FI6PYIh8OYTCZXdBj2z3Q6jXw+j0Kh8EY7sv0hjCEeH1QGq3lf8DwP8XgcxWJR9/t8Po94PK7LzbaS94qVlRV9fhpGQWHky/OGw2Gsrq6iUCjA8zw0Gg3UajWMx2N9jbCf+snJYvmYBJQhXygU8Gd/9mfIZDJX7oeLcL799ttP3nvp3j09PcV/+S//Bb/61a/gOA4mk8mNFbBYvlQCSllNJBLY399HuVxGpVLB4eEhhsOhfqDy5iB/87vfw8vvmmMeb4ufMu/Hu57nY+KKN7nz+RyZTAZPnz7FN998g1gshp9//hk//vgjDg8PtZIBtaZHKpVCsVjUE9objQaazSaazSY8z8Pq6iq2t7cRj8dRq9VwenqKXq/3hgJKZSWXy2FtbQ3RaBSDwQAXFxfodrsYj8eAkmssFsPq6ioymQxSqdQVQ4x9otfrodVqoVarod/v636UTqdRLBZRLBaxsrKCYrGIXC6nh1LVajVMp1OdT6vVwvHxMVqtFjwxTCikPCNUAnO5HOJq5ftgMIjZbIbpdKon8He73Sv14LMiKEKcp1IpzOdzNJtNzGYzrKysIJ/P6zfuADAcDtHpdNDr9XB5eYlWq4VkMqnrVSgUEFMR14LBIPr9Pk5PT9FoNNDr9bSBCADJZBKrq6tYWVmB4zioVCq4vLzUymEqlcLa2hrK5TISiYRWRgPCqDevO8/zMJ1O0Ww2cX5+jmazCRieEhoz+XweYeVVomFBpbfVauH8/Bz1eh2j0Uj3uUQigfX1dRQKBa0Ir66uIhaL4fLyEpVKRc+Dms/nGAwGuhzj8RixWAzr6+solUoIBoOo1+s4Pz9Hu93WdaJiTMOJBmEul9Pt4DgOZrMZut0uGo0GWq2WfoFDufC6SiaTWFtb04ZbtVpFo9HQxiuNyWg0iul0islkovNtNBrodru6/svcfwKBAPL5PFZWVlAqlTCZTHB5eYlarYZer2fuDoh7MA2S9fV1hMNhNBoNfc26rotQKKQNlZWVFWSzWe29oaLmeR76/T6q1SpqtZq+dlzxUmNlZQW7u7vIZDKo1+uo1+uYTqfI5XIolUraQKfBWqvVtPEyHA71i4dcLodisYh4PA4AGI/HmEwmaDab+vzss0H1MuT58+d48uQJXNfFixcv8P3336PdbmMujG9e58vI22L5UPC++OjRI/z7f//vsbW1BU8MR13EnfAQsaDdbhfffvut9RBZLEtAJcT0ELXbbT22n8oKhPFjKmPLQsXrbdOymMd5QmG4CfO4D5l4PrZDLBZDsVhEqVRCSHmIarUa2u223j8Siei3s7u7u1hbW4PjOBgMBhiPx+h0OggEAtja2sKjR4+wsbEBT72RHQ6HWkkhAfX2Pp/PY3d3F6urqwgGg9qIoKchFoshl8thZ2cH6+vrWF1d1Z4QeljoHaGnYTgcotfrIRAIIJPJ6FXq+fY5kUjovFmvbDarPTyNRgOdTgcQb+qpOO7t7V0pR1x5eiKRiH5rnUqlEIlEMJ/PtXJPpTsQCCCbzWJ/fx/b29vI5XJwHAfJZBLlchmrq6v6mqBnhL+p/K2urmJvb097TDKZDJLJpDYYqMRzf08pp6lUCqVSCdvb21hbW4Prumi329orS8Nzc3NTG1qpVOqKN4y/aTDw7f5sNkOr1dIBC2jIZrNZ7OzsYHt7G8ViETE1RC6khrvFYjFt4FEpnk6nur+k02lsbGygVCohr9aQ4XA9Kr3ScxUKhTAYDHS/jEajKJfL2N/f1+Xs9Xp6+Bz7t+M4KJVKetHazc1NZLNZXUZ6dqS3zHVd7U2B0AeSySTW19exv7+PQqEARxnupVIJGxsb2quSVp5Fek5CoRA8ZVyMRiN93KJ7SEB5NfhSY3NzE1tbW/qc9KAtOj4YDCKbzeo65/N59Pt9NJtNDIdD/QJka2tLt18mk0FMeWQCatgoDaZkMgnXdTEejzGdTnWfD4VCKBQKePToEba3txEUL0PW19dRLBZ1H2B/TyQSCCpvH58Tm5ub2NjY0IZZSnnx2E6j0QjD4RCTyUTXMRKJaOOU9yN6iGTb897kJyeL5WPBflgoFPDnf/7nyGQywIKXvRIbZc5iucdQ0TQf1vLhRALG5HEqCWbyw7xOb5uWxTyOx1IpuCn5Ye5zXTKPu+68/M8PypHt4KmhPinlGdra2kK5XIbneahWq2g2mxiNRvCUN4VvZfkWnJ4cCc/Nc0TU2kDRaFS3bUAZTFTYyuUyCoUCgsEg2u02Li4ucHx8jJOTE+2dKhQKWF9fx9raGuLxuK7nZDJBr9dDp9PBdDrVBsBoNEK/30e320Wn00G73Ua/378y7M5RQ6Dy+TzK5TI2NjZQKBQAAI1GAycnJzg6OkKlUkG73UYoFMLa2hrW19e1csrhRHz7zDypxHP/cDiMXq+HWq2GarWKVquF+XyOlPIolctlrfSurq4iHA6j3W6jWq3qIY7hcFjvl81mtXHE+lCBzeVyWumEmGszGAzQarW0LPr9vpYNt9HrRaMmIubAQBgGNHZ3d3dRKBQwn8/RaDRwfn6uAztUKhX0+30kEglsbm5ifX1dG6ZQxtFoNEKv10O73cZ4PMZ8PsdsNsN4PNbt2uv1MBwOMRgMtAHuqHljNKLi8bg2pFhW3k+ocFO27GeXl5e6rNVqFQCwtraG7e1tXS8pY1d5iaShzfbNZrPwPA+9Xg/n5+e4vLxEv99HQBnua2tr2vNIOZLANW+IPeWl47WazWb1sLaoWoTUxFOGSjKZRKFQQF5572hEB9RQuq2tLWxsbCCfzyMSiaDf76NSqeD8/ByVSgXValW/OFldXcX+/j5KpZLu8xD9PZFIaGNydXUVpVIJyWQS4/FYv4TpdrvwPA/ZbFYbkJubm9qzGxZerHq9jtlshqTyfJZKJaTTaQTESAIYspMytVjuMp7Ps3tRsh4ii+We4ogx9XyzOBgM0Ol09PAdqajxouc1JR92EmdJI+lj8a7nX+Z41pNKHuVEJYC/uc0VY+wDyuChZ6BcLiMSiaDRaKBaraLT6cBR3ou1tTU8ePAApVIJs9kMlUpFKyWTyQSuCotcKpVQLpcRjUZ1RLN+v//GPTGgDJ50Oo21tTUkk0k9LKzf78N1XUSjUWxtbem31/P5HMfHxzg6OsLJyQkuLy/RbrcxmUz0W+H5fI7xeIzBYICZmo80mUz0W3fOORiPx1oxr1QqaDabeihPt9vVc1CCarjP3t4etra2kEwmtVJ4dHSE4+NjbYyMRiOExTwcenXosXCUYphMJlEqlZDL5RBU8ytc19Vyv7i4QLVaxXA41B4QGi/0VADA2dkZzs/PUavVrgwRS6VS8DxPl2miAgokEgmsqjk40WgUjUYDlUpFe+Qc5TEcjUZ6CFez2dRDuer1OhqNBkajEWJqPgcA9Pt9XFxc4OLiAoPBQCvT5XIZu7u7yOVy6HQ6eP36NV6/fq0NuEajgX6/DwBaUXYcBw01bIztN5vNMBwOMRwOtfEAAJeXlzg8PMTl5SXq9boua7vd1h4Wei8KhQLC4TBarZY+73Q6RSgUQjwex97eHp4+fYpMJqOH3Z2cnOD8/FwPeaOyHlXz6FKpFBzH0QYb71WJREJ7XONqWKWnDKFarYaLiwtUKhU0Gg2Mx2PdZ6LRqDbe/Ya6eYYyz+ua98eomquVUfN0pmpYKNvEPD4ej2NjYwMbGxuIxWKoVqs4PDxEo9FAMBjUL0C2trYQCoXQaDTw6tUrXFxc6PajN4leoHg8jr6aD0pvIa+hra0tZLNZzOdzbZg2lHFzcnKCSqWiX67whUokEkFGzVEaj8d6GC7vE47jIJFIIKaGmXY6HTQaDXjCS7m2toaCmkPEa5z3LMrRNKIslk8Bn9sFMYcIS+gCi1+XWCyWOw8f4jLxAS/hNvkfFVUzhVR0qLuS3rVM1x3POgcMjxl/u2qYFrfze1hFy+KN14THMUXU2i+cxwFAK4vNZlMPb4JqK5m3X3tKzLY12zkUCiGXy2FlZQUA0Gw2cXR0hLOzMzSbTfR6PdTrdZycnODw8BCvX7/G6emp9hg5aj5nq9XSRka329VKdkuFY5beCnq8KNNIJIJ8Pq+HyA2HQxwdHeHVq1faGOHb7aOjI7x+/RqXl5dwXRe5XA4bGxtXPDVUSoPKoxJUw4JqtRouLy9xcXGhvU5HR0e4uLjQQ7wymQxKpRI8z8PJyQlevnyJk5MTrVAeHx/j4uJCGyzpdBpRFYGL5zXbQ157ruui3++j0WhoY+v09BSnp6c4Pj6+Ive5mn8xHo/RbDbRarX08EAqo4FAANPpVHv0Tk5OtPHWarW00XV2dqbnfnAIJMvtui46nY6WD5VgAOh0OqhUKloGbA8q1bIvyfpCvGjhS5mdnR3k1by48/Nz/Pzzz7q+nC90cXGBly9f4ujoCN1uVyvbxWJRe0Tk+Rz1ctRTXsqzszO8fPlSz5U6Pz/H4eEhDg8PdZ/lcER6iZaBcm6ouU00UDicjPcDtgnbhx6sWCyGwWCAmpp/x3uFq4a/DQYDNBoNXFxc4OzsTBuIrVYLTTV3h9dWQA0ZpGeK/YtyoMwDgQBarRZOTk60McS2PD8/10NW6ckcjUb6vkMDmKHUeb2lVLAPXmvw6e/c5tc3LJb7ih0yZ7F8JjjKC0HvAudSyMT5EvxuplKp5JuY39skM6+bknn82+Rh5sfvZn3L5TLW19d1kvuuqgn70oAiVIqo8FNZpgFE4yagIlfxze7q6ipms5l+w91Qc4N43CIWKR08r/xNPKWwBVVI6biKwuW6rjbAPDVMCCrwQKVSwevXr3F4eIi6mJg/n88xnU71UCo552M6nephVxxuRWWa9UqoCFypVAqz2UwrslQeOQRvrOZRnZyc4NWrV2g2mwgGg/rYoAiFLetOhf/y8lIPP2I5Op2O9ljRm+E4DlqtllaipQeKQ9smKqhPRITsplz9Esvhquhsw+EQfTVcbjAYaPk4yuOyqoIaTCYT7SlsNBrayyQV9MPDQ/z44484OTnRQ94mkwmm06n2AA2HQ3S7Xe3ViUQiuq6eilzXV4Ey2DdY5sFggH6/j16vp/eZqflBjlLqqeD7ySEUCqGoAm54nqe9mtVqFQMVhXBmBMw4V0EZZrOZ9pSlVQQ6nkeem8dJr9h4PMZQBcyoqfl6UPPaYmqeVVCE6WY7Scz+1O12tXHpKM/J6uoqksmk3p99PxKJ6Lk4QTU8sKG8f5TNYDDA5eUlfvzxR7x48QJnZ2cYjUa6z41GI53YppRpSISGl/1sriIJDgYDPfSu3+/DU9ec2RdCoZA2uhkootvtotfroaG8lp1OB3MViS4uItTJtpDy8uO6e5jF8jGR96dlk//rTYvFci+gwjBXk6ez2Sy2trb0nIO9vT39fXd3V0/M5ufHSLc51232XTbt7OxgZ2dHy4Npf3//iny4bXd3Fw8ePMCDBw+0Z4KyplFEmVNZc9Wbcn5SIY2pQAtbW1tYUwEUqtUqTk9P9VAsP6h0SAV0GRzxxpZ9Y6bmiYyUx4YTvNfW1pBIJBBWk/MDItJcV00kZx0h5gLJc0mDEKrcUgbch0PQgiqCGxWyiQpWEFIT4ZnvaDTSXpDpdIqkCjcdDod9ZeIqg4jlnqj5G8yX5YIqY7fb1co6y8q8afwRU6Ysp0TKgX1DJk8MPcrn81citvV6PT3ksKsiozE/13XRbDZxfHyMly9f4vT09MoQqrAKVpBQIdejxgKrUlaUgywn5cIycj/KCsLIg6gnjSkSVeGgOVytpqKb0RCaqSAvzMdVSntLze+KqMADiUQCARXKeq6Gh/Jc9L70ej14yiih8eiqIYqj0QgzFSY+IDw5rDeuuaZYN3rjarUaZrOZfqFRLBavXP+OegGVV8E6JpMJGmqoIfs11IuGarWKo6Mj7bVh2Wj0RNT8P7Yh68xyc3/iqGh99XodtVoNg8FA7+8p45ffXXUP6Kt5fjQkoQwr7jNW88pcNdRa9oNFMrNYPiesQWSx3GP40BsMBmi32xgOh1qZ40M06DMsjkoRj5eJiotfMhU9Jio9ftvM7delRfvKvG6TeDzLzzpSdq7yltBgGKvITuPxGGM1J4THMj8zbyk3fneU8ZRSEclW1eT9TqeDs7MzPYTLNd66vy1sa+Yl6zhR4Yi7au5GLBbD1tYWnj17hidPnmBzcxN5FZGK3hBXRP5iXuwzPAf7EpVOiCFUslxU2mMq+hm9SVRepbIn85lMJuioAA7RaBQZFQXOVGwDypPCN+L0mrAsbD9Zn3a7rd+Ic1/myWPmxlo2soxSvvwuFVYeL/tDUK15RE9KIpHAbDbT852azSYmag4X28BVimqn07miyEbVejnZbBZFFQ6dczzi8fiVPuVXVvmd5/GE14j/yX3Zv2Qf4GdCraUUDocxm83QbrfRU+HKmaQ8pirIA71SAWWoR1XgBlkG9q9er6e9eSwD2w3KUzkTi8ayvDynZwzFM5H/z5QXt9PpIKjmn62pICPM11Wez3w+j5CKysghjHOxdhENrIaaPzWZTBBWwUDW1tb0/L7t7W2sGOsfuco4lgYeRD9ttVroiHXOPHEfYh+cqRciHLLIPsRr0/F5CUDkNSC5SZYWy33EGkQWyz2EDz8ohaap5oVwuNPx8bGet8DEeR5UyDkpuVKp6N/n5+cLE/PheHWZ/P4zz79sMvN+17yOj491EAHONeDE9KOjoyv7HR4e6v2Oj4/1215CZYifQTEcRyqMUKvRr6ysYGNjA5lMBhO1zgfnJ1B5o+Ik23RZqJhQYYIYtsK85vO5njjfbDbhOA7y+Ty2t7dxcHCAx48f4+DgALu7uyiXy3q+ganwyDJeV1YpA5YvpOZrsa7S0JLHcBvzpyIdUBHH+OZaIhVAadzI/6SBNFdhvAcqYAQNAhheMClHKQuWTW5j+5tJyoLGcblcRiaTwXw+R61Ww9nZGQaDwRWZyM+58pQkEgkUCgVsbGxgd3cXjx8/xvPnz/H111/jq6++wt7eHlZWVhCNRq/IyO+7Wf6bWLQv84lGo3pOy2QyuVIfykbiKA+HNF65X0gN82Niu3E4mVT+zT7PfHgOnl/m44e5nS8ROp0OPM/TxmdGLfAYVOtg5VSI+HA4jOFwqIczwuc68JQnNK8iLR4cHODRo0d4/Pgxnj59ip2dHeRU+Hgew74p+zgx5ce68oUX9/dUH6K3DuK6YKLxJeXO9mB5JPyfcvPbx2K5b9y5OUSe8UCwWCyLCahhTsPhUI8Pp3HDybtnamK3NIjeJlXUApQcg87x/By2wXTbbTclecz7SFW18GC1WtV14jaer16v67evNIjkW1qpLPC732/O3Umo0NlURGbKw8T7nFQozHvgdfdC89xyX5ZlPp+j1Wrh1atX+P7773F0dKSHMyXUgp0PHjzA06dP8dVXX+Hg4AClUgmpVEr3LwgF7aZ7tVkXKRNHDOOT+yyCSppUBAnP44k5HSyjuZ/c7qhhUfQA+smO9ZN1MZFy8ETIZj+5MHDAtlqHJqAigx0fH+Py8lLPOaGsmFjmpArrvL29jSdPnuDx48fY29vTxjY9M7JOZhn521Su5fmuQ/4v6xYQQ9x4XmnkmPnKMrnCGIVoK8qC+8+UV9Yst5mPmR+R55RlJzKvgFpsdazm3PR6PUTU+lh5tQZXMBjUIb7j8TjG4zHqap6aSTgc1sPu9vf38fTpU50Y+ZHBL8ZizSvuEMAnAAAfK0lEQVRHvOgw6+2o63ouPJxsVyLr6xrefbm/KUcT5illZ8pRfrdY7hLyOrgpWQ+RxXIP4UOMuGroF9NsNsNEhVFeJsnj/JJ88Ho+D1h5U5EP22W23ZTMm9a7JsprUeJ+rDfrJ/+Xn8zPE0oc22c6neo5D/F4HKlUCrFYTCs0cn8JyymVQhOpyPC3mQ8V1KkKHfzq1Su8ePEC3333Hb7//nucnJygq0IzJ5NJbG5u4vHjx3jw4AE2NzeRTCZ1HqwjMc9l/oZPuelRowHjV2bWSdaLcub/UuGX7cJtEvN4yo3b/LxOpkzNxP/4aZaXyVVDnnK5HNbW1pBX69Qw6EC9XtdztWQe0vOYUKG3Ob9ubW0N6XQaMzWHhB7NU7XGT1+F4IYxHA4+ygHPQaPQD8pKysj8zvNI+VCRl5i/2QZmfhByDIi5QH7I65OfshwSs/5+ebJMEzUniENN4/E48mrxVw7hTKiQ6W21vhQ9WJJAIIDV1VUcHBzgyZMn2NnZQTqd1vmfnp7i1atXePXqFer1us7DEZ5VykF+p8zN88l6s35SPuY+t0XmabYVv1ss9xFrEFks9xz5UDIf9HxQ3ZSodMiHmbkP83eFMUSDyTSw7noyjTvWzw9Zd/nbT35kroZl1VQ0uVarhVAohHK5fGVBUL9zmooalR65Tf4XUHMB5FAZ+b+jjK+JGgZ0eXmJ09NT/Pjjj/jDH/6AH374AT/99BOOj4/R6/WQzWaxvb2tvQ/SYJDl5Xe/Okg8MUTOUW+9OSzqJlgniMhaEspKyofngY9yyDaSbcZjpdzM32ZZZT7yXMyT11JALVa6vb2NUqmkjaFXr15peVM2RH4Ph8NYXV3Fw4cP8fjxY+RyOfT7fRwfH+OHH37A999/j++//x4//vgjzs7OdH6mnEz82tP8z4QyMf9nPaEMb08NDTNl64lrLSDmNlJW7OdSHuwv3N8PtoFZF/M3kftzH7NOnhqi1+l00FKh0Bk4Ip/P6zD2qVQKo9EIzWZTBwBhnR113SUSCTx48ACPHj3C2toaXNfF2dkZXrx4gR9++AE///yzDkPOIBMSs6xmX/cru8QR9wQp10XygU8efshyMK/r8rRY7jp3bsicxWK5PfLBfpt03TFUUGTiMZ8DN9V12eQJBZyKoasUu263i3q9rhdLZBTAjY2NKwECTOR22Vbm/p5Yq4bJ7xgqZzM174BhoKvVKl6/fo2ffvoJP/30E87Pz/Uk90wmoyeRSyVVys08FzHLL48PqKGELKu5v/xNZZmGtyPmbXE/tp9ZDll/s7x+bSiPkcdK5HXGT7Pu3OaphTE3NjawubmJTCaD6XSq10XqdDqYiSF7ErYZoxQyBPxkMsHh4SFevHiBE7WWTLPZRFeFFHcM49yszzKYZYFPPq7hsZurSfmz2UwPETPzYZ14bXgiLLxEytQTbUVDwcyX8pP15rmYBz9ZViZ5/cp8ue9wOERNrZHlui5isRhyuRxKpZL29jGYwlCFz2c+zDObzWJ1dRW5XA4AUFOLop6psOStVkvPPZorr7FZRwhZsGwy+eFXL2KWET593u9Y85zmsRbLXcO8Vq5L1kNksXwGSKXOMd5UL5Mkfg9CCf9/m/O8bZLnfB9J4gmlS94cr9vmlzyh+Lsiqlmj0cDPP/+Mk5MT9Pt95HI57OzsoFQq6eFzrKdnzJ1wVPhuKpgBQ4EMqTVD0um0zovH8jOgJqpHIhFEIhGtvLpqLs9oNMJwOES9Xsfx8TFqtRqgIocxkEHA6COuGG7GqGAQCpLsj55aeHSkQozzTXssFrtSXx7veR4ikQgymQxWVlYQDAYxGAzQ7XZ1hDF5Lp6DUD6mLCRsI/mfLC+hEQafIYOeCHjgiT7iiIhy29vb2N3d1UOkqtUqzs7OrsxNk/2csqahxIn7kUhEK+dnZ2e4vLzUQSECykOYTCaRyWR0m5lyhTFkUcpRenRcpdSzLtKYZbvLPKFCYjOCWjQaRaFQuDIHjddwUHkbWeZ4PI54PA5PRZEbDAaYGiHP4eMl9aub+Z/Znp4KhsAAEPSqEtm2/D1XLzW4zk8sFkOpVMLW1haKxSI8z0Oz2dQGjZkHw4nH43GEw2F0u109b5Gep4la74qy4DA5P2T+sr5SHpSvJ/okt3s+RpL8bmLut+j8/G3W32K5T1iDyGL5DKDCwc9lH07mQ9VM5n885mMns1yL0tvgvKNhByUT1xjuw9/j8RjtdhvHx8c4OzvDdDpFoVDAgwcP9NpELAPrMFdD3DxlHCSTSQSDwSuKoSPWQeEin6wP8wkEAkgkEiiVStjf39frKrG8LDuNpMFggPF4rIe0eUqJlAqazD8SiWjDCarOHJLoKG/AdDrFUC2eOZ1OEY/HsbKygnQ6rfdhO7N+oVAIa2oR4UgkosMGS4MIot/z3Gb5TBYp9Pwu+5wsF/ehTEwFnbA84XAYxWIR6+vryGazmE6nODk5wU8//YRms4mhWhyVfUR6LNiH5mJ9nlAohIFaFJeh9edi8V856T8Sieh281OuA8LwoaEcFmtRMV8oeThG3yRSziMVQns0GiGsoisyWiGEMUlDLJFI6JDh8XhcD08bDAZwlQElzym/s0xS9vwu28/cNxQKIZvNolQq6XXHNjY2dBll/XgcAPT7fT1HKBQKIZPJoFAoIJFIYDKZ6BDjUm6uMirD4TASiYR+WUE5TSYTHUDBUcZQOp3WXlkpW7PPcrv8Tsz+KOUgMY8zMfdftI1luCk/i+U+cOeGzDERc7tNNtn0ZpLKm/eerh8sUBT9ksT8720T87pNnu+KX15+2xYhFQQaS3M1n6her+Pk5ATn5+eYTqcol8vY29vTSj/f6ruui65aRd5xHKTTaZTLZT3Mjm+5M5kMtra2sL29/YZxwXM7Svnc29vDN998g2fPnmF7e1tHJpPKDCOhcWgPF441FWRXRTWkMpdMJpFOpxGJRLQhxe8htTDqYDDQ0fwAIJ/Pay8ZQ3xTgWdwB5aTnpXLy0s9R4VlprIoDRTZVvK3+Z+J3z4BI8KXeaxjKOaUZzqdxubmJkqlkvbuNBoNPZcsk8noMM4JtagqDUu2nauMSRqrnlLqY7EYwmqtGiijlGsR0TClESuNWdZjPp+j3+9jMBggGAwin8+jUCho44mf0ijhJ2Uj+3dAhdpmBMrhcIhcLoeHDx9qgzCsQnIHg0HE43Gsrq7qFwJzFQWx0WhgIBbKpeHm1y7yO/fhdm6jYUkCgQCKxSL29/fx9ddf4xe/+AX29/eRTqevGFz8ZD58ocHIjHEVNXKuvEf09MhyQJVFyozXC9da4jUfj8dRLBaxubmJQqGAoPCiMZmwjFIO8lz8T/ZP/sc+6orhffxPbpNtTmReEnM787PJpk+R/PrlMunNK81isVjUA5GK0W3gA/ddE/OCMazouvQhuC5/bncMT4e8EUMZRdPpFPV6HWdnZ6jVanAcBxsbG3jw4IFWhILBIGazGbrdLhqNBsbjMRKJBDY2NnBwcICdnR29kOPDhw+xu7uLlZUVeErhmhnhrD0VLS8QCGBlZQU7OzvY3d3F/v6+Dq2dyWT0ML6dnR3k83k9UXwwGOihXZ5SmKggMnpeJpO5MoyoVCphY2NDLz4aCAQwHo/RaDRQqVR0GGOG++Y5C4UCisUitre38fTpUz0Bvdls4vT0FM1mU5dBfjLJ31L2pjyI2cckZj6eWKvF/B8qD/aFcDiMtbU1rK+vI5PJaM9LNpvF+vo6NjY2sL29reUtv7NNQqEQAKDX66HVamGiQqSvrKxgc3MT6+vr2guzsbGBnZ0dxONxPUeM1xCNIRJQHqBer4dGo4HRaIRcLqfbjt6PQqGgw0EHFgSeIK4aelmv13F+fo7Ly0sAwPb2Nh49eoSdnR2Uy2Wd2Oe3trYQVkEmarWa7u/yHDznonMv2tc0TqDaKJPJoFgsolwuY3V1VRvylJPZFzx1/XCeULvdhqOMhH6/j06ng55agFbiiEAmbbUIMAD9cqNcLmNtbU3Lo1wua++eq4z7oHrxEVSeYbaplIX5KTHlIbcTWV/ZxnJ/7mOew/xtsdx3gv/yX/7LvzY3fmw89Tak2+3iV7/6FS4uLrSCYbFYPg3ygXoTAfUmncbBp0rSeHlf6br8HaEsRCIRFAoFPQyu1WpdWZtEytNTb/vlcBoOieL8HkdNqucb5VQqhWQyqY2OfD4PqOFKnU5HK3XdbhfValUPP3LUHJFoNKq9EJlMBplMBvl8HsViEWtra9jZ2UEymcR4PEalUtFGCCeLsw6OUsqi0aguH+dJZLNZ5HI5FItFhMNheGpuyHg8hismxvNYDp2Kx+MoFAool8vY3t5GoVDAfD7XCw6fnJxo7wFlR09DOp1Gv9/XcznoTZFw7sfKygrC4bCexyE9TgFl8AbVGjPFYhGxWAzNZhP1eh39fh+umlifz+exsrKCUCiEer2Oi4sLrczH43Hs7u7qqHI0pHgco5Txe6FQwMrKCgqFAiKRCKbT6RWPQ1yFa2fbxWIxFAoF5HI5rK6uolQqIRQK6SGJIbXeFQN6cHgek6OCVATVPCf2QbYfhyrGYjE99ysajep2DYVC2tvV6/W0Ak9jzPM83S8SiQTS6TSy2SxWVlawsrKCklqcNhwOo9ls4uLiQnuXZHtw7aVCoQAAqFQqqFar2tPCNuY1yLlLq6urCAQCaDabqFaruu+Fw2GUy2UUCgWk02kAQKvV0qHK/fQNR7zooGcvnU5jPp+jWq1qA3CsFmMlcxEcwVFeIXpl2e9TqRTK5TJWVlYQiUTQ7XbR7Xb18EUaXJxvFgwGtVGdTCbRbrdRqVTQbDbhKgOKdeD1USwWkU6n9cuYRqOhr0FPeJLD4TDy+TzW19cRiURweXmph/cGAgFEo1EUi0V9z+FabTQE5fUm28Zi+RQElD6ysrKCP/uzP0MmkwF8XniYBP/iL/7ikxtEfGh3Oh38+te/tgaRxXLP4MOVysOXlKgAhEIhpNNppFIpeJ6HRqOBWq2GwWBwRVYTFfqbQ5MAYDgc6mFMMxXGnLiui2g0img0ing8rodMzWYzNBoNHamKefV6PbTbbT3JXZaV91oq2NlsVqdQKIRer4daraYVrX6/f+XtNx80zAdi4UkO++IQuoGKZNfr9TAajRAMBjFXwwd5LBV8eqpoWI1GI61wnp2daaUPqq8F1VAjKpkMONDr9TBTC3hCPQCDYihePB7HdDpFtVpFo9HQdTM9KclkEslkEtFoVCt/o9EI4/EYYRUMIKOixnGR37GKEhaJRJDP55FWgRTGarFUTwyDYttT+Q0pL9JkMtEBCmTf8jxP7xtRQTYYbGEymVwpA5XwXq+nvXzMg/KbqTW2HGUsx2Ixbbjk83lks1m4rqu9G9wnrIa+tdttbUhIWU+nU0wmE7jK+OVxsl+kUinM53PUxaLLjNLGOjtqXk0sFtNG+sXFhW4zeU4SCoWQy+V0ND6+kGC7UOmPqOGco9EIrVYLl5eXV+pBeC9jn49EIjpaHA0iejyxwGNCudMICQQCV+oVjUYxnU61cTMcDnWd6KVtt9talrxmPc/Tsms2m7otSVANv00mkwiHw7qufGHAfkWDyFFDa3O5HDzPQ7Va1bKjQZROp5FIJDCdTtFoNFCv13W/Zt1lfn7ysFg+BrwWVlZW8I//8T9GOp3W95bruBMGES/MbrdrDSKL5Z7ypT4A+fB31DAZemy4/pBp3MxmM4zVhOrBYIBWq4VWq6WjqEG9YaZh1FYRrEZqQna73Uaz2cT5+TkuLi5QrVbR7XYxGAz0uinmvAYq5jS8mB8n6Y9GI70+EZVrvplmu1JRhWrryWSC4XCImQqJzXxYr0qlgkajgeFwCIgFUEejEUZqbhK9YnMVfGIwGKDdbuPk5AQnJydaWaZBJWXtKcNMeodYHippjvL8sLyDwQD1eh3ValUbTzTu5AOT5aFh1lWL13rK8J1OpxiPxzqvfr+PufIEUU4jtQ5VtVrVimuj0dCfVCr55r5er+t60PMyVQEpmPr9vv7s9/uoVqs4OTlBpVLRcmI9G2pRUfYDwmcr68D+KPtDr9fD5eUlarWabr+Zikg4GAy0QTlTwTPYRzyl/NMYHgwGGI1GmIlw7w21GOnR0RHq9TparZZ+ESD7WFANHx2rgBo0eNm2Ep7XUZ7Wdrut86bRG1DR+/g/69dsNvU1Sjnxkwo+jdz19XWkUiktH3qH/MpEuVDOE/UihPLtdDpoNBq4uLjA+fk5KpWKvh4GyijmSwn2K9d1MRqN0FZzmhqNBvr9PgJieLPsx44yjGu1Grrdru6nUs5Q8uO9qabWThuoiH/cl/c2ekx7KpCEKSuZp8XyKWBfpEG0rIfI+b//9/9+8l47n88RDAZxenqK//pf/yt+/etfw1FvmywWi+U+EFRzgKJq3gWVOamcE1dF0kokEgirCfLj8VjvP1cTwsMqNDC9GyE1HIp5D1VwA6g35HyDP1RD76Syyv/D4bD2rJBgMKgVWE+FyWYZWFap+FBBi0QiSKfTSCaT+iFEw4Eer6kaAgihJNKjBDWcLRqN6rLQGKFxM1Seg5CaV8P6UH6hUAgz5fGg4k1FLaC8MVD1j0ajCIVC2vgyDQWIdqSsRqPRlWcRPU6OMram06k+J6FHT8o/ELgamMBPYQwoL5GUP/tBMplERE3GZ7vQ+KGM6T0Kh8OYTCaYqrWBZNkgZBiLxZDJZHSfZRu6rqvnx8zU2kI8t+M42oCSefE4Gq6BQEB7/2KxmL4mJpMJRsrb5irDzFXD7gjrTK9YWHkBJyqUvR+eGqqXUEE6pByp1PP6ZPnmap7P1BhmaZYllUphZ2cHjx8/RjabxeXlJV6+fInj42OMRiOdlzyG/Yn9kH0ipobIyut4qjxrENdDMBjUsvKEp4p5BAIBbRibbQdlxCXVWmc0xtinTBw1rC8Wi+kysW3Yb6Nq6G5AzQmkoSxlxTIQ+Z/F8rHgy7eDgwP8u3/377C5uamvoetw/s//+T9vXh0fGWkQ/c3f/I02iCZqrLDFYvmyMR/2cpvcvuw2ud1vm9x+0zY/Ft23qIxI5YnKmvxfwv+p0ElFy/WJpkWolPE/mU9AGQqynGZeplxc5W0KqrkKfMDwzTSMenkLJrfDqDONOM8wHOXxcjuRDzjXiJjFepgyY1mYtx/cV8qO9Zb/S2RZ5fHy+zKwPhPhmSM01CgraTCx/jxenpv7LiKkhuvJNpCJBgXrL89JFtXPUaGnA0qpnqvw4syDmHUli9piEbLeENeA3Ga2iSyLKTNPGeLFYhFPnjzBxsYGXNfF4eEhXr58iZoKjmL2Jb8yyvOyPuZ+npiHyd+ybDwP24LXrKwj8/bLR57Puaa/yOvO/J+f8LmP8T5hsXxKpEH0b//tv13aILr+X4vFYrFciysWZzWRiggVDXM//icVDSqoplIzV16QmRrqZWIqPlIBkvvwLbBM5lvyRbjCC8C8pCeCiUqVH7LO8nh6EGSZqHRJZZr58xz8j/vJ+vM/ls+vDSQsG/dZVAcTPmx5/LLHSVg22fZMrnpjP1FzdODTd3i8lBX3lXnJfjVXERDpKaE3QebL/Ra1q2wL+Z+jjKCpGvrHfLnvouPk8SwD+9t1yP/9yinhObkP83eFpy2RSCCfz2NtbU0HYuAQTc47ojxvgueR9Zf/yf8J5cPkGIYpDBkRWRd5LtkHJGaZZHnM/13RnwhlwGvQYrmP3HwVWywWyx2GD2j53W/bbfA73m+bCRUQqYzKZCoaZBmFCip/qeyaSIXHTBJ6Gsx9ZFn9oOLDuhBZZ7ndzN8sD+vip2zL/eR2sx1Mxc3vPHK7X/nM33K7uQ/r6Akvgt/xEP1BHiOP9esfZp1MKGuzjcyyy/LJ8kMo03yTyiSP53kW1d3E3Cb7iVnvRXmYmPIxkXnQiFz0m5jlIa4y9JPJJFZXV7GxsaFD1G9tbSGdTmOsIjDW63VMJhMElFcNPucz28NsA4n5v6yv33+yXa7L97bIuphlN8tgth/La263WO4Lb94tLBaL5Y7hpxD5beN2E799l93G7SaL9iV+/5kKhqloEObtl6RiOV/wRtYvb1Oh8UuLkP+xDGbefue8idvsv2g/VwyXYznN8iw6liyzjykrnsv87Yd5HPf1U86vk6vjs7bQorIvU3fKjvtI+d0Gxxh+xe/8XNRPTUx5+CUYLxC8JYbCmHn4JUdFZeP6Sc+fP8eTJ0+wu7uLbDaL+XyO8/NznJ6e6iiAftCYeBtuOk7KYJFMzXqZ6SY8YzjkIsy+s0zeFstdJmBeLJ8ywV5UFovFcmtuUqQs13PXnjvXKfifqqyLzisNL9Ow+lB8iPw9FVqbQUKSao0mR0VqOzk5wdHRETqdzhuy+BDl+VR8TnWxfNmYNsZNafFd12KxWCwfhZs8DEQqnaYRZCql5nbL3+Mnp7siH9ODdJ+RdXlf8jXzMX/Lc942QUVIbLfbqNVqOD8/x/HxMQ4PD3F4eIhXr17poXKuGN7IY+8776suZptYLPcFaxBZLBaLxWL5oCyjKJuG6sfEdV30ej2cn5/j5cuXePHiBV68eIGjoyO9ODBDhNMY8sRiuxaL5X5zp4bMeQtc8haLxWL5//lUSqPF8qGQnju//u23DWr7+9AfHLXUR7vdRqVSwcXFBS4vL/XCucPh8A2PEoMqmOm+wPK+D8+QxXKX4HVoXpvXJftaw2KxWCwWy7WYBssiw+U6zGPNfKRB4ff/IuRxbwvzMM81m80AMa9LnsdUqN5HOSSmDMy0zD5mkrzP8vrlb7HcJ6xBZLFYLBaLxfIRjByLxXI3ubND5uR3i8VisVgsFovFYlkW08a4LlkPkcVisVgsFovFYvlisQaRxWKxWCwWi8Vi+WK5c0PmPDtUzmKxWCwWi8Visbwlpm1xU7IeIovFYrFYLBaLxfLFYg0ii8VisVgsFovF8sVy54bMwUaYs1gsFovFYrFYLO+IaWcsStZDZLFYLBaLxWKxWL5YrEFksVgsFovFYrFYvliC/+Jf/Iu/Njd+bFzXheM46Ha7+M1vfoNKpQLHceC6rrmrxWKxWCwWi8VisbyB4zgAgJWVFfyjf/SPkE6n4Xme3r4I6yGyWCwWi8VisVgsXyzWILJYLBaLxWKxWCxfLNYgslgsFovFYrFYLF8sdzLstsVisVgsFovFYrG8DaZ9cVOyHiKLxWKxWCwWi8XyxXKnPEQmftssFovFYrFYLBaL5TqkfWHaHGayHiKLxWKxWCwWi8XyxWINIovFYrFYLBaLxfLFcucNokDgzhfRYrFYLBaLxWKx3FPu1BwiJpPbGkVmfmZaFvO465LFYrFYLBaLxWJ5dwKBwLVp0b6e58F1XUDo8fP5HK7r6t+u677x+3aWhsVisVgsFovFYrHcM6QBNJ/Przg0rEFksVgsFovFYrFYPiv8RnA5juP7350bMkf43dxusVgsFovFYrFYPl/kkDa/JJHbafAAwHw+B1Res9kMnvIO8VMOpQv+83/+z/9a5PlJ8DwPgUAAvV4Pv/3tb3F5eQmoCsiKvS/uS57XYXaG+87Hlp/FYvky+dzunRaL5cPzMXUUe4/6e5aROQ0g7iu/r6ys4Je//CUymYyWaSAQgOM42u4IBoM6L+d//+///cklP5/PEQwGcX5+jr/927/F7373OziOg+l0qidI4RadxG8/CoDC8tvHj2X2W6bR3heej2VssVgsnxPyofYuXHevvO4/i8ViMZFK94fA6ndvsqys5X6O48B1XTx69Ah/8Rd/ge3tbe0pCoVCgDCkPBVwwXEcOP/rf/2vTy59aRD9t//2394wiHDLh9dN+y4r4JvykSyb520w85TlYWPeV+57+S0Wy4fjfd0fzHv4+8jTYrF82fA+Yt5fboPM433k9zlym/u1aRDN53NtEG1ubmI+n1/xDtEICgQCesjcnTSIfvvb3+oKsfBmp+F2P+R2cz/nmjePZn7m70Vcl9+i//zg+fhpHrtseSwWi+Vz4bp7tsTv/ui3DT73VovFYrkJUzfz1LCr6/C7B/nps+Z3y+3u09yXz4v5fI6DgwP8q3/1r64YRMR1XW0ggbK/CwYRO0GlUsF//+//Hd999x0c5fJa1Jmuw+y0fsj/FuW3aLvJdecJBALasLsJeT7Puk4tFssXjOd5CAaDCAaDek2J6zDvl+Zvi8VieZ8Eg8Eb7zO30eWW3e9LYhndGYZBRLa2tvDP/tk/Q6lU0o4XCY0icqcMosFggOPjY7TbbeCaBVmXMWYk8mG6KM8PgV8DWCwWi+X28D7u95bPj0XPhmUfsBaLxbIIq9/dLegZkt9TqRR2d3f1vCHHGDHGNtTH/c//+T/9nxqfAM/zMJlMdHQ5FlJW4LYPM7+H4m3zuA4ac37QMxQKhZZ6w4kF5bVYLJYvDUcNe4B6E3tbFt1LF223WCyWZXDUCCbc8t4k7z1+uqO9N72JKaObkPsHg0GEQiEtVxpE0raQ+98pgwhv0SFuEpZffjcdcxtMgUpkIyyLX3ktFovlS4MPL36/LfZearFYPjS3uTfZe9KH5zbtYeL8j//xP+5UC71Nh1kkgGXyWnQsWSYPLMjnbR7my57PYrFYPmfexSCy91GLxfIxuM29yd6XPiy3aQs/7pxBJLlN53lXQVgsFovFYrFYLJYvj/8Px2JZ+1iIH60AAAAASUVORK5CYII=;" vertex="1" parent="1">
          <mxGeometry x="-370" y="-305" width="886.96" height="557" as="geometry" />
        </mxCell>
      </root>
    </mxGraphModel>
  </diagram>
</mxfile>
